<svg xmlns="http://www.w3.org/2000/svg" version="1.1" xlink="http://www.w3.org/1999/xlink" xmlns:svgjs="http://svgjs.com/svgjs" width="291.96395465122725" height="147"><defs id="SvgjsDefs1127"><linearGradient id="SvgjsLinearGradientyfaDT3NfdF" gradientUnits="userSpaceOnUse" x1="404.6527264907823" y1="-57.34727350921764" x2="57.3472735092177" y2="289.95817947234707"><stop id="SvgjsStop1130" stop-color="#f44b4b" offset="0"/><stop id="SvgjsStop1131" stop-color="#b40b0b" offset="1"/></linearGradient></defs><g id="SvgjsG1128" transform="scale(0.6319566117991932)" opacity="1"><g id="SvgjsG1132" class="0-an2IPGg" transform="translate(0, 0) scale(1)" light-content="false" fill="url(#SvgjsLinearGradientyfaDT3NfdF)"><path d="M0 0 h 461.99999999999994 v 232.61090596312943 h -461.99999999999994 Z"/></g><g id="SvgjsG1133" class="text" transform="translate(199.2143240294207, 197.82479539868095) scale(1)" light-content="true" fill="#ffffff"><path d="M-165.42 -6.1C-165.42 -5.24 -165.27 -4.43 -164.97 -3.66C-164.67 -2.9 -164.25 -2.23 -163.7 -1.65C-163.16 -1.08 -162.51 -0.62 -161.75 -0.28C-160.99 0.06 -160.15 0.23 -159.23 0.23C-158.63 0.23 -158.05 0.16 -157.5 0C-156.95 -0.16 -156.45 -0.36 -156 -0.63C-155.55 -0.89 -155.16 -1.21 -154.82 -1.58C-154.49 -1.95 -154.23 -2.37 -154.05 -2.82L-156.05 -3.42C-156.14 -3.16 -156.29 -2.91 -156.51 -2.69C-156.73 -2.46 -156.98 -2.26 -157.27 -2.09C-157.56 -1.92 -157.87 -1.79 -158.22 -1.69C-158.57 -1.59 -158.92 -1.54 -159.28 -1.54C-159.84 -1.54 -160.36 -1.65 -160.85 -1.88C-161.34 -2.12 -161.77 -2.44 -162.13 -2.85C-162.5 -3.26 -162.79 -3.75 -163 -4.3C-163.22 -4.86 -163.33 -5.46 -163.33 -6.1C-163.33 -6.75 -163.23 -7.35 -163.02 -7.89C-162.81 -8.43 -162.52 -8.9 -162.17 -9.31C-161.81 -9.71 -161.38 -10.03 -160.89 -10.25C-160.39 -10.48 -159.86 -10.59 -159.3 -10.59C-158.62 -10.59 -158 -10.43 -157.44 -10.11C-156.88 -9.79 -156.45 -9.35 -156.14 -8.77L-154.14 -9.4C-154.59 -10.3 -155.25 -11.02 -156.13 -11.55C-157 -12.09 -158.05 -12.36 -159.26 -12.36C-160.19 -12.36 -161.03 -12.19 -161.78 -11.86C-162.53 -11.52 -163.18 -11.07 -163.73 -10.51C-164.27 -9.94 -164.69 -9.28 -164.98 -8.52C-165.28 -7.76 -165.42 -6.95 -165.42 -6.1Z M-148.6 0.23C-147.65 0.23 -146.77 0.04 -145.94 -0.34C-145.11 -0.72 -144.42 -1.27 -143.88 -2L-143.83 -1.14C-143.78 -0.8 -143.64 -0.51 -143.4 -0.27C-143.16 -0.03 -142.84 0.09 -142.43 0.09C-142.28 0.09 -142.13 0.09 -141.99 0.07C-141.85 0.05 -141.67 0.03 -141.46 0L-141.46 -1.77C-141.89 -1.78 -142.11 -2.03 -142.11 -2.51L-142.11 -7.47C-142.11 -9.02 -142.55 -10.22 -143.45 -11.08C-144.34 -11.93 -145.58 -12.36 -147.18 -12.36C-148.76 -12.36 -150.34 -11.83 -151.9 -10.77L-151.23 -9.45C-149.88 -10.39 -148.59 -10.87 -147.37 -10.87C-146.34 -10.87 -145.55 -10.58 -144.99 -10.02C-144.43 -9.45 -144.16 -8.67 -144.16 -7.68L-144.16 -6.7C-144.62 -6.89 -145.16 -7.04 -145.76 -7.14C-146.37 -7.25 -146.96 -7.31 -147.55 -7.31C-148.3 -7.31 -148.98 -7.21 -149.61 -7.03C-150.24 -6.84 -150.78 -6.59 -151.24 -6.26C-151.7 -5.93 -152.05 -5.54 -152.3 -5.08C-152.55 -4.63 -152.67 -4.12 -152.67 -3.56C-152.67 -3.02 -152.57 -2.52 -152.36 -2.06C-152.15 -1.6 -151.86 -1.2 -151.5 -0.86C-151.13 -0.52 -150.7 -0.25 -150.21 -0.06C-149.71 0.14 -149.17 0.23 -148.6 0.23ZM-148.07 -1.3C-148.44 -1.3 -148.79 -1.37 -149.11 -1.49C-149.44 -1.61 -149.72 -1.78 -149.96 -2C-150.2 -2.22 -150.39 -2.47 -150.52 -2.77C-150.65 -3.06 -150.72 -3.38 -150.72 -3.72C-150.72 -4.42 -150.4 -4.99 -149.75 -5.42C-149.11 -5.86 -148.27 -6.07 -147.25 -6.07C-146.18 -6.07 -145.15 -5.88 -144.16 -5.49L-144.16 -3.7C-144.16 -3.39 -144.3 -3.09 -144.6 -2.79C-144.92 -2.34 -145.4 -1.98 -146.03 -1.71C-146.66 -1.44 -147.34 -1.3 -148.07 -1.3Z M-132.29 0.23C-131.48 0.23 -130.74 0.07 -130.08 -0.27C-129.41 -0.6 -128.84 -1.05 -128.36 -1.62C-127.87 -2.18 -127.5 -2.85 -127.24 -3.62C-126.97 -4.39 -126.84 -5.2 -126.84 -6.07C-126.84 -6.9 -126.99 -7.69 -127.27 -8.45C-127.56 -9.21 -127.96 -9.88 -128.47 -10.46C-128.98 -11.04 -129.59 -11.5 -130.29 -11.84C-130.99 -12.19 -131.75 -12.36 -132.59 -12.36C-133.52 -12.36 -134.37 -12.13 -135.14 -11.67C-135.91 -11.21 -136.53 -10.61 -137.01 -9.87L-137.01 -12.15L-138.83 -12.15L-138.83 4.96L-136.78 4.96L-136.78 -2.4C-136.33 -1.64 -135.72 -1.01 -134.95 -0.51C-134.18 -0.02 -133.3 0.23 -132.29 0.23ZM-132.92 -1.54C-133.34 -1.54 -133.74 -1.61 -134.13 -1.76C-134.51 -1.9 -134.88 -2.11 -135.22 -2.36C-135.56 -2.62 -135.86 -2.92 -136.13 -3.27C-136.39 -3.62 -136.61 -3.99 -136.78 -4.4L-136.78 -7.87C-136.7 -8.24 -136.53 -8.59 -136.28 -8.92C-136.02 -9.26 -135.72 -9.54 -135.37 -9.78C-135.02 -10.03 -134.65 -10.22 -134.25 -10.37C-133.86 -10.51 -133.47 -10.59 -133.1 -10.59C-132.51 -10.59 -131.97 -10.47 -131.46 -10.23C-130.96 -9.99 -130.52 -9.66 -130.15 -9.25C-129.78 -8.84 -129.48 -8.36 -129.26 -7.81C-129.05 -7.26 -128.94 -6.68 -128.94 -6.07C-128.94 -5.5 -129.03 -4.94 -129.22 -4.4C-129.4 -3.86 -129.67 -3.37 -130.02 -2.94C-130.37 -2.52 -130.79 -2.18 -131.28 -1.92C-131.76 -1.66 -132.31 -1.54 -132.92 -1.54Z M-118.23 -0.61L-118.72 -2.23C-118.85 -2.16 -119.07 -2.05 -119.41 -1.92C-119.74 -1.79 -120.11 -1.72 -120.51 -1.72C-120.87 -1.72 -121.18 -1.82 -121.44 -2.02C-121.71 -2.23 -121.86 -2.55 -121.89 -3L-121.89 -10.54L-119.16 -10.54L-119.16 -12.15L-121.89 -12.15L-121.89 -16.2L-123.93 -16.2L-123.93 -12.15L-125.59 -12.15L-125.59 -10.54L-123.93 -10.54L-123.93 -2.37C-123.93 -1.5 -123.66 -0.86 -123.12 -0.45C-122.58 -0.04 -121.93 0.16 -121.19 0.16C-120.86 0.16 -120.55 0.14 -120.25 0.08C-119.94 0.03 -119.66 -0.04 -119.41 -0.13C-119.15 -0.21 -118.92 -0.3 -118.72 -0.38C-118.52 -0.47 -118.36 -0.54 -118.23 -0.61Z M-112.58 0.23C-111.52 0.23 -110.55 -0.01 -109.67 -0.5C-108.79 -0.99 -108.07 -1.69 -107.53 -2.61L-107.48 -1.19C-107.47 -0.83 -107.32 -0.53 -107.05 -0.29C-106.78 -0.05 -106.44 0.07 -106.04 0.07C-105.92 0.07 -105.79 0.07 -105.66 0.06C-105.52 0.05 -105.34 0.03 -105.11 0L-105.11 -1.77C-105.54 -1.78 -105.76 -2.03 -105.76 -2.51L-105.76 -12.15L-107.81 -12.15L-107.81 -4.54C-108.17 -3.61 -108.71 -2.87 -109.45 -2.34C-110.19 -1.8 -110.97 -1.54 -111.81 -1.54C-113.53 -1.54 -114.39 -2.78 -114.39 -5.26L-114.39 -12.15L-116.44 -12.15L-116.44 -4.86C-116.44 -3.17 -116.12 -1.9 -115.46 -1.05C-114.81 -0.19 -113.85 0.23 -112.58 0.23Z M-95.92 -10.36L-95.92 -12.22C-96 -12.23 -96.09 -12.24 -96.2 -12.24L-96.59 -12.24C-97.37 -12.18 -98.1 -11.89 -98.78 -11.37C-99.46 -10.85 -100.01 -10.17 -100.43 -9.33L-100.43 -12.15L-102.34 -12.15L-102.34 0L-100.29 0L-100.29 -7.49C-99.97 -8.38 -99.41 -9.07 -98.63 -9.56C-97.85 -10.06 -96.94 -10.32 -95.92 -10.36Z M-88.8 0.23C-88.19 0.23 -87.61 0.16 -87.05 0C-86.49 -0.16 -85.99 -0.37 -85.53 -0.64C-85.07 -0.91 -84.67 -1.23 -84.32 -1.61C-83.97 -1.98 -83.69 -2.39 -83.49 -2.84L-85.26 -3.33C-85.38 -3.02 -85.57 -2.74 -85.81 -2.49C-86.05 -2.24 -86.32 -2.03 -86.63 -1.86C-86.94 -1.69 -87.28 -1.56 -87.63 -1.45C-87.99 -1.35 -88.36 -1.3 -88.73 -1.3C-89.25 -1.3 -89.76 -1.4 -90.23 -1.61C-90.7 -1.81 -91.12 -2.09 -91.5 -2.44C-91.87 -2.8 -92.17 -3.23 -92.4 -3.72C-92.64 -4.22 -92.78 -4.77 -92.82 -5.38L-82.75 -5.38C-82.73 -5.45 -82.72 -5.56 -82.71 -5.7C-82.7 -5.84 -82.7 -6 -82.7 -6.17C-82.7 -6.97 -82.84 -7.75 -83.13 -8.51C-83.42 -9.26 -83.83 -9.92 -84.35 -10.48C-84.88 -11.05 -85.52 -11.5 -86.27 -11.84C-87.02 -12.19 -87.86 -12.36 -88.77 -12.36C-89.69 -12.36 -90.53 -12.19 -91.29 -11.86C-92.05 -11.52 -92.7 -11.07 -93.25 -10.49C-93.8 -9.92 -94.23 -9.25 -94.53 -8.49C-94.84 -7.73 -94.99 -6.93 -94.99 -6.07C-94.99 -5.22 -94.84 -4.41 -94.53 -3.64C-94.23 -2.87 -93.81 -2.2 -93.26 -1.63C-92.72 -1.05 -92.07 -0.6 -91.31 -0.27C-90.55 0.07 -89.71 0.23 -88.8 0.23ZM-84.63 -6.89L-92.87 -6.89C-92.82 -7.46 -92.69 -7.99 -92.46 -8.47C-92.24 -8.95 -91.94 -9.37 -91.58 -9.72C-91.21 -10.06 -90.79 -10.34 -90.31 -10.53C-89.83 -10.72 -89.32 -10.82 -88.77 -10.82C-88.23 -10.82 -87.72 -10.72 -87.24 -10.53C-86.76 -10.34 -86.33 -10.07 -85.97 -9.73C-85.61 -9.39 -85.3 -8.97 -85.06 -8.48C-84.82 -7.99 -84.68 -7.46 -84.63 -6.89Z M-74.6 3.3L-74.6 5.12C-74.39 5.17 -74.2 5.2 -74.06 5.21C-73.91 5.23 -73.76 5.24 -73.63 5.24C-72.74 5.24 -72.05 5.03 -71.54 4.62C-71.04 4.21 -70.68 3.73 -70.46 3.19L-64.55 -12.15L-66.5 -12.15L-70.27 -1.84L-74.42 -12.15L-76.53 -12.15L-71.39 0C-71.67 0.71 -71.9 1.29 -72.09 1.73C-72.28 2.18 -72.44 2.52 -72.59 2.77C-72.74 3.02 -72.88 3.18 -73.03 3.27C-73.18 3.35 -73.35 3.4 -73.53 3.4C-73.64 3.4 -73.8 3.39 -74 3.37C-74.2 3.36 -74.4 3.34 -74.6 3.3Z M-57.62 0.23C-56.7 0.23 -55.87 0.06 -55.11 -0.28C-54.36 -0.62 -53.71 -1.08 -53.17 -1.65C-52.63 -2.23 -52.21 -2.89 -51.91 -3.65C-51.62 -4.41 -51.47 -5.21 -51.47 -6.05C-51.47 -6.9 -51.62 -7.71 -51.93 -8.47C-52.23 -9.23 -52.65 -9.9 -53.18 -10.47C-53.72 -11.05 -54.37 -11.5 -55.13 -11.84C-55.89 -12.19 -56.72 -12.36 -57.62 -12.36C-58.52 -12.36 -59.34 -12.19 -60.09 -11.84C-60.85 -11.5 -61.49 -11.05 -62.03 -10.47C-62.56 -9.9 -62.98 -9.23 -63.28 -8.47C-63.58 -7.71 -63.74 -6.9 -63.74 -6.05C-63.74 -5.21 -63.59 -4.41 -63.29 -3.65C-63 -2.89 -62.58 -2.23 -62.05 -1.65C-61.51 -1.08 -60.87 -0.62 -60.12 -0.28C-59.36 0.06 -58.53 0.23 -57.62 0.23ZM-61.64 -6.03C-61.64 -6.66 -61.54 -7.26 -61.33 -7.81C-61.12 -8.36 -60.83 -8.84 -60.47 -9.25C-60.1 -9.66 -59.68 -9.99 -59.19 -10.23C-58.7 -10.47 -58.17 -10.59 -57.62 -10.59C-57.06 -10.59 -56.53 -10.47 -56.05 -10.24C-55.56 -10.01 -55.13 -9.68 -54.75 -9.27C-54.38 -8.86 -54.09 -8.38 -53.88 -7.83C-53.67 -7.28 -53.57 -6.69 -53.57 -6.07C-53.57 -5.44 -53.67 -4.84 -53.88 -4.29C-54.09 -3.74 -54.38 -3.26 -54.75 -2.85C-55.13 -2.44 -55.56 -2.12 -56.05 -1.88C-56.53 -1.65 -57.06 -1.54 -57.62 -1.54C-58.17 -1.54 -58.7 -1.65 -59.19 -1.88C-59.68 -2.12 -60.1 -2.44 -60.47 -2.84C-60.83 -3.24 -61.12 -3.72 -61.33 -4.26C-61.54 -4.8 -61.64 -5.39 -61.64 -6.03Z M-45.24 0.23C-44.18 0.23 -43.21 -0.01 -42.33 -0.5C-41.44 -0.99 -40.73 -1.69 -40.19 -2.61L-40.14 -1.19C-40.12 -0.83 -39.98 -0.53 -39.71 -0.29C-39.44 -0.05 -39.1 0.07 -38.7 0.07C-38.57 0.07 -38.45 0.07 -38.31 0.06C-38.18 0.05 -38 0.03 -37.77 0L-37.77 -1.77C-38.2 -1.78 -38.42 -2.03 -38.42 -2.51L-38.42 -12.15L-40.47 -12.15L-40.47 -4.54C-40.82 -3.61 -41.37 -2.87 -42.11 -2.34C-42.84 -1.8 -43.63 -1.54 -44.47 -1.54C-46.19 -1.54 -47.05 -2.78 -47.05 -5.26L-47.05 -12.15L-49.1 -12.15L-49.1 -4.86C-49.1 -3.17 -48.77 -1.9 -48.12 -1.05C-47.47 -0.19 -46.51 0.23 -45.24 0.23Z M-28.58 -10.36L-28.58 -12.22C-28.65 -12.23 -28.75 -12.24 -28.85 -12.24L-29.25 -12.24C-30.03 -12.18 -30.75 -11.89 -31.44 -11.37C-32.12 -10.85 -32.67 -10.17 -33.09 -9.33L-33.09 -12.15L-35 -12.15L-35 0L-32.95 0L-32.95 -7.49C-32.62 -8.38 -32.07 -9.07 -31.29 -9.56C-30.5 -10.06 -29.6 -10.32 -28.58 -10.36Z M-14.66 0.23C-13.85 0.23 -13.12 0.07 -12.45 -0.27C-11.78 -0.6 -11.21 -1.05 -10.73 -1.62C-10.25 -2.18 -9.87 -2.85 -9.61 -3.62C-9.35 -4.39 -9.21 -5.2 -9.21 -6.07C-9.21 -6.9 -9.36 -7.69 -9.65 -8.45C-9.93 -9.21 -10.33 -9.88 -10.84 -10.46C-11.36 -11.04 -11.96 -11.5 -12.66 -11.84C-13.36 -12.19 -14.12 -12.36 -14.96 -12.36C-15.89 -12.36 -16.74 -12.13 -17.51 -11.67C-18.28 -11.21 -18.9 -10.61 -19.38 -9.87L-19.38 -12.15L-21.2 -12.15L-21.2 4.96L-19.15 4.96L-19.15 -2.4C-18.7 -1.64 -18.09 -1.01 -17.32 -0.51C-16.56 -0.02 -15.67 0.23 -14.66 0.23ZM-15.29 -1.54C-15.71 -1.54 -16.11 -1.61 -16.5 -1.76C-16.89 -1.9 -17.25 -2.11 -17.59 -2.36C-17.93 -2.62 -18.24 -2.92 -18.5 -3.27C-18.76 -3.62 -18.98 -3.99 -19.15 -4.4L-19.15 -7.87C-19.07 -8.24 -18.91 -8.59 -18.65 -8.92C-18.39 -9.26 -18.09 -9.54 -17.74 -9.78C-17.39 -10.03 -17.02 -10.22 -16.63 -10.37C-16.23 -10.51 -15.85 -10.59 -15.47 -10.59C-14.88 -10.59 -14.34 -10.47 -13.83 -10.23C-13.33 -9.99 -12.89 -9.66 -12.52 -9.25C-12.15 -8.84 -11.85 -8.36 -11.63 -7.81C-11.42 -7.26 -11.31 -6.68 -11.31 -6.07C-11.31 -5.5 -11.4 -4.94 -11.59 -4.4C-11.77 -3.86 -12.04 -3.37 -12.39 -2.94C-12.74 -2.52 -13.16 -2.18 -13.65 -1.92C-14.14 -1.66 -14.68 -1.54 -15.29 -1.54Z M-1.33 0.23C-0.72 0.23 -0.14 0.16 0.42 0C0.98 -0.16 1.49 -0.37 1.94 -0.64C2.4 -0.91 2.8 -1.23 3.15 -1.61C3.5 -1.98 3.78 -2.39 3.98 -2.84L2.21 -3.33C2.09 -3.02 1.9 -2.74 1.66 -2.49C1.42 -2.24 1.15 -2.03 0.84 -1.86C0.53 -1.69 0.19 -1.56 -0.16 -1.45C-0.52 -1.35 -0.88 -1.3 -1.26 -1.3C-1.78 -1.3 -2.28 -1.4 -2.76 -1.61C-3.23 -1.81 -3.65 -2.09 -4.03 -2.44C-4.4 -2.8 -4.7 -3.23 -4.93 -3.72C-5.17 -4.22 -5.31 -4.77 -5.35 -5.38L4.72 -5.38C4.74 -5.45 4.75 -5.56 4.76 -5.7C4.77 -5.84 4.77 -6 4.77 -6.17C4.77 -6.97 4.63 -7.75 4.34 -8.51C4.05 -9.26 3.65 -9.92 3.12 -10.48C2.59 -11.05 1.95 -11.5 1.2 -11.84C0.45 -12.19 -0.39 -12.36 -1.3 -12.36C-2.22 -12.36 -3.06 -12.19 -3.82 -11.86C-4.58 -11.52 -5.23 -11.07 -5.78 -10.49C-6.33 -9.92 -6.76 -9.25 -7.06 -8.49C-7.36 -7.73 -7.52 -6.93 -7.52 -6.07C-7.52 -5.22 -7.36 -4.41 -7.06 -3.64C-6.76 -2.87 -6.34 -2.2 -5.79 -1.63C-5.25 -1.05 -4.6 -0.6 -3.84 -0.27C-3.08 0.07 -2.24 0.23 -1.33 0.23ZM2.84 -6.89L-5.4 -6.89C-5.35 -7.46 -5.22 -7.99 -4.99 -8.47C-4.77 -8.95 -4.47 -9.37 -4.11 -9.72C-3.74 -10.06 -3.32 -10.34 -2.84 -10.53C-2.36 -10.72 -1.85 -10.82 -1.3 -10.82C-0.76 -10.82 -0.25 -10.72 0.23 -10.53C0.71 -10.34 1.14 -10.07 1.5 -9.73C1.87 -9.39 2.17 -8.97 2.41 -8.48C2.65 -7.99 2.79 -7.46 2.84 -6.89Z M13.47 -10.36L13.47 -12.22C13.4 -12.23 13.3 -12.24 13.19 -12.24L12.8 -12.24C12.02 -12.18 11.29 -11.89 10.61 -11.37C9.93 -10.85 9.38 -10.17 8.96 -9.33L8.96 -12.15L7.05 -12.15L7.05 0L9.1 0L9.1 -7.49C9.42 -8.38 9.98 -9.07 10.76 -9.56C11.55 -10.06 12.45 -10.32 13.47 -10.36Z M16.15 0L18.2 0L18.2 -10.54L21.43 -10.54L21.43 -12.15L18.2 -12.15L18.2 -12.47C18.2 -13.45 18.38 -14.19 18.73 -14.71C19.09 -15.22 19.61 -15.47 20.29 -15.47C20.6 -15.47 20.92 -15.43 21.23 -15.33C21.55 -15.24 21.82 -15.12 22.04 -14.96L22.55 -16.47C22.18 -16.71 21.76 -16.89 21.29 -17.02C20.83 -17.15 20.35 -17.22 19.87 -17.22C18.72 -17.22 17.82 -16.79 17.15 -15.94C16.48 -15.09 16.15 -13.91 16.15 -12.4L16.15 -12.15L14.5 -12.15L14.5 -10.54L16.15 -10.54Z M28.58 0.23C29.18 0.23 29.76 0.16 30.32 0C30.88 -0.16 31.39 -0.37 31.84 -0.64C32.3 -0.91 32.71 -1.23 33.05 -1.61C33.4 -1.98 33.68 -2.39 33.88 -2.84L32.11 -3.33C31.99 -3.02 31.81 -2.74 31.57 -2.49C31.32 -2.24 31.05 -2.03 30.74 -1.86C30.43 -1.69 30.1 -1.56 29.74 -1.45C29.38 -1.35 29.02 -1.3 28.64 -1.3C28.12 -1.3 27.62 -1.4 27.14 -1.61C26.67 -1.81 26.25 -2.09 25.88 -2.44C25.5 -2.8 25.2 -3.23 24.97 -3.72C24.74 -4.22 24.6 -4.77 24.55 -5.38L34.63 -5.38C34.64 -5.45 34.65 -5.56 34.66 -5.7C34.67 -5.84 34.67 -6 34.67 -6.17C34.67 -6.97 34.53 -7.75 34.24 -8.51C33.95 -9.26 33.55 -9.92 33.02 -10.48C32.49 -11.05 31.85 -11.5 31.1 -11.84C30.35 -12.19 29.51 -12.36 28.6 -12.36C27.68 -12.36 26.85 -12.19 26.09 -11.86C25.33 -11.52 24.67 -11.07 24.12 -10.49C23.57 -9.92 23.14 -9.25 22.84 -8.49C22.54 -7.73 22.39 -6.93 22.39 -6.07C22.39 -5.22 22.54 -4.41 22.84 -3.64C23.14 -2.87 23.56 -2.2 24.11 -1.63C24.65 -1.05 25.3 -0.6 26.06 -0.27C26.82 0.07 27.66 0.23 28.58 0.23ZM32.74 -6.89L24.5 -6.89C24.55 -7.46 24.69 -7.99 24.91 -8.47C25.14 -8.95 25.43 -9.37 25.79 -9.72C26.16 -10.06 26.58 -10.34 27.06 -10.53C27.54 -10.72 28.06 -10.82 28.6 -10.82C29.14 -10.82 29.65 -10.72 30.13 -10.53C30.62 -10.34 31.04 -10.07 31.4 -9.73C31.77 -9.39 32.07 -8.97 32.31 -8.48C32.55 -7.99 32.69 -7.46 32.74 -6.89Z M36.14 -6.1C36.14 -5.24 36.29 -4.43 36.59 -3.66C36.89 -2.9 37.32 -2.23 37.86 -1.65C38.4 -1.08 39.05 -0.62 39.81 -0.28C40.57 0.06 41.41 0.23 42.33 0.23C42.93 0.23 43.51 0.16 44.06 0C44.61 -0.16 45.11 -0.36 45.56 -0.63C46.01 -0.89 46.4 -1.21 46.74 -1.58C47.07 -1.95 47.33 -2.37 47.52 -2.82L45.52 -3.42C45.42 -3.16 45.27 -2.91 45.05 -2.69C44.83 -2.46 44.58 -2.26 44.29 -2.09C44.01 -1.92 43.69 -1.79 43.34 -1.69C42.99 -1.59 42.64 -1.54 42.28 -1.54C41.72 -1.54 41.2 -1.65 40.71 -1.88C40.22 -2.12 39.8 -2.44 39.43 -2.85C39.07 -3.26 38.78 -3.75 38.56 -4.3C38.34 -4.86 38.23 -5.46 38.23 -6.1C38.23 -6.75 38.34 -7.35 38.55 -7.89C38.76 -8.43 39.04 -8.9 39.4 -9.31C39.75 -9.71 40.18 -10.03 40.68 -10.25C41.17 -10.48 41.7 -10.59 42.26 -10.59C42.94 -10.59 43.56 -10.43 44.12 -10.11C44.68 -9.79 45.11 -9.35 45.42 -8.77L47.42 -9.4C46.97 -10.3 46.31 -11.02 45.43 -11.55C44.56 -12.09 43.51 -12.36 42.3 -12.36C41.37 -12.36 40.53 -12.19 39.78 -11.86C39.03 -11.52 38.38 -11.07 37.84 -10.51C37.29 -9.94 36.87 -9.28 36.58 -8.52C36.29 -7.76 36.14 -6.95 36.14 -6.1Z M56.13 -0.61L55.64 -2.23C55.51 -2.16 55.28 -2.05 54.95 -1.92C54.62 -1.79 54.25 -1.72 53.85 -1.72C53.49 -1.72 53.18 -1.82 52.92 -2.02C52.65 -2.23 52.5 -2.55 52.47 -3L52.47 -10.54L55.2 -10.54L55.2 -12.15L52.47 -12.15L52.47 -16.2L50.43 -16.2L50.43 -12.15L48.77 -12.15L48.77 -10.54L50.43 -10.54L50.43 -2.37C50.43 -1.5 50.7 -0.86 51.24 -0.45C51.78 -0.04 52.43 0.16 53.17 0.16C53.5 0.16 53.81 0.14 54.11 0.08C54.42 0.03 54.7 -0.04 54.95 -0.13C55.21 -0.21 55.44 -0.3 55.64 -0.38C55.84 -0.47 56 -0.54 56.13 -0.61Z M82.24 0L82.24 -7.26C82.24 -7.99 82.17 -8.66 82.05 -9.28C81.92 -9.91 81.72 -10.44 81.44 -10.9C81.16 -11.36 80.79 -11.72 80.32 -11.97C79.84 -12.23 79.26 -12.36 78.56 -12.36C76.56 -12.36 75.01 -11.37 73.93 -9.4C73.79 -10.27 73.42 -10.98 72.82 -11.53C72.23 -12.08 71.41 -12.36 70.39 -12.36C69.4 -12.36 68.51 -12.11 67.71 -11.62C66.92 -11.13 66.28 -10.44 65.78 -9.54L65.78 -12.15L63.92 -12.15L63.92 0L65.97 0L65.97 -7.33C66.25 -8.29 66.72 -9.06 67.39 -9.65C68.06 -10.23 68.8 -10.52 69.62 -10.52C70.43 -10.52 71.03 -10.22 71.44 -9.63C71.84 -9.04 72.04 -8.1 72.04 -6.79L72.04 0L74.09 0L74.09 -7.31C74.37 -8.25 74.84 -9.02 75.5 -9.62C76.16 -10.22 76.91 -10.52 77.74 -10.52C78.55 -10.52 79.16 -10.22 79.57 -9.61C79.98 -9.01 80.19 -8.07 80.19 -6.79L80.19 0Z M90.73 0.23C91.64 0.23 92.48 0.06 93.23 -0.28C93.98 -0.62 94.63 -1.08 95.17 -1.65C95.72 -2.23 96.13 -2.89 96.43 -3.65C96.72 -4.41 96.87 -5.21 96.87 -6.05C96.87 -6.9 96.72 -7.71 96.42 -8.47C96.12 -9.23 95.7 -9.9 95.16 -10.47C94.63 -11.05 93.98 -11.5 93.22 -11.84C92.46 -12.19 91.63 -12.36 90.73 -12.36C89.83 -12.36 89 -12.19 88.25 -11.84C87.5 -11.5 86.85 -11.05 86.32 -10.47C85.78 -9.9 85.36 -9.23 85.06 -8.47C84.76 -7.71 84.61 -6.9 84.61 -6.05C84.61 -5.21 84.76 -4.41 85.05 -3.65C85.35 -2.89 85.76 -2.23 86.3 -1.65C86.83 -1.08 87.47 -0.62 88.23 -0.28C88.98 0.06 89.81 0.23 90.73 0.23ZM86.7 -6.03C86.7 -6.66 86.81 -7.26 87.02 -7.81C87.23 -8.36 87.51 -8.84 87.88 -9.25C88.24 -9.66 88.67 -9.99 89.16 -10.23C89.65 -10.47 90.17 -10.59 90.73 -10.59C91.29 -10.59 91.81 -10.47 92.3 -10.24C92.79 -10.01 93.22 -9.68 93.59 -9.27C93.96 -8.86 94.25 -8.38 94.46 -7.83C94.67 -7.28 94.78 -6.69 94.78 -6.07C94.78 -5.44 94.67 -4.84 94.46 -4.29C94.25 -3.74 93.96 -3.26 93.59 -2.85C93.22 -2.44 92.79 -2.12 92.3 -1.88C91.81 -1.65 91.29 -1.54 90.73 -1.54C90.17 -1.54 89.65 -1.65 89.16 -1.88C88.67 -2.12 88.24 -2.44 87.88 -2.84C87.51 -3.24 87.23 -3.72 87.02 -4.26C86.81 -4.8 86.7 -5.39 86.7 -6.03Z M117.67 0L117.67 -7.26C117.67 -7.99 117.61 -8.66 117.49 -9.28C117.36 -9.91 117.16 -10.44 116.88 -10.9C116.6 -11.36 116.23 -11.72 115.76 -11.97C115.28 -12.23 114.7 -12.36 114 -12.36C112 -12.36 110.45 -11.37 109.37 -9.4C109.23 -10.27 108.86 -10.98 108.26 -11.53C107.66 -12.08 106.85 -12.36 105.83 -12.36C104.84 -12.36 103.95 -12.11 103.15 -11.62C102.36 -11.13 101.72 -10.44 101.22 -9.54L101.22 -12.15L99.36 -12.15L99.36 0L101.41 0L101.41 -7.33C101.69 -8.29 102.16 -9.06 102.83 -9.65C103.5 -10.23 104.24 -10.52 105.06 -10.52C105.87 -10.52 106.47 -10.22 106.88 -9.63C107.28 -9.04 107.48 -8.1 107.48 -6.79L107.48 0L109.53 0L109.53 -7.31C109.81 -8.25 110.28 -9.02 110.94 -9.62C111.6 -10.22 112.35 -10.52 113.18 -10.52C113.99 -10.52 114.6 -10.22 115.01 -9.61C115.42 -9.01 115.63 -8.07 115.63 -6.79L115.63 0Z M126.24 0.23C126.84 0.23 127.42 0.16 127.98 0C128.54 -0.16 129.05 -0.37 129.51 -0.64C129.97 -0.91 130.37 -1.23 130.72 -1.61C131.07 -1.98 131.34 -2.39 131.54 -2.84L129.78 -3.33C129.65 -3.02 129.47 -2.74 129.23 -2.49C128.99 -2.24 128.71 -2.03 128.4 -1.86C128.09 -1.69 127.76 -1.56 127.4 -1.45C127.04 -1.35 126.68 -1.3 126.31 -1.3C125.78 -1.3 125.28 -1.4 124.81 -1.61C124.33 -1.81 123.91 -2.09 123.54 -2.44C123.17 -2.8 122.86 -3.23 122.63 -3.72C122.4 -4.22 122.26 -4.77 122.21 -5.38L132.29 -5.38C132.3 -5.45 132.32 -5.56 132.32 -5.7C132.33 -5.84 132.33 -6 132.33 -6.17C132.33 -6.97 132.19 -7.75 131.9 -8.51C131.62 -9.26 131.21 -9.92 130.68 -10.48C130.16 -11.05 129.52 -11.5 128.76 -11.84C128.01 -12.19 127.18 -12.36 126.26 -12.36C125.35 -12.36 124.51 -12.19 123.75 -11.86C122.99 -11.52 122.33 -11.07 121.78 -10.49C121.23 -9.92 120.8 -9.25 120.5 -8.49C120.2 -7.73 120.05 -6.93 120.05 -6.07C120.05 -5.22 120.2 -4.41 120.5 -3.64C120.8 -2.87 121.23 -2.2 121.77 -1.63C122.31 -1.05 122.96 -0.6 123.72 -0.27C124.49 0.07 125.32 0.23 126.24 0.23ZM130.4 -6.89L122.17 -6.89C122.21 -7.46 122.35 -7.99 122.57 -8.47C122.8 -8.95 123.09 -9.37 123.46 -9.72C123.82 -10.06 124.24 -10.34 124.73 -10.53C125.21 -10.72 125.72 -10.82 126.26 -10.82C126.8 -10.82 127.32 -10.72 127.8 -10.53C128.28 -10.34 128.7 -10.07 129.07 -9.73C129.43 -9.39 129.73 -8.97 129.97 -8.48C130.21 -7.99 130.36 -7.46 130.4 -6.89Z M145.16 0L145.16 -7.26C145.16 -7.99 145.1 -8.66 144.98 -9.28C144.87 -9.91 144.67 -10.44 144.39 -10.9C144.11 -11.36 143.74 -11.72 143.27 -11.97C142.81 -12.23 142.22 -12.36 141.53 -12.36C140.46 -12.36 139.47 -12.1 138.56 -11.59C137.65 -11.08 136.96 -10.39 136.48 -9.54L136.48 -12.15L134.62 -12.15L134.62 0L136.66 0L136.66 -7.33C136.8 -7.8 137.01 -8.22 137.29 -8.61C137.57 -9 137.9 -9.33 138.27 -9.61C138.64 -9.89 139.04 -10.11 139.46 -10.27C139.87 -10.44 140.29 -10.52 140.71 -10.52C141.52 -10.52 142.12 -10.22 142.52 -9.63C142.91 -9.04 143.11 -8.1 143.11 -6.79L143.11 0Z M154.51 -0.61L154.02 -2.23C153.9 -2.16 153.67 -2.05 153.34 -1.92C153 -1.79 152.63 -1.72 152.23 -1.72C151.87 -1.72 151.56 -1.82 151.3 -2.02C151.04 -2.23 150.89 -2.55 150.86 -3L150.86 -10.54L153.58 -10.54L153.58 -12.15L150.86 -12.15L150.86 -16.2L148.81 -16.2L148.81 -12.15L147.16 -12.15L147.16 -10.54L148.81 -10.54L148.81 -2.37C148.81 -1.5 149.08 -0.86 149.62 -0.45C150.17 -0.04 150.81 0.16 151.56 0.16C151.88 0.16 152.2 0.14 152.5 0.08C152.8 0.03 153.08 -0.04 153.34 -0.13C153.59 -0.21 153.82 -0.3 154.02 -0.38C154.22 -0.47 154.39 -0.54 154.51 -0.61Z M160.68 0.23C162.15 0.23 163.32 -0.1 164.19 -0.77C165.06 -1.43 165.49 -2.33 165.49 -3.47C165.49 -3.98 165.4 -4.41 165.2 -4.77C165.01 -5.13 164.71 -5.44 164.32 -5.7C163.92 -5.96 163.43 -6.19 162.83 -6.39C162.23 -6.58 161.53 -6.77 160.72 -6.96C160.21 -7.08 159.77 -7.2 159.41 -7.31C159.04 -7.42 158.75 -7.54 158.51 -7.68C158.28 -7.82 158.11 -7.98 158.01 -8.17C157.91 -8.35 157.86 -8.59 157.86 -8.87C157.86 -9.56 158.12 -10.07 158.64 -10.39C159.16 -10.71 159.79 -10.87 160.54 -10.87C161.2 -10.87 161.86 -10.75 162.49 -10.53C163.13 -10.3 163.7 -9.97 164.21 -9.52L165.15 -10.75C164.6 -11.23 163.93 -11.62 163.14 -11.91C162.35 -12.21 161.5 -12.36 160.58 -12.36C159.93 -12.36 159.32 -12.27 158.76 -12.11C158.19 -11.95 157.7 -11.71 157.28 -11.39C156.86 -11.07 156.53 -10.68 156.29 -10.2C156.05 -9.73 155.93 -9.19 155.93 -8.59C155.93 -8.11 156.01 -7.7 156.16 -7.38C156.32 -7.05 156.57 -6.77 156.91 -6.54C157.25 -6.31 157.68 -6.1 158.21 -5.93C158.74 -5.76 159.37 -5.58 160.1 -5.4C160.67 -5.26 161.17 -5.13 161.61 -5C162.04 -4.88 162.4 -4.74 162.68 -4.58C162.96 -4.43 163.17 -4.25 163.31 -4.04C163.45 -3.83 163.52 -3.58 163.52 -3.28C163.52 -2.64 163.26 -2.15 162.74 -1.8C162.22 -1.45 161.51 -1.28 160.63 -1.28C159.84 -1.28 159.09 -1.42 158.37 -1.69C157.66 -1.96 156.95 -2.37 156.23 -2.91L155.35 -1.54C156.03 -0.96 156.85 -0.52 157.79 -0.22C158.74 0.08 159.7 0.23 160.68 0.23Z"/></g><g id="SvgjsG1134" class="text" transform="translate(178.9143240294207, 168.2843801762536) scale(1)" light-content="true" fill="#ffffff"><path d="M-116.6 -15.27L-115.04 -24.3L-130.43 -24.3L-128.98 -32.63L-110.35 -32.63L-108.73 -41.65L-137.78 -41.65L-145.12 0L-134.65 0L-131.99 -15.27Z M-82.01 -42.06C-92.84 -42.06 -99.17 -36.89 -100.98 -26.55L-103.01 -14.98C-103.32 -13.33 -103.47 -11.8 -103.47 -10.41C-103.47 -7.29 -102.72 -4.84 -101.21 -3.07C-99.01 -0.48 -95.12 0.81 -89.53 0.81C-83.93 0.81 -79.6 -0.48 -76.51 -3.07C-73.42 -5.65 -71.42 -9.62 -70.49 -14.98L-68.47 -26.55C-68.2 -28.02 -68.06 -29.39 -68.06 -30.66C-68.06 -38.26 -72.71 -42.06 -82.01 -42.06ZM-87.96 -8.16C-91.2 -8.16 -92.82 -9.51 -92.82 -12.21C-92.82 -13.25 -92.75 -14.25 -92.59 -15.22L-90.63 -26.32C-89.85 -30.76 -87.48 -33.01 -83.51 -33.09C-80.35 -33.09 -78.77 -31.53 -78.77 -28.41C-78.77 -27.79 -78.82 -27.09 -78.94 -26.32L-80.91 -15.22C-81.37 -12.52 -82.18 -10.66 -83.34 -9.66C-84.49 -8.66 -86.04 -8.16 -87.96 -8.16Z M-19.35 -32.63L-17.73 -41.65L-56.72 -41.65L-58.34 -32.63L-44.05 -32.63L-49.78 0L-39.31 0L-33.58 -32.63Z M7.95 -42.06C-2.88 -42.06 -9.21 -36.89 -11.02 -26.55L-13.05 -14.98C-13.35 -13.33 -13.51 -11.8 -13.51 -10.41C-13.51 -7.29 -12.76 -4.84 -11.25 -3.07C-9.05 -0.48 -5.16 0.81 0.43 0.81C6.03 0.81 10.37 -0.48 13.45 -3.07C16.54 -5.65 18.54 -9.62 19.47 -14.98L21.49 -26.55C21.76 -28.02 21.9 -29.39 21.9 -30.66C21.9 -38.26 17.25 -42.06 7.95 -42.06ZM2 -8.16C-1.24 -8.16 -2.86 -9.51 -2.86 -12.21C-2.86 -13.25 -2.79 -14.25 -2.63 -15.22L-0.67 -26.32C0.11 -30.76 2.48 -33.01 6.45 -33.09C9.61 -33.09 11.19 -31.53 11.19 -28.41C11.19 -27.79 11.14 -27.09 11.02 -26.32L9.05 -15.22C8.59 -12.52 7.78 -10.66 6.62 -9.66C5.47 -8.66 3.92 -8.16 2 -8.16Z M56.03 0L57.65 -9.03L41.68 -9.03L47.41 -41.65L37 -41.65L29.65 0Z M87.04 0L98.03 0L97.8 -41.65L78.71 -41.65L63.84 0L74.89 0L77.73 -9.08L87.39 -9.08ZM84.67 -31.53L88.31 -31.53L87.68 -16.84L80.1 -16.84Z M133.44 -41.65L116.66 -41.65L109.31 0L128.64 0C132.8 0 136.05 -0.94 138.38 -2.83C140.72 -4.72 142.19 -7.33 142.81 -10.64L143.16 -12.44C143.31 -13.17 143.39 -13.87 143.39 -14.52C143.39 -16.14 142.83 -17.55 141.71 -18.74C140.59 -19.94 139.49 -20.54 138.41 -20.54L138.47 -21C139.4 -21 140.47 -21.62 141.68 -22.85C142.9 -24.09 143.72 -25.8 144.14 -28L144.66 -30.78C144.81 -31.63 144.89 -32.44 144.89 -33.21C144.89 -35.44 144.2 -37.3 142.81 -38.76C140.96 -40.69 137.83 -41.65 133.44 -41.65ZM128.23 -17.01C131.32 -17.01 132.86 -15.77 132.86 -13.31C132.86 -12.11 132.34 -11.1 131.3 -10.27C130.26 -9.44 128.85 -9.03 127.07 -9.03L126.84 -9.03L121.35 -9.03L122.73 -17.01ZM129.79 -32.63C131.1 -32.63 132.1 -32.28 132.77 -31.59C133.45 -30.89 133.78 -29.99 133.78 -28.87C133.78 -25.63 131.93 -24.01 128.23 -24.01L123.95 -24.01L125.45 -32.63Z"/></g></g></svg>