<svg xmlns="http://www.w3.org/2000/svg" version="1.1" xlink="http://www.w3.org/1999/xlink" xmlns:svgjs="http://svgjs.com/svgjs" width="300" height="46.11482591653217"><defs id="SvgjsDefs1016"/><g id="SvgjsG1017" transform="scale(0.7685804319422028)" opacity="1"><g id="SvgjsG1018" class="text" transform="translate(-1.9300000000000068, 44.68) scale(1)" light-content="false" fill="#f362cf"><path d="M5.75 0.08C6.51 0.08 7.41 0.02 8.46 -0.11C9.51 -0.23 10.04 -0.46 10.04 -0.8L10.04 -8.32C12.28 -8.32 14.24 -8.65 15.92 -9.32C17.6 -10 18.87 -10.89 19.74 -12.01C21.48 -14.25 22.34 -16.72 22.34 -19.4C22.34 -22.65 21.43 -25.13 19.59 -26.84C17.76 -28.55 14.77 -29.4 10.63 -29.4L3.23 -29.4C2.37 -29.4 1.93 -28.92 1.93 -27.97L1.93 -0.76C1.93 -0.2 3.21 0.08 5.75 0.08ZM10.04 -22.09L10.92 -22.09C12.1 -22.09 12.92 -21.85 13.38 -21.38C13.84 -20.9 14.07 -20.1 14.07 -18.98C14.07 -17.86 13.73 -17 13.06 -16.38C12.39 -15.76 11.56 -15.46 10.58 -15.46L10.04 -15.46Z M37.21 -7.22L34.31 -7.22C33.84 -7.22 33.52 -6.62 33.35 -5.42C33.24 -4.83 33.18 -4.23 33.18 -3.61C33.18 -3 33.24 -2.39 33.35 -1.81C33.52 -0.6 33.84 0 34.31 0L48.47 0C48.94 0 49.28 -0.6 49.48 -1.81C49.59 -2.39 49.64 -3 49.64 -3.61C49.64 -4.23 49.59 -4.83 49.48 -5.42C49.28 -6.62 48.94 -7.22 48.47 -7.22L45.53 -7.22L45.53 -22.18L48.34 -22.18C48.82 -22.18 49.14 -22.78 49.31 -23.98C49.42 -24.57 49.48 -25.17 49.48 -25.79C49.48 -26.4 49.42 -27.01 49.31 -27.59C49.14 -28.8 48.82 -29.4 48.34 -29.4L34.23 -29.4C33.75 -29.4 33.42 -28.8 33.22 -27.59C33.14 -27.01 33.1 -26.4 33.1 -25.79C33.1 -25.17 33.14 -24.57 33.22 -23.98C33.42 -22.78 33.75 -22.18 34.23 -22.18L37.21 -22.18Z M76.44 -28.27L73.12 -21L70.22 -28.06C69.89 -29.06 67.96 -29.57 64.43 -29.57C63.56 -29.57 62.5 -29.51 61.26 -29.38C60.01 -29.25 59.43 -29.12 59.51 -28.98L66.32 -15.12L59.77 -0.59C59.65 -0.39 60.2 -0.24 61.4 -0.13C62.61 -0.01 63.62 0.04 64.43 0.04C67.73 0.04 69.52 -0.35 69.8 -1.13L72.66 -9.41L75.81 -1.39C76.15 -0.43 78.09 0.04 81.65 0.04C82.54 0.04 83.64 -0.02 84.92 -0.15C86.21 -0.27 86.81 -0.41 86.73 -0.55L79.34 -14.45L86.48 -28.98C86.48 -29.09 85.88 -29.21 84.69 -29.34C83.5 -29.46 82.5 -29.53 81.69 -29.53C78.53 -29.53 76.78 -29.11 76.44 -28.27Z M111.59 -17.72L106.18 -17.72L106.18 -21.97L113.95 -21.97C114.53 -21.97 114.83 -23.2 114.83 -25.68C114.83 -28.16 114.53 -29.4 113.95 -29.4L98.91 -29.4C98.27 -29.4 97.94 -29.04 97.94 -28.31L97.94 -1.3C97.94 -0.43 98.48 0 99.54 0L113.9 0C114.3 0 114.58 -0.48 114.74 -1.43C114.91 -2.38 115 -3.16 115 -3.76C115 -4.36 114.95 -4.93 114.87 -5.46C114.7 -6.69 114.38 -7.31 113.9 -7.31L106.18 -7.31L106.18 -11.51L111.51 -11.51C111.85 -11.51 112.08 -11.91 112.2 -12.7C112.33 -13.5 112.39 -14.2 112.39 -14.78C112.39 -16.74 112.13 -17.72 111.59 -17.72Z M126.63 -2.48C126.63 -1.83 126.81 -1.26 127.18 -0.76C127.54 -0.25 128.03 0 128.65 0L141.58 0C142.09 0 142.45 -0.67 142.67 -2.02C142.76 -2.72 142.8 -3.4 142.8 -4.07C142.8 -4.75 142.76 -5.4 142.67 -6.05C142.48 -7.36 142.13 -8.02 141.62 -8.02L135.16 -8.02L135.16 -28.6C135.16 -29.19 133.73 -29.48 130.89 -29.48C128.05 -29.48 126.63 -29.19 126.63 -28.6Z M157.37 0.08C158.13 0.08 159.03 0.02 160.08 -0.11C161.13 -0.23 161.66 -0.46 161.66 -0.8L161.66 -8.32C163.9 -8.32 165.86 -8.65 167.54 -9.32C169.22 -10 170.49 -10.89 171.36 -12.01C173.1 -14.25 173.96 -16.72 173.96 -19.4C173.96 -22.65 173.05 -25.13 171.21 -26.84C169.38 -28.55 166.39 -29.4 162.25 -29.4L154.85 -29.4C153.99 -29.4 153.55 -28.92 153.55 -27.97L153.55 -0.76C153.55 -0.2 154.83 0.08 157.37 0.08ZM161.66 -22.09L162.54 -22.09C163.72 -22.09 164.54 -21.85 165 -21.38C165.46 -20.9 165.69 -20.1 165.69 -18.98C165.69 -17.86 165.35 -17 164.68 -16.38C164.01 -15.76 163.18 -15.46 162.2 -15.46L161.66 -15.46Z M199.79 -28.56L199.79 -9.58C199.79 -8.96 199.52 -8.5 198.98 -8.19C198.43 -7.88 197.82 -7.73 197.15 -7.73C196.48 -7.73 195.83 -7.9 195.22 -8.23C194.63 -8.57 194.33 -9.02 194.33 -9.58L194.33 -28.52C194.33 -29.08 192.82 -29.36 189.78 -29.36C186.74 -29.36 185.22 -29.08 185.22 -28.52L185.22 -9.91C185.22 -6.75 186.35 -4.23 188.6 -2.37C190.86 -0.51 193.78 0.42 197.38 0.42C200.98 0.42 203.8 -0.48 205.84 -2.29C207.89 -4.1 208.91 -6.43 208.91 -9.28L208.91 -28.56C208.91 -29.12 207.39 -29.4 204.35 -29.4C201.31 -29.4 199.79 -29.12 199.79 -28.56Z M243.85 -0.92L243.85 -28.6C243.85 -29.13 242.55 -29.4 239.95 -29.4C237.34 -29.4 236.04 -29.13 236.04 -28.6L236.04 -15.41L229.32 -28.35C229.07 -28.77 228.36 -29.06 227.2 -29.21C226.04 -29.37 225.02 -29.44 224.15 -29.44C221.94 -29.44 220.84 -29.23 220.84 -28.81L220.84 -0.71C220.84 -0.21 222.13 0.04 224.72 0.04C227.31 0.04 228.61 -0.21 228.61 -0.71L228.61 -13.78L235.62 -0.67C235.84 -0.25 237.27 -0.04 239.9 -0.04C242.54 -0.04 243.85 -0.34 243.85 -0.92Z M273.86 -28.92C272.31 -29.49 270.51 -29.78 268.46 -29.78C264.8 -29.78 261.74 -28.42 259.29 -25.7C256.84 -22.99 255.61 -19.26 255.61 -14.51C255.61 -9.76 256.8 -6.09 259.18 -3.49C261.56 -0.88 264.6 0.42 268.3 0.42C270.59 0.42 272.58 0.1 274.26 -0.55C275.94 -1.19 276.78 -2.06 276.78 -3.15C276.78 -3.71 276.58 -4.5 276.19 -5.52C275.8 -6.54 275.37 -7.37 274.91 -8C274.45 -8.63 274.13 -8.95 273.97 -8.95C273.8 -8.95 273.69 -8.92 273.63 -8.86C273.29 -8.53 272.73 -8.27 271.93 -8.09C271.13 -7.9 270.41 -7.81 269.77 -7.81C268.2 -7.81 266.9 -8.39 265.88 -9.53C264.86 -10.68 264.35 -12.44 264.35 -14.81C264.35 -17.17 264.84 -18.93 265.84 -20.08C266.83 -21.22 268.14 -21.8 269.77 -21.8C270.24 -21.8 270.81 -21.71 271.47 -21.52C272.12 -21.34 272.54 -21.17 272.73 -21.02C272.91 -20.87 273.07 -20.79 273.21 -20.79C273.71 -20.79 274.34 -21.51 275.08 -22.95C275.82 -24.39 276.19 -25.61 276.19 -26.59C276.19 -27.57 275.42 -28.34 273.86 -28.92Z M311.26 -0.71L311.26 -28.48C311.26 -28.87 310.56 -29.15 309.16 -29.32L307.02 -29.4C306.32 -29.4 305.61 -29.37 304.88 -29.32C303.48 -29.15 302.78 -28.87 302.78 -28.48L302.78 -18.69L296.9 -18.69L296.9 -28.56C296.9 -29.15 295.48 -29.44 292.66 -29.44C289.83 -29.44 288.41 -29.15 288.41 -28.56L288.41 -0.71C288.41 -0.24 289.83 0 292.66 0C295.48 0 296.9 -0.24 296.9 -0.71L296.9 -10.37L302.78 -10.37L302.78 -0.71C302.78 -0.24 304.19 0 307.02 0C309.85 0 311.26 -0.24 311.26 -0.71Z"/></g><g id="SvgjsG1019" class="rEXaKjqpff" transform="translate(330.33, 0) scale(3.75)" light-content="false" fill="#f362cf"><path d="M8 16c-4.411 0-8-3.589-8-8s3.589-8 8-8 8 3.589 8 8-3.589 8-8 8zM8 .941C4.107.941.941 4.107.941 8S4.107 15.059 8 15.059 15.059 11.893 15.059 8 11.893.941 8 .941z"/><path d="M10.664 10.396a.5.5 0 0 1-1 0V5.604a.5.5 0 0 1 1 0v4.792zm-4.328-.662a.5.5 0 0 1-1 0V6.266a.5.5 0 0 1 1 0v3.468zm-2.164-.796a.5.5 0 0 1-1 0V7.063a.5.5 0 0 1 1 0v1.875zM8.5 11.125a.5.5 0 0 1-1 0v-6.25a.5.5 0 0 1 1 0v6.25zm4.328-1.906a.5.5 0 0 1-1 0V6.781a.5.5 0 0 1 1 0v2.438z"/></g></g></svg>