<svg xmlns="http://www.w3.org/2000/svg" version="1.1" xlink="http://www.w3.org/1999/xlink" xmlns:svgjs="http://svgjs.com/svgjs" width="300" height="143.82634532849127"><defs id="SvgjsDefs1306"/><g id="SvgjsG1307" transform="scale(1.6507098052162432)" opacity="1"><g id="SvgjsG1308" class="E1jmBv7dwY" transform="translate(66.54231267695425, -2.345673926538792) scale(0.48888577043326203)" light-content="false" fill="#31cfb9"><path d="M53.481 56.337c-5.654-8.991-13.889-15.425-21.916-22.087-5.396-4.48-10.948-8.855-13.137-16.075-.632-2.086.397-4.364-1.055-6.241-1.513 5.682-.817 11.314.715 16.828.616 2.215.638 3.916-1.694 5.715.856-.353 1.492-.503 1.96-.503 1.562 0 1.259 1.666 1.014 3.003-.887 4.859-3.459 8.988-6.123 13.025-1.374 2.083-2.003 3.575 1.415 3.829 1.38.103 2.472.907 3.275 2.067 2.025 2.925 1.27 6.936 4.246 9.748.948.896.637 3.623 2.845 4.631 1.003.458 1.16 1.774 1.148 2.905-.023 2.055-.041 4.111-.085 6.165-.091 4.215 1.214 6.205 4.256 6.205.91 0 1.976-.178 3.206-.529 3.269-.931 6.259-2.526 9.317-3.965 3.591-1.69 5.704-2.681 7.254-2.681 2.213 0 3.282 2.019 5.87 6.907 4.795-10.136 3.277-19.745-2.511-28.947zm1.057 19.416c-1.202-.976-2.602-1.515-4.416-1.515-2.482 0-4.942 1.157-9.018 3.075-.597.281-1.192.568-1.786.855-2.367 1.142-4.602 2.22-6.902 2.874-1.042.297-1.68.366-2.039.37-.079-.324-.171-.935-.149-1.975.038-1.747.057-3.495.075-5.242l.01-.966c.043-3.903-1.659-5.713-3.231-6.551l-.206-.643c-.294-.973-.697-2.306-1.852-3.397-.768-.725-1.048-1.757-1.477-3.518-.401-1.643-.899-3.687-2.208-5.578-.945-1.364-2.131-2.4-3.47-3.054 2.505-3.924 4.693-7.952 5.572-12.766.253-1.387.666-3.643-.654-5.602 1.801 1.73 3.687 3.292 5.492 4.787l.64.53 1.907 1.578c7.351 6.073 14.294 11.809 19.148 19.527 3.706 5.889 5.222 11.576 4.564 17.211z"/><path d="M25.42 5.857c.093 5.122 2.456 9.276 5.661 13.029 3.232 3.785 7.194 6.746 11.231 9.599 6.601 4.664 13.342 9.118 19.235 14.732 15.683 14.937 9.871 34.327-2.919 44.073-3.783 2.883-7.871 5.262-12.36 6.888-.977.354-1.958.918-3.236.431 4.604-2.77 8.791-5.944 12.716-9.449 10.866-9.702 12.331-23.312 3.842-35.168-3.767-5.262-8.546-9.456-13.746-13.237-3.521-2.56-7.091-5.081-10.393-7.906-5.981-5.118-10.212-11.334-11.02-19.436.72-1.078-.421-2.672.989-3.556z"/><path d="M70.647 87.117c1.561-1.927 3.237-3.774 4.665-5.795 9.052-12.813 8.853-26.566-.368-39.878-6-8.661-14.323-14.532-23.207-19.771-4.745-2.798-9.545-5.517-13.746-9.123-2.475-2.125-4.588-4.55-5.698-7.752 10.232 9.438 23.778 13.39 34.832 21.414 8.733 6.34 15.789 13.883 18.935 24.53 4.103 13.884-1.62 29.198-13.563 36.027-.48.274-.99.495-1.486.741l-.364-.393z"/></g><g id="SvgjsG1309" class="text" transform="translate(-1.5799999999999983, 86.64) scale(1)" light-content="false" fill="#31cfb9"><path d="M27.39 -24.29L28.02 -24.29L28.02 -24.64L20.77 -24.64L20.77 -24.29L21.44 -24.29C22.02 -24.29 22.53 -24.08 22.95 -23.67C23.37 -23.26 23.6 -22.75 23.62 -22.14L23.62 -4.68L4.44 -25.17L4.08 -25.17L4.15 -24.6C4.32 -23.48 4.4 -22.2 4.4 -20.77L4.4 -2.5C4.4 -1.89 4.19 -1.38 3.77 -0.97C3.34 -0.56 2.84 -0.35 2.25 -0.35L1.58 -0.35L1.58 0L8.84 0L8.84 -0.35L8.17 -0.35C7.79 -0.35 7.44 -0.45 7.11 -0.63C6.41 -1.03 6.04 -1.64 6.02 -2.46L6.02 -19.99L25.2 0.49L25.52 0.49L25.45 -0.14C25.29 -1.36 25.2 -2.65 25.2 -4.01L25.2 -22.18C25.23 -22.76 25.45 -23.26 25.87 -23.67C26.29 -24.08 26.8 -24.29 27.39 -24.29Z M40.69 -26.89C41.07 -26.89 41.39 -27.03 41.66 -27.3C41.93 -27.57 42.06 -27.89 42.06 -28.27C42.06 -28.64 41.93 -28.96 41.66 -29.23C41.39 -29.5 41.07 -29.64 40.69 -29.64C40.32 -29.64 39.99 -29.5 39.72 -29.23C39.45 -28.96 39.32 -28.64 39.32 -28.27C39.32 -27.89 39.45 -27.57 39.72 -27.3C39.99 -27.03 40.32 -26.89 40.69 -26.89ZM47.31 -26.89C47.68 -26.89 48.01 -27.03 48.28 -27.3C48.55 -27.57 48.68 -27.89 48.68 -28.27C48.68 -28.64 48.55 -28.96 48.28 -29.23C48.01 -29.5 47.68 -29.64 47.31 -29.64C46.93 -29.64 46.61 -29.5 46.34 -29.23C46.07 -28.96 45.94 -28.64 45.94 -28.27C45.94 -27.89 46.07 -27.57 46.34 -27.3C46.61 -27.03 46.93 -26.89 47.31 -26.89ZM44 -25.13C40.25 -25.13 37.2 -23.95 34.87 -21.6C32.53 -19.24 31.36 -16.15 31.36 -12.32C31.36 -8.49 32.53 -5.4 34.87 -3.04C37.2 -0.69 40.25 0.49 44 0.49C47.75 0.49 50.81 -0.69 53.15 -3.04C55.5 -5.4 56.67 -8.49 56.67 -12.32C56.67 -16.15 55.5 -19.24 53.15 -21.6C50.81 -23.95 47.75 -25.13 44 -25.13ZM44.02 -0.56C41.03 -0.56 38.62 -1.64 36.8 -3.8C34.98 -5.96 34.07 -8.8 34.07 -12.32C34.07 -15.84 34.98 -18.68 36.8 -20.84C38.62 -23 41.02 -24.08 44 -24.08C45.97 -24.08 47.71 -23.59 49.23 -22.62C50.74 -21.64 51.91 -20.26 52.73 -18.48C53.55 -16.7 53.96 -14.64 53.96 -12.32C53.96 -8.8 53.05 -5.96 51.23 -3.8C49.41 -1.64 47.01 -0.56 44.02 -0.56Z M67.06 -23.55C67.9 -23.55 68.6 -23.54 69.17 -23.51C70.48 -23.44 71.53 -22.93 72.3 -21.96C73.08 -21 73.49 -19.74 73.53 -18.16L73.53 -17.37C73.53 -16.96 73.46 -16.52 73.32 -16.05C72.57 -13.68 70.74 -12.46 67.83 -12.39C67.38 -12.37 67.01 -12.36 66.7 -12.36C66.4 -12.36 66.15 -12.37 65.96 -12.39L65.96 -12.04C66.72 -12.04 67.47 -11.64 68.22 -10.84C68.48 -10.56 68.72 -10.27 68.96 -9.98C69.19 -9.69 70.02 -8.51 71.46 -6.44C72.89 -4.38 73.76 -3.16 74.08 -2.8C74.4 -2.43 74.77 -2.06 75.2 -1.67C75.64 -1.28 76.29 -0.91 77.16 -0.55C78.03 -0.18 78.97 0 79.97 0L81.91 0L81.91 -0.35C81.14 -0.35 80.41 -0.52 79.73 -0.84C79.42 -0.99 79.12 -1.17 78.81 -1.41C78.51 -1.64 78.23 -1.88 77.97 -2.13C77.71 -2.38 77.28 -2.83 76.67 -3.5C76.06 -4.17 74.74 -5.95 72.72 -8.84C72.35 -9.35 71.92 -9.85 71.44 -10.33C70.96 -10.81 70.54 -11.13 70.19 -11.3C71.85 -11.3 73.27 -11.99 74.43 -13.36C75.59 -14.73 76.17 -16.36 76.17 -18.25C76.17 -20.14 75.56 -21.68 74.34 -22.86C73.12 -24.05 71.44 -24.64 69.31 -24.64L59.8 -24.64L59.8 -24.29L60.26 -24.29C60.87 -24.29 61.39 -24.07 61.83 -23.64C62.26 -23.2 62.49 -22.68 62.52 -22.07L62.52 -2.53C62.49 -1.92 62.26 -1.41 61.83 -0.99C61.39 -0.56 60.87 -0.35 60.26 -0.35L59.8 -0.35L59.8 0L67.51 0L67.48 -0.35L67.06 -0.35C66.42 -0.35 65.89 -0.57 65.45 -1C65.02 -1.44 64.8 -1.96 64.8 -2.57L64.8 -23.55Z M103.65 -21.24C101.31 -23.51 98.27 -24.64 94.51 -24.64L82.58 -24.64L82.61 -24.29L83.04 -24.29C83.62 -24.29 84.15 -24.09 84.6 -23.71C85.06 -23.32 85.29 -22.84 85.29 -22.28L85.29 -2.57C85.27 -1.96 85.04 -1.44 84.6 -1C84.17 -0.57 83.65 -0.35 83.04 -0.35L82.58 -0.35L82.58 0L94.51 0C98.27 0 101.31 -1.13 103.65 -3.4C105.98 -5.66 107.15 -8.64 107.15 -12.32C107.15 -16 105.98 -18.98 103.65 -21.24ZM87.58 -23.58L94.51 -23.58C97.49 -23.58 99.9 -22.55 101.75 -20.49C103.59 -18.42 104.51 -15.7 104.51 -12.32C104.51 -10.09 104.09 -8.13 103.26 -6.42C102.43 -4.72 101.25 -3.4 99.74 -2.46C98.23 -1.53 96.48 -1.06 94.51 -1.06L87.58 -1.06Z M110.74 -0.35L110.28 -0.35L110.28 0L124.89 0L126.93 -5.7L126.58 -5.7C125.97 -4.18 125.21 -3.03 124.29 -2.25C123.38 -1.48 122.05 -1.09 120.31 -1.09L115.28 -1.09L115.28 -11.62L121.26 -11.62C121.73 -11.59 122.13 -11.42 122.44 -11.09C122.76 -10.76 122.92 -10.36 122.92 -9.89L122.92 -9.36L123.27 -9.36L123.27 -14.92L122.92 -14.92L122.92 -14.43C122.92 -13.94 122.75 -13.53 122.43 -13.2C122.1 -12.87 121.7 -12.7 121.23 -12.67L115.28 -12.67L115.28 -23.55L122.46 -23.55C123 -23.53 123.46 -23.31 123.85 -22.92C124.24 -22.52 124.43 -22.04 124.43 -21.47L124.43 -20.84L124.78 -20.84L124.78 -25.27C124.43 -25.13 123.83 -24.99 122.97 -24.85C122.11 -24.71 121.32 -24.64 120.6 -24.64L110.28 -24.64L110.32 -24.29L110.74 -24.29C111.33 -24.29 111.83 -24.09 112.25 -23.71C112.68 -23.32 112.92 -22.84 112.99 -22.28L112.99 -2.57C112.97 -1.96 112.74 -1.44 112.31 -1C111.87 -0.57 111.35 -0.35 110.74 -0.35Z M137.49 -23.55C138.34 -23.55 139.04 -23.54 139.6 -23.51C140.92 -23.44 141.96 -22.93 142.74 -21.96C143.51 -21 143.92 -19.74 143.97 -18.16L143.97 -17.37C143.97 -16.96 143.9 -16.52 143.76 -16.05C143.01 -13.68 141.18 -12.46 138.27 -12.39C137.82 -12.37 137.44 -12.36 137.14 -12.36C136.83 -12.36 136.59 -12.37 136.4 -12.39L136.4 -12.04C137.15 -12.04 137.9 -11.64 138.65 -10.84C138.91 -10.56 139.16 -10.27 139.39 -9.98C139.63 -9.69 140.46 -8.51 141.89 -6.44C143.32 -4.38 144.2 -3.16 144.51 -2.8C144.83 -2.43 145.21 -2.06 145.64 -1.67C146.07 -1.28 146.73 -0.91 147.59 -0.55C148.46 -0.18 149.4 0 150.41 0L152.35 0L152.35 -0.35C151.57 -0.35 150.84 -0.52 150.16 -0.84C149.86 -0.99 149.55 -1.17 149.25 -1.41C148.94 -1.64 148.66 -1.88 148.4 -2.13C148.15 -2.38 147.71 -2.83 147.1 -3.5C146.49 -4.17 145.18 -5.95 143.16 -8.84C142.78 -9.35 142.35 -9.85 141.87 -10.33C141.39 -10.81 140.98 -11.13 140.62 -11.3C142.29 -11.3 143.7 -11.99 144.87 -13.36C146.03 -14.73 146.61 -16.36 146.61 -18.25C146.61 -20.14 146 -21.68 144.78 -22.86C143.56 -24.05 141.88 -24.64 139.74 -24.64L130.24 -24.64L130.24 -24.29L130.7 -24.29C131.31 -24.29 131.83 -24.07 132.26 -23.64C132.7 -23.2 132.93 -22.68 132.95 -22.07L132.95 -2.53C132.93 -1.92 132.7 -1.41 132.26 -0.99C131.83 -0.56 131.31 -0.35 130.7 -0.35L130.24 -0.35L130.24 0L137.95 0L137.91 -0.35L137.49 -0.35C136.86 -0.35 136.32 -0.57 135.89 -1C135.46 -1.44 135.24 -1.96 135.24 -2.57L135.24 -23.55Z M182.76 -0.35C182.34 -0.35 181.95 -0.43 181.6 -0.6C180.78 -0.97 180.31 -1.63 180.19 -2.57L177.48 -25.13L177.16 -25.13L167.55 -3.91L157.73 -25.13L157.38 -25.13L154.74 -2.57C154.65 -1.89 154.36 -1.35 153.88 -0.95C153.4 -0.55 152.83 -0.35 152.17 -0.35L151.61 -0.35L151.61 0L158.44 0L158.44 -0.32L157.87 -0.32C157.5 -0.32 157.17 -0.48 156.89 -0.79C156.6 -1.11 156.49 -1.45 156.53 -1.83L158.05 -19.04L167.06 0.49L167.41 0.49C167.55 -0.47 167.95 -1.67 168.61 -3.1L176 -19.54L177.58 -1.83C177.63 -1.45 177.51 -1.11 177.23 -0.79C176.95 -0.48 176.61 -0.32 176.21 -0.32L175.68 -0.32L175.68 0L183.32 0L183.32 -0.35Z"/></g></g></svg>