<svg xmlns="http://www.w3.org/2000/svg" version="1.1" xlink="http://www.w3.org/1999/xlink" xmlns:svgjs="http://svgjs.com/svgjs" width="300" height="144.39103149116687"><defs id="SvgjsDefs1110"/><g id="SvgjsG1111" transform="scale(0.8805502087450945)" opacity="1"><g id="SvgjsG1112" class="b2yBm7tWm" transform="translate(115.02038460617143, 0) scale(1)" light-content="false" fill="#bea10f"><path d="				M 53.2501092452034, 53.7501092452034
				m 0, -53.7501092452034
				a 53.7501092452034, 53.7501092452034, 0, 1, 0, 1, 0
				Z
			"/></g><g id="SvgjsG1113" class="text" transform="translate(241.8460805387215, 163.57819172571524) scale(1)" light-content="false" fill="#212422"><path d="M-64.87 -9.36C-63.24 -12.38 -62.43 -15.95 -62.43 -20.09C-62.43 -26.35 -64.26 -31.25 -67.92 -34.8C-71.58 -38.35 -76.79 -40.12 -83.54 -40.12L-95.66 -40.12L-95.66 0L-83.54 0C-79.06 0 -75.24 -0.81 -72.07 -2.42C-68.9 -4.03 -66.5 -6.35 -64.87 -9.36ZM-70.91 -7.94C-73.86 -5.04 -78.17 -3.59 -83.82 -3.59L-91.62 -3.59L-91.62 -36.59L-83.82 -36.59C-78.17 -36.59 -73.86 -35.14 -70.91 -32.24C-67.95 -29.34 -66.47 -25.29 -66.47 -20.09C-66.47 -14.89 -67.95 -10.84 -70.91 -7.94Z M-51.1 -40.12L-55.14 -40.12L-55.14 0L-51.1 0Z M-12.8 -37.05C-15.95 -39.32 -19.8 -40.46 -24.36 -40.46C-28.15 -40.46 -31.52 -39.6 -34.46 -37.87C-37.4 -36.15 -39.68 -33.73 -41.31 -30.62C-42.95 -27.5 -43.76 -23.98 -43.76 -20.03C-43.76 -16.09 -42.95 -12.56 -41.31 -9.45C-39.68 -6.34 -37.39 -3.92 -34.43 -2.19C-31.47 -0.46 -28.09 0.4 -24.3 0.4C-20.73 0.4 -17.56 -0.39 -14.77 -1.96C-11.98 -3.54 -9.76 -5.69 -8.11 -8.42C-6.46 -11.15 -5.5 -14.23 -5.24 -17.64L-5.24 -21.17L-25.38 -21.17L-25.38 -18.15L-8.71 -18.15C-8.93 -15.08 -9.74 -12.41 -11.13 -10.13C-12.51 -7.85 -14.32 -6.12 -16.56 -4.92C-18.8 -3.73 -21.26 -3.13 -23.96 -3.13C-26.99 -3.13 -29.7 -3.81 -32.07 -5.18C-34.44 -6.54 -36.3 -8.5 -37.64 -11.04C-38.99 -13.58 -39.66 -16.58 -39.66 -20.03C-39.66 -23.41 -39 -26.37 -37.67 -28.91C-36.34 -31.45 -34.51 -33.4 -32.18 -34.77C-29.85 -36.14 -27.24 -36.82 -24.36 -36.82C-21.02 -36.82 -18.12 -35.98 -15.68 -34.31C-13.23 -32.65 -11.5 -30.46 -10.47 -27.77L-6.32 -27.77C-7.49 -31.68 -9.66 -34.77 -12.8 -37.05Z M6.09 -40.12L2.05 -40.12L2.05 0L6.09 0Z M38.24 -40.12L11.44 -40.12L11.44 -36.88L22.82 -36.88L22.82 0L26.8 0L26.8 -36.88L38.24 -36.88Z M66.75 -9.79L70.34 0L74.66 0L59.87 -39.21L55.37 -39.21L40.57 0L44.84 0L48.48 -9.79ZM65.56 -12.97L49.62 -12.97L57.65 -34.6Z M84.28 -3.19L84.28 -40.12L80.24 -40.12L80.24 0L98.85 0L98.85 -3.19Z"/></g><g id="SvgjsG1114" class="text" transform="translate(66.27, 163.34819172571525) scale(1)" light-content="false" fill="#212422"><path d="M-36.36 -17.19C-37.79 -18.97 -39.71 -20.14 -42.14 -20.71C-40.05 -21.21 -38.36 -22.26 -37.07 -23.87C-35.78 -25.48 -35.14 -27.5 -35.14 -29.93C-35.14 -33.23 -36.26 -35.78 -38.5 -37.56C-40.74 -39.34 -43.9 -40.23 -48 -40.23L-66.27 -40.23L-66.27 0L-47.55 0C-43.26 0 -39.97 -0.97 -37.67 -2.9C-35.38 -4.84 -34.23 -7.53 -34.23 -10.98C-34.23 -13.34 -34.94 -15.4 -36.36 -17.19ZM-56.54 -23.79L-56.54 -32.44L-50.28 -32.44C-46.82 -32.44 -45.1 -31 -45.1 -28.11C-45.1 -25.23 -46.79 -23.79 -50.16 -23.79ZM-44.19 -12.35C-44.19 -9.39 -45.99 -7.91 -49.59 -7.91L-56.54 -7.91L-56.54 -16.96L-49.65 -16.96C-47.91 -16.96 -46.56 -16.55 -45.61 -15.73C-44.66 -14.92 -44.19 -13.79 -44.19 -12.35Z M5.66 -40.23L-5.38 -40.23L-13.12 -23.84L-20.86 -40.23L-32.01 -40.23L-18.07 -13.37L-18.07 0L-8.28 0L-8.28 -13.37Z M38.33 -40.23L6.8 -40.23L6.8 -32.49L17.61 -32.49L17.61 0L27.4 0L27.4 -32.49L38.33 -32.49Z M52.15 -32.49L67.46 -32.49L67.46 -40.23L42.42 -40.23L42.42 0L67.46 0L67.46 -7.8L52.15 -7.8L52.15 -16.73L65.76 -16.73L65.76 -24.07L52.15 -24.07Z"/></g><g id="SvgjsG1115" class="CSdGN5dvY-" transform="translate(124.66641957590396, 9.995796397566695) scale(0.9841094214371969)" light-content="true" fill="#ffffff"><path d="M38.6 56.8h15.6V41.2H38.6v15.6zm3.1-12.5h9.4v9.4h-9.4v-9.4zm40.4.3c-2.4 0-4.4 2-4.4 4.4s2 4.4 4.4 4.4 4.4-2 4.4-4.4-2-4.4-4.4-4.4zm0 5.7c-.7 0-1.3-.6-1.3-1.3s.6-1.3 1.3-1.3c.7 0 1.3.6 1.3 1.3s-.6 1.3-1.3 1.3z"/><path d="M62.1 23.7h6.8c.6 1.7 2.2 2.8 4.1 2.8 2.4 0 4.4-2 4.4-4.4s-2-4.4-4.4-4.4c-1.9 0-3.5 1.2-4.1 2.8h-6.8c-.5-.7-1.3-1.2-2.3-1.2-1.5 0-2.8 1.2-2.8 2.8 0 1 .5 1.8 1.2 2.3v4.9h-9.8v-4.9c.7-.5 1.2-1.3 1.2-2.3 0-1.5-1.2-2.8-2.8-2.8S44 20.6 44 22.1c0 1 .5 1.8 1.2 2.3v4.9h-9.8v-4.9c.7-.5 1.2-1.3 1.2-2.3 0-1-.5-1.8-1.2-2.3v-4.4c1.7-.6 2.8-2.2 2.8-4.1 0-2.4-2-4.4-4.4-4.4s-4.4 2-4.4 4.4c0 1.9 1.2 3.5 2.8 4.1v4.4c-.7.5-1.2 1.3-1.2 2.3 0 1 .5 1.8 1.2 2.3v4.9h-5.7v5.2H22c-.5-.7-1.3-1.2-2.3-1.2-1 0-1.8.5-2.3 1.2H7.9v5.4C6.2 40.5 5 42.1 5 44c0 2.4 2 4.4 4.4 4.4s4.4-2 4.4-4.4c0-1.9-1.2-3.5-2.8-4.1v-2.2h6.5c.5.7 1.3 1.2 2.3 1.2 1 0 1.8-.5 2.3-1.2h4.5v9.8h-4.5c-.5-.7-1.3-1.2-2.3-1.2-1.5 0-2.8 1.2-2.8 2.8s1.2 2.8 2.8 2.8c1 0 1.8-.5 2.3-1.2h4.5v9.8h-4.5c-.5-.7-1.3-1.2-2.3-1.2-1 0-1.8.5-2.3 1.2h-4c-.6-1.7-2.2-2.8-4.1-2.8C7 57.6 5 59.5 5 62s2 4.4 4.4 4.4c1.9 0 3.5-1.2 4.1-2.8h4c.5.7 1.3 1.2 2.3 1.2 1 0 1.8-.5 2.3-1.2h4.5v5h5.7v4.9c-.2.1-.3.2-.4.4h-8c-.6-1.7-2.2-2.8-4.1-2.8-2.4 0-4.4 2-4.4 4.4s2 4.4 4.4 4.4c1.9 0 3.5-1.2 4.1-2.8h7.5c.4.9 1.4 1.6 2.5 1.6 1.5 0 2.8-1.2 2.8-2.8 0-1-.5-1.8-1.2-2.3v-4.9h9.8v4.9c-.7.5-1.2 1.3-1.2 2.3 0 1.5 1.2 2.8 2.8 2.8s2.8-1.2 2.8-2.8c0-1-.5-1.8-1.2-2.3v-4.9h9.8v4.9c-.7.5-1.2 1.3-1.2 2.3 0 1.5 1.2 2.8 2.8 2.8s2.8-1.2 2.8-2.8c0-1-.5-1.8-1.2-2.3v-4.9c2.7 0 4.8-2.2 4.8-4.9v-.1h4.5c.2.3.4.5.7.7v7c-1.7.6-2.8 2.2-2.8 4.1 0 2.4 2 4.4 4.4 4.4s4.4-2 4.4-4.4c0-1.9-1.2-3.5-2.8-4.1v-7c.7-.5 1.2-1.3 1.2-2.3 0-1.5-1.2-2.8-2.8-2.8-1 0-1.8.5-2.3 1.2h-4.5v-9.8h4.5c.5.7 1.3 1.2 2.3 1.2 1.5 0 2.8-1.2 2.8-2.8s-1.2-2.8-2.8-2.8c-1 0-1.8.5-2.3 1.2h-4.5v-9.8h4.5c.5.7 1.3 1.2 2.3 1.2 1.5 0 2.8-1.2 2.8-2.8s-1.2-2.8-2.8-2.8c-1 0-1.8.5-2.3 1.2h-4.5v-5.2h-4.8v-4.9c.1-.2.4-.4.6-.7zM33.9 10.1c.7 0 1.3.6 1.3 1.3 0 .4-.2.8-.5 1-.2-.1-.5-.2-.7-.2-.3 0-.5.1-.7.2-.3-.2-.5-.6-.5-1-.2-.7.4-1.3 1.1-1.3zM9.4 45.2c-.7 0-1.3-.6-1.3-1.3 0-.7.6-1.3 1.3-1.3.7 0 1.3.6 1.3 1.3 0 .8-.6 1.3-1.3 1.3zm0 18c-.7 0-1.3-.6-1.3-1.3s.6-1.3 1.3-1.3c.7 0 1.3.6 1.3 1.3s-.6 1.3-1.3 1.3zm10.4 13.4c-.7 0-1.3-.6-1.3-1.3 0-.7.6-1.3 1.3-1.3.7 0 1.3.6 1.3 1.3 0 .8-.6 1.3-1.3 1.3zm53.2 0c-.7 0-1.3-.6-1.3-1.3 0-.7.6-1.3 1.3-1.3.7 0 1.3.6 1.3 1.3-.1.8-.6 1.3-1.3 1.3zm-10-13c0 1-.8 1.8-1.8 1.8H29.8v-33H63v31.2zm10-42.8c.7 0 1.3.6 1.3 1.3s-.6 1.3-1.3 1.3c-.7 0-1.3-.6-1.3-1.3s.5-1.3 1.3-1.3z"/></g></g></svg>