<svg xmlns="http://www.w3.org/2000/svg" version="1.1" xlink="http://www.w3.org/1999/xlink" xmlns:svgjs="http://svgjs.com/svgjs" width="300" height="66.80340960049935"><defs id="SvgjsDefs1191"/><g id="SvgjsG1192" transform="scale(0.759129654551129)" opacity="1"><g id="SvgjsG1193" class="NF6SxMrzwL" transform="translate(-13.010367113520903, -2.2688856774051005) scale(0.1718742765700217)" light-content="false" fill="#742a89"><path fill="none" d="M211.311 432.758c-3.85-24.683-5.358-49.608-3.036-74.614.141-1.496.016-3.013.016-4.521-.44-.047-.892-.099-1.335-.149-.456 1.732-1.084 3.44-1.348 5.2-4.049 27.135-2.687 54.186 1.882 81.084 2.333 13.748 10.028 24.286 21.254 32.146h10.153c-15.645-8.002-24.821-21.431-27.586-39.146zm67.187-302.401c.133.374.263.747.396 1.116-.75.699-1.979 1.289-2.164 2.113-.409 1.783-.951 4.085-.153 5.401.593.978 4.175 1.54 4.701.892 1.107-1.371 2.07-4.246 1.344-5.452-2.204-3.672-2.73-6.041 1.764-8.362 1.531-.793 3.166-4.988 2.784-5.311-2.533-2.148-4.273.334-6.084 1.866a1.042 1.042 0 0 0-.267.307c-1.478 2.808-3.323 4.238-6.8 2.898-.876-.338-2.549 1.387-3.854 2.165 1.073.793 2.043 1.979 3.237 2.27 1.612.396 3.387.097 5.096.097zm-132.79-38.426c.306 1.634 2.537 2.911 3.947 4.34 1.343-1.45 3.516-2.773 3.767-4.396.192-1.261-2.007-2.895-3.861-5.291-1.847 2.421-4.085 4.118-3.853 5.347zm28.429 298.948c-.243-4.497-.777-9.019-1.712-13.414-.463-2.195-2.137-4.128-3.264-6.182-.432.196-.868.4-1.3.597-.515 18.049-.786 36.105-1.611 54.134a226.654 226.654 0 0 1-6.807 45.89h2.812c2.746-7.451 5.491-14.906 8.233-22.342 1.795 9.647 3.417 16.922 5.059 22.342h4.753c-1.222-4.941-2.357-9.886-2.722-14.887-1.614-22.012-2.274-44.09-3.441-66.138zm185.252-231.687c-2.098-1.662-4.234-1.296-5.888.88 2.455 1.771 4.765 3.441 7.42 5.354 1.869-2.667.416-4.694-1.532-6.234zm-35.379-18.948l-5.495.456c-.012.369-.027.738-.039 1.104a7710 7710 0 0 1 5.534 4.368v-5.928zm-8.099 290.896c1.111 9.011 2.808 17.947 4.262 26.91.597.031 1.193.063 1.795.091.113-1.909.562-3.873.274-5.716-.589-3.774-1.366-7.549-2.435-11.214-2.188-7.471-2.809-14.553 3.559-20.512.42-.389.526-1.111 1.064-2.325-1.34.437-2.125.542-2.754.915-4.524 2.668-6.363 6.977-5.765 11.851zM157.44 88.113c-.22 1.111 2.102 3.704 3.531 3.904 1.512.212 3.311-1.626 4.988-2.573.031-.601.067-1.202.098-1.807-1.524-1.209-3.115-3.453-4.548-3.354-1.528.107-3.755 2.255-4.069 3.83zm163.514 125.296c4.891.377 7.404-1.854 9.125-4.498 5.962-9.156 11.622-18.508 17.719-28.301-4.981 1.623-7.039 5.487-9.137 9.141-4.78 8.332-8.08 17.684-17.707 23.658zm13.972-38.454c-8.48-1.352-16.458 5.499-25.677.255 4.866 6.815 22.577 6.061 25.677-.255zm36.195 288.539c-6.842-5.032-13.735-9.997-20.578-15.021-12.758-9.372-17.424-21.804-9.561-37.39 2.09-4.151 4.289-8.315 5.742-12.703.994-2.996.786-6.391 1.112-9.607-.562-.109-1.124-.22-1.686-.334-.483 1.183-.978 2.357-1.441 3.547-2.313 5.951-5.982 7.126-10.452 2.558-3.877-3.968-6.874-8.807-10.232-13.276-.734-.979-1.354-2.035-2.03-3.056-.483.216-.962.432-1.441.651.608 2.039.82 4.321 1.897 6.077 4.646 7.601 10.314 14.069 20.33 15.401-1.308 2.137-2.321 3.888-3.421 5.589-7.562 11.709-7.789 23.493.255 34.942 3.072 4.372 4.446 8.614 2.915 13.76-.429 1.438-.86 2.97-.802 4.431.126 3.225.06 6.595 1.021 9.607.357 1.119.86 2.195 1.418 3.232h24.274a17.532 17.532 0 0 0 2.533-1.261c4.271-2.594 4.205-4.165.147-7.147zM173.776 140.782c-1.111 1.622-3.236 3.366-3.06 4.832.188 1.536 2.581 2.804 4.01 4.195 1.3-1.343 3.598-2.655 3.645-4.038.051-1.622-1.858-3.307-2.915-4.965l-1.68-.024zm-6.057 205.786c.016 1.418 1.202 2.824 1.846 4.238 1.512-.927 3.559-1.524 4.399-2.867.931-1.493 1.057-3.677 1.025-5.55-.244-13.843-.311-27.696-1.061-41.511-.417-7.753-1.74-15.499-3.213-23.143-.837-4.353-2.714-5.483-6.957-5.982 4.128 9.152 7.549 18.284 5.951 29.49-2.624-6.873-4.344-13.351-11.642-15.279 6.081 8.685 9.128 18.32 9.596 28.563.484 10.658-.054 21.362.056 32.041zm207.526 99.526c.452-.405.912-.81 1.371-1.218-5.864-4.737-7.035-11.481-8.512-18.159-.522-2.353-1.575-4.678-2.82-6.752-.68-1.119-2.286-1.681-3.959-2.828 3.06 8.269 5.546 15.7 8.605 22.888 1.003 2.353 3.501 4.065 5.315 6.069zM188.019 146.316c1.422.185 3.154-1.96 4.749-3.079-.016-.585-.032-1.167-.043-1.752-1.638-1.088-3.303-3.04-4.902-2.989-1.343.04-3.794 2.604-3.625 3.731.242 1.611 2.301 3.889 3.821 4.089zm-1.108 224.496c3.503-58.667 9.588-117.189 4.246-175.663-1.972 8.865-5.707 160.426-4.246 175.663zm10.947-232.383c1.269.255 3.009-1.838 5.629-3.633-2.506-2.007-4.089-4.25-5.578-4.191-1.458.059-3.92 2.467-3.92 3.842 0 1.413 2.274 3.66 3.869 3.982z"/><path d="M342.75 468.671c-.962-3.013-.896-6.383-1.021-9.607-.059-1.461.373-2.993.802-4.431 1.531-5.146.157-9.388-2.915-13.76-8.044-11.449-7.816-23.233-.255-34.942 1.1-1.701 2.113-3.452 3.421-5.589-10.016-1.332-15.684-7.801-20.33-15.401-1.077-1.756-1.289-4.038-1.897-6.077.479-.22.958-.436 1.441-.651.676 1.021 1.296 2.077 2.03 3.056 3.358 4.47 6.355 9.309 10.232 13.276 4.47 4.568 8.139 3.394 10.452-2.558.464-1.189.958-2.364 1.441-3.547.562.114 1.124.225 1.686.334-.326 3.217-.118 6.611-1.112 9.607-1.453 4.388-3.652 8.552-5.742 12.703-7.863 15.586-3.197 28.018 9.561 37.39 6.843 5.023 13.736 9.988 20.578 15.021 4.058 2.981 4.124 4.553-.146 7.148a17.74 17.74 0 0 1-2.533 1.261h53.019c-.507-3.378-3.056-5.981-6.061-8.539-1.799-1.528-2.974-3.896-4.156-6.037-4.081-7.408-7.883-14.98-12.133-22.291-1.618-2.788-2.773-5.377-1.649-8.492 2.463-6.83 5.314-13.539 7.436-20.472 1.783-5.829 4.548-12.173 3.7-17.81-1.395-9.297-1.862-18.473-1.886-27.793-.008-3.496-.938-7.066-1.897-10.477-3.586-12.797-11.305-23.339-18.7-34.09-8.076-11.732-15.877-23.661-23.67-35.591-1.265-1.933-1.865-4.301-2.962-6.901-2.812 7.326-7.271 11.98-14.474 13.717.723-1.775 1.917-3.088 3.15-4.364 1.893-1.956 4.336-3.586 5.616-5.876 6.273-11.198 8.933-22.711 1.827-34.699-1.116-1.881-1.874-3.971-2.816-5.951-2.707-5.699-3.995-11.619-3.178-17.97 1.178-9.242 2.109-18.516 3.425-27.735.204-1.441 1.937-2.635 2.871-4.006 1.862-2.722 5.33-5.64 5.103-8.209-.385-4.356 1.064-6.862 3.778-9.639 2.699-2.761 2.691-7.981.357-11.544-2.25-3.429-5.507-4.612-9.289-3.091-2.577 1.037-3.382.098-4.058-2.165-1.717-5.707-5.519-9.694-10.73-12.432-6.934-3.645-14.228-4.823-21.93-3.213-5.559 1.163-10.487.063-15.095-3.441-2.055-1.563-4.537-2.565-6.654-3.555-.039-.016-.078-.028-.126-.047-5.138-2.376-7.459 2.636-8.087 7.176.173-.067.404-.157.723-.291-1.418 8.696 3.735 13.001 10.971 15.959-3.696 1.854-3.857 1.925-14.078-7.443a1.06 1.06 0 0 1-.389-.047c-2.09-.644-4.081-.99-6.21-.864-.773 4.466.196 8.779 1.371 13.119.109.4-.004.734-.216.97 2.514 5.11 6.527 9.23 9.91 13.783 2.454 3.312 1.979 7.176-.876 9.792-8.15 7.479-9.679 16.67-8.387 27.024.413 3.311-.251 6.756-.424 10.287 9.238-1.658 17.302.994 24.502 6.473-.106.42-.208.84-.314 1.265-.828-.106-1.685-.118-2.482-.342-2.772-.777-5.487-1.795-8.287-2.416-7.483-1.666-15.288-4.207-22.174 1.08-8.943 6.862-15.856 15.358-16.387 27.271-.09 1.96 1.976 4.187 3.413 6.002 2.039 2.577 4.423 4.882 6.658 7.31-.314.338-.633.675-.947 1.013-.703-.416-1.531-.711-2.085-1.276-3.17-3.232-6.47-6.375-9.353-9.851-3.896-4.694-8.794-7.353-14.71-8.252-4.121-.628-6.43-2.432-6.061-7.078.193-2.396-.337-4.949-1.001-7.298-1.021-3.61-3.668-5.083-7.604-4.914.758 2.561 1.406 4.745 2.055 6.929-.432.177-.86.354-1.292.53-.648-1.312-1.045-2.875-2.019-3.88-1.367-1.41-3.421-3.618-4.725-3.339-3.312.707-.664 3.276-.609 5.04.035.994.499 1.972.872 3.331-3.225-.683-3.889-6.249-8.567-2.954 6.524 7.585 5.853 15.81 3.586 24.153v.02c.07 7.765 1.217 15.303 2.969 22.852.181.774.357 1.587.534 2.412 2.361 2.95 4.788 5.798 7.742 7.911 6.155 4.398 10.158 11.717 18.634 13.225 3.995.711 7.557 3.685 11.422 5.382 2.97 1.304 6.057 2.784 9.195 3.106 2.121.224 4.619-1.123 6.618-2.313 3.028-1.791 5.884-3.924 8.614-6.159 5.472-4.485 10.821-9.124 16.179-13.739.892-.767 1.579-1.756 2.36-2.644l.971.412c-.389 1.1-.598 2.317-1.198 3.284-4.184 6.748-9.223 12.494-16.858 15.676-3.213 1.34-5.951 3.795-8.983 5.613-1.948 1.17-3.932 2.475-6.08 3.048-2.313.612-3.174 1.438-2.023 3.649 3.037 5.824 5.955 11.721 9.188 17.436 3.374 5.982 8.85 8.614 15.578 9.234 9.49.876 18.556-.958 27.511-3.782.605-.192 1.233-.295 1.854-.44.231.342.468.684.703 1.021-1.469 1.068-2.797 2.498-4.431 3.135-6.713 2.628-13.649 3.998-20.92 2.891-2.981-.456-5.986-.821-8.995-.982-2.203-.121-3.469 1.045-2.671 3.367.927 2.71 1.874 5.447 3.158 7.997 4.769 9.415 9.557 18.826 14.572 28.115 3.272 6.064 3.386 11.686-.086 17.829-3.226 5.699-6.101 11.717-8.183 17.911-3.099 9.23-1.638 18.418 2.192 27.26 1.146 2.644 2.176 5.342 3.44 7.926 3.257 6.701 0 11.199-5.212 13.799h52.335c-.557-1.039-1.06-2.115-1.417-3.234zm22.534-48.706c1.245 2.074 2.298 4.399 2.82 6.752 1.477 6.678 2.647 13.422 8.512 18.159-.459.408-.919.813-1.371 1.218-1.814-2.004-4.313-3.716-5.314-6.069-3.06-7.188-5.546-14.619-8.605-22.888 1.672 1.147 3.278 1.709 3.958 2.828zm-5.895-260.773c1.948 1.54 3.401 3.566 1.532 6.233-2.655-1.913-4.965-3.582-7.42-5.354 1.653-2.175 3.79-2.54 5.888-.879zm-11.591 21.419c-6.097 9.792-11.757 19.145-17.719 28.301-1.721 2.644-4.234 4.875-9.125 4.498 9.627-5.975 12.927-15.327 17.707-23.658 2.098-3.654 4.155-7.519 9.137-9.141zM318.515 140.7l5.495-.456v5.927c-2.486-1.964-4.01-3.166-5.534-4.368.011-.365.027-.734.039-1.103zm-9.266 34.51c9.219 5.244 17.196-1.607 25.677-.255-3.1 6.316-20.811 7.07-25.677.255zm14.117 245.489c-6.367 5.959-5.747 13.041-3.559 20.512 1.068 3.665 1.846 7.439 2.435 11.214.287 1.843-.161 3.807-.274 5.716-.602-.027-1.198-.06-1.795-.091-1.454-8.963-3.15-17.899-4.262-26.91-.598-4.874 1.241-9.183 5.766-11.851.629-.373 1.414-.479 2.754-.915-.538 1.214-.645 1.937-1.065 2.325z"/><path d="M421.461 471.903H271.329c-2.317-1.292-4.489-3.052-6.489-5.299-4.933-5.522-11.324-8.491-18.445-10.106-6.587-1.488-10.586-5.676-13.029-11.909-4.8-12.259-6.834-25.099-8.642-38.014-2.887-20.63-6.292-41.208-8.523-61.912-1.929-17.844-2.934-35.834.974-53.679.051-.224.063-.459.059-.702a49.501 49.501 0 0 1-.903-3.206c-.165-.369-.334-.734-.491-1.076-1.304-2.875-2.875-5.636-4.333-8.44.42-.229.845-.452 1.265-.68a67.995 67.995 0 0 1 1.685 1.991c-1.296-5.942-2.199-11.894-2.49-17.962-.016.004-.027.004-.043.004-.063-1.226-.224-2.451-.181-3.673.251-7.514 1.167-15.032-3.445-21.91-1.87-2.789.55-5.326 2.903-6.273 5.396-2.176 5.102-5.994 5.027-10.868-.185-11.921.55-23.851.966-35.779.032-1.053.44-2.09.688-3.201 2.502 0 4.823.157 7.117-.032 3.798-.322 6.921-1.559 7.793-5.974.146-.75 1.909-1.721 2.883-1.673 4.058.192 7.447-.809 10.554-3.625 1.131-1.025 3.539-1.265 5.205-.966 4.898.876 9.392 1.485 11.524-4.56.247-.699 1.406-1.332 2.251-1.524 7.985-1.823 8.256-1.858 13.516-6.387-.919-3.991-1.387-7.961-.499-12.086.106-.511.581-.742 1.049-.797 2.329-.283 4.478-.02 6.682.57.329-.672.655-1.332.974-1.976a1.095 1.095 0 0 1-.094-.389c-.342-6.088 2.635-14.545 9.348-13.206 0-2.538.114-5.205-.727-7.53-1.327-3.692-1.249-6.937.224-10.323 2.676-6.17.912-11.292-3.794-15.57-2.215-2.023-4.941-3.492-7.137-5.535-4.207-3.904-9.333-3.716-14.235-2.903-2.058.342-3.719 3.052-5.569 4.674-.303.267-.719.747-.978.684-5.197-1.257-7.97 2.404-11.658 4.938-2.251 1.54-6.481 1.009-9.568.302-4.207-.955-6.587-.004-8.594 3.857-2.585 4.977-5.456 5.452-9.973 2.137-1.783-1.308-3.189-1.414-5.491-1.088-3.099.436-6.504-.699-9.674-1.563-2-.55-3.747-1.98-5.715-2.746-4.541-1.768-8.716-3.889-11.257-8.873 4.007 1.866 7.424 3.425 10.813 5.047 2.616 1.249 5.13 2.75 7.813 3.822 1.826.73 4.623 1.928 5.664 1.151 2.974-2.231 5.004-1.163 7.781.145 1.666.782 5.381.68 5.979-.326 3.665-6.151 8.598-7.554 15.099-5.562 2.196.671 4.509.656 5.621-1.933 1.787-4.171 4.706-4.725 8.744-3.437 1.182.377 3.904-.436 4.089-1.174 1.15-4.474 4.387-4.984 8.15-5.444 1.646-.201 4.029-1.367 4.544-2.691 3.115-8.009-1.473-17.919-9.689-21.155-3.422-1.348-7.078-2.121-10.676-2.974-4.438-1.049-8.206-2.95-10.692-6.992-4.14-6.74-9.985-11.073-17.77-12.985-2.247-.554-5.012-1.921-6.077-3.763-2.168-3.751-5.401-5.098-9.117-5.401-3.386-.275-5.165-1.587-6.854-4.627-3.751-6.736-12.129-7.51-14.761-1.359-3.15 7.376-8.59 9.403-15.767 9.077-5.361-.244-9.835 1.516-13.736 5.311-1.905 1.858-4.333 3.932-6.779 4.325-5.585.896-11.155 1.308-15.531 5.479-.263.255-.77.396-1.147.373-4.344-.307-6.469 2.75-9.046 5.479-1.532 1.626-3.896 3.013-6.076 3.382-5.358.899-5.699.97-5.955 6.583-.04.958.067 2.015-.295 2.848-1.768 4.085.558 6.155 3.72 7.781 1.477.762 3.068 1.289 5.154 2.148-5.798 1.952-9.128.578-13.041-4.725-3.755.22-7.439.42-11.12.66-3.928.251-6.988 1.972-7.993 5.912-.621 2.439-2.042 2.899-4.113 3.731-1.995.801-4.049 2.887-4.784 4.882-.475 1.289.892 4.207 2.267 5.055 4.992 3.083 9.105 7.094 13.536 10.802 3.551 2.966 9.375 3.123 14.101 4.792 4.316 1.532 8.508 3.429 12.758 5.162-.212.632-.42 1.269-.628 1.905-2.133-.409-4.274-.774-6.387-1.233-4.624-1.001-9.203-2.69-13.858-2.918-5.73-.279-9.745-2.306-12.129-7.482-1.559-3.386-4.148-5.322-7.82-5.963-1.705-.298-3.362-.872-5.805-1.528-.248 2.51-.44 4.875-.739 7.224-.185 1.441-.141 3.123-.88 4.254-2.435 3.739-4.179 7.373-1.72 11.842.424.766-.043 2.145-.35 3.166-1.823 6.112 4.03 9.455 5.201 14.482.063.271.66.558 1.033.601 7.078.817 9.399 6.222 11.776 11.792.73 1.713 2.361 3.139 3.837 4.399 2.33 2.003 5.146 3.496 7.251 5.688 2.145 2.235 4.219 3.936 7.447 3.315 3.74-.719 6.355.805 8.355 3.861 2.117 3.249 4.996 4.772 9.05 4.49 1.724-.122 4.207.452 5.177 1.653 3.249 4.03 6.552 3.767 10.409 1.257 3.468-2.263 6.402-2.157 9.262 1.422 3.099 3.873 6.964 4.136 11.297 1.63 1.284-.746 2.808-1.854 4.077-1.693 4.489.578 8.92 1.638 13.414 2.521-3.685 5.314-7.318 6.179-12.337 3.386-1.061-.589-2.848-.452-4.05.008-.734.283-1.477 1.874-1.375 2.789 1.056 9.808 2.961 19.569 3.288 29.389.499 15.06.2 30.162-.299 45.226-.216 6.587-8.531 11.596-14.973 10.307-2.16-.432-5.491-.326-6.744.998-4.485 4.733-6.662 10.751-5.743 17.33.287 2.022 1.886 4.419 3.602 5.593 7.455 5.11 11.732 12.342 13.763 20.759 3.842 15.939 2.384 32.205 1.937 48.364-.385 13.987-1.284 27.963-1.685 41.95-.279 9.726.106 19.475-.188 29.2-.404 13.37-4.281 25.932-9.891 37.975-1.48 3.182-3.413 5.774-6.061 7.502h-67.67v53.298h362.529v-53.298h-16.765zM274.02 125.825c3.477 1.339 5.322-.09 6.8-2.898.059-.114.165-.224.267-.307 1.811-1.532 3.551-4.014 6.084-1.866.382.322-1.253 4.517-2.784 5.311-4.494 2.321-3.968 4.69-1.764 8.362.727 1.206-.236 4.081-1.344 5.452-.526.648-4.108.086-4.701-.892-.798-1.316-.256-3.618.153-5.401.185-.825 1.414-1.414 2.164-2.113-.134-.369-.264-.742-.396-1.116-1.709 0-3.484.299-5.095-.098-1.194-.291-2.164-1.477-3.237-2.27 1.304-.778 2.977-2.502 3.853-2.164zM153.422 91.876c-.251 1.622-2.424 2.946-3.767 4.396-1.41-1.43-3.641-2.707-3.947-4.34-.232-1.229 2.007-2.926 3.853-5.346 1.854 2.395 4.053 4.029 3.861 5.29zm12.537-2.431c-1.677.946-3.476 2.785-4.988 2.573-1.43-.201-3.751-2.793-3.531-3.904.314-1.575 2.542-3.724 4.069-3.83 1.434-.098 3.024 2.145 4.548 3.354-.031.605-.066 1.206-.098 1.807zm8.768 60.364c-1.43-1.391-3.822-2.659-4.01-4.195-.177-1.465 1.948-3.209 3.06-4.832l1.681.023c1.057 1.658 2.966 3.343 2.915 4.965-.048 1.383-2.346 2.695-3.646 4.039zm-16.659 136.156c7.298 1.929 9.019 8.406 11.642 15.279 1.599-11.206-1.822-20.338-5.951-29.49 4.242.499 6.12 1.63 6.957 5.982 1.473 7.644 2.796 15.39 3.213 23.143.75 13.814.817 27.668 1.061 41.511.031 1.873-.094 4.057-1.025 5.55-.84 1.343-2.887 1.94-4.399 2.867-.645-1.414-1.831-2.82-1.846-4.238-.11-10.68.428-21.384-.055-32.04-.468-10.244-3.516-19.88-9.597-28.564zm17.479 185.938c-1.642-5.42-3.264-12.694-5.059-22.342-2.742 7.436-5.487 14.891-8.233 22.342h-2.812a226.714 226.714 0 0 0 6.807-45.89c.825-18.028 1.096-36.085 1.611-54.134.432-.196.868-.4 1.3-.597 1.127 2.054 2.801 3.986 3.264 6.182.935 4.396 1.469 8.917 1.712 13.414 1.167 22.048 1.827 44.126 3.441 66.138.365 5.001 1.5 9.945 2.722 14.887h-4.753zm8.65-329.675c-.169-1.127 2.282-3.692 3.625-3.731 1.599-.051 3.264 1.901 4.902 2.989.012.585.027 1.167.043 1.752-1.595 1.119-3.327 3.264-4.749 3.079-1.519-.201-3.578-2.479-3.821-4.089zm2.714 228.584c-1.461-15.236 2.274-166.798 4.246-175.663 5.342 58.474-.742 116.996-4.246 175.663zm10.947-232.383c-1.595-.322-3.869-2.569-3.869-3.982 0-1.375 2.463-3.783 3.92-3.842 1.488-.059 3.071 2.184 5.578 4.191-2.62 1.795-4.361 3.889-5.629 3.633zm30.885 333.474c-11.226-7.859-18.921-18.397-21.254-32.146-4.568-26.898-5.931-53.949-1.882-81.084.263-1.76.892-3.468 1.348-5.2.444.051.896.103 1.335.149 0 1.508.125 3.024-.016 4.521-2.322 25.006-.813 49.932 3.036 74.614 2.765 17.715 11.941 31.145 27.585 39.146h-10.152z"/></g><g id="SvgjsG1194" class="text" transform="translate(80.27940961065337, 38.635) scale(1)" light-content="false" fill="#742a89"><path d="M2.03 -0.45L2.03 0L20.47 0L20.47 -5.26L20.02 -5.26C20.02 -4.97 19.96 -4.6 19.82 -4.16C19.69 -3.73 19.48 -3.32 19.19 -2.95C18.91 -2.57 18.56 -2.25 18.13 -1.98C17.71 -1.71 17.22 -1.57 16.65 -1.57L6.8 -1.57L6.8 -15.21L14.26 -15.21C14.99 -15.21 15.57 -15.01 16.02 -14.62C16.47 -14.24 16.7 -13.77 16.7 -13.23L17.15 -13.23L17.15 -18.85L16.7 -18.85C16.7 -18.29 16.46 -17.79 16 -17.37C15.53 -16.95 14.96 -16.74 14.26 -16.74L6.8 -16.74L6.8 -28.12L15.84 -28.12C16.86 -28.12 17.61 -27.86 18.09 -27.34C18.57 -26.81 18.84 -26.2 18.9 -25.51L19.35 -25.51L19.35 -29.7L2.03 -29.7L2.03 -29.25L2.25 -29.25C2.49 -29.25 2.7 -29.17 2.88 -29C3.06 -28.84 3.22 -28.63 3.35 -28.39C3.49 -28.16 3.59 -27.9 3.67 -27.63C3.74 -27.36 3.78 -27.12 3.78 -26.91L3.78 -2.83C3.78 -2.6 3.74 -2.34 3.67 -2.07C3.59 -1.8 3.49 -1.54 3.35 -1.3C3.22 -1.07 3.06 -0.86 2.88 -0.7C2.7 -0.53 2.49 -0.45 2.25 -0.45Z M41.44 -18.9L37.03 -18.9L37.03 -18.45C37.21 -18.45 37.43 -18.37 37.69 -18.2C37.94 -18.04 38.07 -17.82 38.07 -17.55C38.07 -17.4 38.01 -17.17 37.89 -16.87L32.31 -4.72L27.14 -16.38C26.89 -16.92 26.78 -17.26 26.78 -17.41C26.78 -17.75 26.92 -18 27.2 -18.18C27.49 -18.36 27.72 -18.45 27.9 -18.45L27.9 -18.9L21.74 -18.9L21.74 -18.45C22.24 -18.45 22.67 -18.2 22.99 -17.71C23.32 -17.21 23.59 -16.72 23.81 -16.24L31.5 0.77L39.24 -16.06C39.36 -16.31 39.5 -16.57 39.67 -16.85C39.83 -17.14 40.01 -17.4 40.21 -17.64C40.4 -17.88 40.61 -18.07 40.82 -18.22C41.02 -18.38 41.23 -18.45 41.44 -18.45Z M46.71 -9.09L62.33 -9.09C62.33 -10.56 62.15 -11.91 61.79 -13.14C61.43 -14.37 60.88 -15.43 60.14 -16.33C59.41 -17.23 58.48 -17.94 57.35 -18.45C56.23 -18.96 54.92 -19.21 53.42 -19.21C51.74 -19.21 50.3 -18.93 49.1 -18.36C47.9 -17.79 46.91 -17.05 46.15 -16.13C45.38 -15.22 44.81 -14.19 44.44 -13.05C44.06 -11.91 43.88 -10.79 43.88 -9.67C43.88 -7.93 44.15 -6.43 44.71 -5.17C45.26 -3.91 46.01 -2.88 46.94 -2.07C47.86 -1.26 48.94 -0.66 50.15 -0.27C51.37 0.12 52.65 0.32 54 0.32C55.68 0.32 57.03 0.11 58.05 -0.29C59.07 -0.7 59.88 -1.08 60.48 -1.44C60.78 -1.62 61.04 -1.77 61.27 -1.89C61.49 -2.01 61.7 -2.07 61.88 -2.07L61.88 -5.44L61.47 -5.44C61.29 -4.79 60.95 -4.19 60.46 -3.67C59.96 -3.14 59.4 -2.7 58.77 -2.34C58.14 -1.98 57.46 -1.7 56.72 -1.51C55.99 -1.31 55.29 -1.21 54.63 -1.21C53.4 -1.21 52.32 -1.43 51.39 -1.87C50.46 -2.3 49.67 -2.88 49.03 -3.6C48.38 -4.32 47.86 -5.15 47.48 -6.1C47.09 -7.04 46.83 -8.04 46.71 -9.09ZM53.24 -17.73C54.25 -17.73 55.15 -17.53 55.94 -17.12C56.72 -16.72 57.36 -16.18 57.87 -15.52C58.38 -14.87 58.78 -14.11 59.06 -13.27C59.35 -12.44 59.51 -11.58 59.54 -10.71L46.71 -10.71C46.8 -11.55 47 -12.39 47.3 -13.23C47.59 -14.07 48.02 -14.82 48.56 -15.48C49.1 -16.14 49.75 -16.68 50.51 -17.1C51.28 -17.52 52.19 -17.73 53.24 -17.73Z M66.24 0L72.13 0L72.13 -0.45C71.9 -0.45 71.69 -0.54 71.53 -0.72C71.36 -0.9 71.21 -1.11 71.08 -1.35C70.94 -1.59 70.84 -1.85 70.79 -2.14C70.73 -2.42 70.69 -2.68 70.69 -2.92L70.69 -29.97L66.15 -28.57L66.15 -28.12C66.9 -28.09 67.35 -27.85 67.5 -27.4C67.65 -26.95 67.72 -26.47 67.72 -25.96L67.72 -2.92C67.72 -2.69 67.7 -2.42 67.63 -2.14C67.57 -1.85 67.48 -1.59 67.34 -1.35C67.21 -1.11 67.05 -0.9 66.87 -0.72C66.69 -0.54 66.48 -0.45 66.24 -0.45Z M83.65 6.44L92.93 -16.47C93.13 -16.98 93.41 -17.44 93.76 -17.84C94.1 -18.25 94.51 -18.45 94.99 -18.45L94.99 -18.9L90.63 -18.9L90.63 -18.45C90.84 -18.45 91.04 -18.36 91.24 -18.18C91.43 -18 91.53 -17.76 91.53 -17.46C91.53 -17.28 91.48 -17.08 91.4 -16.87L86.09 -3.87L80.55 -16.6C80.43 -16.81 80.37 -17.05 80.37 -17.32C80.37 -17.66 80.46 -17.93 80.64 -18.13C80.82 -18.34 80.97 -18.45 81.09 -18.45L81.09 -18.9L75.15 -18.9L75.15 -18.45C75.75 -18.45 76.22 -18.22 76.57 -17.75C76.91 -17.29 77.16 -16.87 77.31 -16.51L84.56 -0.13L82.35 5.4C81.93 6.45 81.36 6.98 80.64 6.98C80.25 6.98 79.92 6.85 79.65 6.61C79.38 6.38 79.17 6.11 79.02 5.81C78.87 5.54 78.72 5.13 78.57 4.59L77.08 8.24C77.12 8.32 77.21 8.45 77.35 8.59C77.51 8.74 77.71 8.9 77.96 9.07C78.22 9.23 78.52 9.38 78.86 9.49C79.21 9.62 79.6 9.67 80.05 9.67C80.74 9.67 81.41 9.45 82.06 9C82.7 8.55 83.23 7.69 83.65 6.44Z M115.87 -2.92L115.87 -11.61C115.87 -12.48 115.73 -13.37 115.45 -14.29C115.16 -15.2 114.7 -16.04 114.07 -16.81C113.45 -17.57 112.64 -18.2 111.65 -18.67C110.65 -19.15 109.46 -19.39 108.04 -19.39C107.21 -19.39 106.48 -19.31 105.86 -19.15C105.25 -18.98 104.71 -18.77 104.24 -18.52C103.78 -18.26 103.38 -17.99 103.05 -17.71C102.72 -17.42 102.45 -17.16 102.24 -16.92L102.24 -19.39L97.74 -17.95L97.74 -17.55C98.46 -17.52 98.89 -17.27 99.04 -16.81C99.2 -16.34 99.27 -15.86 99.27 -15.34L99.27 -2.92C99.27 -2.69 99.24 -2.42 99.18 -2.14C99.12 -1.85 99.02 -1.59 98.89 -1.35C98.75 -1.11 98.59 -0.9 98.42 -0.72C98.23 -0.54 98.04 -0.45 97.83 -0.45L97.83 0L103.68 0L103.68 -0.45C103.44 -0.45 103.24 -0.54 103.07 -0.72C102.91 -0.9 102.76 -1.11 102.62 -1.35C102.49 -1.59 102.39 -1.85 102.33 -2.14C102.27 -2.42 102.24 -2.68 102.24 -2.92L102.24 -12.91C102.24 -13.54 102.4 -14.15 102.71 -14.74C103.03 -15.32 103.43 -15.83 103.93 -16.27C104.42 -16.7 104.99 -17.05 105.64 -17.32C106.28 -17.59 106.93 -17.73 107.59 -17.73C108.25 -17.73 108.91 -17.6 109.55 -17.35C110.2 -17.09 110.77 -16.69 111.29 -16.15C111.8 -15.61 112.2 -14.94 112.5 -14.13C112.8 -13.32 112.95 -12.37 112.95 -11.29L112.95 -2.92C112.95 -2.69 112.92 -2.42 112.86 -2.14C112.8 -1.85 112.7 -1.59 112.57 -1.35C112.43 -1.11 112.28 -0.9 112.1 -0.72C111.92 -0.54 111.72 -0.45 111.51 -0.45L111.51 0L117.32 0L117.32 -0.45C117.07 -0.45 116.87 -0.54 116.71 -0.72C116.54 -0.9 116.39 -1.11 116.26 -1.35C116.12 -1.59 116.03 -1.85 115.96 -2.14C115.9 -2.42 115.87 -2.68 115.87 -2.92Z M160.16 -3.33L158.22 -4.9C157.56 -5.44 156.88 -6 156.2 -6.57C155.51 -7.14 154.86 -7.71 154.26 -8.28C154.92 -9.3 155.48 -10.5 155.93 -11.88C156.38 -13.26 156.74 -14.58 157.01 -15.84C157.33 -17.31 157.59 -18.82 157.77 -20.38C157.83 -20.81 158.02 -21.16 158.33 -21.44C158.65 -21.73 158.95 -21.87 159.26 -21.87L159.26 -22.32L154.62 -22.32L154.62 -21.87C154.98 -21.87 155.31 -21.71 155.61 -21.4C155.91 -21.08 156.06 -20.73 156.06 -20.34C156.06 -20.01 156.02 -19.47 155.95 -18.72C155.87 -17.97 155.72 -17.09 155.5 -16.09C155.27 -15.08 154.97 -13.98 154.6 -12.78C154.22 -11.58 153.74 -10.38 153.14 -9.18C151.7 -10.32 150.24 -11.5 148.77 -12.73C147.3 -13.97 145.87 -15.15 144.5 -16.29C146.21 -17.28 147.4 -18.38 148.1 -19.57C148.79 -20.77 149.13 -21.93 149.13 -23.04C149.13 -23.88 148.98 -24.71 148.68 -25.54C148.38 -26.36 147.93 -27.09 147.33 -27.72C146.73 -28.35 146 -28.86 145.13 -29.25C144.26 -29.64 143.25 -29.83 142.11 -29.83C141.15 -29.83 140.27 -29.66 139.48 -29.32C138.68 -28.97 137.98 -28.51 137.39 -27.92C136.79 -27.34 136.32 -26.65 135.99 -25.87C135.66 -25.1 135.5 -24.27 135.5 -23.4C135.5 -22.14 135.88 -20.92 136.67 -19.75C137.44 -18.58 138.56 -17.4 140 -16.2C137.54 -15.03 135.78 -13.72 134.73 -12.26C133.68 -10.81 133.16 -9.04 133.16 -6.97C133.16 -6.02 133.35 -5.08 133.74 -4.18C134.13 -3.28 134.69 -2.5 135.43 -1.82C136.16 -1.15 137.06 -0.61 138.13 -0.2C139.19 0.2 140.4 0.41 141.75 0.41C143.85 0.41 145.76 -0.07 147.49 -1.01C149.21 -1.96 150.89 -3.52 152.51 -5.71L156.96 -2.2C157.74 -1.61 158.56 -1.09 159.44 -0.65C160.3 -0.22 161.31 0 162.45 0L164.97 0L164.97 -0.45C164.55 -0.45 164.07 -0.6 163.53 -0.9C162.99 -1.2 162.46 -1.53 161.96 -1.89C161.38 -2.31 160.79 -2.79 160.16 -3.33ZM138.29 -23.53C138.23 -23.68 138.2 -23.83 138.2 -23.98L138.2 -24.43C138.2 -25.51 138.49 -26.45 139.07 -27.22C139.66 -28 140.45 -28.39 141.44 -28.39C142.34 -28.39 143.12 -28.22 143.8 -27.88C144.47 -27.53 145.03 -27.08 145.46 -26.53C145.9 -25.97 146.23 -25.35 146.45 -24.66C146.68 -23.97 146.79 -23.26 146.79 -22.54C146.79 -21.62 146.48 -20.66 145.85 -19.69C145.22 -18.71 144.32 -17.98 143.15 -17.5C142.03 -18.43 141 -19.41 140.04 -20.43C139.08 -21.45 138.5 -22.48 138.29 -23.53ZM143.06 -1.17C142.07 -1.2 141.13 -1.42 140.27 -1.82C139.4 -2.23 138.65 -2.74 138.02 -3.37C137.39 -4 136.89 -4.71 136.53 -5.49C136.17 -6.27 135.99 -7.06 135.99 -7.87C135.99 -9.19 136.42 -10.5 137.3 -11.79C138.16 -13.08 139.51 -14.16 141.35 -15.03C142.99 -13.68 144.68 -12.29 146.39 -10.87C148.1 -9.44 149.78 -8.04 151.43 -6.66C150.23 -5.04 148.9 -3.72 147.44 -2.7C145.99 -1.68 144.52 -1.17 143.06 -1.17Z M203.9 -0.45L203.9 0L210.29 0L210.29 -0.45L210.06 -0.45C209.82 -0.45 209.61 -0.54 209.43 -0.72C209.25 -0.9 209.09 -1.11 208.96 -1.35C208.82 -1.59 208.72 -1.85 208.67 -2.14C208.61 -2.42 208.58 -2.68 208.58 -2.92L208.58 -26.91C208.58 -27.12 208.61 -27.36 208.67 -27.63C208.72 -27.9 208.82 -28.16 208.96 -28.39C209.09 -28.63 209.25 -28.84 209.43 -29C209.61 -29.17 209.82 -29.25 210.06 -29.25L210.29 -29.25L210.29 -29.7L205.2 -29.7L194.76 -5.08L184.32 -29.7L179.73 -29.7L179.73 -29.25L179.96 -29.25C180.17 -29.25 180.36 -29.17 180.54 -29C180.72 -28.84 180.87 -28.63 180.99 -28.39C181.11 -28.16 181.2 -27.9 181.26 -27.63C181.32 -27.36 181.35 -27.12 181.35 -26.91L181.35 -2.92C181.35 -2.69 181.32 -2.42 181.26 -2.14C181.2 -1.85 181.11 -1.59 180.99 -1.35C180.87 -1.11 180.72 -0.9 180.54 -0.72C180.36 -0.54 180.17 -0.45 179.96 -0.45L179.73 -0.45L179.73 0L184.64 0L184.64 -0.45L184.41 -0.45C184.17 -0.45 183.96 -0.54 183.78 -0.72C183.6 -0.9 183.44 -1.11 183.31 -1.35C183.17 -1.59 183.08 -1.85 183.02 -2.14C182.95 -2.42 182.93 -2.68 182.93 -2.92L182.93 -25.2L193.95 0.5L205.56 -26.59L205.56 -2.92C205.56 -2.69 205.53 -2.42 205.47 -2.14C205.41 -1.85 205.31 -1.59 205.18 -1.35C205.04 -1.11 204.89 -0.9 204.71 -0.72C204.53 -0.54 204.33 -0.45 204.12 -0.45Z M226.53 0L230.9 0L230.9 -0.45C230.45 -0.45 230.09 -0.71 229.82 -1.24C229.55 -1.76 229.41 -2.33 229.41 -2.92L229.41 -11.83C229.41 -12.76 229.32 -13.67 229.14 -14.56C228.96 -15.44 228.59 -16.23 228.04 -16.92C227.48 -17.61 226.69 -18.16 225.68 -18.58C224.66 -19.01 223.32 -19.21 221.67 -19.21C220.26 -19.21 219.16 -19.04 218.39 -18.7C217.6 -18.35 216.99 -18.09 216.54 -17.91C216.24 -17.79 215.98 -17.67 215.78 -17.55C215.57 -17.43 215.34 -17.35 215.1 -17.32L215.1 -14.04L215.51 -14.04C215.69 -14.43 215.93 -14.84 216.23 -15.28C216.52 -15.71 216.89 -16.12 217.33 -16.49C217.76 -16.87 218.27 -17.17 218.86 -17.41C219.44 -17.66 220.13 -17.77 220.91 -17.77C221.36 -17.77 221.9 -17.71 222.53 -17.57C223.16 -17.44 223.75 -17.17 224.33 -16.76C224.89 -16.36 225.39 -15.79 225.81 -15.07C226.23 -14.35 226.47 -13.41 226.53 -12.24C224.58 -11.76 222.85 -11.27 221.33 -10.78C219.82 -10.28 218.53 -9.73 217.49 -9.13C216.44 -8.54 215.63 -7.84 215.08 -7.06C214.52 -6.29 214.25 -5.38 214.25 -4.36C214.25 -3.73 214.36 -3.13 214.58 -2.56C214.81 -2 215.16 -1.49 215.64 -1.06C216.12 -0.62 216.73 -0.28 217.49 -0.04C218.23 0.19 219.13 0.32 220.19 0.32C221.57 0.32 222.74 0.1 223.72 -0.31C224.69 -0.73 225.55 -1.32 226.31 -2.07L226.53 -2.29ZM226.53 -4.27L226.04 -3.73C225.41 -3.05 224.71 -2.48 223.97 -2.05C223.21 -1.61 222.35 -1.39 221.36 -1.39C220.1 -1.39 219.07 -1.71 218.3 -2.34C217.51 -2.97 217.13 -3.76 217.13 -4.72C217.13 -5.6 217.46 -6.36 218.12 -7.02C218.78 -7.68 219.57 -8.25 220.5 -8.73C221.43 -9.21 222.41 -9.6 223.45 -9.9C224.48 -10.2 225.36 -10.44 226.08 -10.62L226.53 -10.71Z M246.2 -15.61L247.55 -18.36C247.12 -18.57 246.58 -18.76 245.93 -18.94C245.27 -19.12 244.73 -19.21 244.31 -19.21C243.71 -19.21 243.18 -19.13 242.73 -18.97C242.28 -18.8 241.87 -18.59 241.49 -18.34C241.12 -18.08 240.78 -17.8 240.48 -17.48C240.18 -17.17 239.9 -16.85 239.63 -16.51L239.63 -19.21L235.08 -17.86L235.08 -17.5C235.59 -17.39 235.98 -17.12 236.25 -16.69C236.52 -16.28 236.66 -15.86 236.66 -15.43L236.66 -2.88C236.66 -2.64 236.63 -2.38 236.57 -2.11C236.5 -1.84 236.41 -1.58 236.27 -1.33C236.14 -1.07 235.98 -0.86 235.8 -0.7C235.62 -0.53 235.43 -0.45 235.22 -0.45L235.22 0L241.07 0L241.07 -0.45C240.83 -0.45 240.62 -0.53 240.46 -0.7C240.29 -0.86 240.14 -1.07 240.01 -1.33C239.87 -1.58 239.77 -1.84 239.72 -2.11C239.66 -2.38 239.63 -2.64 239.63 -2.88L239.63 -14.58C239.86 -14.82 240.16 -15.08 240.5 -15.37C240.85 -15.65 241.2 -15.91 241.56 -16.15C241.92 -16.4 242.29 -16.59 242.66 -16.74C243.04 -16.89 243.39 -16.96 243.72 -16.96C244.23 -16.96 244.68 -16.89 245.07 -16.74C245.46 -16.59 245.84 -16.22 246.2 -15.61Z M251.01 0L256.86 0L256.86 -0.45C256.62 -0.45 256.41 -0.54 256.23 -0.72C256.05 -0.9 255.9 -1.11 255.78 -1.35C255.66 -1.59 255.57 -1.85 255.51 -2.14C255.45 -2.42 255.42 -2.68 255.42 -2.92L255.42 -19.44L250.92 -18L250.92 -17.59C251.64 -17.57 252.07 -17.32 252.23 -16.85C252.38 -16.39 252.45 -15.9 252.45 -15.39L252.45 -2.92C252.45 -2.69 252.42 -2.42 252.36 -2.14C252.3 -1.85 252.21 -1.59 252.09 -1.35C251.97 -1.11 251.82 -0.9 251.64 -0.72C251.46 -0.54 251.25 -0.45 251.01 -0.45ZM251.24 -23.76C251.24 -23.16 251.44 -22.66 251.84 -22.27C252.25 -21.89 252.75 -21.69 253.35 -21.69C253.95 -21.69 254.46 -21.89 254.88 -22.27C255.3 -22.66 255.51 -23.16 255.51 -23.76C255.51 -24.36 255.3 -24.87 254.88 -25.29C254.46 -25.71 253.95 -25.92 253.35 -25.92C252.75 -25.92 252.25 -25.71 251.84 -25.29C251.44 -24.87 251.24 -24.36 251.24 -23.76Z M276.3 -5.13C276.3 -6 276.09 -6.74 275.67 -7.36C275.25 -7.97 274.71 -8.5 274.05 -8.95C273.39 -9.4 272.64 -9.79 271.8 -10.1C270.96 -10.42 270.12 -10.71 269.28 -10.98C268.59 -11.19 267.94 -11.42 267.32 -11.65C266.71 -11.9 266.15 -12.15 265.66 -12.42C265.16 -12.69 264.77 -13 264.49 -13.36C264.2 -13.72 264.06 -14.16 264.06 -14.67C264.06 -15.03 264.14 -15.39 264.31 -15.75C264.47 -16.11 264.73 -16.43 265.07 -16.72C265.42 -17 265.86 -17.24 266.4 -17.44C266.94 -17.63 267.58 -17.73 268.33 -17.73C269.51 -17.73 270.64 -17.48 271.76 -16.96C272.86 -16.45 273.69 -15.7 274.23 -14.71L274.59 -14.71L274.59 -17.86C274.26 -17.86 273.96 -17.9 273.69 -17.98C273.42 -18.05 273.15 -18.16 272.88 -18.31C272.46 -18.52 271.93 -18.73 271.28 -18.92C270.64 -19.12 269.73 -19.21 268.56 -19.21C267.24 -19.21 266.12 -19.07 265.19 -18.79C264.26 -18.5 263.5 -18.13 262.91 -17.66C262.33 -17.2 261.91 -16.65 261.65 -16.02C261.4 -15.39 261.27 -14.73 261.27 -14.04C261.27 -13.23 261.46 -12.53 261.85 -11.95C262.25 -11.36 262.76 -10.87 263.39 -10.46C264.02 -10.06 264.73 -9.71 265.52 -9.4C266.32 -9.1 267.11 -8.83 267.89 -8.59C268.55 -8.38 269.2 -8.16 269.86 -7.92C270.53 -7.68 271.11 -7.4 271.62 -7.09C272.13 -6.77 272.55 -6.4 272.88 -5.98C273.21 -5.56 273.38 -5.07 273.38 -4.5C273.38 -3.93 273.22 -3.44 272.9 -3.04C272.59 -2.63 272.2 -2.29 271.73 -2.02C271.27 -1.75 270.75 -1.56 270.18 -1.44C269.61 -1.32 269.05 -1.26 268.52 -1.26C267.76 -1.26 267.02 -1.4 266.29 -1.69C265.55 -1.97 264.88 -2.32 264.26 -2.74C263.65 -3.17 263.12 -3.62 262.69 -4.12C262.25 -4.61 261.99 -5.07 261.9 -5.49L261.45 -5.49L261.45 -2.07C261.84 -2.07 262.2 -1.99 262.53 -1.82C262.86 -1.66 263.22 -1.45 263.61 -1.21C264.18 -0.85 264.87 -0.5 265.68 -0.16C266.49 0.19 267.54 0.36 268.83 0.36C269.88 0.36 270.85 0.22 271.76 -0.07C272.65 -0.35 273.44 -0.74 274.12 -1.24C274.79 -1.73 275.33 -2.31 275.71 -2.97C276.1 -3.63 276.3 -4.35 276.3 -5.13Z M294.79 -5.13C294.79 -6 294.59 -6.74 294.16 -7.36C293.74 -7.97 293.2 -8.5 292.54 -8.95C291.89 -9.4 291.13 -9.79 290.29 -10.1C289.46 -10.42 288.62 -10.71 287.77 -10.98C287.09 -11.19 286.43 -11.42 285.82 -11.65C285.2 -11.9 284.65 -12.15 284.15 -12.42C283.66 -12.69 283.27 -13 282.98 -13.36C282.7 -13.72 282.56 -14.16 282.56 -14.67C282.56 -15.03 282.64 -15.39 282.8 -15.75C282.97 -16.11 283.22 -16.43 283.57 -16.72C283.91 -17 284.35 -17.24 284.9 -17.44C285.44 -17.63 286.08 -17.73 286.83 -17.73C288 -17.73 289.14 -17.48 290.25 -16.96C291.36 -16.45 292.19 -15.7 292.72 -14.71L293.08 -14.71L293.08 -17.86C292.75 -17.86 292.46 -17.9 292.19 -17.98C291.91 -18.05 291.65 -18.16 291.38 -18.31C290.96 -18.52 290.42 -18.73 289.78 -18.92C289.13 -19.12 288.22 -19.21 287.06 -19.21C285.74 -19.21 284.61 -19.07 283.68 -18.79C282.75 -18.5 281.99 -18.13 281.41 -17.66C280.82 -17.2 280.4 -16.65 280.15 -16.02C279.89 -15.39 279.77 -14.73 279.77 -14.04C279.77 -13.23 279.96 -12.53 280.35 -11.95C280.74 -11.36 281.25 -10.87 281.88 -10.46C282.51 -10.06 283.22 -9.71 284.02 -9.4C284.81 -9.1 285.6 -8.83 286.38 -8.59C287.04 -8.38 287.7 -8.16 288.36 -7.92C289.02 -7.68 289.61 -7.4 290.12 -7.09C290.63 -6.77 291.04 -6.4 291.38 -5.98C291.71 -5.56 291.87 -5.07 291.87 -4.5C291.87 -3.93 291.71 -3.44 291.4 -3.04C291.08 -2.63 290.69 -2.29 290.23 -2.02C289.76 -1.75 289.25 -1.56 288.67 -1.44C288.1 -1.32 287.55 -1.26 287.01 -1.26C286.26 -1.26 285.52 -1.4 284.78 -1.69C284.05 -1.97 283.37 -2.32 282.76 -2.74C282.14 -3.17 281.62 -3.62 281.18 -4.12C280.75 -4.61 280.48 -5.07 280.4 -5.49L279.95 -5.49L279.95 -2.07C280.34 -2.07 280.7 -1.99 281.02 -1.82C281.36 -1.66 281.72 -1.45 282.1 -1.21C282.67 -0.85 283.37 -0.5 284.17 -0.16C284.98 0.19 286.03 0.36 287.33 0.36C288.37 0.36 289.35 0.22 290.25 -0.07C291.15 -0.35 291.94 -0.74 292.61 -1.24C293.29 -1.73 293.82 -2.31 294.21 -2.97C294.6 -3.63 294.79 -4.35 294.79 -5.13Z M310.54 0L314.91 0L314.91 -0.45C314.46 -0.45 314.1 -0.71 313.83 -1.24C313.56 -1.76 313.43 -2.33 313.43 -2.92L313.43 -11.83C313.43 -12.76 313.33 -13.67 313.15 -14.56C312.97 -15.44 312.61 -16.23 312.05 -16.92C311.5 -17.61 310.71 -18.16 309.69 -18.58C308.67 -19.01 307.34 -19.21 305.69 -19.21C304.28 -19.21 303.18 -19.04 302.4 -18.7C301.62 -18.35 301.01 -18.09 300.56 -17.91C300.26 -17.79 300 -17.67 299.79 -17.55C299.58 -17.43 299.35 -17.35 299.12 -17.32L299.12 -14.04L299.52 -14.04C299.7 -14.43 299.94 -14.84 300.24 -15.28C300.54 -15.71 300.91 -16.12 301.34 -16.49C301.78 -16.87 302.29 -17.17 302.87 -17.41C303.46 -17.66 304.14 -17.77 304.92 -17.77C305.37 -17.77 305.91 -17.71 306.54 -17.57C307.17 -17.44 307.77 -17.17 308.34 -16.76C308.91 -16.36 309.4 -15.79 309.83 -15.07C310.25 -14.35 310.48 -13.41 310.54 -12.24C308.6 -11.76 306.86 -11.27 305.35 -10.78C303.83 -10.28 302.55 -9.73 301.5 -9.13C300.45 -8.54 299.65 -7.84 299.09 -7.06C298.54 -6.29 298.26 -5.38 298.26 -4.36C298.26 -3.73 298.37 -3.13 298.6 -2.56C298.82 -2 299.17 -1.49 299.65 -1.06C300.13 -0.62 300.75 -0.28 301.5 -0.04C302.25 0.19 303.15 0.32 304.2 0.32C305.58 0.32 306.76 0.1 307.73 -0.31C308.71 -0.73 309.57 -1.32 310.32 -2.07L310.54 -2.29ZM310.54 -4.27L310.05 -3.73C309.42 -3.05 308.73 -2.48 307.98 -2.05C307.23 -1.61 306.36 -1.39 305.37 -1.39C304.11 -1.39 303.09 -1.71 302.31 -2.34C301.53 -2.97 301.14 -3.76 301.14 -4.72C301.14 -5.6 301.47 -6.36 302.13 -7.02C302.79 -7.68 303.58 -8.25 304.52 -8.73C305.45 -9.21 306.43 -9.6 307.46 -9.9C308.5 -10.2 309.38 -10.44 310.09 -10.62L310.54 -10.71Z"/></g><rect id="SvgjsRect1195" width="62.05000000000004" height="1" fill="#742a89" transform="translate(82.30940961065338, 68.32)" light-content="false"/><g id="SvgjsG1196" class="text" transform="translate(152.84940961065342, 74.395) scale(1)" light-content="false" fill="#742a89"><path d="M1.51 -4.28C1.51 -2.77 1.9 -1.66 2.68 -0.94C3.45 -0.23 4.47 0.13 5.73 0.13C7.04 0.13 8.07 -0.21 8.83 -0.88C9.59 -1.55 9.98 -2.35 9.98 -3.28C9.98 -3.56 9.93 -3.74 9.85 -3.84C9.77 -3.94 9.63 -3.99 9.43 -3.99C9.12 -3.99 8.95 -3.84 8.93 -3.55C8.88 -3.26 8.84 -3.02 8.8 -2.86C8.76 -2.69 8.67 -2.46 8.54 -2.17C8.4 -1.89 8.24 -1.66 8.03 -1.5C7.83 -1.34 7.54 -1.2 7.17 -1.07C6.8 -0.94 6.36 -0.88 5.86 -0.88C3.66 -0.88 2.56 -2.02 2.56 -4.28L2.56 -10.94C2.56 -13.21 3.64 -14.34 5.8 -14.34C6.41 -14.34 6.94 -14.26 7.37 -14.08C7.8 -13.91 8.12 -13.67 8.33 -13.37C8.53 -13.07 8.68 -12.79 8.77 -12.53C8.86 -12.27 8.91 -11.99 8.93 -11.7C8.93 -11.4 9.1 -11.26 9.45 -11.26C9.63 -11.26 9.77 -11.3 9.85 -11.4C9.93 -11.5 9.98 -11.68 9.98 -11.95C9.98 -12.89 9.6 -13.69 8.85 -14.35C8.1 -15.02 7.08 -15.35 5.8 -15.35C4.52 -15.35 3.49 -14.99 2.7 -14.28C1.91 -13.57 1.51 -12.45 1.51 -10.94Z M12.41 -0.46C12.41 -0.34 12.46 -0.23 12.56 -0.14C12.66 -0.05 12.77 0 12.92 0C13.05 0 13.18 -0.05 13.28 -0.15C13.39 -0.25 13.44 -0.35 13.44 -0.46L13.44 -15.65C13.44 -15.77 13.39 -15.88 13.29 -15.96C13.2 -16.04 13.07 -16.09 12.92 -16.09C12.78 -16.09 12.66 -16.04 12.56 -15.96C12.46 -15.88 12.41 -15.77 12.41 -15.65Z M16 -3.76C16 -2.6 16.41 -1.66 17.22 -0.94C18.03 -0.23 19.08 0.13 20.37 0.13C21.22 0.13 21.94 -0.02 22.52 -0.31C23.1 -0.61 23.39 -0.89 23.39 -1.15C23.39 -1.27 23.34 -1.38 23.25 -1.49C23.15 -1.6 23.04 -1.66 22.91 -1.66C22.81 -1.66 22.67 -1.59 22.49 -1.45C22.31 -1.31 22.04 -1.17 21.69 -1.03C21.34 -0.89 20.92 -0.82 20.41 -0.82C19.42 -0.82 18.61 -1.08 17.98 -1.62C17.35 -2.15 17.03 -2.86 17.03 -3.74L17.03 -4.62L21.9 -4.62C22.2 -4.62 22.42 -4.63 22.59 -4.65C22.75 -4.67 22.92 -4.73 23.12 -4.83C23.32 -4.93 23.46 -5.09 23.55 -5.32C23.64 -5.55 23.69 -5.86 23.69 -6.24C23.69 -7.32 23.31 -8.22 22.55 -8.95C21.8 -9.67 20.9 -10.04 19.87 -10.04C18.8 -10.04 17.89 -9.67 17.14 -8.93C16.38 -8.18 16 -7.29 16 -6.26ZM17.03 -5.48L17.03 -6.34C17.03 -7.1 17.31 -7.75 17.86 -8.29C18.41 -8.84 19.08 -9.11 19.87 -9.11C20.68 -9.11 21.35 -8.82 21.88 -8.23C22.41 -7.64 22.68 -6.98 22.68 -6.24C22.68 -5.93 22.6 -5.73 22.45 -5.63C22.29 -5.53 21.98 -5.48 21.5 -5.48Z M25.16 -2.65C25.16 -1.74 25.43 -1.05 25.97 -0.58C26.51 -0.11 27.2 0.13 28.06 0.13C29.23 0.13 30.28 -0.41 31.21 -1.47L31.21 -0.46C31.21 -0.34 31.26 -0.23 31.35 -0.14C31.45 -0.05 31.57 0 31.71 0C31.85 0 31.97 -0.05 32.07 -0.14C32.16 -0.23 32.21 -0.34 32.21 -0.46L32.21 -6.01C32.21 -7.17 31.92 -8.13 31.33 -8.89C30.74 -9.66 29.83 -10.04 28.58 -10.04C27.94 -10.04 27.32 -9.94 26.74 -9.73C26.16 -9.53 25.87 -9.31 25.87 -9.07C25.87 -8.95 25.91 -8.82 26 -8.69C26.08 -8.57 26.19 -8.51 26.33 -8.51C26.35 -8.51 26.59 -8.6 27.05 -8.8C27.51 -9 28.01 -9.09 28.54 -9.09C29.42 -9.09 30.08 -8.79 30.52 -8.18C30.96 -7.57 31.19 -6.85 31.19 -6.01L31.19 -5.46L30.05 -5.46C28.46 -5.46 27.24 -5.25 26.41 -4.84C25.57 -4.43 25.16 -3.7 25.16 -2.65ZM26.19 -2.69C26.19 -3.11 26.29 -3.45 26.5 -3.73C26.71 -4 27.02 -4.2 27.43 -4.32C27.83 -4.43 28.24 -4.52 28.64 -4.56C29.05 -4.6 29.55 -4.62 30.16 -4.62L31.19 -4.62L31.19 -3.07C31.19 -2.58 30.87 -2.08 30.23 -1.56C29.59 -1.05 28.92 -0.8 28.2 -0.8C27.6 -0.8 27.11 -0.96 26.74 -1.27C26.37 -1.59 26.19 -2.06 26.19 -2.69Z M34.9 -0.46C34.9 -0.34 34.95 -0.23 35.05 -0.14C35.15 -0.05 35.27 0 35.41 0C35.55 0 35.67 -0.05 35.77 -0.15C35.88 -0.25 35.93 -0.35 35.93 -0.46L35.93 -6.19C35.93 -7.06 36.2 -7.76 36.75 -8.28C37.3 -8.81 37.93 -9.07 38.64 -9.07C39.4 -9.07 40.05 -8.78 40.61 -8.19C41.17 -7.6 41.45 -6.94 41.45 -6.19L41.45 -0.46C41.45 -0.15 41.62 0 41.96 0C42.31 0 42.48 -0.15 42.48 -0.46L42.48 -6.19C42.48 -7.24 42.11 -8.15 41.37 -8.9C40.63 -9.66 39.75 -10.04 38.72 -10.04C38.07 -10.04 37.49 -9.88 37 -9.58C36.51 -9.27 36.15 -8.89 35.91 -8.44L35.91 -9.49C35.91 -9.62 35.86 -9.72 35.76 -9.8C35.67 -9.87 35.55 -9.91 35.41 -9.91C35.07 -9.91 34.9 -9.77 34.9 -9.49Z M44.52 -1.3C44.52 -0.98 44.82 -0.66 45.43 -0.35C46.04 -0.03 46.79 0.13 47.69 0.13C48.73 0.13 49.53 -0.11 50.11 -0.57C50.68 -1.03 50.97 -1.67 50.97 -2.48C50.97 -3.19 50.79 -3.76 50.43 -4.19C50.07 -4.62 49.64 -4.92 49.12 -5.09C48.6 -5.27 48.08 -5.42 47.57 -5.56C47.05 -5.7 46.61 -5.91 46.25 -6.17C45.9 -6.44 45.72 -6.81 45.72 -7.29C45.72 -7.75 45.9 -8.17 46.27 -8.55C46.64 -8.93 47.21 -9.11 47.96 -9.11C48.47 -9.11 48.96 -9.02 49.43 -8.83C49.91 -8.64 50.15 -8.55 50.17 -8.55C50.28 -8.55 50.39 -8.61 50.48 -8.74C50.58 -8.86 50.63 -8.98 50.63 -9.09C50.63 -9.32 50.35 -9.53 49.78 -9.73C49.21 -9.94 48.6 -10.04 47.94 -10.04C46.89 -10.04 46.1 -9.76 45.56 -9.2C45.02 -8.64 44.75 -7.99 44.75 -7.27C44.75 -6.62 44.93 -6.11 45.29 -5.73C45.64 -5.35 46.08 -5.08 46.6 -4.91C47.12 -4.75 47.63 -4.59 48.14 -4.44C48.65 -4.29 49.09 -4.06 49.44 -3.74C49.8 -3.42 49.98 -2.98 49.98 -2.41C49.98 -1.94 49.79 -1.55 49.41 -1.25C49.04 -0.95 48.45 -0.8 47.67 -0.8C47.24 -0.8 46.84 -0.85 46.49 -0.97C46.14 -1.08 45.89 -1.19 45.72 -1.3L45.23 -1.64C45.09 -1.75 44.98 -1.8 44.9 -1.78C44.8 -1.78 44.71 -1.73 44.64 -1.63C44.56 -1.52 44.52 -1.41 44.52 -1.3Z M52.82 -13.82C52.82 -13.61 52.89 -13.43 53.05 -13.27C53.2 -13.12 53.39 -13.04 53.61 -13.04C53.82 -13.04 54 -13.12 54.16 -13.27C54.31 -13.43 54.39 -13.61 54.39 -13.82C54.39 -14.01 54.31 -14.19 54.16 -14.33C54 -14.48 53.82 -14.55 53.61 -14.55C53.39 -14.55 53.2 -14.48 53.05 -14.33C52.89 -14.19 52.82 -14.01 52.82 -13.82ZM53.11 -0.46C53.11 -0.34 53.16 -0.23 53.26 -0.14C53.35 -0.05 53.47 0 53.61 0C53.75 0 53.88 -0.05 53.98 -0.15C54.09 -0.25 54.14 -0.35 54.14 -0.46L54.14 -9.49C54.14 -9.77 53.96 -9.91 53.61 -9.91C53.28 -9.91 53.11 -9.77 53.11 -9.49Z M56.91 -0.46C56.91 -0.34 56.96 -0.23 57.06 -0.14C57.15 -0.05 57.27 0 57.41 0C57.55 0 57.68 -0.05 57.78 -0.15C57.89 -0.25 57.94 -0.35 57.94 -0.46L57.94 -6.19C57.94 -7.06 58.21 -7.76 58.76 -8.28C59.3 -8.81 59.93 -9.07 60.65 -9.07C61.4 -9.07 62.06 -8.78 62.62 -8.19C63.18 -7.6 63.46 -6.94 63.46 -6.19L63.46 -0.46C63.46 -0.15 63.63 0 63.97 0C64.32 0 64.49 -0.15 64.49 -0.46L64.49 -6.19C64.49 -7.24 64.12 -8.15 63.38 -8.9C62.64 -9.66 61.75 -10.04 60.73 -10.04C60.07 -10.04 59.5 -9.88 59.01 -9.58C58.52 -9.27 58.16 -8.89 57.92 -8.44L57.92 -9.49C57.92 -9.62 57.87 -9.72 57.77 -9.8C57.67 -9.87 57.55 -9.91 57.41 -9.91C57.08 -9.91 56.91 -9.77 56.91 -9.49Z M66.36 2.18C66.36 3.01 66.74 3.68 67.52 4.18C68.29 4.68 69.29 4.94 70.52 4.94C71.75 4.94 72.73 4.68 73.46 4.17C74.19 3.66 74.55 2.94 74.55 2.02C74.55 1.32 74.32 0.77 73.87 0.38C73.41 -0.01 72.86 -0.27 72.22 -0.38C71.58 -0.49 70.93 -0.57 70.29 -0.62C69.64 -0.67 69.09 -0.77 68.64 -0.93C68.18 -1.1 67.96 -1.36 67.96 -1.72C67.96 -2.09 68.21 -2.39 68.71 -2.65C69.19 -2.38 69.74 -2.25 70.37 -2.25C71.41 -2.25 72.25 -2.58 72.91 -3.23C73.57 -3.89 73.9 -4.73 73.9 -5.73L73.9 -6.59C73.9 -7.41 73.72 -8.06 73.35 -8.55C73.68 -9.15 74.08 -9.46 74.57 -9.49C74.82 -9.52 74.95 -9.66 74.95 -9.91C74.95 -10.04 74.9 -10.15 74.81 -10.25C74.72 -10.35 74.58 -10.4 74.4 -10.4C74.15 -10.4 73.88 -10.28 73.59 -10.04C73.31 -9.8 73.07 -9.48 72.87 -9.09C72.24 -9.72 71.41 -10.04 70.39 -10.04C69.36 -10.04 68.52 -9.72 67.87 -9.07C67.23 -8.43 66.91 -7.6 66.91 -6.59L66.91 -5.73C66.91 -4.63 67.28 -3.74 68.02 -3.09C67.33 -2.74 66.99 -2.24 66.99 -1.6C66.99 -0.88 67.4 -0.39 68.21 -0.13C66.98 0.32 66.36 1.09 66.36 2.18ZM67.37 2.08C67.37 1.18 68.05 0.53 69.43 0.13L70.18 0.21C70.55 0.24 70.85 0.26 71.1 0.28C71.34 0.3 71.63 0.36 71.96 0.44C72.29 0.53 72.56 0.63 72.77 0.76C72.98 0.88 73.15 1.05 73.3 1.27C73.45 1.49 73.52 1.75 73.52 2.06C73.52 2.69 73.26 3.19 72.73 3.55C72.21 3.91 71.47 4.1 70.52 4.1C69.54 4.1 68.77 3.91 68.21 3.54C67.65 3.17 67.37 2.68 67.37 2.08ZM67.91 -5.75L67.91 -6.59C67.91 -7.35 68.13 -7.97 68.58 -8.45C69.02 -8.94 69.62 -9.18 70.39 -9.18C71.16 -9.18 71.77 -8.94 72.22 -8.45C72.67 -7.97 72.89 -7.35 72.89 -6.59L72.89 -5.73C72.89 -4.96 72.67 -4.33 72.22 -3.84C71.77 -3.35 71.17 -3.11 70.41 -3.11C69.64 -3.11 69.03 -3.36 68.59 -3.85C68.14 -4.35 67.91 -4.98 67.91 -5.75Z M81.04 -0.44C81.04 -0.31 81.08 -0.21 81.18 -0.13C81.27 -0.04 81.39 0 81.54 0L85.37 0C86.63 0 87.63 -0.34 88.38 -1.02C89.13 -1.7 89.5 -2.79 89.5 -4.28L89.5 -4.66C89.5 -5.68 89.32 -6.47 88.95 -7.03C88.57 -7.59 88.04 -8.02 87.34 -8.32C87.89 -8.55 88.32 -8.98 88.64 -9.59C88.96 -10.2 89.12 -10.94 89.12 -11.82C89.12 -13.18 88.75 -14.11 88 -14.61C87.25 -15.1 86.19 -15.35 84.82 -15.35L81.54 -15.35C81.21 -15.35 81.04 -15.2 81.04 -14.89ZM82.09 -1.01L82.09 -7.83L85.28 -7.83C86.32 -7.83 87.1 -7.58 87.64 -7.09C88.18 -6.59 88.45 -5.79 88.45 -4.68L88.45 -4.33C88.45 -2.11 87.39 -1.01 85.28 -1.01ZM82.09 -8.8L82.09 -14.34L84.84 -14.34C85.9 -14.34 86.71 -14.16 87.26 -13.8C87.8 -13.43 88.07 -12.75 88.07 -11.74C88.07 -10.66 87.83 -9.9 87.33 -9.46C86.83 -9.02 86.03 -8.8 84.92 -8.8Z M91.54 -3.76C91.54 -2.72 91.92 -1.82 92.69 -1.04C93.46 -0.26 94.36 0.13 95.38 0.13C96.4 0.13 97.3 -0.27 98.08 -1.05C98.86 -1.83 99.25 -2.74 99.25 -3.76L99.25 -6.19C99.25 -7.24 98.86 -8.15 98.09 -8.9C97.32 -9.66 96.42 -10.04 95.38 -10.04C94.33 -10.04 93.43 -9.66 92.67 -8.89C91.92 -8.13 91.54 -7.23 91.54 -6.19ZM92.57 -3.76L92.57 -6.19C92.57 -6.94 92.84 -7.6 93.4 -8.19C93.95 -8.78 94.61 -9.07 95.38 -9.07C96.15 -9.07 96.82 -8.78 97.38 -8.19C97.94 -7.6 98.22 -6.94 98.22 -6.19L98.22 -3.76C98.22 -3 97.94 -2.33 97.38 -1.73C96.82 -1.14 96.15 -0.84 95.38 -0.84C94.61 -0.84 93.95 -1.14 93.4 -1.73C92.84 -2.33 92.57 -3 92.57 -3.76Z M101.24 -3.76C101.24 -2.74 101.62 -1.83 102.36 -1.05C103.11 -0.27 103.99 0.13 104.98 0.13C105.59 0.13 106.17 -0.03 106.69 -0.34C107.22 -0.64 107.6 -1.02 107.84 -1.47L107.84 -0.46C107.84 -0.35 107.88 -0.25 107.98 -0.15C108.08 -0.05 108.2 0 108.34 0C108.48 0 108.6 -0.05 108.7 -0.14C108.79 -0.23 108.84 -0.34 108.84 -0.46L108.84 -15.65C108.84 -15.77 108.79 -15.88 108.7 -15.96C108.6 -16.04 108.48 -16.09 108.34 -16.09C108.18 -16.09 108.06 -16.04 107.96 -15.96C107.86 -15.88 107.81 -15.77 107.81 -15.65L107.81 -8.44C107.56 -8.9 107.19 -9.29 106.71 -9.59C106.23 -9.89 105.66 -10.04 105.02 -10.04C103.99 -10.04 103.1 -9.66 102.35 -8.91C101.61 -8.17 101.24 -7.26 101.24 -6.19ZM102.27 -3.76L102.27 -6.19C102.27 -6.94 102.55 -7.6 103.11 -8.19C103.67 -8.78 104.33 -9.07 105.08 -9.07C105.8 -9.07 106.43 -8.81 106.98 -8.27C107.54 -7.74 107.81 -7.05 107.81 -6.19L107.81 -3.05C107.81 -2.64 107.53 -2.17 106.97 -1.64C106.41 -1.11 105.78 -0.84 105.06 -0.84C104.32 -0.84 103.67 -1.14 103.11 -1.73C102.55 -2.33 102.27 -3 102.27 -3.76Z M110.59 -9.55C110.59 -9.53 110.6 -9.47 110.63 -9.39L114.03 -0.34C113.16 2.53 112.15 3.97 110.99 3.97C110.73 3.97 110.61 4.13 110.61 4.45C110.61 4.77 110.77 4.94 111.09 4.94C111.43 4.94 111.74 4.87 112.05 4.73C112.35 4.58 112.63 4.35 112.9 4.02C113.16 3.69 113.39 3.4 113.57 3.14C113.75 2.88 113.95 2.49 114.18 1.96C114.4 1.44 114.56 1.06 114.64 0.84L115.08 -0.34L118.4 -9.39C118.41 -9.43 118.42 -9.48 118.42 -9.55C118.42 -9.69 118.36 -9.81 118.23 -9.91C118.1 -10.01 117.97 -10.06 117.83 -10.06C117.66 -10.06 117.53 -9.97 117.43 -9.79L114.56 -1.7L111.59 -9.79C111.55 -9.97 111.42 -10.06 111.2 -10.06C111.04 -10.06 110.9 -10.01 110.78 -9.91C110.65 -9.81 110.59 -9.69 110.59 -9.55Z M124.66 -0.46C124.66 -0.15 124.82 0 125.16 0L131.9 0C132.17 0 132.3 -0.17 132.3 -0.5C132.3 -0.84 132.17 -1.01 131.9 -1.01L125.71 -1.01L125.71 -14.91C125.71 -15.2 125.53 -15.35 125.18 -15.35C124.83 -15.35 124.66 -15.2 124.66 -14.91Z M133.18 -3.76C133.18 -2.72 133.57 -1.82 134.34 -1.04C135.11 -0.26 136 0.13 137.03 0.13C138.05 0.13 138.95 -0.27 139.72 -1.05C140.5 -1.83 140.89 -2.74 140.89 -3.76L140.89 -6.19C140.89 -7.24 140.5 -8.15 139.73 -8.9C138.96 -9.66 138.06 -10.04 137.03 -10.04C135.98 -10.04 135.07 -9.66 134.32 -8.89C133.56 -8.13 133.18 -7.23 133.18 -6.19ZM134.21 -3.76L134.21 -6.19C134.21 -6.94 134.49 -7.6 135.04 -8.19C135.59 -8.78 136.25 -9.07 137.03 -9.07C137.79 -9.07 138.46 -8.78 139.02 -8.19C139.58 -7.6 139.86 -6.94 139.86 -6.19L139.86 -3.76C139.86 -3 139.58 -2.33 139.02 -1.73C138.46 -1.14 137.79 -0.84 137.03 -0.84C136.25 -0.84 135.59 -1.14 135.04 -1.73C134.49 -2.33 134.21 -3 134.21 -3.76Z M143.22 -3C143.22 -1 144.28 0 146.41 0L146.94 0C147.08 0 147.19 -0.05 147.28 -0.15C147.37 -0.24 147.42 -0.36 147.42 -0.48C147.42 -0.62 147.37 -0.74 147.28 -0.83C147.19 -0.92 147.08 -0.97 146.94 -0.97L146.41 -0.97C145.61 -0.97 145.05 -1.12 144.73 -1.43C144.41 -1.74 144.25 -2.26 144.25 -3L144.25 -9.01L147.04 -9.01C147.14 -9.01 147.23 -9.05 147.32 -9.15C147.4 -9.24 147.44 -9.34 147.44 -9.45C147.44 -9.58 147.4 -9.68 147.33 -9.78C147.25 -9.87 147.15 -9.91 147.04 -9.91L144.25 -9.91L144.25 -14.28C144.25 -14.41 144.2 -14.51 144.09 -14.59C143.99 -14.68 143.86 -14.72 143.72 -14.72C143.6 -14.72 143.48 -14.68 143.38 -14.59C143.27 -14.51 143.22 -14.41 143.22 -14.28Z M148.93 -13.82C148.93 -13.61 149.01 -13.43 149.16 -13.27C149.32 -13.12 149.51 -13.04 149.73 -13.04C149.94 -13.04 150.12 -13.12 150.28 -13.27C150.43 -13.43 150.51 -13.61 150.51 -13.82C150.51 -14.01 150.43 -14.19 150.28 -14.33C150.12 -14.48 149.94 -14.55 149.73 -14.55C149.51 -14.55 149.32 -14.48 149.16 -14.33C149.01 -14.19 148.93 -14.01 148.93 -13.82ZM149.23 -0.46C149.23 -0.34 149.28 -0.23 149.37 -0.14C149.47 -0.05 149.59 0 149.73 0C149.87 0 149.99 -0.05 150.1 -0.15C150.2 -0.25 150.26 -0.35 150.26 -0.46L150.26 -9.49C150.26 -9.77 150.08 -9.91 149.73 -9.91C149.39 -9.91 149.23 -9.77 149.23 -9.49Z M152.63 -3.76C152.63 -2.72 153.01 -1.82 153.78 -1.04C154.55 -0.26 155.45 0.13 156.47 0.13C157.49 0.13 158.39 -0.27 159.17 -1.05C159.95 -1.83 160.34 -2.74 160.34 -3.76L160.34 -6.19C160.34 -7.24 159.95 -8.15 159.18 -8.9C158.41 -9.66 157.51 -10.04 156.47 -10.04C155.42 -10.04 154.52 -9.66 153.76 -8.89C153.01 -8.13 152.63 -7.23 152.63 -6.19ZM153.66 -3.76L153.66 -6.19C153.66 -6.94 153.93 -7.6 154.49 -8.19C155.04 -8.78 155.7 -9.07 156.47 -9.07C157.24 -9.07 157.91 -8.78 158.47 -8.19C159.03 -7.6 159.31 -6.94 159.31 -6.19L159.31 -3.76C159.31 -3 159.03 -2.33 158.47 -1.73C157.91 -1.14 157.24 -0.84 156.47 -0.84C155.7 -0.84 155.04 -1.14 154.49 -1.73C153.93 -2.33 153.66 -3 153.66 -3.76Z M162.71 -0.46C162.71 -0.34 162.76 -0.23 162.85 -0.14C162.95 -0.05 163.07 0 163.21 0C163.35 0 163.47 -0.05 163.58 -0.15C163.68 -0.25 163.74 -0.35 163.74 -0.46L163.74 -6.19C163.74 -7.06 164.01 -7.76 164.56 -8.28C165.1 -8.81 165.73 -9.07 166.45 -9.07C167.2 -9.07 167.86 -8.78 168.42 -8.19C168.98 -7.6 169.26 -6.94 169.26 -6.19L169.26 -0.46C169.26 -0.15 169.43 0 169.76 0C170.11 0 170.29 -0.15 170.29 -0.46L170.29 -6.19C170.29 -7.24 169.92 -8.15 169.18 -8.9C168.43 -9.66 167.55 -10.04 166.53 -10.04C165.87 -10.04 165.3 -9.88 164.81 -9.58C164.32 -9.27 163.95 -8.89 163.72 -8.44L163.72 -9.49C163.72 -9.62 163.67 -9.72 163.57 -9.8C163.47 -9.87 163.35 -9.91 163.21 -9.91C162.88 -9.91 162.71 -9.77 162.71 -9.49Z"/></g><rect id="SvgjsRect1197" width="62.05000000000007" height="1" fill="#742a89" transform="translate(333.1394096106534, 68.32)" light-content="false"/></g></svg>