<svg xmlns="http://www.w3.org/2000/svg" version="1.1" xlink="http://www.w3.org/1999/xlink" xmlns:svgjs="http://svgjs.com/svgjs" width="300" height="49.833887769126655"><defs id="SvgjsDefs1032"/><g id="SvgjsG1033" transform="scale(0.8305647961521109)" opacity="1"><g id="SvgjsG1034" class="-g31rJ1TW_" transform="translate(136.89653971910573, -147.24136376730564) scale(0.6896551119350414)" light-content="false" fill="#f93943"><path d="M-131.9 213.5h-46.2c-11.2 0-20.4 9.2-20.4 20.4v46.2c0 11.2 9.2 20.4 20.4 20.4h46.2c11.2 0 20.4-9.2 20.4-20.4v-46.2c0-11.2-9.2-20.4-20.4-20.4zm-10.3 60.6c-1.9 2.4-4.3 4-7.2 4.8-1.3.4-1.8 1-1.7 2.4.1 1.3 0 2.6 0 3.9 0 1.2-.6 1.8-1.7 1.8-1.4.1-2.8.1-4.2.1-1.2 0-1.8-.7-1.8-1.9 0-.9 0-1.9-.1-2.8-.1-2.1-.1-2.2-2.1-2.5-2.6-.4-5.1-.9-7.5-2-1.9-.9-2.1-1.3-1.6-3.3.4-1.4.7-2.9 1.2-4.3.5-1.7.9-1.9 2.5-1.1 2.6 1.3 5.4 2 8.3 2.3 1.9.2 3.7 0 5.4-.8 3.2-1.5 3.6-5.2.9-7.4-.9-.7-2-1.3-3.1-1.8-2.8-1.2-5.8-2.1-8.5-3.7-4.4-2.5-7.2-6-6.9-11.3.3-6 3.6-9.7 9-11.8 2.2-.9 2.3-.8 2.2-3.2v-2.4c0-1.8.3-2.1 2.1-2.2h1.6c3.8-.1 3.8-.1 3.8 3.7.1 2.7 0 2.7 2.7 3 2 .3 4 .9 5.9 1.7 1 .4 1.4 1.2 1.1 2.3-.4 1.6-.9 3.3-1.4 4.9-.5 1.5-1 1.8-2.4 1.1-3-1.4-6-1.9-9.3-1.7-.9.1-1.7.2-2.5.5-2.8 1.3-3.2 4.4-.8 6.2 1.2.9 2.6 1.6 4.1 2.2 2.5 1 5 1.9 7.4 3.2 7.6 4.2 9.8 13.6 4.6 20.1z"/></g><g id="SvgjsG1035" class="text" transform="translate(78.55999473834859, 43.355000000000004) scale(1)" light-content="false" fill="#363636"><path d="M7.81 -6.37L7.81 -10.01L14.87 -10.01C15.71 -10.01 16.33 -10.08 16.74 -10.22C17.65 -10.51 18.11 -11.5 18.11 -13.18C18.11 -14.71 17.78 -15.65 17.14 -15.98C16.78 -16.18 16.46 -16.29 16.18 -16.33C15.91 -16.36 15.49 -16.38 14.94 -16.38L7.81 -16.38L7.81 -20.02L18.86 -20.02C19.7 -20.02 20.33 -20.09 20.74 -20.23C21.62 -20.52 22.07 -21.5 22.07 -23.18C22.07 -24.72 21.74 -25.66 21.1 -25.99C20.74 -26.18 20.42 -26.3 20.14 -26.33C19.87 -26.37 19.45 -26.39 18.9 -26.39L4.72 -26.39C3.44 -26.39 2.58 -26.17 2.12 -25.72C1.67 -25.28 1.44 -24.44 1.44 -23.22L1.44 -3.2C1.44 -2.36 1.51 -1.75 1.66 -1.37C1.94 -0.46 2.93 0 4.61 0L18.86 0C19.7 0 20.33 -0.07 20.74 -0.22C21.62 -0.5 22.07 -1.49 22.07 -3.17C22.07 -4.7 21.74 -5.64 21.1 -5.98C20.74 -6.17 20.42 -6.28 20.14 -6.32C19.87 -6.35 19.45 -6.37 18.9 -6.37Z M44.24 -13.36L51.48 -21.31C52.3 -22.18 52.7 -22.93 52.7 -23.58C52.7 -24.23 52.24 -24.97 51.3 -25.81C50.36 -26.65 49.59 -27.07 48.98 -27.07C48.37 -27.07 47.63 -26.59 46.76 -25.63L39.92 -17.78L33.08 -25.63C32.24 -26.59 31.51 -27.07 30.87 -27.07C30.23 -27.07 29.45 -26.65 28.51 -25.79C27.58 -24.94 27.11 -24.2 27.11 -23.58C27.11 -22.96 27.53 -22.2 28.37 -21.31L35.6 -13.36L28.37 -5.4C27.53 -4.46 27.11 -3.7 27.11 -3.1C27.11 -2.5 27.58 -1.77 28.53 -0.92C29.48 -0.07 30.26 0.36 30.87 0.36C31.48 0.36 32.22 -0.12 33.08 -1.08L39.92 -8.93L46.76 -1.08C47.6 -0.12 48.34 0.36 48.98 0.36C49.61 0.36 50.39 -0.06 51.32 -0.9C52.24 -1.74 52.7 -2.47 52.7 -3.1C52.7 -3.72 52.3 -4.49 51.48 -5.4Z M78.7 -16.81C78.7 -18.37 78.38 -19.79 77.76 -21.06C77.14 -22.33 76.33 -23.34 75.35 -24.08C73.36 -25.62 71.3 -26.39 69.19 -26.39L61.49 -26.39C59.95 -26.39 59.02 -26.06 58.68 -25.42C58.49 -25.06 58.37 -24.74 58.34 -24.46C58.3 -24.19 58.28 -23.77 58.28 -23.22L58.28 -3.24C58.28 -2.4 58.36 -1.78 58.5 -1.37C58.79 -0.48 59.77 -0.04 61.45 -0.04C62.99 -0.04 63.92 -0.36 64.26 -1.01C64.45 -1.37 64.57 -1.69 64.6 -1.96C64.64 -2.24 64.66 -2.65 64.66 -3.2L64.66 -7.27L69.16 -7.27C71.29 -7.27 73.36 -8.04 75.35 -9.58C76.33 -10.32 77.14 -11.32 77.76 -12.58C78.38 -13.84 78.7 -15.25 78.7 -16.81ZM71.32 -14.44C70.62 -13.91 69.91 -13.64 69.19 -13.64L64.66 -13.64L64.66 -20.02L69.16 -20.02C69.9 -20.02 70.62 -19.75 71.32 -19.21C72.01 -18.67 72.36 -17.87 72.36 -16.81C72.36 -15.76 72.01 -14.96 71.32 -14.44Z M91.01 -6.37L91.01 -10.01L98.06 -10.01C98.9 -10.01 99.53 -10.08 99.94 -10.22C100.85 -10.51 101.3 -11.5 101.3 -13.18C101.3 -14.71 100.98 -15.65 100.33 -15.98C99.97 -16.18 99.65 -16.29 99.38 -16.33C99.1 -16.36 98.69 -16.38 98.14 -16.38L91.01 -16.38L91.01 -20.02L102.06 -20.02C102.9 -20.02 103.52 -20.09 103.93 -20.23C104.82 -20.52 105.26 -21.5 105.26 -23.18C105.26 -24.72 104.94 -25.66 104.29 -25.99C103.93 -26.18 103.61 -26.3 103.34 -26.33C103.06 -26.37 102.65 -26.39 102.1 -26.39L87.91 -26.39C86.64 -26.39 85.78 -26.17 85.32 -25.72C84.86 -25.28 84.64 -24.44 84.64 -23.22L84.64 -3.2C84.64 -2.36 84.71 -1.75 84.85 -1.37C85.14 -0.46 86.12 0 87.8 0L102.06 0C102.9 0 103.52 -0.07 103.93 -0.22C104.82 -0.5 105.26 -1.49 105.26 -3.17C105.26 -4.7 104.94 -5.64 104.29 -5.98C103.93 -6.17 103.61 -6.28 103.34 -6.32C103.06 -6.35 102.65 -6.37 102.1 -6.37Z M129.28 -26.14C128.82 -25.99 128.48 -25.71 128.25 -25.29C128.02 -24.87 127.91 -24.2 127.91 -23.29L127.91 -11.12C126.2 -13.33 122.82 -17.88 117.76 -24.77C117.3 -25.32 117.02 -25.63 116.93 -25.7C116.76 -25.87 116.47 -26.02 116.05 -26.15C115.63 -26.29 115.06 -26.35 114.34 -26.35C113.62 -26.35 113.03 -26.28 112.57 -26.14C112.12 -25.99 111.77 -25.71 111.55 -25.29C111.32 -24.87 111.2 -24.2 111.2 -23.29L111.2 -3.2C111.2 -2.65 111.22 -2.23 111.26 -1.94C111.29 -1.66 111.41 -1.33 111.6 -0.97C111.94 -0.32 112.85 0 114.34 0C115.87 0 116.81 -0.32 117.14 -0.97C117.34 -1.33 117.45 -1.64 117.49 -1.91C117.52 -2.17 117.54 -2.59 117.54 -3.17L117.54 -15.01C119.24 -12.8 122.8 -8.1 128.2 -0.9C128.44 -0.59 128.74 -0.36 129.1 -0.22C129.46 -0.07 130.1 0 131.04 0C132.58 0 133.51 -0.32 133.85 -0.97C134.04 -1.33 134.15 -1.64 134.19 -1.91C134.23 -2.17 134.24 -2.59 134.24 -3.17L134.24 -23.15C134.24 -23.99 134.17 -24.6 134.03 -24.98C133.93 -25.32 133.78 -25.57 133.58 -25.74C133.37 -25.91 133.06 -26.05 132.64 -26.17C132.22 -26.29 131.67 -26.35 130.99 -26.35C130.3 -26.35 129.73 -26.28 129.28 -26.14Z M141.12 -3.71L141.44 -3.31C141.95 -2.59 142.84 -1.85 144.11 -1.08C144.73 -0.67 145.55 -0.33 146.56 -0.05C147.56 0.22 148.63 0.36 149.76 0.36C151.97 0.36 154.04 -0.28 155.99 -1.55C157 -2.2 157.81 -3.11 158.44 -4.3C159.06 -5.49 159.37 -6.86 159.37 -8.42C159.37 -9.98 159.07 -11.3 158.45 -12.37C157.84 -13.43 157.08 -14.18 156.17 -14.62C155.26 -15.05 154.26 -15.41 153.18 -15.71C152.1 -16.01 151.1 -16.24 150.19 -16.38C149.28 -16.52 148.52 -16.8 147.91 -17.21C147.29 -17.62 146.99 -18.15 146.99 -18.81C146.99 -19.47 147.25 -19.99 147.76 -20.36C148.28 -20.73 148.93 -20.92 149.71 -20.92C150.49 -20.92 151.13 -20.76 151.63 -20.45C151.8 -20.33 151.99 -20.17 152.19 -19.98C152.39 -19.79 152.53 -19.67 152.6 -19.62C153.35 -19.14 153.97 -18.9 154.48 -18.9C155.34 -18.9 156.18 -19.5 157 -20.7C157.57 -21.54 157.86 -22.2 157.86 -22.68C157.86 -23.16 157.49 -23.75 156.74 -24.44L155.84 -25.13C155.39 -25.51 154.57 -25.89 153.38 -26.26C152.19 -26.63 150.88 -26.82 149.44 -26.82C146.72 -26.82 144.58 -26.03 143.01 -24.46C141.44 -22.89 140.65 -21.05 140.65 -18.94C140.65 -17.4 140.96 -16.09 141.57 -14.99C142.18 -13.9 142.94 -13.1 143.86 -12.6C144.77 -12.1 145.75 -11.66 146.81 -11.29C147.86 -10.91 148.85 -10.64 149.76 -10.48C150.67 -10.31 151.43 -10.04 152.05 -9.67C152.66 -9.29 152.96 -8.83 152.96 -8.28C152.96 -6.46 151.85 -5.54 149.62 -5.54C149.09 -5.54 148.51 -5.73 147.89 -6.1C147.26 -6.47 146.78 -6.86 146.45 -7.27C145.25 -8.47 144.31 -9.07 143.64 -9.07C142.97 -9.07 142.33 -8.78 141.73 -8.21C140.7 -7.2 140.18 -6.39 140.18 -5.78C140.18 -5.17 140.5 -4.48 141.12 -3.71Z M165.31 -23.22L165.31 -3.2C165.31 -2.36 165.38 -1.75 165.53 -1.37C165.82 -0.46 166.8 0 168.48 0C170.02 0 170.95 -0.32 171.29 -0.97C171.48 -1.33 171.59 -1.64 171.63 -1.91C171.67 -2.17 171.68 -2.59 171.68 -3.17L171.68 -23.18C171.68 -24.02 171.62 -24.65 171.5 -25.06C171.19 -25.94 170.2 -26.39 168.52 -26.39C166.98 -26.39 166.04 -26.06 165.71 -25.42C165.52 -25.06 165.4 -24.74 165.37 -24.46C165.33 -24.19 165.31 -23.77 165.31 -23.22Z M195.62 -26.39L181.44 -26.39C180.17 -26.39 179.3 -26.17 178.85 -25.72C178.39 -25.28 178.16 -24.44 178.16 -23.22L178.16 -3.2C178.16 -2.36 178.24 -1.75 178.38 -1.37C178.67 -0.46 179.65 0 181.33 0C182.87 0 183.8 -0.32 184.14 -0.97C184.33 -1.33 184.45 -1.64 184.48 -1.91C184.52 -2.17 184.54 -2.59 184.54 -3.17L184.54 -9.97L191.59 -9.97C192.43 -9.97 193.04 -10.03 193.43 -10.15C194.34 -10.46 194.8 -11.46 194.8 -13.14C194.8 -14.68 194.48 -15.62 193.86 -15.98C193.5 -16.18 193.18 -16.29 192.91 -16.33C192.63 -16.36 192.2 -16.38 191.63 -16.38L184.54 -16.38L184.54 -20.02L195.55 -20.02C196.13 -20.02 196.55 -20.03 196.83 -20.07C197.11 -20.11 197.42 -20.21 197.78 -20.39C198.14 -20.57 198.4 -20.89 198.54 -21.35C198.68 -21.8 198.76 -22.42 198.76 -23.18C198.76 -23.95 198.68 -24.56 198.54 -25.02C198.4 -25.48 198.15 -25.8 197.8 -25.99C197.45 -26.18 197.14 -26.3 196.87 -26.33C196.59 -26.37 196.18 -26.39 195.62 -26.39Z M225.65 -25.88C224.69 -26.48 223.99 -26.78 223.54 -26.78C223.1 -26.78 222.71 -26.67 222.37 -26.44C222.04 -26.21 221.64 -25.74 221.18 -25.02L215.6 -16.09L210.02 -25.02C209.57 -25.74 209.14 -26.23 208.73 -26.5C208.46 -26.69 208.1 -26.78 207.65 -26.78C207.19 -26.78 206.44 -26.43 205.38 -25.72C204.32 -25.01 203.8 -24.28 203.8 -23.51C203.8 -23.05 204.07 -22.42 204.62 -21.6L212.4 -9.97L212.4 -3.17C212.4 -2.59 212.42 -2.17 212.45 -1.89C212.49 -1.61 212.6 -1.29 212.8 -0.92C212.99 -0.55 213.31 -0.29 213.77 -0.14C214.22 0 214.84 0.07 215.6 0.07C216.37 0.07 216.98 0 217.44 -0.14C217.9 -0.29 218.22 -0.54 218.41 -0.9C218.6 -1.26 218.72 -1.58 218.75 -1.85C218.79 -2.13 218.81 -2.54 218.81 -3.1L218.81 -9.97L226.58 -21.6C227.14 -22.42 227.41 -23.05 227.41 -23.51C227.41 -24.28 226.82 -25.07 225.65 -25.88Z M238.57 -5.94C238.02 -6.44 237.02 -6.7 235.57 -6.7C234.11 -6.7 233.21 -6.34 232.85 -5.62C232.66 -5.26 232.54 -4.93 232.51 -4.64C232.47 -4.36 232.45 -3.94 232.45 -3.38L232.45 -3.24C232.45 -1.97 232.69 -1.1 233.15 -0.65C233.62 -0.19 234.58 0.04 236.03 0.04C237.49 0.04 238.39 -0.31 238.75 -1.01C238.97 -1.39 239.09 -1.72 239.13 -2C239.17 -2.27 239.18 -2.7 239.18 -3.28L239.18 -3.42C239.18 -4.69 238.98 -5.53 238.57 -5.94Z M260.35 -24.52C259.73 -25.76 258.77 -26.39 257.47 -26.39C256.87 -26.39 256.3 -26.22 255.76 -25.88C255.22 -25.55 254.82 -25.1 254.56 -24.55L244.84 -4.43C244.43 -3.61 244.22 -3 244.22 -2.59C244.22 -1.73 244.92 -0.96 246.31 -0.29C247.13 0.12 247.77 0.32 248.24 0.32C248.71 0.32 249.09 0.21 249.39 -0.02C249.69 -0.25 249.91 -0.47 250.04 -0.68C250.17 -0.9 250.36 -1.25 250.6 -1.73L252.47 -5.62L262.44 -5.62L264.31 -1.73C264.55 -1.25 264.74 -0.89 264.87 -0.65C265 -0.41 265.22 -0.18 265.52 0.04C265.82 0.25 266.2 0.36 266.67 0.36C267.14 0.36 267.78 0.16 268.6 -0.25C269.99 -0.95 270.68 -1.73 270.68 -2.59C270.68 -3 270.48 -3.61 270.07 -4.43ZM257.44 -15.88L259.85 -10.94L255.06 -10.94Z M276.26 -23.22L276.26 -3.2C276.26 -2.36 276.34 -1.75 276.48 -1.37C276.77 -0.46 277.75 0 279.43 0C280.97 0 281.9 -0.32 282.24 -0.97C282.43 -1.33 282.55 -1.64 282.58 -1.91C282.62 -2.17 282.64 -2.59 282.64 -3.17L282.64 -23.18C282.64 -24.02 282.58 -24.65 282.46 -25.06C282.14 -25.94 281.15 -26.39 279.47 -26.39C277.93 -26.39 277 -26.06 276.66 -25.42C276.47 -25.06 276.35 -24.74 276.32 -24.46C276.28 -24.19 276.26 -23.77 276.26 -23.22Z"/></g></g></svg>