<svg xmlns="http://www.w3.org/2000/svg" version="1.1" xlink="http://www.w3.org/1999/xlink" xmlns:svgjs="http://svgjs.com/svgjs" width="300" height="60.68487212830516"><defs id="SvgjsDefs1106"/><g id="SvgjsG1107" transform="scale(1.4448779078167895)" opacity="1"><g id="SvgjsG1108" class="b8rccyVbzd" transform="translate(0, 0) scale(0.65625)" light-content="false" fill="#124bc4"><path d="M26.486 14.86C27.615 9.168 29.264 5.377 31 4.31v9.718a17.94 17.94 0 0 0-4.514.833zm11.028 0A17.94 17.94 0 0 0 33 14.027V4.31c1.736 1.068 3.385 4.86 4.514 10.551zM14.027 31H13.01c.11-5.226 1.08-9.906 2.686-13.843 1.4.53 2.86.983 4.382 1.357A17.956 17.956 0 0 0 14.028 31zm10.221-15.25c-.73.349-1.433.746-2.104 1.186a37.286 37.286 0 0 1-5.64-1.588c2.731-5.6 6.845-9.424 11.573-10.791-1.634 2.339-2.948 6.194-3.829 11.193zM49.973 31a17.956 17.956 0 0 0-6.042-12.478c1.52-.372 2.98-.823 4.378-1.352 1.604 3.934 2.57 8.61 2.68 13.83h-1.016zM39.752 15.75c-.881-5-2.195-8.854-3.829-11.193 4.732 1.368 8.848 5.198 11.579 10.804a37.33 37.33 0 0 1-5.636 1.581 17.972 17.972 0 0 0-2.114-1.192zM26.486 49.14a17.94 17.94 0 0 0 4.514.833v9.718c-1.736-1.068-3.385-4.86-4.514-10.551zm11.028 0c-1.129 5.692-2.778 9.483-4.514 10.55v-9.718a17.94 17.94 0 0 0 4.514-.833zM14.027 33a17.954 17.954 0 0 0 5.923 12.372c-1.494.372-2.929.82-4.305 1.345C14.07 42.807 13.12 38.171 13.01 33h1.017zm10.221 15.25c.881 5 2.195 8.854 3.829 11.193-4.763-1.377-8.902-5.248-11.632-10.915a37.137 37.137 0 0 1 5.53-1.575c.723.485 1.482.919 2.273 1.297zM49.973 33h1.017c-.109 5.165-1.057 9.796-2.63 13.704a37.682 37.682 0 0 0-4.301-1.34A17.954 17.954 0 0 0 49.973 33zM39.752 48.25c.794-.38 1.557-.816 2.282-1.304a37.18 37.18 0 0 1 5.527 1.57c-2.73 5.673-6.872 9.549-11.638 10.927 1.634-2.339 2.948-6.194 3.829-11.193zM10.18 14.467a32.4 32.4 0 0 0 3.664 1.925C12.136 20.584 11.12 25.528 11.01 31H4.018a27.873 27.873 0 0 1 6.162-16.533zm1.295-1.498a28.068 28.068 0 0 1 9.269-6.6c-2.418 2.094-4.495 4.88-6.102 8.223a30.863 30.863 0 0 1-3.167-1.623zm42.358 1.514A27.872 27.872 0 0 1 59.982 31H52.99c-.11-5.466-1.124-10.404-2.828-14.593a32.418 32.418 0 0 0 3.67-1.924zm-1.294-1.498a30.883 30.883 0 0 1-3.174 1.621c-1.608-3.35-3.687-6.14-6.109-8.236a28.069 28.069 0 0 1 9.283 6.615zm-42.453 36.46A27.871 27.871 0 0 1 4.017 33h6.993c.11 5.419 1.106 10.32 2.784 14.485a32.356 32.356 0 0 0-3.708 1.96zm1.284 1.502a30.806 30.806 0 0 1 3.214-1.659c1.631 3.43 3.754 6.28 6.232 8.405a28.07 28.07 0 0 1-9.446-6.746zm42.558-1.518a32.374 32.374 0 0 0-3.716-1.96c1.674-4.162 2.669-9.057 2.778-14.469h6.993a27.871 27.871 0 0 1-6.055 16.43zm-1.284 1.503a28.07 28.07 0 0 1-9.46 6.76c2.482-2.128 4.607-4.982 6.239-8.419 1.12.497 2.193 1.05 3.221 1.659zM31 62h.032a30.552 30.552 0 0 0 1.936 0H33c16.106-.529 29-13.75 29-29.985 0-16.218-12.87-29.43-28.953-29.982A16.341 16.341 0 0 0 33 2.03V2h-2v.03l-.047.003C14.869 2.585 2 15.797 2 32.015 2 48.25 14.894 61.471 31 62zm1 2C14.327 64 0 49.673 0 32 0 14.327 14.327 0 32 0c17.673 0 32 14.327 32 32 0 17.673-14.327 32-32 32z"/><path d="M27 31h8.603C38.03 31 40 33.015 40 35.5S38.031 40 35.603 40H27v-9zm2 2v5h6.5a2.5 2.5 0 1 0 0-5H29zm5-8h.017c2.2 0 3.983 1.79 3.983 4s-1.783 4-3.983 4H27v-6h-2v-2h3v-2h2v2h2v-2h2v2zm-5 2v4h5.147C35.17 31 36 30.105 36 29s-.83-2-1.853-2H29zm-4 11h3v2h-3v-2zm3 1h2v3h-2v-3zm4 0h2v3h-2v-3z"/></g><g id="SvgjsG1109" class="text" transform="translate(57.129999999999995, 31.595) scale(1)" light-content="false" fill="#124bc4"><path d="M2.45 -1.43C3.5 -0.33 4.91 0.22 6.66 0.22C10.71 0.22 12.74 -1.79 12.74 -5.82L12.74 -10.36L7.9 -10.36L7.9 -6.02C7.9 -4.81 7.52 -4.2 6.78 -4.2C6.4 -4.2 6.12 -4.34 5.94 -4.63C5.75 -4.92 5.66 -5.39 5.66 -6.02L5.66 -18.09C5.66 -18.67 5.74 -19.11 5.89 -19.4C6.05 -19.7 6.35 -19.85 6.78 -19.85C7.19 -19.85 7.48 -19.72 7.64 -19.46C7.81 -19.2 7.9 -18.72 7.9 -18.03L7.9 -14.48L12.68 -14.48L12.68 -18.62C12.68 -20.45 12.14 -21.85 11.06 -22.82C9.98 -23.79 8.55 -24.28 6.78 -24.28C4.74 -24.28 3.25 -23.67 2.3 -22.46C1.34 -21.24 0.87 -19.44 0.87 -17.05L0.87 -5.96C0.87 -4.04 1.4 -2.53 2.45 -1.43Z M19.85 -20.5L19.85 0L24.75 0L24.75 -15.68C24.75 -15.94 25.17 -16.17 26 -16.37C26.83 -16.56 27.59 -16.66 28.28 -16.66L28.28 -20.75C27.38 -20.75 26.63 -20.53 26.03 -20.09C25.42 -19.65 24.99 -19.03 24.75 -18.23L24.75 -20.5Z M34.69 0.31L34.69 3.42L40.21 3.42C41.07 3.42 41.7 3.22 42.1 2.84C42.5 2.46 42.77 1.87 42.9 1.06L46.7 -20.5L42 -20.5L40.91 -10.5L40.38 -5.4L39.93 -10.5L39 -20.5L34.33 -20.5L37.52 -0.42C37.54 -0.35 37.55 -0.24 37.55 -0.11C37.55 0.17 37.38 0.31 37.04 0.31Z M53.59 -20.5L53.59 4.09L58.58 4.09L58.58 -0.81C59.21 -0.12 60.14 0.22 61.38 0.22C62.66 0.22 63.63 -0.09 64.26 -0.71C64.89 -1.34 65.31 -2.16 65.49 -3.18C65.68 -4.2 65.77 -5.51 65.77 -7.11L65.77 -14.7C65.77 -16.59 65.46 -18.06 64.83 -19.12C64.21 -20.19 63.1 -20.72 61.52 -20.72C60.27 -20.72 59.29 -20.28 58.58 -19.4L58.58 -20.5ZM60.62 -4.2C60.49 -3.79 60.2 -3.58 59.75 -3.58C59.29 -3.58 58.97 -3.78 58.81 -4.16C58.66 -4.54 58.58 -5.08 58.58 -5.77L58.58 -14.76C58.58 -16.17 58.96 -16.88 59.72 -16.88C60.19 -16.88 60.49 -16.7 60.62 -16.32C60.75 -15.95 60.82 -15.41 60.82 -14.7L60.82 -5.99C60.82 -5.21 60.75 -4.61 60.62 -4.2Z M74.76 -0.59C75.25 -0.05 76.13 0.22 77.42 0.22C77.92 0.22 78.44 0.18 78.97 0.1C79.51 0.01 79.91 -0.07 80.19 -0.14L80.19 -3.5C80.14 -3.5 80.02 -3.49 79.86 -3.47C79.69 -3.45 79.51 -3.44 79.32 -3.44C79.08 -3.44 78.93 -3.53 78.88 -3.7C78.82 -3.86 78.79 -4.13 78.79 -4.48L78.79 -15.99L80.19 -15.99L80.19 -19.71L78.79 -19.71L78.79 -24.05L74.03 -24.05L74.03 -19.71L72.66 -19.71L72.66 -15.99L74.03 -15.99L74.03 -3.19C74.03 -2 74.27 -1.13 74.76 -0.59Z M87.16 -6.13C87.16 -1.89 89.21 0.22 93.3 0.22C97.38 0.22 99.43 -1.89 99.43 -6.13L99.43 -14.36C99.43 -16.31 98.88 -17.85 97.79 -19C96.7 -20.15 95.2 -20.72 93.3 -20.72C91.39 -20.72 89.89 -20.15 88.8 -19C87.71 -17.85 87.16 -16.31 87.16 -14.36ZM94.16 -3.98C93.98 -3.7 93.69 -3.56 93.3 -3.56C92.9 -3.56 92.61 -3.7 92.43 -3.98C92.24 -4.26 92.15 -4.64 92.15 -5.12L92.15 -15.15C92.15 -16.34 92.53 -16.94 93.3 -16.94C94.06 -16.94 94.44 -16.34 94.44 -15.15L94.44 -5.12C94.44 -4.64 94.35 -4.26 94.16 -3.98Z M106.85 -20.5L106.85 4.09L111.83 4.09L111.83 -0.81C112.47 -0.12 113.4 0.22 114.63 0.22C115.92 0.22 116.88 -0.09 117.52 -0.71C118.15 -1.34 118.56 -2.16 118.75 -3.18C118.93 -4.2 119.03 -5.51 119.03 -7.11L119.03 -14.7C119.03 -16.59 118.72 -18.06 118.09 -19.12C117.46 -20.19 116.36 -20.72 114.77 -20.72C113.52 -20.72 112.54 -20.28 111.83 -19.4L111.83 -20.5ZM113.88 -4.2C113.75 -3.79 113.46 -3.58 113.01 -3.58C112.54 -3.58 112.23 -3.78 112.07 -4.16C111.91 -4.54 111.83 -5.08 111.83 -5.77L111.83 -14.76C111.83 -16.17 112.21 -16.88 112.98 -16.88C113.45 -16.88 113.75 -16.7 113.88 -16.32C114.01 -15.95 114.07 -15.41 114.07 -14.7L114.07 -5.99C114.07 -5.21 114.01 -4.61 113.88 -4.2Z M126.42 -21.87L131.32 -21.87L131.32 -25.28L126.42 -25.28ZM126.42 0L131.32 0L131.32 -20.5L126.42 -20.5Z M139.31 -1.36C139.9 -0.3 140.99 0.22 142.58 0.22C143.3 0.22 143.93 -0.01 144.47 -0.48C145 -0.94 145.39 -1.6 145.63 -2.44L145.63 0L150.5 0L150.5 -15.62C150.5 -17.25 149.97 -18.5 148.9 -19.39C147.84 -20.28 146.46 -20.72 144.76 -20.72C142.63 -20.72 141.1 -20.29 140.15 -19.43C139.21 -18.57 138.74 -17.14 138.74 -15.12L138.74 -14.45L143.5 -14.45L143.5 -15.68C143.5 -16.09 143.6 -16.42 143.79 -16.66C143.99 -16.9 144.22 -17.02 144.48 -17.02C144.78 -17.02 145.04 -16.88 145.25 -16.59C145.46 -16.3 145.57 -15.89 145.57 -15.34L145.57 -13.3L145.57 -13.24L144.23 -12.8C142.7 -12.31 141.56 -11.87 140.81 -11.47C140.07 -11.06 139.48 -10.43 139.06 -9.58C138.64 -8.72 138.43 -7.49 138.43 -5.88C138.43 -3.92 138.73 -2.41 139.31 -1.36ZM145.31 -4.05C145.15 -3.74 144.88 -3.58 144.51 -3.58C143.78 -3.58 143.42 -4.19 143.42 -5.4L143.42 -8.04C143.42 -8.8 143.59 -9.4 143.93 -9.83C144.28 -10.26 144.82 -10.61 145.54 -10.89L145.54 -5.18C145.54 -4.73 145.46 -4.35 145.31 -4.05Z"/></g></g></svg>