<svg xmlns="http://www.w3.org/2000/svg" version="1.1" xlink="http://www.w3.org/1999/xlink" xmlns:svgjs="http://svgjs.com/svgjs" width="265.4853740616102" height="147"><defs id="SvgjsDefs1234"/><g id="SvgjsG1235" transform="scale(1.2684442143411856)" opacity="1"><g id="SvgjsG1236" class="dkRQx07qH" transform="translate(78.25016030214991, 0.0000026403157811216715) scale(0.5279972441531426)" light-content="false" fill="#1db326"><path fill-rule="evenodd" clip-rule="evenodd" d="M34.299 89.102C18.86 84.527-25.674 64.976 24.795 0c27.291 18.521 37.807 34.817 39.754 48.283-13.054 4.675-22.041 13.764-20.921 30.208-7.11-16.909-12.688-40.295-15.081-54.876-1.2 17.033 1.313 47.329 5.752 65.487z"/><path fill-rule="evenodd" clip-rule="evenodd" d="M51.772 93.184C48.014 82.738 40.207 48.778 98.54 50.65c1.712 53.348-26.544 51.379-39.376 47.778 5.312-10.34 12.15-19.672 20.803-27.551-10.615 5.877-20.068 13.332-28.195 22.307z"/></g><g id="SvgjsG1237" class="text" transform="translate(-1.1899999999999977, 89.12) scale(1)" light-content="false" fill="#b81e72"><path d="M27.11 0L25.24 -24.95L17.75 -24.95L14.26 -8.03L10.51 -24.95L3.06 -24.95L1.19 0L6.95 0L7.38 -9.68C7.45 -11.2 7.49 -12.65 7.49 -14.04C7.49 -15.89 7.42 -17.86 7.27 -19.94L11.38 -2.63L16.96 -2.63L20.81 -19.94C20.74 -18.7 20.7 -17.38 20.7 -15.98C20.7 -14.16 20.76 -12.08 20.88 -9.76L21.31 0Z M46.03 -3.96C45.82 -4.3 45.72 -4.82 45.72 -5.54L45.72 -12.96C45.72 -15.22 45.08 -16.91 43.81 -18.04C42.54 -19.16 40.54 -19.73 37.8 -19.73C36.72 -19.73 35.55 -19.61 34.29 -19.37C33.03 -19.13 31.8 -18.78 30.6 -18.32L31.9 -14.58C32.83 -14.89 33.74 -15.14 34.63 -15.32C35.52 -15.5 36.28 -15.59 36.9 -15.59C38.1 -15.59 38.94 -15.38 39.42 -14.96C39.9 -14.54 40.14 -13.76 40.14 -12.64L40.14 -11.81L38.2 -11.81C35.29 -11.81 33.07 -11.26 31.54 -10.15C30 -9.05 29.23 -7.45 29.23 -5.36C29.23 -3.59 29.8 -2.15 30.92 -1.04C32.05 0.06 33.56 0.61 35.46 0.61C38.05 0.61 39.97 -0.35 41.22 -2.27C41.63 -1.36 42.2 -0.69 42.95 -0.27C43.69 0.15 44.65 0.41 45.83 0.5L47.02 -3.2C46.56 -3.37 46.23 -3.62 46.03 -3.96ZM40.14 -5.29C39.42 -4.07 38.41 -3.46 37.12 -3.46C36.42 -3.46 35.87 -3.67 35.48 -4.09C35.08 -4.51 34.88 -5.1 34.88 -5.87C34.88 -6.83 35.2 -7.54 35.84 -7.99C36.47 -8.45 37.44 -8.68 38.74 -8.68L40.14 -8.68Z M75.02 -18.2C74.11 -19.22 72.9 -19.73 71.39 -19.73C70.19 -19.73 69.13 -19.48 68.2 -18.99C67.28 -18.5 66.43 -17.74 65.66 -16.7C65.3 -17.66 64.73 -18.41 63.95 -18.94C63.17 -19.46 62.24 -19.73 61.16 -19.73C60.01 -19.73 58.99 -19.49 58.09 -19.03C57.19 -18.56 56.36 -17.84 55.62 -16.88L55.22 -19.12L50.26 -19.12L50.26 0L55.94 0L55.94 -13.07C56.38 -13.88 56.83 -14.5 57.29 -14.92C57.76 -15.34 58.28 -15.55 58.86 -15.55C59.94 -15.55 60.48 -14.7 60.48 -13L60.48 0L66.17 0L66.17 -13.07C66.6 -13.91 67.04 -14.53 67.5 -14.94C67.96 -15.35 68.48 -15.55 69.08 -15.55C70.16 -15.55 70.7 -14.7 70.7 -13L70.7 0L76.39 0L76.39 -13.97C76.39 -15.77 75.94 -17.18 75.02 -18.2Z M96.17 -3.96C95.97 -4.3 95.87 -4.82 95.87 -5.54L95.87 -12.96C95.87 -15.22 95.23 -16.91 93.96 -18.04C92.69 -19.16 90.68 -19.73 87.95 -19.73C86.87 -19.73 85.7 -19.61 84.44 -19.37C83.18 -19.13 81.95 -18.78 80.75 -18.32L82.04 -14.58C82.98 -14.89 83.89 -15.14 84.78 -15.32C85.67 -15.5 86.42 -15.59 87.05 -15.59C88.25 -15.59 89.09 -15.38 89.57 -14.96C90.05 -14.54 90.29 -13.76 90.29 -12.64L90.29 -11.81L88.34 -11.81C85.44 -11.81 83.22 -11.26 81.68 -10.15C80.15 -9.05 79.38 -7.45 79.38 -5.36C79.38 -3.59 79.94 -2.15 81.07 -1.04C82.2 0.06 83.71 0.61 85.61 0.61C88.2 0.61 90.12 -0.35 91.37 -2.27C91.78 -1.36 92.35 -0.69 93.1 -0.27C93.84 0.15 94.8 0.41 95.98 0.5L97.16 -3.2C96.71 -3.37 96.38 -3.62 96.17 -3.96ZM90.29 -5.29C89.57 -4.07 88.56 -3.46 87.26 -3.46C86.57 -3.46 86.02 -3.67 85.63 -4.09C85.23 -4.51 85.03 -5.1 85.03 -5.87C85.03 -6.83 85.35 -7.54 85.99 -7.99C86.62 -8.45 87.59 -8.68 88.88 -8.68L90.29 -8.68Z M115.92 -3.78L115.92 -24.95L110.02 -24.95L110.02 -4C110.02 -2.92 109.93 -2.03 109.75 -1.33C109.57 -0.64 109.21 -0.02 108.68 0.5C108.16 1.03 107.36 1.5 106.31 1.91L107.89 6.08C109.5 5.56 110.89 4.93 112.05 4.19C113.21 3.46 114.15 2.45 114.86 1.15C115.57 -0.14 115.92 -1.79 115.92 -3.78Z M136.48 0L136.48 -19.12L130.79 -19.12L130.79 -5.83C129.92 -4.34 128.89 -3.6 127.69 -3.6C127.07 -3.6 126.61 -3.79 126.31 -4.16C126.01 -4.53 125.86 -5.18 125.86 -6.12L125.86 -19.12L120.17 -19.12L120.17 -5.4C120.17 -3.5 120.62 -2.03 121.52 -0.97C122.42 0.08 123.74 0.61 125.5 0.61C127.97 0.61 129.9 -0.4 131.29 -2.41L131.54 0Z M165.71 -18.2C164.8 -19.22 163.58 -19.73 162.07 -19.73C160.87 -19.73 159.81 -19.48 158.89 -18.99C157.96 -18.5 157.12 -17.74 156.35 -16.7C155.99 -17.66 155.42 -18.41 154.64 -18.94C153.86 -19.46 152.93 -19.73 151.85 -19.73C150.7 -19.73 149.67 -19.49 148.77 -19.03C147.87 -18.56 147.05 -17.84 146.3 -16.88L145.91 -19.12L140.94 -19.12L140.94 0L146.63 0L146.63 -13.07C147.06 -13.88 147.51 -14.5 147.98 -14.92C148.45 -15.34 148.97 -15.55 149.54 -15.55C150.62 -15.55 151.16 -14.7 151.16 -13L151.16 0L156.85 0L156.85 -13.07C157.28 -13.91 157.73 -14.53 158.18 -14.94C158.64 -15.35 159.17 -15.55 159.77 -15.55C160.85 -15.55 161.39 -14.7 161.39 -13L161.39 0L167.08 0L167.08 -13.97C167.08 -15.77 166.62 -17.18 165.71 -18.2Z M187.45 -17.05C186.23 -18.83 184.48 -19.73 182.2 -19.73C181.14 -19.73 180.16 -19.5 179.26 -19.04C178.36 -18.59 177.62 -17.96 177.05 -17.17L177.05 -27.32L171.36 -26.71L171.36 0L176.4 0L176.69 -1.84C177.29 -1.07 178.01 -0.47 178.87 -0.04C179.72 0.4 180.66 0.61 181.69 0.61C183.25 0.61 184.6 0.18 185.74 -0.68C186.88 -1.55 187.76 -2.75 188.37 -4.28C188.98 -5.82 189.29 -7.57 189.29 -9.54C189.29 -12.76 188.68 -15.26 187.45 -17.05ZM183.38 -9.54C183.38 -5.53 182.27 -3.53 180.04 -3.53C179.44 -3.53 178.88 -3.69 178.36 -4.01C177.85 -4.34 177.41 -4.79 177.05 -5.36L177.05 -13.32C177.94 -14.81 179.02 -15.55 180.29 -15.55C181.3 -15.55 182.06 -15.12 182.59 -14.26C183.12 -13.39 183.38 -11.82 183.38 -9.54Z M208.01 -17.05C206.35 -18.83 204.06 -19.73 201.13 -19.73C199.21 -19.73 197.55 -19.31 196.15 -18.47C194.74 -17.63 193.66 -16.45 192.91 -14.92C192.15 -13.4 191.77 -11.62 191.77 -9.58C191.77 -6.36 192.61 -3.86 194.27 -2.07C195.94 -0.28 198.23 0.61 201.13 0.61C203.05 0.61 204.71 0.19 206.12 -0.65C207.52 -1.49 208.6 -2.67 209.36 -4.19C210.11 -5.72 210.49 -7.5 210.49 -9.54C210.49 -12.76 209.66 -15.26 208.01 -17.05ZM198.54 -14.09C199.12 -15.07 199.98 -15.55 201.13 -15.55C202.31 -15.55 203.18 -15.07 203.74 -14.11C204.31 -13.15 204.59 -11.63 204.59 -9.54C204.59 -7.5 204.3 -5.99 203.72 -5.02C203.15 -4.05 202.28 -3.56 201.13 -3.56C199.96 -3.56 199.09 -4.04 198.52 -5C197.96 -5.96 197.68 -7.49 197.68 -9.58C197.68 -11.62 197.96 -13.12 198.54 -14.09Z"/></g><g id="SvgjsG1238" class="text" transform="translate(54.46000000000001, 112.56) scale(1)" light-content="false" fill="#2e2e2e"><path d="M5.41 -0.43L5.01 -1.9C4.85 -1.8 4.67 -1.71 4.49 -1.64C4.3 -1.57 4.07 -1.54 3.81 -1.54C3.31 -1.54 2.94 -1.77 2.71 -2.22C2.48 -2.68 2.37 -3.27 2.37 -4C2.37 -4.86 2.48 -5.49 2.7 -5.88C2.93 -6.27 3.26 -6.46 3.71 -6.46C3.96 -6.46 4.17 -6.44 4.34 -6.39C4.52 -6.34 4.7 -6.27 4.9 -6.18L5.34 -7.76C5.11 -7.89 4.84 -7.99 4.54 -8.08C4.23 -8.17 3.84 -8.21 3.36 -8.21C2.39 -8.21 1.65 -7.86 1.15 -7.15C0.65 -6.45 0.4 -5.4 0.4 -4C0.4 -3.36 0.45 -2.78 0.55 -2.26C0.65 -1.75 0.82 -1.3 1.06 -0.94C1.29 -0.57 1.59 -0.29 1.96 -0.09C2.33 0.11 2.78 0.21 3.33 0.21C3.7 0.21 4.07 0.15 4.45 0.05C4.82 -0.06 5.14 -0.22 5.41 -0.43Z M5.79 -4C5.79 -1.19 6.84 0.21 8.94 0.21C9.95 0.21 10.73 -0.14 11.28 -0.82C11.83 -1.51 12.11 -2.57 12.11 -4C12.11 -5.4 11.85 -6.45 11.33 -7.15C10.81 -7.86 10.01 -8.21 8.94 -8.21C7.95 -8.21 7.18 -7.86 6.62 -7.17C6.07 -6.47 5.79 -5.42 5.79 -4ZM7.76 -4C7.76 -4.92 7.86 -5.57 8.07 -5.94C8.28 -6.32 8.57 -6.51 8.94 -6.51C9.38 -6.51 9.69 -6.3 9.87 -5.87C10.05 -5.45 10.14 -4.82 10.14 -4C10.14 -3.08 10.05 -2.43 9.85 -2.06C9.65 -1.68 9.35 -1.49 8.94 -1.49C8.52 -1.49 8.21 -1.71 8.03 -2.14C7.85 -2.58 7.76 -3.2 7.76 -4Z M15.14 -2.59L15.14 -11.2L13.23 -11.2L13.23 -1.57C13.23 -0.93 13.37 -0.47 13.63 -0.21C13.9 0.06 14.3 0.19 14.83 0.19C15.15 0.19 15.47 0.15 15.78 0.08C16.09 0.01 16.3 -0.07 16.43 -0.16L16.26 -1.7C16.13 -1.64 16.01 -1.61 15.91 -1.58C15.81 -1.56 15.71 -1.55 15.62 -1.55C15.45 -1.55 15.32 -1.63 15.25 -1.79C15.17 -1.95 15.14 -2.22 15.14 -2.59Z M22.83 -2.82L22.83 -11.2L20.93 -11.2L20.93 -7.97C20.77 -8.04 20.6 -8.1 20.43 -8.13C20.26 -8.16 20.05 -8.18 19.79 -8.18C18.8 -8.18 18.05 -7.81 17.55 -7.08C17.05 -6.35 16.8 -5.28 16.8 -3.87C16.8 -2.43 17.03 -1.39 17.5 -0.75C17.96 -0.11 18.6 0.21 19.41 0.21C20.31 0.21 20.95 -0.17 21.31 -0.91L21.38 -0.91L21.63 0.02L22.98 0.02C22.9 -0.53 22.86 -1.02 22.85 -1.47C22.84 -1.92 22.83 -2.37 22.83 -2.82ZM19.86 -1.54C19.48 -1.54 19.21 -1.73 19.03 -2.12C18.86 -2.51 18.77 -3.07 18.77 -3.81C18.77 -4.79 18.87 -5.47 19.09 -5.86C19.3 -6.24 19.62 -6.43 20.05 -6.43C20.26 -6.43 20.43 -6.41 20.57 -6.37C20.7 -6.33 20.82 -6.26 20.93 -6.16L20.93 -2.38C20.84 -2.11 20.71 -1.9 20.54 -1.75C20.37 -1.61 20.14 -1.54 19.86 -1.54Z M27.49 -8L27.49 3.2L29.39 3.2L29.39 -0.05C29.55 0.05 29.72 0.12 29.9 0.16C30.09 0.2 30.3 0.22 30.56 0.22C31.53 0.22 32.27 -0.16 32.78 -0.92C33.3 -1.68 33.55 -2.78 33.55 -4.21C33.55 -5.64 33.35 -6.66 32.94 -7.27C32.53 -7.89 31.91 -8.19 31.1 -8.19C30.66 -8.19 30.28 -8.1 29.98 -7.93C29.67 -7.75 29.4 -7.47 29.15 -7.09L29.1 -7.09L28.91 -8ZM29.39 -1.79L29.39 -5.55C29.58 -6.18 29.95 -6.5 30.48 -6.5C30.87 -6.5 31.16 -6.31 31.33 -5.94C31.5 -5.58 31.58 -5.01 31.58 -4.26C31.58 -3.24 31.47 -2.53 31.25 -2.1C31.02 -1.68 30.7 -1.47 30.27 -1.47C30.06 -1.47 29.89 -1.5 29.75 -1.55C29.62 -1.61 29.5 -1.69 29.39 -1.79Z M38.42 -6.11L38.64 -8C38.39 -8.11 38.14 -8.16 37.89 -8.16C37.55 -8.16 37.25 -8.06 36.98 -7.86C36.72 -7.67 36.52 -7.39 36.38 -7.04L36.32 -7.04L36.1 -8L34.64 -8L34.64 0L36.54 0L36.54 -5.34C36.62 -5.63 36.76 -5.86 36.97 -6.02C37.18 -6.18 37.42 -6.26 37.71 -6.26C37.93 -6.26 38.16 -6.21 38.42 -6.11Z M44.74 -0.59L44.14 -1.92C43.99 -1.8 43.78 -1.69 43.5 -1.58C43.21 -1.48 42.9 -1.42 42.56 -1.42C41.99 -1.42 41.58 -1.6 41.33 -1.95C41.07 -2.3 40.93 -2.81 40.91 -3.47L44.8 -3.47C44.85 -3.78 44.89 -4.07 44.92 -4.34C44.95 -4.6 44.96 -4.85 44.96 -5.09C44.96 -5.7 44.88 -6.2 44.73 -6.6C44.57 -7 44.37 -7.32 44.12 -7.56C43.87 -7.8 43.58 -7.97 43.26 -8.07C42.94 -8.17 42.61 -8.22 42.27 -8.22C41.26 -8.22 40.47 -7.88 39.9 -7.19C39.33 -6.5 39.04 -5.44 39.04 -4C39.04 -3.34 39.1 -2.75 39.22 -2.23C39.35 -1.71 39.54 -1.27 39.79 -0.91C40.05 -0.55 40.38 -0.27 40.78 -0.08C41.18 0.11 41.65 0.21 42.21 0.21C42.71 0.21 43.19 0.13 43.65 -0.02C44.11 -0.17 44.47 -0.36 44.74 -0.59ZM42.24 -6.59C42.58 -6.59 42.83 -6.43 42.99 -6.12C43.15 -5.81 43.22 -5.34 43.18 -4.74L40.98 -4.74C41.01 -5.32 41.13 -5.78 41.33 -6.1C41.53 -6.43 41.83 -6.59 42.24 -6.59Z M48.86 -2.13C48.86 -1.88 48.78 -1.7 48.62 -1.59C48.46 -1.48 48.26 -1.42 48.02 -1.42C47.7 -1.42 47.39 -1.47 47.1 -1.57C46.8 -1.66 46.54 -1.78 46.32 -1.9L45.79 -0.37C46.05 -0.2 46.39 -0.06 46.81 0.05C47.23 0.15 47.66 0.21 48.1 0.21C48.98 0.21 49.65 -0.02 50.1 -0.46C50.54 -0.91 50.77 -1.5 50.77 -2.24C50.77 -2.68 50.7 -3.05 50.55 -3.34C50.41 -3.64 50.22 -3.9 50 -4.1C49.78 -4.31 49.54 -4.49 49.29 -4.62C49.04 -4.76 48.8 -4.9 48.58 -5.02C48.35 -5.15 48.17 -5.28 48.02 -5.42C47.88 -5.55 47.81 -5.72 47.81 -5.92C47.81 -6.36 48.07 -6.58 48.59 -6.58C48.87 -6.58 49.15 -6.54 49.44 -6.46C49.73 -6.38 49.97 -6.29 50.18 -6.21L50.62 -7.68C50.38 -7.83 50.05 -7.95 49.63 -8.06C49.22 -8.16 48.77 -8.21 48.3 -8.21C47.51 -8.21 46.92 -8.01 46.51 -7.6C46.11 -7.19 45.9 -6.62 45.9 -5.87C45.9 -5.43 45.98 -5.07 46.12 -4.78C46.26 -4.5 46.45 -4.25 46.67 -4.05C46.9 -3.85 47.13 -3.67 47.38 -3.54C47.63 -3.4 47.87 -3.26 48.1 -3.13C48.32 -2.99 48.5 -2.85 48.65 -2.7C48.79 -2.54 48.86 -2.35 48.86 -2.13Z M54.46 -2.13C54.46 -1.88 54.38 -1.7 54.22 -1.59C54.06 -1.48 53.86 -1.42 53.62 -1.42C53.3 -1.42 52.99 -1.47 52.7 -1.57C52.4 -1.66 52.14 -1.78 51.92 -1.9L51.39 -0.37C51.65 -0.2 51.99 -0.06 52.41 0.05C52.83 0.15 53.26 0.21 53.7 0.21C54.58 0.21 55.25 -0.02 55.7 -0.46C56.14 -0.91 56.37 -1.5 56.37 -2.24C56.37 -2.68 56.3 -3.05 56.15 -3.34C56.01 -3.64 55.82 -3.9 55.6 -4.1C55.38 -4.31 55.14 -4.49 54.89 -4.62C54.64 -4.76 54.4 -4.9 54.18 -5.02C53.95 -5.15 53.77 -5.28 53.62 -5.42C53.48 -5.55 53.41 -5.72 53.41 -5.92C53.41 -6.36 53.67 -6.58 54.19 -6.58C54.47 -6.58 54.75 -6.54 55.04 -6.46C55.33 -6.38 55.57 -6.29 55.78 -6.21L56.22 -7.68C55.98 -7.83 55.65 -7.95 55.23 -8.06C54.82 -8.16 54.37 -8.21 53.9 -8.21C53.11 -8.21 52.52 -8.01 52.11 -7.6C51.71 -7.19 51.5 -6.62 51.5 -5.87C51.5 -5.43 51.58 -5.07 51.72 -4.78C51.86 -4.5 52.05 -4.25 52.27 -4.05C52.5 -3.85 52.73 -3.67 52.98 -3.54C53.23 -3.4 53.47 -3.26 53.7 -3.13C53.92 -2.99 54.1 -2.85 54.25 -2.7C54.39 -2.54 54.46 -2.35 54.46 -2.13Z M62.78 -0.59L62.19 -1.92C62.04 -1.8 61.83 -1.69 61.54 -1.58C61.26 -1.48 60.95 -1.42 60.61 -1.42C60.04 -1.42 59.63 -1.6 59.38 -1.95C59.12 -2.3 58.98 -2.81 58.96 -3.47L62.85 -3.47C62.9 -3.78 62.94 -4.07 62.97 -4.34C62.99 -4.6 63.01 -4.85 63.01 -5.09C63.01 -5.7 62.93 -6.2 62.78 -6.6C62.62 -7 62.42 -7.32 62.17 -7.56C61.92 -7.8 61.63 -7.97 61.31 -8.07C60.99 -8.17 60.66 -8.22 60.32 -8.22C59.31 -8.22 58.51 -7.88 57.94 -7.19C57.37 -6.5 57.09 -5.44 57.09 -4C57.09 -3.34 57.15 -2.75 57.27 -2.23C57.39 -1.71 57.58 -1.27 57.84 -0.91C58.1 -0.55 58.42 -0.27 58.82 -0.08C59.22 0.11 59.7 0.21 60.26 0.21C60.76 0.21 61.24 0.13 61.7 -0.02C62.15 -0.17 62.52 -0.36 62.78 -0.59ZM60.29 -6.59C60.63 -6.59 60.88 -6.43 61.04 -6.12C61.2 -5.81 61.26 -5.34 61.23 -4.74L59.02 -4.74C59.06 -5.32 59.17 -5.78 59.38 -6.1C59.58 -6.43 59.88 -6.59 60.29 -6.59Z M69.97 -2.82L69.97 -11.2L68.06 -11.2L68.06 -7.97C67.9 -8.04 67.74 -8.1 67.57 -8.13C67.4 -8.16 67.18 -8.18 66.93 -8.18C65.94 -8.18 65.19 -7.81 64.69 -7.08C64.19 -6.35 63.94 -5.28 63.94 -3.87C63.94 -2.43 64.17 -1.39 64.63 -0.75C65.1 -0.11 65.73 0.21 66.54 0.21C67.45 0.21 68.09 -0.17 68.45 -0.91L68.51 -0.91L68.77 0.02L70.11 0.02C70.04 -0.53 69.99 -1.02 69.98 -1.47C69.97 -1.92 69.97 -2.37 69.97 -2.82ZM66.99 -1.54C66.62 -1.54 66.34 -1.73 66.17 -2.12C65.99 -2.51 65.9 -3.07 65.9 -3.81C65.9 -4.79 66.01 -5.47 66.22 -5.86C66.44 -6.24 66.76 -6.43 67.18 -6.43C67.4 -6.43 67.57 -6.41 67.7 -6.37C67.84 -6.33 67.96 -6.26 68.06 -6.16L68.06 -2.38C67.98 -2.11 67.85 -1.9 67.68 -1.75C67.51 -1.61 67.28 -1.54 66.99 -1.54Z M74.8 -8L74.8 -0.22C74.8 0.37 74.73 0.82 74.58 1.13C74.44 1.43 74.14 1.56 73.68 1.52L73.68 3.22C73.99 3.29 74.29 3.33 74.59 3.33C75.33 3.33 75.86 3.07 76.2 2.56C76.54 2.05 76.7 1.31 76.7 0.34L76.7 -8ZM74.56 -10.26C74.56 -9.94 74.66 -9.68 74.86 -9.48C75.07 -9.28 75.35 -9.18 75.73 -9.18C76.1 -9.18 76.4 -9.28 76.62 -9.47C76.85 -9.66 76.96 -9.93 76.96 -10.26C76.96 -10.59 76.85 -10.85 76.62 -11.06C76.4 -11.26 76.1 -11.36 75.73 -11.36C75.35 -11.36 75.07 -11.26 74.86 -11.05C74.66 -10.84 74.56 -10.58 74.56 -10.26Z M80.06 -8L78.16 -8L78.16 -2.8C78.16 -2.2 78.21 -1.71 78.3 -1.32C78.4 -0.93 78.54 -0.62 78.72 -0.4C78.9 -0.18 79.12 -0.02 79.38 0.07C79.63 0.16 79.93 0.21 80.26 0.21C80.77 0.21 81.2 0.09 81.54 -0.16C81.89 -0.41 82.17 -0.71 82.37 -1.09L82.42 -1.09L82.75 0L84.19 0C84.11 -0.34 84.05 -0.72 84.02 -1.14C83.98 -1.57 83.97 -1.99 83.97 -2.43L83.97 -8L82.06 -8L82.06 -2.66C81.98 -2.35 81.83 -2.08 81.63 -1.86C81.43 -1.65 81.18 -1.54 80.88 -1.54C80.57 -1.54 80.36 -1.66 80.24 -1.9C80.12 -2.15 80.06 -2.59 80.06 -3.22Z M85.52 -8L85.52 0L87.42 0L87.42 -8ZM85.3 -10.26C85.3 -9.94 85.4 -9.68 85.6 -9.48C85.8 -9.28 86.09 -9.18 86.46 -9.18C86.84 -9.18 87.14 -9.28 87.36 -9.47C87.58 -9.66 87.7 -9.93 87.7 -10.26C87.7 -10.59 87.58 -10.85 87.36 -11.06C87.14 -11.26 86.84 -11.36 86.46 -11.36C86.09 -11.36 85.8 -11.26 85.6 -11.05C85.4 -10.84 85.3 -10.58 85.3 -10.26Z M93.68 -0.43L93.28 -1.9C93.12 -1.8 92.95 -1.71 92.76 -1.64C92.57 -1.57 92.35 -1.54 92.08 -1.54C91.58 -1.54 91.21 -1.77 90.98 -2.22C90.75 -2.68 90.64 -3.27 90.64 -4C90.64 -4.86 90.75 -5.49 90.98 -5.88C91.2 -6.27 91.54 -6.46 91.98 -6.46C92.23 -6.46 92.44 -6.44 92.62 -6.39C92.79 -6.34 92.98 -6.27 93.17 -6.18L93.62 -7.76C93.38 -7.89 93.11 -7.99 92.81 -8.08C92.5 -8.17 92.11 -8.21 91.63 -8.21C90.66 -8.21 89.93 -7.86 89.42 -7.15C88.92 -6.45 88.67 -5.4 88.67 -4C88.67 -3.36 88.72 -2.78 88.82 -2.26C88.93 -1.75 89.09 -1.3 89.33 -0.94C89.56 -0.57 89.86 -0.29 90.23 -0.09C90.6 0.11 91.06 0.21 91.6 0.21C91.97 0.21 92.35 0.15 92.72 0.05C93.09 -0.06 93.41 -0.22 93.68 -0.43Z M99.76 -0.59L99.17 -1.92C99.02 -1.8 98.8 -1.69 98.52 -1.58C98.24 -1.48 97.93 -1.42 97.58 -1.42C97.02 -1.42 96.61 -1.6 96.35 -1.95C96.1 -2.3 95.96 -2.81 95.94 -3.47L99.82 -3.47C99.88 -3.78 99.92 -4.07 99.94 -4.34C99.97 -4.6 99.98 -4.85 99.98 -5.09C99.98 -5.7 99.91 -6.2 99.75 -6.6C99.6 -7 99.39 -7.32 99.14 -7.56C98.89 -7.8 98.61 -7.97 98.29 -8.07C97.97 -8.17 97.64 -8.22 97.3 -8.22C96.28 -8.22 95.49 -7.88 94.92 -7.19C94.35 -6.5 94.06 -5.44 94.06 -4C94.06 -3.34 94.13 -2.75 94.25 -2.23C94.37 -1.71 94.56 -1.27 94.82 -0.91C95.07 -0.55 95.4 -0.27 95.8 -0.08C96.2 0.11 96.68 0.21 97.23 0.21C97.73 0.21 98.21 0.13 98.67 -0.02C99.13 -0.17 99.49 -0.36 99.76 -0.59ZM97.26 -6.59C97.61 -6.59 97.86 -6.43 98.02 -6.12C98.18 -5.81 98.24 -5.34 98.21 -4.74L96 -4.74C96.03 -5.32 96.15 -5.78 96.35 -6.1C96.55 -6.43 96.86 -6.59 97.26 -6.59Z"/></g></g></svg>