<svg xmlns="http://www.w3.org/2000/svg" version="1.1" xlink="http://www.w3.org/1999/xlink" xmlns:svgjs="http://svgjs.com/svgjs" width="300" height="134.2276252357996"><defs id="SvgjsDefs1168"/><g id="SvgjsG1169" transform="scale(2.0959966464053656)" opacity="1"><g id="SvgjsG1170" class="-FWpxNVI8C" transform="translate(51.046219188065336, -1.22885926179963) scale(0.411540275217559)" light-content="false" fill="#0f21ad"><circle cx="59.328" cy="44.808" r="3.691"/><path d="M49.858 2.986c-25.725 0-46.653 20.928-46.653 46.654 0 25.727 20.928 46.654 46.653 46.654S96.512 75.367 96.512 49.64c0-25.726-20.929-46.654-46.654-46.654zm9.47 36.558a5.27 5.27 0 0 1 5.264 5.262c0 2.017-1.151 3.75-2.818 4.635-.046.019-.086.045-.13.07a5.199 5.199 0 0 1-2.315.56 5.27 5.27 0 0 1-5.263-5.265 5.269 5.269 0 0 1 5.262-5.262zm6.961 2.1l13.498 7.635c-8.656-.104-12.077-.115-14.205-.072a7.587 7.587 0 0 0 .707-7.563zm-14.572 3.973c.406 3.842 3.666 6.847 7.611 6.847a7.574 7.574 0 0 0 3.289-.754l.28-.014c1.677-.081 2.739-.131 6.359-.122a22.637 22.637 0 0 0-6.434 4.677c-6.216 6.419-9.067 15.968-10.37 23.032-2.336-7.814-9.908-13.887-9.908-13.987a17.154 17.154 0 0 0-2.556-2.513c.595-7.238 6.358-13.047 7.591-14.506 1.943-1.863 3.353-2.468 4.138-2.66zm2.075 48.103l-.138-5.165.108.003c.004-.21.69-21.062 11.436-31.298 4.011-3.816 8.973-5.668 14.752-5.494l.002-.093c1.355.016 2.838.035 4.463.056h.018a1.197 1.197 0 0 0 .588-2.237l-20.61-11.657a1.193 1.193 0 0 0-.433-.142l-1.768-13.59-1.841-14.159-1.842 15.141-.351-.981-1.842-14.16-1.569 15.141-1.569-15.141-1.843 14.159-1.401 10.777c-.884.292-1.403.557-1.375.557-12.993 4.885-20.935 19.258-23.926 24.105-6.125 1.361-12.473 6.738-14.845 8.917A43.99 43.99 0 0 1 5.595 49.64c0-24.405 19.856-44.263 44.263-44.263 24.408 0 44.263 19.857 44.263 44.263 0 23.08-17.759 42.082-40.329 44.08z"/></g><g id="SvgjsG1171" class="text" transform="translate(-1.2800000000000011, 63.65) scale(1)" light-content="false" fill="#121212"><path d="M9.26 -15.07L9.35 -17.41C9.22 -17.47 9.05 -17.55 8.84 -17.64C8.63 -17.73 8.39 -17.82 8.11 -17.91C7.83 -18 7.51 -18.08 7.16 -18.15C6.81 -18.22 6.43 -18.25 6.01 -18.25C5.45 -18.25 4.9 -18.15 4.36 -17.95C3.83 -17.75 3.35 -17.46 2.93 -17.09C2.51 -16.71 2.17 -16.26 1.92 -15.73C1.66 -15.2 1.54 -14.61 1.54 -13.95C1.54 -13.32 1.63 -12.75 1.83 -12.23C2.02 -11.71 2.27 -11.22 2.58 -10.77C2.89 -10.31 3.25 -9.89 3.64 -9.49C4.04 -9.09 4.45 -8.7 4.86 -8.32C5.28 -7.94 5.69 -7.56 6.08 -7.19C6.48 -6.81 6.83 -6.43 7.14 -6.02C7.46 -5.62 7.71 -5.2 7.9 -4.76C8.09 -4.31 8.19 -3.82 8.19 -3.3C8.19 -2.92 8.12 -2.58 7.99 -2.26C7.86 -1.95 7.68 -1.67 7.44 -1.44C7.2 -1.21 6.91 -1.04 6.57 -0.91C6.23 -0.78 5.85 -0.71 5.43 -0.71C4.96 -0.71 4.53 -0.79 4.14 -0.96C3.75 -1.12 3.4 -1.34 3.09 -1.61C2.79 -1.88 2.53 -2.19 2.33 -2.54C2.12 -2.9 1.97 -3.27 1.88 -3.66L1.56 -3.66L1.28 -0.9C1.46 -0.77 1.69 -0.64 1.98 -0.49C2.27 -0.34 2.59 -0.2 2.96 -0.07C3.32 0.06 3.71 0.17 4.14 0.26C4.57 0.34 5.03 0.39 5.5 0.39C6.35 0.39 7.08 0.25 7.7 -0.02C8.32 -0.29 8.82 -0.64 9.21 -1.07C9.6 -1.51 9.89 -2 10.08 -2.54C10.27 -3.09 10.36 -3.63 10.36 -4.17C10.36 -4.9 10.19 -5.58 9.86 -6.21C9.52 -6.84 9.1 -7.44 8.59 -8.01C8.08 -8.59 7.53 -9.14 6.94 -9.68C6.35 -10.21 5.8 -10.74 5.29 -11.27C4.78 -11.81 4.36 -12.35 4.02 -12.89C3.68 -13.44 3.51 -14.01 3.51 -14.61C3.51 -14.99 3.57 -15.33 3.68 -15.64C3.78 -15.95 3.94 -16.21 4.16 -16.44C4.37 -16.66 4.63 -16.84 4.95 -16.96C5.27 -17.09 5.63 -17.15 6.04 -17.15C6.5 -17.15 6.89 -17.08 7.23 -16.94C7.57 -16.8 7.86 -16.62 8.09 -16.41C8.33 -16.19 8.52 -15.97 8.67 -15.73C8.81 -15.48 8.92 -15.27 8.99 -15.07Z M12.41 -0.05L12.41 0L14.56 0C14.55 -0.1 14.53 -0.22 14.51 -0.35C14.5 -0.47 14.48 -0.6 14.48 -0.76C14.47 -0.91 14.46 -1.09 14.46 -1.3C14.46 -1.47 14.48 -1.72 14.51 -2.06C14.55 -2.4 14.59 -2.8 14.64 -3.24C14.69 -3.69 14.75 -4.17 14.81 -4.67L15.01 -6.2C15.17 -7.39 15.35 -8.69 15.56 -10.09L21.15 -0.15L22.04 -0.02L27.73 -10.01L28.8 -2.35C28.84 -2.09 28.87 -1.83 28.89 -1.56C28.91 -1.3 28.93 -1.09 28.93 -0.95C28.93 -0.73 28.91 -0.55 28.87 -0.39C28.83 -0.23 28.8 -0.12 28.78 -0.05L28.78 0L31.85 0L31.85 -0.05C31.8 -0.13 31.74 -0.25 31.68 -0.39C31.61 -0.53 31.54 -0.71 31.48 -0.94C31.41 -1.17 31.34 -1.45 31.27 -1.79C31.2 -2.12 31.13 -2.53 31.05 -3L29.55 -13.44L28.34 -13.44L22.23 -2.76L16.26 -13.44L14.78 -13.44C14.75 -13.2 14.7 -12.83 14.64 -12.32C14.57 -11.82 14.49 -11.23 14.39 -10.55L14.06 -8.36C13.95 -7.57 13.83 -6.78 13.71 -5.99C13.59 -5.2 13.46 -4.43 13.34 -3.68C13.22 -2.94 13.11 -2.27 13.01 -1.69C12.95 -1.33 12.86 -1 12.74 -0.69C12.63 -0.38 12.52 -0.17 12.41 -0.05Z M42.68 -4.23L43.16 -3.22C43.24 -3.06 43.34 -2.85 43.46 -2.6C43.58 -2.35 43.69 -2.09 43.81 -1.82C43.92 -1.55 44.01 -1.28 44.09 -1.03C44.17 -0.77 44.21 -0.55 44.21 -0.36L44.21 -0.18C44.21 -0.13 44.2 -0.07 44.19 0L47.39 0L47.39 -0.05C47.35 -0.08 47.26 -0.19 47.14 -0.38C47.01 -0.57 46.87 -0.81 46.7 -1.09C46.53 -1.38 46.35 -1.71 46.16 -2.08C45.96 -2.44 45.77 -2.82 45.58 -3.22L40.58 -13.75L39.64 -13.75L34.54 -3.22C34.35 -2.84 34.17 -2.47 33.98 -2.11C33.79 -1.75 33.62 -1.43 33.46 -1.15C33.29 -0.87 33.15 -0.63 33.03 -0.43C32.9 -0.24 32.81 -0.11 32.75 -0.05L32.75 0L34.95 0L34.95 -0.05C34.93 -0.08 34.92 -0.11 34.91 -0.16C34.9 -0.2 34.9 -0.27 34.9 -0.36C34.9 -0.5 34.92 -0.66 34.96 -0.82C35 -0.98 35.07 -1.17 35.16 -1.4C35.25 -1.62 35.37 -1.89 35.51 -2.18C35.65 -2.48 35.83 -2.82 36.03 -3.22L36.49 -4.2C36.66 -4.2 36.91 -4.2 37.23 -4.21C37.54 -4.21 37.89 -4.21 38.28 -4.22C38.66 -4.22 39.06 -4.23 39.49 -4.23L40.73 -4.23L41.83 -4.23ZM36.98 -5.2L39.64 -10.75L42.23 -5.22C41.93 -5.22 41.59 -5.22 41.21 -5.22C40.84 -5.21 40.45 -5.21 40.05 -5.21C39.65 -5.21 39.25 -5.21 38.86 -5.21C38.46 -5.2 38.09 -5.2 37.74 -5.2Z M51.44 -6.52L51.44 -12.57C51.55 -12.61 51.69 -12.64 51.85 -12.67C51.99 -12.7 52.16 -12.72 52.37 -12.74C52.57 -12.76 52.81 -12.77 53.08 -12.77C53.91 -12.77 54.54 -12.51 54.97 -11.98C55.4 -11.44 55.61 -10.72 55.61 -9.8C55.61 -8.68 55.34 -7.85 54.81 -7.29C54.27 -6.73 53.48 -6.45 52.44 -6.45C52.28 -6.45 52.11 -6.46 51.94 -6.47C51.77 -6.48 51.6 -6.5 51.44 -6.52ZM53.35 -5.71L55.99 -2C56.05 -1.91 56.16 -1.77 56.29 -1.58C56.43 -1.38 56.57 -1.19 56.71 -0.98C56.84 -0.78 56.96 -0.58 57.07 -0.39C57.17 -0.21 57.23 -0.08 57.23 0L60.5 0L60.5 -0.05C60.38 -0.1 60.22 -0.2 60.04 -0.34C59.85 -0.49 59.66 -0.67 59.45 -0.89C59.24 -1.1 59.02 -1.35 58.79 -1.62C58.56 -1.9 58.34 -2.19 58.11 -2.49L55.5 -6.18C55.88 -6.34 56.22 -6.54 56.53 -6.76C56.83 -6.99 57.1 -7.25 57.33 -7.54C57.55 -7.84 57.73 -8.17 57.85 -8.54C57.98 -8.91 58.04 -9.33 58.04 -9.77C58.04 -10.35 57.92 -10.87 57.69 -11.34C57.46 -11.8 57.14 -12.2 56.72 -12.52C56.3 -12.85 55.79 -13.1 55.21 -13.27C54.62 -13.45 53.97 -13.54 53.25 -13.54C52.54 -13.54 51.93 -13.51 51.4 -13.46C50.88 -13.41 50.48 -13.39 50.21 -13.39C50.05 -13.39 49.9 -13.39 49.74 -13.39C49.59 -13.4 49.45 -13.4 49.33 -13.41C49.18 -13.42 49.03 -13.43 48.9 -13.44L48.9 -13.39C48.96 -13.21 49.01 -12.99 49.06 -12.71C49.1 -12.44 49.14 -12.1 49.17 -11.69C49.2 -11.29 49.22 -10.81 49.24 -10.26C49.25 -9.7 49.26 -9.05 49.26 -8.3L49.26 -5.15C49.26 -4.4 49.25 -3.75 49.24 -3.19C49.22 -2.63 49.2 -2.15 49.17 -1.74C49.14 -1.34 49.1 -1 49.06 -0.73C49.01 -0.45 48.96 -0.22 48.9 -0.05L48.9 0L51.79 0L51.79 -0.05C51.73 -0.22 51.68 -0.45 51.64 -0.72C51.6 -0.99 51.56 -1.33 51.53 -1.72C51.5 -2.12 51.48 -2.6 51.46 -3.16C51.45 -3.71 51.44 -4.36 51.44 -5.1L51.44 -5.71C51.6 -5.7 51.77 -5.68 51.93 -5.68C52.08 -5.67 52.23 -5.66 52.36 -5.66C52.53 -5.66 52.69 -5.66 52.86 -5.67C53.02 -5.67 53.18 -5.69 53.35 -5.71Z M64.74 -12.51L64.74 -5.15C64.74 -4.4 64.73 -3.75 64.71 -3.19C64.7 -2.63 64.67 -2.15 64.64 -1.74C64.6 -1.34 64.57 -1 64.53 -0.73C64.48 -0.45 64.43 -0.22 64.38 -0.05L64.38 0L67.26 0L67.26 -0.05C67.2 -0.22 67.15 -0.45 67.11 -0.73C67.07 -1 67.04 -1.34 67.01 -1.74C66.98 -2.15 66.95 -2.63 66.94 -3.19C66.92 -3.75 66.91 -4.4 66.91 -5.15L66.91 -12.51C67.69 -12.51 68.39 -12.48 69.01 -12.41C69.63 -12.35 70.16 -12.27 70.6 -12.2C71.12 -12.11 71.58 -12.01 71.97 -11.9L71.72 -13.51C71.6 -13.5 71.4 -13.48 71.11 -13.48C70.83 -13.47 70.53 -13.46 70.22 -13.46C69.92 -13.45 69.63 -13.45 69.36 -13.44C69.09 -13.44 68.9 -13.44 68.8 -13.44L62.89 -13.44C62.78 -13.44 62.59 -13.44 62.31 -13.44C62.03 -13.45 61.73 -13.45 61.42 -13.46C61.11 -13.46 60.81 -13.47 60.53 -13.48C60.24 -13.48 60.04 -13.5 59.91 -13.51L59.66 -11.9C60.08 -12.01 60.55 -12.11 61.06 -12.2C61.51 -12.27 62.05 -12.35 62.67 -12.41C63.29 -12.48 63.98 -12.51 64.74 -12.51Z M76.5 -16.85C76.66 -16.86 76.86 -16.87 77.11 -16.89C77.35 -16.91 77.61 -16.93 77.89 -16.94C78.17 -16.96 78.45 -16.97 78.74 -16.98C79.02 -16.99 79.28 -17 79.5 -17C80.64 -17 81.65 -16.82 82.53 -16.47C83.41 -16.11 84.15 -15.6 84.74 -14.91C85.34 -14.23 85.79 -13.39 86.1 -12.39C86.41 -11.4 86.56 -10.26 86.56 -8.99C86.56 -7.84 86.45 -6.84 86.24 -5.99C86.02 -5.15 85.72 -4.42 85.34 -3.82C84.96 -3.22 84.52 -2.74 84.02 -2.36C83.51 -1.98 82.98 -1.68 82.41 -1.46C81.84 -1.25 81.24 -1.1 80.63 -1.02C80.02 -0.94 79.42 -0.9 78.84 -0.9C78.7 -0.9 78.52 -0.9 78.31 -0.91C78.1 -0.92 77.89 -0.93 77.68 -0.94C77.46 -0.96 77.25 -0.97 77.06 -0.99C76.86 -1.01 76.7 -1.03 76.59 -1.05C76.55 -1.56 76.53 -2.2 76.5 -2.96C76.48 -3.73 76.46 -4.53 76.44 -5.36C76.43 -6.2 76.42 -7.01 76.41 -7.8C76.4 -8.59 76.4 -9.27 76.4 -9.83C76.4 -10.09 76.4 -10.4 76.41 -10.74C76.41 -11.09 76.41 -11.45 76.42 -11.83C76.42 -12.21 76.43 -12.6 76.43 -12.99C76.44 -13.38 76.44 -13.76 76.45 -14.14C76.47 -15.01 76.48 -15.92 76.5 -16.85ZM73.76 -17.98L73.76 -17.92C73.81 -17.75 73.86 -17.53 73.91 -17.26C73.95 -17 73.99 -16.67 74.03 -16.28C74.06 -15.89 74.08 -15.43 74.1 -14.89C74.12 -14.36 74.13 -13.73 74.13 -13.02L74.13 -4.89C74.13 -4.18 74.12 -3.56 74.1 -3.03C74.08 -2.5 74.06 -2.05 74.03 -1.66C73.99 -1.28 73.95 -0.96 73.91 -0.7C73.86 -0.44 73.81 -0.22 73.76 -0.05L73.76 0C74 0 74.32 0.01 74.74 0.03C75.16 0.05 75.61 0.08 76.09 0.1C76.56 0.13 77.04 0.15 77.51 0.17C77.98 0.19 78.38 0.2 78.71 0.2C79.65 0.2 80.55 0.13 81.43 -0.02C82.3 -0.17 83.12 -0.41 83.89 -0.74C84.66 -1.06 85.37 -1.48 86.01 -1.98C86.64 -2.49 87.19 -3.09 87.65 -3.8C88.11 -4.51 88.46 -5.32 88.72 -6.25C88.97 -7.18 89.1 -8.22 89.1 -9.37C89.1 -10.99 88.86 -12.35 88.38 -13.46C87.89 -14.57 87.24 -15.47 86.41 -16.15C85.59 -16.83 84.63 -17.32 83.54 -17.62C82.45 -17.92 81.3 -18.07 80.09 -18.07C79.64 -18.07 79.16 -18.07 78.64 -18.05C78.13 -18.03 77.64 -18.02 77.16 -18C76.69 -17.98 76.26 -17.97 75.89 -17.95C75.52 -17.93 75.26 -17.92 75.1 -17.92C75.01 -17.92 74.89 -17.93 74.74 -17.93C74.59 -17.94 74.44 -17.94 74.3 -17.95C74.13 -17.96 73.95 -17.97 73.76 -17.98Z M92.35 -8.3L92.35 -5.15C92.35 -4.4 92.34 -3.75 92.33 -3.19C92.31 -2.63 92.29 -2.15 92.26 -1.74C92.23 -1.34 92.19 -1 92.14 -0.73C92.1 -0.45 92.05 -0.22 91.99 -0.05L91.99 0L94.89 0L94.89 -0.05C94.83 -0.22 94.78 -0.45 94.73 -0.73C94.69 -1 94.65 -1.34 94.62 -1.74C94.59 -2.15 94.57 -2.63 94.55 -3.19C94.53 -3.75 94.53 -4.4 94.53 -5.15L94.53 -8.3C94.53 -9.05 94.53 -9.7 94.55 -10.26C94.57 -10.81 94.59 -11.29 94.62 -11.69C94.65 -12.1 94.69 -12.44 94.73 -12.71C94.78 -12.99 94.83 -13.21 94.89 -13.39L94.89 -13.44L91.99 -13.44L91.99 -13.39C92.05 -13.21 92.1 -12.99 92.14 -12.71C92.19 -12.44 92.23 -12.1 92.26 -11.69C92.29 -11.29 92.31 -10.81 92.33 -10.26C92.34 -9.7 92.35 -9.05 92.35 -8.3Z M110.65 -1.51L110.65 -2.22C110.65 -2.65 110.66 -3.03 110.67 -3.35C110.68 -3.67 110.7 -3.96 110.72 -4.2C110.74 -4.44 110.77 -4.65 110.8 -4.82C110.83 -5 110.87 -5.15 110.91 -5.27L110.91 -5.32L108.25 -5.32L108.25 -5.27C108.29 -5.13 108.33 -4.98 108.36 -4.81C108.39 -4.65 108.41 -4.45 108.43 -4.22C108.44 -3.99 108.45 -3.72 108.46 -3.4C108.47 -3.08 108.48 -2.71 108.48 -2.27L108.48 -1.61C108.48 -1.35 108.25 -1.11 107.79 -0.9C107.34 -0.69 106.7 -0.59 105.89 -0.59C104.94 -0.59 104.11 -0.76 103.39 -1.1C102.68 -1.44 102.08 -1.91 101.6 -2.52C101.12 -3.12 100.75 -3.84 100.51 -4.66C100.27 -5.49 100.15 -6.38 100.15 -7.35C100.15 -8.21 100.28 -8.97 100.54 -9.65C100.8 -10.32 101.16 -10.89 101.62 -11.36C102.08 -11.82 102.63 -12.17 103.26 -12.41C103.89 -12.65 104.58 -12.77 105.33 -12.77C106.24 -12.77 107.05 -12.61 107.76 -12.27C108.47 -11.93 109.08 -11.48 109.58 -10.9L109.7 -10.99L108.76 -13.24C108.25 -13.39 107.71 -13.5 107.15 -13.57C106.59 -13.64 106 -13.67 105.38 -13.67C104.18 -13.67 103.1 -13.48 102.14 -13.09C101.19 -12.7 100.38 -12.17 99.71 -11.52C99.05 -10.87 98.54 -10.13 98.18 -9.29C97.83 -8.45 97.65 -7.58 97.65 -6.69C97.65 -5.65 97.84 -4.7 98.23 -3.84C98.62 -2.98 99.16 -2.24 99.86 -1.63C100.56 -1.02 101.4 -0.54 102.38 -0.2C103.36 0.14 104.45 0.31 105.64 0.31C106.7 0.31 107.62 0.19 108.41 -0.06C109.19 -0.3 109.88 -0.63 110.48 -1.05C110.55 -1.1 110.6 -1.16 110.62 -1.24C110.64 -1.31 110.65 -1.4 110.65 -1.51Z M113.51 -13.44L113.51 -13.44L113.51 -13.39C113.57 -13.21 113.62 -12.99 113.67 -12.71C113.71 -12.44 113.75 -12.1 113.78 -11.69C113.81 -11.29 113.83 -10.81 113.85 -10.26C113.87 -9.7 113.88 -9.05 113.88 -8.3L113.88 -5.15C113.88 -4.4 113.87 -3.75 113.85 -3.19C113.83 -2.63 113.81 -2.15 113.78 -1.74C113.75 -1.34 113.71 -1 113.67 -0.73C113.62 -0.45 113.57 -0.22 113.51 -0.05L113.51 0L118.25 0C118.35 0 118.53 0 118.8 0.01C119.07 0.01 119.35 0.01 119.66 0.02C119.96 0.02 120.25 0.03 120.53 0.04C120.81 0.06 121.01 0.07 121.14 0.08L121.43 -1.56C120.97 -1.45 120.45 -1.34 119.89 -1.25C119.4 -1.17 118.84 -1.11 118.19 -1.04C117.54 -0.98 116.83 -0.95 116.05 -0.95L116.05 -6.62C116.49 -6.62 116.95 -6.61 117.44 -6.58C117.92 -6.55 118.36 -6.52 118.76 -6.47C119.23 -6.43 119.69 -6.38 120.15 -6.32L120.45 -7.81C120.11 -7.75 119.71 -7.71 119.26 -7.68C118.88 -7.63 118.42 -7.6 117.88 -7.57C117.33 -7.55 116.73 -7.53 116.05 -7.52L116.05 -12.46C116.29 -12.48 116.53 -12.5 116.76 -12.51C116.96 -12.53 117.17 -12.54 117.39 -12.56C117.6 -12.57 117.8 -12.57 117.96 -12.57C118.43 -12.57 118.84 -12.56 119.19 -12.52C119.55 -12.48 119.85 -12.44 120.1 -12.4C120.38 -12.35 120.64 -12.3 120.86 -12.24L121.35 -13.59C121.18 -13.55 120.84 -13.53 120.31 -13.51C119.78 -13.5 119.15 -13.48 118.41 -13.47C117.68 -13.46 116.88 -13.45 116.03 -13.44C115.17 -13.44 114.33 -13.44 113.51 -13.44Z M130.3 -10.82L130.36 -12.95C130.25 -12.99 130.1 -13.05 129.91 -13.12C129.73 -13.19 129.51 -13.26 129.27 -13.33C129.02 -13.4 128.75 -13.46 128.44 -13.51C128.14 -13.56 127.81 -13.59 127.46 -13.59C126.99 -13.59 126.53 -13.51 126.09 -13.37C125.65 -13.22 125.25 -13.01 124.91 -12.74C124.57 -12.47 124.3 -12.14 124.09 -11.75C123.88 -11.36 123.78 -10.92 123.78 -10.42C123.78 -9.96 123.85 -9.53 124 -9.14C124.15 -8.76 124.35 -8.39 124.6 -8.05C124.85 -7.71 125.13 -7.39 125.44 -7.09C125.76 -6.8 126.08 -6.51 126.41 -6.22C126.75 -5.94 127.07 -5.66 127.38 -5.39C127.69 -5.11 127.98 -4.83 128.23 -4.53C128.48 -4.24 128.68 -3.93 128.82 -3.61C128.98 -3.29 129.05 -2.94 129.05 -2.56C129.05 -2.25 129 -1.96 128.89 -1.71C128.78 -1.45 128.63 -1.24 128.44 -1.06C128.26 -0.89 128.03 -0.75 127.78 -0.66C127.52 -0.56 127.24 -0.51 126.95 -0.51C126.53 -0.51 126.16 -0.59 125.84 -0.73C125.52 -0.88 125.24 -1.07 125.01 -1.31C124.77 -1.54 124.57 -1.81 124.41 -2.1C124.24 -2.39 124.12 -2.68 124.04 -2.97L123.78 -2.97L123.55 -0.61C123.71 -0.51 123.91 -0.41 124.14 -0.29C124.38 -0.18 124.65 -0.08 124.96 0.02C125.26 0.11 125.59 0.2 125.96 0.26C126.32 0.33 126.7 0.36 127.1 0.36C127.83 0.36 128.44 0.25 128.95 0.03C129.46 -0.19 129.88 -0.47 130.2 -0.81C130.53 -1.15 130.76 -1.54 130.91 -1.96C131.05 -2.39 131.13 -2.8 131.13 -3.2C131.13 -3.74 130.99 -4.25 130.73 -4.73C130.47 -5.2 130.14 -5.65 129.75 -6.07C129.36 -6.5 128.93 -6.91 128.48 -7.3C128.02 -7.69 127.59 -8.08 127.2 -8.47C126.81 -8.86 126.48 -9.25 126.22 -9.64C125.96 -10.03 125.83 -10.44 125.83 -10.87C125.83 -11.14 125.87 -11.39 125.95 -11.62C126.03 -11.85 126.15 -12.05 126.31 -12.21C126.47 -12.38 126.66 -12.51 126.89 -12.61C127.12 -12.7 127.38 -12.75 127.68 -12.75C128.06 -12.75 128.39 -12.68 128.66 -12.53C128.94 -12.39 129.17 -12.21 129.36 -12C129.54 -11.79 129.69 -11.58 129.81 -11.36C129.92 -11.15 130 -10.97 130.05 -10.82Z M137.17 -12.51L137.17 -5.15C137.17 -4.4 137.17 -3.75 137.15 -3.19C137.13 -2.63 137.11 -2.15 137.07 -1.74C137.04 -1.34 137 -1 136.96 -0.73C136.92 -0.45 136.87 -0.22 136.81 -0.05L136.81 0L139.7 0L139.7 -0.05C139.64 -0.22 139.59 -0.45 139.55 -0.73C139.51 -1 139.47 -1.34 139.44 -1.74C139.41 -2.15 139.39 -2.63 139.38 -3.19C139.36 -3.75 139.35 -4.4 139.35 -5.15L139.35 -12.51C140.13 -12.51 140.82 -12.48 141.44 -12.41C142.06 -12.35 142.6 -12.27 143.04 -12.2C143.55 -12.11 144.01 -12.01 144.41 -11.9L144.16 -13.51C144.04 -13.5 143.83 -13.48 143.55 -13.48C143.27 -13.47 142.97 -13.46 142.66 -13.46C142.35 -13.45 142.06 -13.45 141.79 -13.44C141.52 -13.44 141.34 -13.44 141.24 -13.44L135.32 -13.44C135.22 -13.44 135.02 -13.44 134.74 -13.44C134.46 -13.45 134.17 -13.45 133.86 -13.46C133.54 -13.46 133.25 -13.47 132.96 -13.48C132.68 -13.48 132.48 -13.5 132.35 -13.51L132.1 -11.9C132.52 -12.01 132.98 -12.11 133.5 -12.2C133.95 -12.27 134.49 -12.35 135.11 -12.41C135.73 -12.48 136.42 -12.51 137.17 -12.51Z"/></g></g></svg>