<svg xmlns="http://www.w3.org/2000/svg" version="1.1" xlink="http://www.w3.org/1999/xlink" xmlns:svgjs="http://svgjs.com/svgjs" width="300" height="54.503461879075765"><defs id="SvgjsDefs1511"/><g id="SvgjsG1512" transform="scale(1.5095402946622656)" opacity="1"><g id="SvgjsG1513" class="jlM07E4So1" transform="translate(0, 0) scale(0.36106)" light-content="false" fill="#08c911"><path d="M24 0h76v76c0 13.255-10.745 24-24 24H0V24C0 10.745 10.745 0 24 0z"/></g><g id="SvgjsG1514" class="text" transform="translate(9.628000000000002, 27.778) scale(1)" light-content="true" fill="#ffffff"><path d="M3.71 -0.06C5.14 0.21 6.65 0.35 8.25 0.35C11 0.35 13.09 -0.19 14.51 -1.28C15.94 -2.36 16.65 -3.96 16.65 -6.07C16.65 -7.62 16.25 -8.88 15.44 -9.84C14.63 -10.8 13.34 -11.57 11.58 -12.17L9.4 -12.92C8.85 -13.11 8.45 -13.28 8.21 -13.45C7.97 -13.62 7.85 -13.84 7.85 -14.12C7.85 -14.44 7.95 -14.66 8.16 -14.79C8.37 -14.91 8.73 -14.98 9.23 -14.98C10.26 -14.98 10.78 -14.56 10.78 -13.73L15.78 -13.73L15.78 -18.2C14.99 -18.68 13.96 -19.07 12.69 -19.36C11.41 -19.65 10.05 -19.8 8.6 -19.8C5.58 -19.8 3.43 -19.29 2.14 -18.26C0.85 -17.24 0.2 -15.74 0.2 -13.77C0.2 -12.16 0.6 -10.87 1.41 -9.93C2.22 -8.97 3.55 -8.15 5.4 -7.45L7.55 -6.7C8.08 -6.5 8.46 -6.3 8.68 -6.11C8.89 -5.92 9 -5.69 9 -5.43C9 -5.11 8.89 -4.87 8.66 -4.71C8.44 -4.55 8.07 -4.48 7.55 -4.48C6.93 -4.48 6.51 -4.59 6.28 -4.82C6.04 -5.06 5.93 -5.43 5.93 -5.95L0.43 -5.95L0.43 -1C1.19 -0.65 2.29 -0.34 3.71 -0.06Z"/></g><g id="SvgjsG1515" class="text" transform="translate(52.84599999999999, 30.498) scale(1)" light-content="false" fill="#303030"><path d="M4.75 -0.08C6.58 0.27 8.51 0.45 10.56 0.45C14.08 0.45 16.75 -0.25 18.58 -1.63C20.4 -3.02 21.31 -5.07 21.31 -7.78C21.31 -9.76 20.79 -11.37 19.76 -12.59C18.73 -13.82 17.08 -14.82 14.82 -15.58L12.03 -16.54C11.33 -16.78 10.82 -17 10.51 -17.22C10.2 -17.43 10.05 -17.72 10.05 -18.08C10.05 -18.49 10.18 -18.77 10.45 -18.93C10.71 -19.09 11.17 -19.17 11.81 -19.17C13.13 -19.17 13.79 -18.63 13.79 -17.57L20.19 -17.57L20.19 -23.3C19.19 -23.91 17.87 -24.41 16.24 -24.78C14.61 -25.16 12.86 -25.34 11.01 -25.34C7.15 -25.34 4.39 -24.69 2.74 -23.38C1.08 -22.06 0.26 -20.15 0.26 -17.63C0.26 -15.56 0.77 -13.92 1.81 -12.7C2.84 -11.49 4.54 -10.43 6.91 -9.54L9.66 -8.58C10.35 -8.32 10.83 -8.07 11.1 -7.82C11.38 -7.58 11.52 -7.29 11.52 -6.94C11.52 -6.54 11.38 -6.23 11.09 -6.03C10.8 -5.83 10.33 -5.73 9.66 -5.73C8.87 -5.73 8.33 -5.88 8.03 -6.18C7.73 -6.47 7.58 -6.95 7.58 -7.62L0.54 -7.62L0.54 -1.28C1.53 -0.83 2.93 -0.43 4.75 -0.08Z M46.4 -5.25L44.99 -5.25L44.99 -17.79L35.9 -17.79L35.9 -12.54L37.63 -12.54L37.63 -7.3C37.63 -6.59 37.48 -6.07 37.17 -5.74C36.86 -5.41 36.39 -5.25 35.78 -5.25C35.16 -5.25 34.69 -5.41 34.38 -5.74C34.07 -6.07 33.92 -6.59 33.92 -7.3L33.92 -17.79L25.15 -17.79L25.15 -12.54L26.56 -12.54L26.56 -5.79C26.56 -3.85 27 -2.33 27.89 -1.22C28.77 -0.11 30.1 0.45 31.87 0.45C34.18 0.45 36.1 -0.53 37.63 -2.5L37.63 0L46.4 0Z M65.38 -18.11C64.99 -18.2 64.59 -18.24 64.16 -18.24C63.07 -18.24 62.14 -18 61.38 -17.52C60.61 -17.04 59.93 -16.35 59.33 -15.46L59.33 -17.79L50.56 -17.79L50.56 -12.54L51.97 -12.54L51.97 -5.25L50.56 -5.25L50.56 0L62.21 0L62.21 -5.25L59.33 -5.25L59.33 -8.03C59.33 -9.42 59.69 -10.46 60.42 -11.17C61.14 -11.87 62.18 -12.22 63.52 -12.22C64.52 -12.22 65.46 -12.04 66.34 -11.68L66.34 -17.79C66.08 -17.92 65.76 -18.03 65.38 -18.11Z M85.44 -18.11C85.06 -18.2 84.65 -18.24 84.22 -18.24C83.14 -18.24 82.21 -18 81.44 -17.52C80.67 -17.04 79.99 -16.35 79.39 -15.46L79.39 -17.79L70.62 -17.79L70.62 -12.54L72.03 -12.54L72.03 -5.25L70.62 -5.25L70.62 0L82.27 0L82.27 -5.25L79.39 -5.25L79.39 -8.03C79.39 -9.42 79.75 -10.46 80.48 -11.17C81.21 -11.87 82.24 -12.22 83.58 -12.22C84.59 -12.22 85.53 -12.04 86.4 -11.68L86.4 -17.79C86.14 -17.92 85.82 -18.03 85.44 -18.11Z M93.06 -1.94C94.76 -0.35 97.13 0.45 100.16 0.45C101.85 0.45 103.41 0.28 104.85 -0.05C106.29 -0.38 107.38 -0.75 108.13 -1.15L108.13 -6.27C107.25 -5.97 106.23 -5.73 105.06 -5.54C103.88 -5.34 102.65 -5.25 101.34 -5.25C100.26 -5.25 99.48 -5.43 99.01 -5.81C98.54 -6.18 98.3 -6.76 98.3 -7.55L98.3 -7.74L108.67 -7.74L108.67 -10.05C108.67 -12.37 108.01 -14.32 106.67 -15.89C105.34 -17.46 103.17 -18.24 100.16 -18.24C97.13 -18.24 94.76 -17.45 93.06 -15.86C91.35 -14.27 90.5 -11.95 90.5 -8.9C90.5 -5.85 91.35 -3.53 93.06 -1.94ZM102.02 -11.26L98.3 -11.26L98.3 -11.65C98.3 -12.35 98.46 -12.87 98.77 -13.2C99.08 -13.53 99.54 -13.7 100.16 -13.7C100.78 -13.7 101.24 -13.54 101.55 -13.22C101.86 -12.9 102.02 -12.37 102.02 -11.65Z M131.49 -5.25L130.08 -5.25L130.08 -11.17C130.08 -13.58 129.4 -15.36 128.03 -16.51C126.67 -17.66 124.39 -18.24 121.22 -18.24C119.96 -18.24 118.67 -18.15 117.34 -17.98C116.02 -17.81 114.79 -17.59 113.66 -17.31L113.66 -11.42C114.58 -11.77 115.59 -12.04 116.69 -12.24C117.79 -12.44 118.82 -12.54 119.78 -12.54C120.95 -12.54 121.78 -12.41 122.27 -12.14C122.76 -11.88 123.04 -11.38 123.1 -10.66C116.26 -10.55 112.83 -8.48 112.83 -4.45C112.83 -2.89 113.29 -1.69 114.21 -0.83C115.13 0.02 116.38 0.45 117.98 0.45C119.2 0.45 120.23 0.18 121.07 -0.35C121.91 -0.89 122.57 -1.49 123.04 -2.18L123.04 0L131.49 0ZM123.04 -7.49L123.04 -7.3C123.04 -6.44 122.89 -5.78 122.59 -5.31C122.29 -4.84 121.87 -4.61 121.31 -4.61C120.91 -4.61 120.59 -4.72 120.37 -4.94C120.14 -5.17 120.03 -5.46 120.03 -5.82C120.03 -6.42 120.29 -6.85 120.82 -7.1C121.34 -7.36 122.08 -7.49 123.04 -7.49Z M135.71 0.03L145.89 0.03L145.89 -5.25L144.48 -5.25L144.48 -24.9L135.71 -24.9L135.71 -19.65L137.12 -19.65L137.12 -5.25L135.71 -5.25Z"/></g></g></svg>