<svg xmlns="http://www.w3.org/2000/svg" version="1.1" xlink="http://www.w3.org/1999/xlink" xmlns:svgjs="http://svgjs.com/svgjs" width="299.87096225473" height="147"><defs id="SvgjsDefs139009"/><g id="SvgjsG139010" transform="scale(0.6173995361707114)" opacity="1"><g id="SvgjsG139011" class="Y_ktWkuwl" transform="translate(133.6927103788666, -37.56580816087266) scale(2.184058614004224)" light-content="false" non-strokable="false" fill="#11a24d"><path d="M39.5 33.5c.2-4.4 1.1-7.7 2.4-10 2.8-5.3 7.6-6.3 10.8-6.3 5.1 0 9.9 2.5 12 5 .7.8 1.3 1.8 1.2 2.9 0 .2 0 .4-.1.6 0 .3-.1.5-.1.8-.1.4-.1.7-.2 1.1-.1.5-.1.9-.2 1.4-.1.6-.2 1.1-.2 1.7-.1.6-.2 1.2-.3 1.9-.1.7-.2 1.4-.3 2-.1.7-.2 1.5-.3 2.2-.1.8-.2 1.5-.3 2.3-.1.8-.2 1.6-.3 2.3l-.3 2.4-.3 2.4c-.1.8-.2 1.5-.3 2.3-.1.7-.2 1.5-.3 2.2l-.3 2.1c-.1.7-.2 1.3-.3 2-.1.6-.2 1.2-.2 1.8-.1.5-.1 1-.2 1.5-.1.4-.1.8-.2 1.2 0 .3-.1.6-.1.9 0 .2-.1.4-.1.6v.2c-.1.5-.5.8-1 .8-2.6-.1-9-1-13.9-6.2-5-5-7.1-12.4-6.6-22.1zm44.9 39.7c-3.6 8-7.5 9.9-14.5 9.7-.6 0-1.7-.1-1-2.1.7-1.9 2.1-.8 3.5-.8s3-2.1 3.5-6.5c.4-4.4-.5-14.1-7.6-14.1-8.6 0-4.7 19.8-4.3 23.1 0 .2-.2.5-.4.5H52.2c-.3 0-.5-.2-.5-.5V76c0-5.8-4.5-10.8-10.3-10.8-5.7 0-10.6 4-10.6 9.7v7.6c0 .2-.2.4-.4.4H18.7c-.2 0-.4-.1-.5-.3-1.9-3.4-2.2-15.2-2.3-19.2 0-.5-.6-.6-.9-.3l-1.9 2.4c-.2.3-.7.1-.7-.2.4-16 11.6-34.5 27.4-41 0 0 .1 0 0 0-1.1 2.5-1.7 5.6-1.9 9.2-.5 10.1 1.8 17.9 6.7 23 5.2 5.5 12.2 6.4 14.9 6.6h.1c1.2 0 2.1-.9 2.3-2 0 0 4.9-34.3 5-35.4C94 39 87.9 65.3 84.4 73.2zM74.4 45c0-1.5-1.2-2.8-2.8-2.8-1.5 0-2.8 1.2-2.8 2.8 0 1.5 1.2 2.8 2.8 2.8 1.6-.1 2.8-1.3 2.8-2.8z"/></g><g id="SvgjsG139012" class="text" transform="translate(241.27, 222.2354200190851) scale(1)" light-content="false" fill="#121212"><path d="M-241.27 -49.57L-241.27 0L-230.58 0L-230.58 -15.93C-230.53 -15.88 -230.46 -15.86 -230.37 -15.86C-230.37 -16.13 -230.44 -16.27 -230.58 -16.27L-201.9 -16.34C-199.1 -16.34 -196.68 -17.34 -194.66 -19.34C-192.64 -21.34 -191.63 -23.74 -191.63 -26.54L-191.63 -39.37C-191.63 -42.17 -192.64 -44.57 -194.66 -46.57C-196.68 -48.57 -199.1 -49.57 -201.9 -49.57ZM-230.58 -38.88L-202.45 -38.88L-202.45 -27.09L-230.58 -27.09Z M-149.57 -39.99L-180.11 -39.99L-180.11 -29.44L-150.12 -29.44L-150.12 -25.3L-180.11 -25.3L-180.11 -10C-180.11 -7.28 -179.14 -4.94 -177.18 -2.96C-175.23 -0.99 -172.87 0 -170.12 0L-139.58 0L-139.58 -29.99C-139.58 -32.7 -140.55 -35.05 -142.51 -37.02C-144.46 -39 -146.81 -39.99 -149.57 -39.99ZM-150.12 -10.55L-169.57 -10.55L-169.57 -16.06L-150.12 -16.06Z M-94.69 -39.99L-125.23 -39.99L-125.23 15.86L-114.69 15.86L-114.69 0L-94.69 0C-91.94 0 -89.58 -0.99 -87.63 -2.96C-85.67 -4.94 -84.7 -7.28 -84.7 -10L-84.7 -29.99C-84.7 -32.7 -85.67 -35.05 -87.63 -37.02C-89.58 -39 -91.94 -39.99 -94.69 -39.99ZM-114.69 -29.44L-95.24 -29.44L-95.24 -10.55L-114.69 -10.55Z M-42.23 -39.99L-62.77 -39.99C-65.48 -39.99 -67.83 -39 -69.8 -37.02C-71.78 -35.05 -72.77 -32.7 -72.77 -29.99L-72.77 -10C-72.77 -7.28 -71.78 -4.94 -69.8 -2.96C-67.83 -0.99 -65.48 0 -62.77 0L-32.23 0L-32.23 -10.55L-62.22 -10.55L-62.22 -14.68L-32.23 -14.68L-32.23 -29.99C-32.23 -32.7 -33.21 -35.05 -35.16 -37.02C-37.11 -39 -39.47 -39.99 -42.23 -39.99ZM-62.22 -23.92L-62.22 -29.44L-42.78 -29.44L-42.78 -23.92Z M-8.51 -39.99C-11.27 -39.99 -13.64 -39 -15.62 -37.02C-17.59 -35.05 -18.58 -32.7 -18.58 -29.99L-18.58 0L-8.03 0L-8.03 -29.44L13.55 -29.44L13.55 -39.99Z M88.01 -49.64L78.91 -24.68L77.18 -20.06L66.29 -49.64L56.43 -49.64L47.33 -24.68L45.61 -20.06L34.78 -49.64L23.41 -49.64L41.47 0L49.67 0L56.91 -19.79L61.32 -31.92L73.05 0L81.25 0L99.31 -49.64Z M118.2 -39.99C115.49 -39.99 113.15 -39 111.17 -37.02C109.19 -35.05 108.21 -32.7 108.21 -29.99L108.21 -10C108.21 -7.28 109.19 -4.94 111.17 -2.96C113.15 -0.99 115.49 0 118.2 0L138.75 0C141.51 0 143.86 -0.99 145.81 -2.96C147.77 -4.94 148.74 -7.28 148.74 -10L148.74 -29.99C148.74 -32.7 147.77 -35.05 145.81 -37.02C143.86 -39 141.51 -39.99 138.75 -39.99ZM118.75 -29.44L138.2 -29.44L138.2 -10.55L118.75 -10.55Z M171.08 -39.99C168.32 -39.99 165.96 -39 163.98 -37.02C162 -35.05 161.02 -32.7 161.02 -29.99L161.02 0L171.56 0L171.56 -29.44L193.14 -29.44L193.14 -39.99Z M233.82 -39.99L220.24 -25.3L214.86 -25.3L214.86 -53.09L204.31 -53.09L204.31 0L214.86 0L214.86 -14.68L220.24 -14.68L233.82 0L244.44 0L244.44 -3.59L229.55 -19.99L244.44 -36.4L244.44 -39.99Z"/></g></g></svg>