<svg xmlns="http://www.w3.org/2000/svg" version="1.1" xlink="http://www.w3.org/1999/xlink" xmlns:svgjs="http://svgjs.com/svgjs" width="143.73419525065967" height="147"><defs id="SvgjsDefs1121"/><g id="SvgjsG1122" transform="scale(0.515970515970516)" opacity="1"><g id="SvgjsG1123" class="D6BgN06pf" transform="translate(-20.093243944542323, -24.854579658673952) scale(3.311891408547964)" light-content="false" fill="#dbc4cc"><path d="M88.164 44.046c.139.537-.098 1.051-.267.865.536 1.053.125 1.124.856 1.195.396.694-.059 1.501-.396.707l.551 2.047.051-1.253c.624.314-.082 2.001.643 2.393l-.17-2.289.207.104c-.244-.511-.204-1.527-.143-1.891.107.045.263-.007.304.4-.291-2.776-1.143-.632-1.666-2.836.035.136.053.311.03.558zm1.058-2.579l-.981-.772-.215-1.619c-.258.051-.755-1.017-.777-.186.078.137.23.41.268.655-.296-.011-.496-.501-.676-.911-.203-.404-.408-.718-.599-.413.54 1.127.405 1.361 1.062 1.98.217 1.129.352 1.954.2 2.523.136.317.485.301.62.719l-.066-.288.833-.197c-.241-.331-.186-.695-.302-1.089 0 0 .099.1.216.258l.438.583.638.868c.347-.372.33-1.022.251-1.677-.111-.649-.329-1.292-.258-1.707-.465 1.089-.532-.64-.652 1.273zm-1.098 1.976zM22.437 69.438c.22.267.443.23.555.209l-.362-.479-.37-.491-.367-.602-1.004-1.637c-.134.209.211 1.311-.295.737-.038.413.678 1.185 1.006 1.144l-.434-.058c.813.54.476 1.517-.082 1.178l.047.062 1.446.524 1.407.476c-.456-.773-.873-.198-1.547-1.063zM84.088 55.78c-.001.522.07.601.16.558a2.156 2.156 0 0 0-.16-.558zM24.627 70.708c-.016.018.896.223.896.223-.303-.131-.643-.189-.896-.223zm-9.875-.265c-.025.012-.052.016-.072.056l.45.223-.006-.009a6.918 6.918 0 0 0-.372-.27zm24.275 8.279l.231.045a1.069 1.069 0 0 0-.231-.045zM7.22 59.302l1.042 2.037c-.306-.224.034.795-.354.417.08.155.374.899.437.654l-.13-.434c.977.925 1.002.195 2.15 1.797-.003-.615-.134-1.007-.331-1.311-.171-.312-.408-.535-.64-.792-.1-.19-.165-.356-.236-.522l-1.4-1.528-.538-.318zm67.374 20.423l.019.056c.002-.028-.007-.044-.019-.056zm.095.284l-.076-.228c-.008.156-.271.481.076.228z"/><path d="M24.109 70.77c.115-.063.297-.084.518-.062l-.645-.206c.042.07.085.172.127.268zm-2.001-.128l-.979-1.14-.592-.272c.39.436.914.897 1.571 1.412zm15.17 6.897c2.488 1.084-.942.462.108 1.189.733.264 1.161-.072 1.641-.005-1.085-.215-.893-.485-.696-.773.2-.297.378-.556-.606-.936.286-.264.689-.249 1.114-.171.43.067.862.257 1.159.468.522.916-.827.228-1.258.785.853.19.754.023 1.223-.21 1.2.685 2.839-.03 3.372 1.112.963.115.978-.277 1.575-.536.116-.351-.209-.496-.589-.625-.372-.166-.796-.347-.892-.666.053.077.157.232.095.322l-.728-.347c.665.434-.282.679-.703.633-.295-.055-.883-.17-.739-.353-.004.016.479-.031.479-.031-.489-.341-1.37.074-1.823-.49.027-.164.27-.158.337-.241-.803.214-1.45.038-2.502-.132l.826-.399c-1.033.361-2.699-.596-3.52-1.687.057.178.232.386.029.425-.741-.25-.96-.955-.455-1.097-.232.028-.496-.052-.741-.241-.242-.194-.491-.455-.748-.714-.503-.535-1.095-.982-1.689-1.05 0 0-1.428-.069-2.99-.232-1.462-.24-3.033-.602-3.033-.602.2.082.395.185.561.32-.161.766.081.917-.933.692.807.389.971-.191 1.804.692-.537-.138-1.186.293-.388 1.202 1.359.76 2.602 1.216 3.973 1.353l1.956.263c.639.097 1.328.122 1.979.264-.088.233.315.581.837.951.533.348 1.225.634 1.635.908-.556.304-1.31.143-2.039-.131.403.273 1.165.618 1.709.917l.66-.827z"/><path d="M30.866 75.612a.955.955 0 0 0 .124.207c-.008-.057-.043-.123-.124-.207zm3.849 1.697c-.017.011-.022.025-.034.041l.227.096-.193-.137zm-11.014-5.285c-.234-.043-.353-.121-.568-.184.105.061.216.154.345.225.139.054.232.057.223-.041zm.28-1.018l.213-.05c-.028-.075-.056-.122-.084-.185-.097.05-.155.125-.129.235zm22.811 13.62l.306-.091c-.18-.001-.26.038-.306.091z"/><path d="M39.794 79.449c-.925-.289-.35.647-1.665.173l.37.182c-1.091.018-2.599-.995-3.704-1.456.247-.178-.458-.673-.114-.997-.735-.328-1.466-.652-2.081-.479-.365-.36-1.199-.511-1.609-1.053.061.387-1.298.181.181.874-.125-.047-.096.052-.221.007.598.962 1.352.593 2.099 1.051.316.507-.975-.083-.602.27.548.18 1.249.718 1.888 1.072.667.302 1.238.455 1.426-.017.751.282.755.533.897.808.774-.167 1.843.267 2.764.711.914.463 1.753.669 1.929.009l-.844-.141a3.343 3.343 0 0 0-1.03-.114l.316-.9zm-14.838-6.152c.039.053.101.114.129.162a11.6 11.6 0 0 1-.129-.162zm-3.247-12.709l.975.04c.421.995.832 1.613 1.078 2.271l.409.987c.164.335.383.675.633 1.077-.031.187-.218.031-.314-.05.413.533.769 1.298 1.264 1.917.493.62.984 1.185 1.432 1.445.208.37.8 1.336.296 1.213.202.102.421.226.561.423-.198.265-.432-.336-.642-.17.114.156.117.254.223.218-.432-.057-.584.99-1.628-.177.196-.938.787.745 1.192-.069-.336-.374-.545-.123-.653-.089-.409-.506-.207-.645-.046-.73-.35-.038-.545-.906-1.067-.944-.809-.965.552-.314.054-.955l-.491.054c-.25.028-.487.044-.487.044l-.573-1.263c-.643-.769-.929-.532-1.247-.308-.298.21-.72.461-1.466-.507.524.074.777-1.13.473-2.16.335.562 1.265 1.403 1.482 2.213-.022-1.304.897 1.31 1.236.412-.589-.292-1.169-1.059-1.271-1.825l.172.18c-.244-.73-1.313-.885-1.472-2.006-.206-.497.05-.49.265-.477-.268-.375-.563-.698-.388-.764zm.557 1.022c-.021.008.226.674.226.674.057-.21-.077-.437-.226-.674zm61.958-32.323l.09.28c.001-.073-.04-.175-.09-.28zm-69.561 1.214l.309-.458a3.153 3.153 0 0 0-.309.458zm5.619-11.763l.502-.726a2.337 2.337 0 0 0-.502.726zm60.185 5.229l-.013-.024c-.041-.024-.078-.037-.119-.064l.132.088zM44.055 9.29c.134.052.282.095.478.116-.034-.08-.21-.114-.478-.116zm-23.864 9.581l.049-.024.042-.11-.091.134zM10.074 34.553c-.018.128-.039.242-.051.382.046-.172.054-.284.051-.382zm2.511.137a1.925 1.925 0 0 0-.041.354l.041-.354zM8.092 53.525l.164.759c-.035-.377-.095-.599-.164-.759zm3.291-17.172c.022.054.042.108.069.148.01-.106-.02-.169-.069-.148zm72.735-1.889l-.021-.037-.097.026.118.011zm1.814 1.075l.282.563a2.171 2.171 0 0 0-.282-.563zM54.839 10.502c.178.15.605.363.378.471.388-.121.424-.55-.378-.471zm23.145 23.594c.149.024.287.081.424.141-.224-.129-.413-.242-.424-.141zm.424.14c.111.063.228.133.337.185a2.308 2.308 0 0 0-.337-.185zM49.939 17.219a.266.266 0 0 0-.185-.111c.025.114.092.135.185.111z"/><path d="M86.261 36.625c.225.023 1.586 2.481.889.263.606-.119.834 1.307 1.094 1.881.026-.485.445.107.626-.09-.16-.284-.401-.601-.551-1.099.19-.316.666.369.696 1.012.123-.843.728.814.694-.322-.403-1.112-.926-1.999-1.405-2.791-.494-.788-1.043-1.449-1.835-1.973l.533.856c.15.302.295.609.426.915.262.61.465 1.215.528 1.759l-.667-.241c.021-.641-.12-1.112-.308-1.556-.18-.449-.425-.865-.671-1.401l.137.391c.092.23.175.554.252.878l.32 1.289c-.005 1.307-.386.564-.806-.294.075.223.118.434.048.523zm-4.999.223l-.001.042c.029.024.054.057.083.068l-.082-.11zM19.058 52.506l.213.16c-.1-.139-.166-.181-.213-.16zm64.008-17.991l.001.002c-.013-.012-.014-.016-.001-.002zm-63.994 13.57c.014.007.029.014.045.026-.016-.017-.032-.018-.045-.026zM7.453 45.748c-.025.009-.049.01-.076.034.023.133.052.072.076-.034zm11.568 2.33c.016.001.033-.001.051.006-.018-.004-.035-.012-.051-.006zm6.89-20.696s-.117-.011-.26.013c.008.067.081.075.26-.013zm-3.52 3.023c-.034.012-.059.015-.1.033l.1-.033zM53.78 7.919a4.155 4.155 0 0 0-.681-.008c.207.024.431.035.681.008zM19.117 48.111zM29.53 20.62l-.086.139.087-.031-.001-.108z"/><path d="M31.888 19.594c-.042.098-.043.173-.055.246.326-.329.872-.66 1.326-.975.477-.273.857-.548.817-.849-.136.074-.603.208-1.03.274-.418.08-.782.122-.749-.102-.478.459-1.505.609-1.756.873 1.077-.284.353.357-.141.886-.645.194-.152-.452-.69-.251l-1.174.953 1.095-.723v.695l.075-.123c1.68-1.419.594.565 2.282-.904z"/><path d="M31.833 19.84c-.097.1-.175.197-.222.295.168-.112.205-.201.222-.295zm8.249-2.698c.099-.045.204-.098.334-.176l-.334.176zM20.058 68.261c.118-.122-.23-1.344-.592-1.114l.464 1.022.128.092zm43.778-52.363a3.248 3.248 0 0 0-.407-.161.797.797 0 0 0-.104.033c.061.089.359.115.511.128zm-31.394 1.905c-.173.181-.23.295-.246.384a.778.778 0 0 0 .246-.384zm31.087-.935c.123.177.301.433.268.605.326.162.647.067 1.017.157-.413-.111-.81-.412-1.285-.762zm1.316.768l-.031-.006c.01.004.02.004.031.006z"/><path d="M20.29 68.993l.248.236-.185-.086c.12.266.215.547.353.802.085.068.174.144.27.246a.234.234 0 0 0-.164-.04l.126.251c.785.298 2.033 1.464 2.542 1.662.577.35 1.176.848 1.477 1.232-.296-.339-.765-.722-.828-.427.215.426.265.849.457 1.264.19.415.514.836 1.346 1.133l-.353-.314c-.179-.155-.346-.32-.346-.32s.13.058.343.124l.763.251 1.091.349c.278.786-1.083-.344-1.542-.297.77.382 1.188 1.027 1.568 1.578.362.569.772.929 1.317.847-.214.449-.562 1.206.365 1.839-.314-.93.737.105.56-.771.452.005.878.864 1.147.574l-.198.116c1.189 1.615 2.336.926 3.189.94 2.042.755 2.783 1.528 4.504 2.012-.05.33.113 1.348.821 1.571.452-.276 2.103-.111 2.392-.608-1.165-.544-1.133.201-1.923.135-.42-.788.119-.583-.576-1.216.561.547 3.075.536 3.674 1.295l-.278.009c.548.335.827.81 1.248 1.159.417.353.99.581 2.075.318l.51-.097c.253-.045.509-.134.509-.134-.053.054-.064.12-.094.169 1.607.139 1.147.761 2.962.345-.139.032-.053.099-.195.13 1.033.375 2.063-.398 2.813-.544.502.448-.079.47-.358.826 1.863.177 3.708-1.058 4.67-1.754l.184.016c.112.014.258.02.403.013l.584-.008c-.605.39-1.353.988-1.092 1.237.626-.185.453-.392 1.356-.528-.083.331-.392.711-.746 1.181 1.995.023.175-1.148 1.699-.579.591-.146.812-.659.773-1.026 0 0 1.184.197 1.179.165-.025-.485 1.209-.967 1.998-1.33.023-.222-.829-.225-1.071.055-.061-.367.724-.838 1.27-1.028.604.867 3.378-1.764 3.278-.423.582-.331 1.153-.817 1.771-1.247.602-.457 1.262-.855 1.819-1.351.56-.491 1.092-.965 1.555-1.4l.637-.62c.175-.215.327-.417.454-.601.595-.178 1.478-.961 1.265-.149a7.01 7.01 0 0 0 .968-1.081c.253-.366.425-.762.621-1.128a7.366 7.366 0 0 1 1.552-2.156c.098-.032-.038.162-.17.376-.147.202-.283.43-.134.508.339-.616.734-1.093 1.28-1.587.264-.254.547-.525.832-.852.142-.163.287-.339.425-.535.121-.207.239-.433.351-.68-.173.318-.059.52-.002.62-.153-.058.179-.942.332-1.495.234-.223-.115.416.081.331 1.345-1.624 1.901-3.442 2.401-5.19.188-.904.36-1.802.574-2.705.184-.914.303-1.866.581-2.838-.3 1.109.214 1.708.465 1.794l.3-1.121c-.215-.511.054-1.337-.113-2.1.133-.064.314-.39.41-.008.483-1.076.364-2.016.127-2.986-.287-.983-.612-1.984-.372-3.344l.565 1.683.565 1.745.495-.816.256.791c.145.4.211.798.211.798.493-.888-.354-1.765.16-1.838.128.205.06.675.322.712.237-.886-.123-.982-.185-1.655.987 1.814.515 5.399.253 7.308.001.312-.17-.307-.255-.379-.162.766-.578 1.139-.656 2.132.251.71.415-.366.579-.827.337.158.254.392.17.938-.418.002-1.111 2.8-1.912 3.234-.409 1.381-.162 1.371.167 1.376.302-.007.568-.04-.153 1.217l-.874.527c-.082.419-.183.868-.302 1.331-.149.447-.332.901-.528 1.358-.415.898-.828 1.852-1.464 2.566l.224-.331c-.039-.347-.422-.078-.637.005-1.046.975-1.238 2.454-2.247 2.735-.313.788-.85 1.765-1.451 2.751-.639.947-1.397 1.846-1.996 2.608-.861-.226 1.428-2.107 1.633-2.985l-.178.195-.427.391-.622.569c.764-.709.885-1.177.984-1.936-1.082.961-1.045 1.686-1.945 2.79-.051-.224-.27-.192-.748.233l.177.498c-.033-.021-.11-.002-.291.092l-1.824 1.738c.55-.148.824.178 1.357-.214-.36-.086.051-.465.579-.852-.263.594.685-.171.836.03-1.063.801-2.338 1.824-2.967 2.459l-.491-.223c-1.134.561-2.145 1.467-2.944 1.795l.114-.349c-1.381.587-2.615 1.471-3.993 1.628-1.055.919-2.502 1.969-3.438 2.786-.209.355-1.253.439-2.384.569-1.125.18-2.379.176-3.085.715-.111-.046.991-.594 1.463-.891-1.018.068-1.723.906-2.128.348 2.297-.142-.192-.464.796-.791a12.78 12.78 0 0 0-2.633.695c1.72-.171-.529.956 1.193.452-.646.389-1.452.57-2.299.715-.848.13-1.741.189-2.567.106.017-.263-.186-.395-.793-.533l-.504.359c-.762-.107 1.493-.381-.04-.592-.799.271-2 .173-3.067.011-1.069-.182-2.029-.283-2.483.259-1.115-.655 2.361-.128.651-.982 1.097-.286 2.457.468 2.862-.164-1.028.115-.318-.535-.958-.617l-1.158.205.243.06c-1.97.346-4.903-.586-7.226-1.288-1.069-.065-2.032-.022-3.032-.086a9.171 9.171 0 0 1-3.113-.98c.423.007-.018-.302-.338-.596-.317-.305-.506-.597.345-.511-.861-.831-2.003-1.128-2.171-.909.833.612.265.26.944.823-.662-.024-1.83-.751-2.189-1.218.208.154.158.052.261-.003-.931-.824-.678-.044-1.487-.458.03-.534-1.52-1.283-2.029-1.958 0 0-.347-.041-.663-.127l-.651-.157c.762.123-.751-.886-.628-1.298-.817-.362-1.762-.439-2.548-1.515.523.249-.576-1.102-.27-1.4a4.424 4.424 0 0 0-1.032-1.143c-.352-.332-.734-.61-1.113-.893-.744-.571-1.522-1.144-1.852-2.203.119.002.573.208.341-.376-.353-.347-.753-1.1-1.061-1.52l.019.008-.024-.017c-.152-.205-.28-.316-.373-.27-.409-.279-.775-.464-1.178-.76-.378-.311-.799-.729-1.351-1.467-.373.325.439 1.653.916 2.143l.714.252c-.356.837.95 1.323.952 1.8-.645-.228-1.338-1.051-2.042-1.992-.65-.972-1.252-2.089-1.912-2.842-.059.667.17 1.6.553 2.614.367 1.022 1.054 2.029 1.656 2.98l-.265-.999.618.996-.145-1.235c.512.972 1.055 1.754 1.643 2.549-.712-.922-.314-1.714-.084-1.09.327 1.325 1.037.899 1.58 1.693-.288-.459-.697-1.024-.202-.826.686 1.86 1.225 2.092 1.948 3.773.461-.7 1.532 1.564 2.188 1.289l-.492-.637.747.452c.375.221.78.405.78.405.696 1.535-1.502-.458-.05 1.504 1.603 1.564 2.09.896 3.51 1.864-.373.021-.9-.095-1.476-.328-.563-.249-1.138-.66-1.662-1.136l.484.751c-.514-.101-1.971-1.456-2.637-2.182.764.388.663.215.339-.143-.308-.375-.825-.959-.912-1.376-.437.213.324.941-.785.277.808.839.892.989 1.851 2.127-1.088-1.174-1.809-1.482-2.57-1.716-.371-.125-.732-.247-1.102-.49-.379-.235-.75-.606-1.096-1.251.963.923.246-.788.338-1.045-.413-.454-1.246-1.388-1.646-1.737l-.275.761c-.638-.582-.673-1.245-.791-1.872-.114-.634-.276-1.251-1.072-1.901-.481-.015.759 1.522.513 1.263-1.787-2.032-1.154-3.483-1.691-5.726-.228-.043-.649.175-1.267-.452.469.08.433-.547 1.049.173-.138-.77-.708-1.515-1.096-2.1.333 1.596-.772-.416-1.105-.631-.221-.818.47.116.756.557-.131-.673.17-1.597-.535-1.772.4-.141 1.691 1.4 2.211 2.481l-.217-.788c.397.45.374.566.593 1.347.031-.863.4-.917.744-.862-.023.118-.113-.016-.137.098.115.64.407 1.047.562.82.741.297.003-.947.139-1.453l-.435-.852-1.429-1.246c-.681-.651-1.322-1.357-1.322-1.357-.552-1.354-.343-2.084-.248-3.192l-.529-.201c-.147-1.257-.165-2.44.569-1.739-.156.067-.092.224-.075.493a.375.375 0 0 1 .177.149c.032.021.063.03.094.047l-.609-2.163c1.037 2.129.901.001 1.822.274l-.094-.332a5.413 5.413 0 0 1-.175-.736l-.2-1.082c-.205 1.351-.424.057-.566-.417.494-.155-.121-1.781-.029-2.566l.098.058c.202-.717.216-1.966.131-2.872-.158.034-.931-1.195-1.288-1.823-.391 1.562-.447.608-.783.701.032-.165.095-.461.034-.503-.105-.242-.23.295-.398.325.12 1.751.106 3.532.759 4.226.332-.514-.256-.893-.021-1.472.209.43.279.908.288 1.457l.067 1.866-.387.479.297 1.403c-.248-.574-.659-.182-.817-1.687-.377.212.163 1.493.088 2.423l.295.207.305.203c-.329-.151-.097 1.82-.714.475l-.121-.349a6.015 6.015 0 0 1-.232-.775l-.286-1.141-.336.676-.207-1.977.304.456c-.504-3.17.96-.939.443-4.104-.585-1.019-.698-2.133-.197-4.053-.064 1.425.439.206.739.779.483-1.368.02-1.921-.116-2.711.4-.298.718-.494.472.75.7.286.114-1.677.927-1.627.497-2.009.12-2.977-.093-4.033-.141-1.023-.156-2.178 1.204-4.338l.198.288c.503-1.507 1.05-2.644 1.601-3.735.626-1.052 1.277-2.05 1.947-3.371l.29-.241.685-.49.995-.693c-.215.485-.546 1.9.134 1.605-1.297.425-1.622 1.614-2.612 2.402.113.205.489-.134.704-.248-.368.605-.875.731-1.217 1.621.142.022.853-.75.535-.048 0 0-.258.22-.501.453l-.494.466c-.543 1.651.665 1.256-.386 2.95-.238-.497-.475-1.441-.224-2.197-.488.8.307-1.232-.292-.579.015 1.499-.821 1.831-1.038 3.671-.01-.228-.107-.325.01-.752l-1.147 2.351c.285-.244.198.296.12.882-.066.592-.059 1.249.228 1.207.213-.646.375-1.075.513-1.404.126-.332.202-.572.284-.822.166-.499.358-1.046 1.042-2.432-.193.87-.056 2.122.257 2.771-.03.017-.061.052-.102.136.359.607.657.217 1.553.542-.157-1.462.573-2.136.934-3.682-.327-.483-1.042.541-1.183 1.341l.026-.226c.013-.137.038-.317.079-.491l.145-.706.1.348.851-1.569.587-1.072c.152-.296.29-.473.29-.473-.317.594-.116.958-.074 1.368.222-.394.514-.746.905-1.067-.487-.157-.762-.381-.523-.759.641-.948 1.224-1.63 1.754-2.118.538-.483 1.087-.731 1.552-.899l.126-.228c-.638.004.211-1.826.255-2.725.383.362 1.032-.673 1.674-.977-.213-.666-1.14-.89-2.076-.593-.65 1.546-.169 1.031-.019 2.108l-1.067 2.3-.062-.725c-.955.858-1.018 2.245-1.499 1.825.003-.391.178-.805.404-1.183.228-.378.456-.754.485-1.144l-.689.542c.39-1.559.933-.262 1.664-1.953-.814.2.06-.158.262-.992-.682.253-1.8 2.642-2.207 1.666.127-.503.827-.994 1.491-1.536.66-.549 1.386-1.063 1.462-1.843l.035.115c.668-.649 1.019-1.179 1.237-1.646.223-.462.343-.827.487-1.189.793-.328 1.334-1.378 1.968-1.991l.154.217s.2-.239.434-.438l.456-.415c-.181.709-1.13.888-1.866 1.66l.423.279c-1.278.389-1.306 1.561-1.632 2.514.646-1.257 2.851-2.462 2.462-3.415-.01-.016.967-.14.967-.14l.207-.381c.732-.073.559.746-.277 1.572-.232.042-.348.064-.368-.056-.269.537-.386 1.155-1.434 1.959l.344-.665c-1.283 1.05-2.134 2.324-2.149 3.058l1.269-1.205 1.314-1.119c.875-.732 1.67-1.525 2.567-2.159-.167-1.262.105-2.242-.212-3.29.289-.27.602-.57.949-.849.358-.261.736-.522 1.118-.762.765-.482 1.55-.886 2.226-1.07l-.009.241c.613-.257 1.155-.531 1.555-.871.748-.062-.184.694.318.614l1.85-1.271c.06.486-1.605 1.286-2.379 1.702.131-.107.397-.323.272-.332-1.054.23-2.245 1.962-2.983 1.601-.37.363.616-.959-.865-.096-1.131.376-1.085 1.113-1.06 1.351.116.192 1.681-.667 1.333-.07.72-.48.843-.954 1.927-1.312-.73.477-1.433 1.535-2.045 1.429-1.141 1.352-.17 2.253.465 1.843-.402-.244 2.295-1.974.165-1.274.282-.466.814-.938 1.396-1.409.58-.475 1.208-.952 1.737-1.355l-.007.115 1.409-.82c-.148.225-.538.543-.435.786l1.731-1.613c-.481.492-.267.482.136.345.408-.128 1.036-.324 1.34-.33.075-.459.811-1.044-.074-.966-1.012.061-.448.398-1.251.73l.927-1.024.123.021.529-.75c1.626-.552-.294 1.395 1.587.172l-.49-.579c2.485-.72 5.815-.654 7.519-1.17-.43.474-.527 1.147.175 1.43-.746.018-2.244.178-3.251.561-.113-.036.162-.323.62-.618a3.724 3.724 0 0 1 1.711-.528c-.376-.526-1.096-.251-1.736.048-.635.338-1.203.66-1.412.104-1.524.177-2.001.599-2.413.965-.408.397-.746.754-2.06.863.15.507-.588.49-.543.969.505.272 1.275-.019 2.134-.413.845-.433 1.851-.767 2.666-.845-.144.077-.431.232-.465.344 1.151-.137 1.576-.366 2.318-.755l-.111-.036c1.285-.768.936.238 1.779.332.301-.126 1.445-.146 1.213-.501l.766.138c.381.067.758.152.758.152l-.129-.583c.839-.081 1.047.297 1.784-.1l.006-.527-1.064-.036-.734-.022c-.201-.009-.333.009-.333.009 1.057-.269.248-.53 1.436-.714-1.29.646.965.24 1.115.724l.859-.339-.219.151c.687.253.808-.266 1.609-.169-.936-.316-1.583-.612-2.775-.191.858-.33 2.624-.785 3.062-.728.945-.178 1.588.256 2.452.362-1.677.126.467 1.618-2.778 1.083.061-.098.326-.063.427.004-.428-.74-1.969.062-2.647.355.195.378-.521.51.712.663-.418-.201 1.024-.983 2.208-.554l-.224.819 1.676.181-.159.031c.59.571 1.8-.049 2.905.48.431-.085 1.431.052 2.171.08.742.013 1.222-.001.629-.587.918.746 1.95.341 3.115.525l-1.321-.691c1.83-.134 1.24.086 2.87-.429.068.265.304.548-.037.679l3.631 1.425c1.184.539 2.292.952 3.075.956.755.362 1.021.878 1.406 1.329.38.465.844.919 1.931 1.361.239.078.266-.132.38-.238.114-.108.323-.114.872.452.043.109-1.535-.373-.131.587 1.343.236 2.107 1.92 3.586 2.6.467.732 1.588 1.641 1.014 1.8-.883-.963-2.323-2.132-2.689-2.119.338-.126-.555-.788.363-.389-1.351-1.497-1.218-.528-2.485-1.797-.212.094.402.995.811 1.076-.402.534-2.969-1.757-2.184-.181 1.406 1.138 2.77.306 3.566 1.897-.738-.113-1.355-.964-2.428-.879l.866.995s1.07.17 1.056.192l-.107.04c1.27 2.028 2.072.854 3.817 2.112-.496-1.243 1.056-.63.613-1.519 1.067 1.004 1.716 1.877 1.207 2.336-2.22-1.59-.637.351-2.793-.929.095.455-1.082.302-.184 1.376 1.422.829.092-.752 1.33.269.018.111.038.226-.075.253.761.305.475.715 1.372 1.118l-.247-.068c.383 1.093 1.107.651 1.326 1.678.181-.612.716.256 1.332.55-.432-.879-.128-1.784-1.4-3.287-.467.086-.545.335-1.223-.123l.876.897c-.232-.159-.449-.244-.675-.374l-.647-1.026c1.241.938 1.098.136 1.861.353.789 1.202.818.859 1.269 1.65-.521.298.864 2.764 1.287 4.367-.109-.224-.288-.489-.365-.644-.917-.782-.006.941-.127 1.058l.688.563c-.117-.115-.349-.23-.238.115.687.903 1.152.578 1.754 1.559-.257.219-1.113-.41-.961.298-.147.352-.504 1.354.385 2.543.17.039.375.364.572.76-.038-.051-.076-.118-.107-.135l.003 1.04c-.792-.565-.322-1.667-1.219-2.173l-.512.158c-.275-.567-.852-1.235-1.263-1.456.33.892.54 1.007 1.101 1.919-.243.268-.79-.295-.868-.374l.342.013c-.074-.659-.395-1.033-.765-1.41-.354-.388-.809-.752-1.177-1.431-.102-.21.005-.109.119-.115-1.089-.796-1.105-2.259-2.426-2.813l.463.152c-.701-.517-1.997-1.554-3.473-2.325l-.162.129c.023.21-.362-.224-.51-.512l.003-.001-1.013-.584-.939-.455c.055.221.161.462.347.67.359-.025 1.13 1.166 1.411.644.187.707 1.262 1.156 1.41 1.66-.144-.445.056-.418.33-.276.264.148.604.408.771.377-.096.452.811 1.04.365 1.224.007.212-.011-.532-.459-.664-.891-.465.695 1.569-.317.907 1.19.913 1.978 2.655 3.148 3.711l-.271-.812c.337.579 1.078 1.981.934 2.183-.272-.417-.491-.956-.883-1.461-.439.204.667 1.357.416 1.563l1.592 1.292-.328-.747c.569.312.799 2.08 1.152 3.282-.466-.223-.631-.658-.772-1.189-.142-.528-.239-1.164-.683-1.688-.661-.739-.383.808-.927.08-.057.277.221.776.496.968l-.003.376c-.865-.485-1.546-2.076-2.513-2.845.105.056.207.099.288.092-.195-.89-.706-1.645-1.286-2.29.059.499.27.575.47.758-.122.111-.6-.542-.907-.702.245.776-.25.335-.087.814-.407-.34-.534-.74-.853-1.268.011-.397.441.018.67-.216-.546-.4-.096-1.095-.969-1.637.646 1.093-.765.159-1.18-.037l.105.18c-.522-.083-.736-.319-.662-.736.477.256.654.744.878.379a2.575 2.575 0 0 0-.792-.707l.447.075-1.191-1.186c-.429.035-1.069.046-1.576.235-.038-.507-.646-.665-.989-.828l.223.011c-.341-.679-1.648-1.615-1.975-1.409-.059-.127.165-.153.492-.146.319.017.719.097 1.051.116.65.057 1.015-.147-.511-1.25-1.146-.849-1.3.236-2.125.035 0 0 .093-.054.068-.151-.445-.413-.689-.172-1.185-.306.223.305.611.642.83.621-.189.11-.428-.081-.689-.304-.267-.213-.585-.416-.86-.403.84-.219-.854-.794-.294-.829-.411-.468-.935-.814-1.488-.932a3.788 3.788 0 0 0-1.459-.036c-.391-1.056-1.28-.547-2.367-1.287.178.09.561.104.793.276.89-.205-1.182-.703.07-.731-.262-.013-.113.239.154.252.445.08.9.091.891-.171 0 0-.194-.239-.416-.42l-.437-.39.409.02-1.384-1.15c-.076.078.034.25.089.337-.444-.223-.907-.46-1.404-.604a32.29 32.29 0 0 0-1.515-.358l-1.474-.316a16.612 16.612 0 0 1-1.37-.203c-.278.691-1.314.599-2.485.613-1.171.049-2.472-.072-3.137.407.352-.426.562-1.131.33-1.418.307-.055.963-.575 1.68-.424.107.23.963.527.385.755 1.96-.066-.22-.624.389-1.115-1.117.031-2.003.164-2.765.466-.763.304-1.405.624-2.068.821l-.047-.163s-.996.342-.989.377c.416-.011.634.228.609.396-.024.184-.286.291-.816.252l.121-.059c-.634-.236-1.818.342-2.746.425-.007-.018-.515.599-.515.599-.9.182-1.151-.636-1.585-1.051-1.503.269-2.081 1.322-2.907 2.045-.281-.079-.974-.006-1.437.103-.469.09-.767.084-.322-.383-.546.447-.539 1.088-.703 1.612-.082.262-.207.494-.467.659-.13.082-.295.148-.507.192a3.71 3.71 0 0 1-.757.136l.323-.62a24.22 24.22 0 0 0-1.417 1.04c-.48.378-.976.744-1.381 1.173-.833.823-1.612 1.444-2.091 1.641-.208-1.526-2.902.822-4.079.278.282.118-.227.825-.197 1.021-.234.037-.554.176-.583.595.783-.484.568 1.327 1.307-.246.081 1.236-.176 2.368-1.21 3.781l-.407-.337.967-1.033c-.403-.144.103-.673.177-1.009-.516.434-.797.608-.969.643-.181.029-.268-.094-.346-.209-.157-.231-.278-.427-1.095.724.112.42.104.197-.223.857.19-.282-.066-.546-.406-.105l.027.662c-.609.179-.55-.265-.367-.663.167-.405.376-.814-.133-.65.324-1.132 1.341-2.851.623-2.978-1.367 1.343-.029 2.117-1.427 3.467l-.344.017c-.191.692.145 1.032.195 1.491-.155-.057-.347.023-.612.367.008.661-.089 1.137-.094 1.644-.008.504-.002.997.115 1.607.163-.657.335-1.106.512-1.443.196-.327.416-.533.622-.748.431-.42.817-.858 1.364-2.134-.09.462-.908 2.209-.347 2.656l-.444-.287c-.257.866-.344 1.779-.976 2.675l.021-.727c-.146.734-.596 1.182-.961 1.645-.317.479-.569.962-.353 1.648.183-.362.279-.674.289-.938-.028.788-.416 1.628-.758 2.369l.434 1.83c-.249-.08-.528.926-.808.345a1.991 1.991 0 0 0-.306.743c-.015.234.019.45.072.651.105.402.285.746.298 1.091-.738 1.118-.088-1.07-.789-1.331a10.884 10.884 0 0 0-.427 2.495c.01.796.178 1.507.382 1.993.124-.34.223-.5.35-.475-.168.04-.159.721-.185 1.098l.328.266c-.267.618-.464.539-.692-.007-.137.615.62 1.317.142 1.954a3.677 3.677 0 0 1-.275-1.633c.036-.53.086-.995-.028-1.273.108 1.096-.194 1.634-.381 2.271-.206.63-.435 1.369-.112 2.756-.157.054-.549-.392-.468.153.322 1.244.752.241 1.19.58-.383-.91-.183-1.389.229-1.964l.29.228c-.136.048-.138.638-.242.823l.587.088c-.635-.008-.96.996-.616 1.705.336-.815.344-.607 1.021-.905.837.884-.517 1.256.422 2.237-.244-.031-.551-.993-.552-.109.157.702.609.502.88.923-.643-.396-.985-.172-1.745-.624-.305-1.283-.082-.52-.51-1.761l-.271 1.167c-.252-1.111-.714-.726-.925-.787-.237 2.079 1.02 1.328 1.185 2.569.499.497-.22-1.15.381-.327.214 1.138.4.178.934 1.357l-.283-.142c-.196.467.24.747.467 1.147.317.404 1.547-1.061 2.245.737-.169-.037-.268-.038-.324-.017 0 0-1.19-.058-2.408-.188a48.981 48.981 0 0 1-1.684-.205c-.463-.064-.749-.121-.749-.121.351 1.075.777 2.216 1.138 3.436.511 1.155.921 2.42 1.458 3.639-.204.476-.626.168-.984-.257-.339-.433-.655-.952-.792-.791l-.382-1.198c.363-.087 1.225 2.283 1.317.992-.575-.913-.906-1.627-1.226-2.324a7.581 7.581 0 0 0-1.33-2.239c-.297.438-.022 1.079.303 1.786.171.35.321.732.481 1.095.162.363.273.735.271 1.113-.19-.544-.512-.929-.794-1.323.436 1.211.908 2.526 1.494 3.892l.353.182c-.462-.88-.617-1.569-.65-1.65.46 1.244 1.541 1.899 2.095 1.657l-.098-.205.406.291.362.82zm64.085-10.516a.644.644 0 0 0 .166.231c-.077-.068-.147-.032-.166-.231zM12.977 44.959c-.085.441-.196.88-.271 1.324l-.164 1.337c-.098.89-.241 1.777-.269 2.645 1.353-3.139 2.411-5.012 2.155-.116l.107.322c.088-.645.234-1.743.175-2.79-.189-.432-.705-1.376-1.02-2.233-.353-.857-.68-1.638-.753-1.634-.392.259-.086.777-.278 1.331l.318-.186zm2.246-.912c.28-.923-.024-.758-.244-.954l-.061 1.023c.081-.117.177-.164.305-.069zm-.496-.944c-.023.107-.048.198-.088.24l.088-.24zm1.059 18.831l-.049-.09.189.687c.005-.103-.028-.283-.14-.597zm-.03-2.07l-.495-.1.115.656c.179-.13.331-.257.38-.556zm.26-6.344c-.565-.325-.651-1.626-1.285-1.676-.165-.076-.213.206-.249.524l.004 1.128c.095.005.174.076.276.198.045-.398.198-.67.587-.548-.773 1.075.708.814.634 1.876.489.262.26-1.207.033-1.502zm56.525-31.322c-.01.061-.013.235-.005.459l-.805-.214c-.999-.884-1.33-2.382-2.839-2.327-.385-.462-.438-.978-.523-1.427.234.171.447.34.611.5 1.832.409 2.013 1.006 2.112 1.495.099.507.084.982 1.449 1.514zm-13.824-8.032c.151-.002.227-.088.227-.088-3.354.339-5.836.487-7.493.387.305.488 1.737.869 2.389 1.153a8.211 8.211 0 0 0-.65.458l-.34-.426-1.072.422c.269.365 1.102.333 1.626.627.049-.096 1.878-.426 2.444-.667l-1.385-.577c.366.229 2.309.325 3.082.413.034-.119-.245-.387-.584-.505-.339-.115-.723-.131-.854.136-.095-.407 1.45-.176.551-.733 1.249-.225 2.997.668 3.777 1.039l-.05.659c.798.552.842-.531 1.776.21-1.333-.353-.026.752-1.056.426.242.351-.214.656.794.973 1.137-.479.86.836 1.897.509.389.488-.742.217.185.795 1.308.128 1.402-.189 1.752-.717-1.018-.683-1.562.15-2.37-.402 0 0 .538-.04 1.091-.074l1.117-.059c-.263-.296-.503-.429-.726-.489.387.117.762.121 1.125.052.206-.038.394-.064.565-.082-1.037-.506-1.952-.963-2.011-1.289l.267-.21c-.254-.461-.993-.465-1.361-.371-.999-.331-2.105-.283-2.196-.736l.46-.129c-.617-.195-.973-.252-1.368-.326a31.274 31.274 0 0 1-1.609-.379zM20.435 26.81c.684.032 1.309.011 2.106-.297.391-.161.805-.408 1.259-.786.463-.37.922-.913 1.563-1.517l-.151.242c.898-.342 1.367-1.081 1.903-1.869.56-.748 1.241-1.484 2.329-1.824-.59.966-.579.912-.885 2.341l.68-.901c.124.666.8-.231 1.455-.688l-.143 1.011c-.493.111-1.521.784-1.39.891.082-.111-.379-.051-.959.141-.542.235-1.193.618-1.507 1.045.415.287 1.876-1.315 1.684-.057.394-.836.833-.462 1.411-1.136-.464.764.242.653-.026 1.296l1.015-.964c.119.117-1.395 1.491-.121 1.294.283-.528 1.631-1.141 1.355-1.594l.118.114c.935-.437-.02-.859 1.231-1.268-.123-.236-.429-.264-.796.022-.266.311-.139.618-.749 1.126-.258-.061-.063-.201.102-.341.172-.13.306-.279-.127-.425-.441-.147-1.536 1.517-1.53.522l.919-.548c-.291-.468.387-.864.141-1.201.472-.513 1.318-.33 1.666-1.08.076-.442-.673-.742.457-1.088 1.194.32 3.413-1.023 4.34-1.38l.695-.613c-.178-.279-1.545.612-1.17.027l1.243-.59-.033.228c.441-.105.798-.498 1.167-.715-.302.474-1.26.693-.901 1.138.633-.102.768.017 1.297-.224-.111.068-.2.147-.162.217 1.288-.083 1.02-.895 1.291-1.15 1.099-1.021-1.452-.312-1.457-.896 0 0 3.741-1.304 3.774-1.191-.304.227-.602.452-.434.655.991.106.101.416 1.412.19-.106-.364.294-.544.835-.704l.868-.248c.295-.08.582-.145.814-.269.473.284.565.341-.406.399.157.48 1.431.229 1.895.25.261-.135.716-.229 1.004-.352-.392-.218-.239-.551.622-.775l.051-.1c-.705-.069-1.614-.164-2.464-.217-.848-.041-1.635-.032-2.044.313l.223-.278c-1.715-.146-3.401 1.347-4.309.704-.013-.373-.342.001-.437-.519l-1.093.706.186-.295-1 .32c-.506.139-.98.373-.98.373l.021-.113a50.705 50.705 0 0 0-1.819 1.928c.083.214.167.259-.068.525a2.211 2.211 0 0 1-.678.388v.003l-.001-.002c-.468.151-.901-.007-1.513.138l.839-.436.578-.3c.156-.087.268-.125.268-.125-.005-.41-.317-.758-1.284-.582.345-.182.373-.533-.085-.363-.009.117-1.052.783-.497.861-.794.468-2 .749-3.194 1.36-.607.283-1.235.602-1.834.979a7.632 7.632 0 0 0-1.555 1.478c1.36-1.575-1.624.561.096-.925-.823.224-1.01.557-1.149.936-.133.389-.258.782-.867 1.295-.248-.083.656-.566.694-1.111-1.147.72-1.777 1.739-2.43 2.654-.655.924-1.125 1.967-2.068 2.825l-.443-.236c-.297.39-.575.861-.848 1.358zm-2.324 4.494c-.196.447-.429.88-.598 1.353l.075-.123-.278 1.479c.556-.716 1.271-.967.973.229-.136-.182-.512.029-.433-.406-.615.602-1.666 2.131-.783 1.995.046-1.698 1.012.06 1.071-1.252.155.794-.331 1.271-.381 1.912-.126-.743-.902-.227-1.404.637-.035.441-.539 1.487-.596 2.209.515-.098.554.542 1.049-.477a3.11 3.11 0 0 1-.149.757 2.874 2.874 0 0 1-.381.922c-.004-.295.066-.792-.099-.806-.512.331-.633.873-.879 1.122l-.111.722a.51.51 0 0 1 .194-.134l.188.864c.058-1.074.324-.424.578-.352-.506-.148-.236.64-.308.986l.737-.628c.09.21-.09.502-.219.737-.108.239-.164.418.12.375.558-1.532.663-2.128.85-3.599l-.561.454c.167-1.7 1.032-.753 1.615-2.486-.168-.894 1.084-2.537.382-2.919.128.315 1.111-.738 1.108-1.459-.268-.947.792-2.883.169-2.492-.319.509-.388 1.388-1.046 1.563l.473-1.068-.737.454c.328-.268-.022-.434-.619-.569zm-8.74 26.824l-.002.054-.007-.058.009.004z"/><path d="M84.364 35.138c.342.233.575 1.079.888.77-.195.089-.344-.271-.478-.571-.159-.291-.303-.519-.41-.199zm-.002 1.115c.116.019.252-.082.4.277l-.467-.958.067.681zm-2.365 2.01c.471.362.753.611 1.002 1.369-.888.593-.727-1.134-1.758-1.133.196.678.547 1.043.914 1.384.342.347.668.678.863 1.243.119-.336.15-1.136-.08-1.788-.223-.654-.564-1.192-.941-1.075zm-1.444-.127l.485.646.031-.093-.486-.647zm-3.924-20.398c.139-.308-.558-.431-.867-.566.2.178.445.467.867.566zm3.582 61.655l.762-.907c.447-.552 1.081-1.254 1.638-2.015 1.077-1.555 2.124-3.114 2.124-3.114-.6.899-1.203 1.749-1.884 2.73-.326.503-.729.991-1.177 1.525l-1.463 1.781zM53.7 10.476c.967-.078 1.68-.142 2.409-.244.725-.072 1.475-.184 2.465-.029-1.223-.595-2.153-.429-2.985-.314-.841.125-1.599.249-2.667-.112l.778.699zm.954-2.509c.263.614-1.621.581-1.364 1.06 1.347-.072.679-.564 1.89-.34l-.526-.72zm5.743 11.598l-.54.14.389.02zM45.442 8.501l.206-.17-1.027-.044zm.415-.329s-.209.154-.208.16c-.002-.006.208-.16.208-.16zm13.572 12.433l.586.358.405-.151zm-5.396-4.502l.683-.093c-.134.018-1.009-.371-.683.093zM39.317 9.4l-.899.476.115.032.895-.474zm9.581 8.19c.448.448-1.245.191-.338.561.782-.114.459-.343.338-.561zM38.8 16.162a.841.841 0 0 0-.306.186c.123-.067.223-.13.306-.186zm0 0c.345-.13.742-.084.95-.264-.509-.102-.636.063-.95.264zm-3.856 1.669l.313-.114c-.208.358-.078.257.117-.044.31-.167.232-.295.229-.406l.123-.262-.194.282c-.496.235-.788.402-.588.544zm-18.352 4.358c1.135-1.003 1.457-1.225 1.673-.921 1.029-.957.427-1.228.905-1.963-1.039 1.233-1.388 1.364-2.578 2.884zm2.578-2.885c.117-.138.246-.253.387-.408-.178.154-.303.276-.387.408zm21.509.539s-.12.183-.234.377l-.226.382.205-.159s.249-.614.255-.6zm-25.588 4.002c.186-.21.442-.578.673-.676-.241-.291-.859.887-.673.676zm8.87.596c.229.046.729-.588 1.032-.745-.369.285-1.156.046-1.032.745zm-9.999 3.763c.16-.22.584-.442.748-.13.049-.423-.218-1.225-.748.13zm8.401-2.102l.214-.051.406-.796zm5.869 1.607c.326-.883-1.739.159-.905-1.095-1.685 1.034.512.309-.494 1.285.641-.523 1.34-.368 1.399-.19zm-1.399.19a2.137 2.137 0 0 0-.287.262 5.44 5.44 0 0 0 .287-.262zm-9.046 8.942a1.59 1.59 0 0 0-.029-.349c-.004.114.003.226.029.349zm6.497-5.301l.24-1.414c-.085.479-.452 1.141-.721 1.712-.289.559-.359 1.105-.068 1.213.428-.529.823-1.24.787-1.688l-.238.177zM7.131 42.846l-.138-.786-.22.917c.137-.25.535.306.358-.131zm-.4.309l.041-.178a.4.4 0 0 0-.041.178zm11.875-8.832c.239-.386.373-.721.457-1.144-.189.09-.778 1.065-.457 1.144zM7.535 48.12l-.049-1.213-.02 1.32zM6.53 53.839l-.11.224s.064.252.155.501l.19.495.091-.228s-.104-.245-.18-.493l-.146-.499zm12.763-6.466c.071-.587-.397-1.109-.553-.97l-.025.182c-.02.108-.034.255-.031.403l-.014.589c.535-.255-.024-.329.183-.992-.025-.001.44.788.44.788zM29.57 87.502c-.471.119-1.879-.963-1.782-1.286.274.003 1.142.37.746-.112l-1.613.001c-1.27-1.392 1.78-.201 2.666-.019-.75-.515-1.308-.725-1.892-.937-.584-.209-1.202-.408-1.971-1.011.422.398.584.807.751 1.111-.293.561-1.629-.778-2.716-1.531.519.71 0 .593-.644.398a.557.557 0 0 0-.248-.074l-.222-.063.13.097c-.051.045-.072.129-.047.286 1.013.55 1.419 1.467 2.015 1.916-.008-.623.497-.254 1.189.2.689.458 1.519 1.092 1.989 1.203l.957.465.342.201c.019.131-.142.197-.758.047.506.139 2.023.895 2.014.563l1.736.826c.435.204.866.418 1.21.529l.564.208c.098.078.192.165.251.261.147-.01.186-.049.187-.1l2.464.884c.751.226 1.644.436 2.594.682.951.247 1.965.504 3.005.628l3.039.445 2.669.137c.781.032 1.432.068 1.888.071l.716-.034c-.824-.011-1.531-.298-2.366-.437 1.276-.577-1.367-.182-.965-.768.57-.19 1.374-.082 1.858.087.183-.296-.497-.598-.407-.958-.994-.239-1.578-.001-2.179.256-.598.266-1.211.542-2.188.262.127-.351.767-.577-.516-.72l.335-.029c-2.116.086-1.439-1.044-2.908-.284l.14-.508c-.983.164-2.761-.289-3.776-.483l.089-.081c-1.464-.149-1.854-.299-2.277-.454-.415-.185-.882-.349-2.429-.881l.25.012c.148.011.35.015.556.004l.813-.026c-.949-.604-1.424-.123-2.127-.531.093-.068.089-.498.803-.263l-1.959-.42-1.367-.306c-.376-.084-.609-.175-.609-.175-1.008-.144-.023.437 0 .711zm-3.846-3.364a3.51 3.51 0 0 0-.572-.45c.208.175.393.317.572.45zm26.246 9.295l-1.17.06c.363.016.742.007 1.17-.06zM20.562 81.388c.336.676-.652-.078-.885-.019l1.896 1.712c.125-.162.459-.166.541-.342l-1.552-1.351zm1.317 2.482c.15-.045.449.021.766.11 0 0-.289-.199-.549-.433l-.522-.465c-.093.121-.067.331.305.788zm6.777-8.477l.267.217.516.188-.401-.189c-.202-.094-.382-.216-.382-.216zm3.936 3.864c-.201-.483-1.002-.695-1.277-.77.795.469.392.362 1.277.77zm.809-3.368l.778.267-.032-.091zm26.634 14.29l.504-.165a2.923 2.923 0 0 0-.504.165z"/><path d="M50.869 91.911c2.641.467-1.709.574-.889 1.288l1.451-.315-.117.209 1.773-.156c-.388-.328-.658-.336-.602-.705 2.344-.007.766.448 2.542.7l2.626-.466-.194.141c.221-.043.311-.103.376-.174l.379-.07c.242-.039.586-.107.989-.231l2.966-.843c1.08-.297 2.099-.78 2.886-1.066l1.297-.518c1.387-.862-1.075-.28-.182-1.207-1.727.642-4.375 1.218-4.346 1.883.032-.113.092-.336-.291-.325l-.873.846 1.043-.073c-.441.424-1.536.828-2.605 1.09-1.072.25-2.135.228-2.473.11 1.933-.541.823-.962 3.565-1.262-.166-.148-.722-.342-.155-.591-1.5.551-3.004.713-4.502.961-1.496.313-3.019.354-4.664.774zm28.599-12.553l.03.065c.013-.067.007-.099-.03-.065zm-.843.66l-.669 1.574 1.768-1.692-.227-.477c-.059.239-.517.995-.894 1.077l.022-.482zm-1.771 3.108c.855-.975.381-1.4-.286-1.143.67-.972.865.074 1.04-.924-.307-.306-1.164.839-1.381 1.089l.627.978zm-8.07 4.789l.211-.374-.817.323zm.211-.374l.812-.323c-.139-.134-.276-.264-.46-.313l-.352.636zm2.867-1.329c.339-.154.706-.339 1.14-.586l-1.14.586zm-.929.386l.064.051.865-.438c-.329.147-.628.269-.929.387zm-1.127.621c.323.308.686.623 1.722-.147l-.532-.421c0-.001-1.175.597-1.19.568zm-31.457-8.078l.777.033-.05-.086-.776-.032zm3.97 1.66a2.63 2.63 0 0 0 .49-.108c-.198-.004-.364.024-.49.108z"/><path d="M45.867 78.62c.747.537-1.193.371.28.787.089.406-.702.785-1.402.487.121-.35.739-.125.36-.558-.544.345-.68.035-.611.6-.882.234-1.046.545-1.686.757.264.001.579.09.937.17a602 602 0 0 0 1.17.219c.821.122 1.681.303 2.363-.053.763-.626.392-1.544.478-2.493-.04-.128-.485-.184-.923-.238-.438-.048-.889.015-.966.322zm-1.074-1.121c-.347-.095-.464-.068-.691-.056-.012.345.401.041.691.056zm9.009 7.469c.073-.148.854-.438.651-.643 0 0-1.187.361-1.193.324.29.015.407.162.542.319zm-1.074-.219l.531-.1c-.135-.005-.299.022-.531.1zm1.141.295l-.067-.075c-.014.031-.008.06.067.075zm21.143-.637c.137.224.583-.303.803-.565-.232.146-.589.305-.803.565zm13.959-20.111l.394-.473c-.187.152-.281.229-.394.473zm-4.935-9.568a.277.277 0 0 1-.118-.113.229.229 0 0 0 .118.113zm-.118-.114c-.166-.346.337-1.298-.011-1.691l.099.054-.163-.681-.022 1.247c-.038.449-.033.87.097 1.071z"/></g><g id="SvgjsG1124" class="text" transform="translate(23.27527968337732, 171.58882530420894) scale(1)" light-content="false" fill="#e40a6d"><path d="M58.62 -61.27C58.4 -61.49 58.15 -61.66 57.89 -61.8C57.62 -61.93 57.45 -62.15 57.36 -62.46C57.4 -63.08 57.3 -63.65 57.06 -64.18C56.82 -64.71 56.54 -65.25 56.23 -65.8C55.92 -66.35 55.64 -66.94 55.37 -67.56C55.11 -68.18 54.97 -68.86 54.97 -69.61C54.44 -70.19 53.92 -70.75 53.42 -71.3C52.91 -71.85 52.41 -72.46 51.93 -73.12C51.57 -73.03 51.31 -72.99 51.13 -72.99C50.87 -72.99 50.61 -73.07 50.37 -73.22C50.13 -73.38 49.89 -73.55 49.64 -73.75C49.4 -73.95 49.16 -74.13 48.91 -74.28C48.67 -74.44 48.42 -74.51 48.15 -74.51C47.49 -74.51 47 -74.24 46.69 -73.68C46.39 -73.13 46.23 -72.57 46.23 -72C46.23 -71.51 46.35 -70.97 46.6 -70.37C46.84 -69.78 47.2 -69.35 47.69 -69.08C47.78 -68.24 48.01 -67.47 48.38 -66.76C48.76 -66.06 49.06 -65.33 49.28 -64.58C49.1 -64.4 49.01 -64.14 49.01 -63.78C49.01 -63.56 49.03 -63.43 49.08 -63.39C49.3 -63.03 49.43 -62.68 49.48 -62.33L49.61 -61.33C49.65 -61.02 49.71 -60.68 49.77 -60.31C49.84 -59.93 50.01 -59.54 50.27 -59.15C50.14 -58.66 50.06 -58.16 50.04 -57.66C50.02 -57.15 50.01 -56.65 50.01 -56.17C50.01 -55.37 50.03 -54.59 50.07 -53.81C50.12 -53.04 50.18 -52.28 50.27 -51.53C50.32 -51.22 50.37 -50.91 50.44 -50.6C50.5 -50.29 50.54 -49.98 50.54 -49.67C50.54 -49.45 50.46 -49.35 50.3 -49.38C50.15 -49.4 50.07 -49.23 50.07 -48.88C50.07 -48.53 50.09 -48.16 50.14 -47.79C50.18 -47.41 50.2 -47.05 50.2 -46.69C50.2 -45.72 50.16 -44.77 50.07 -43.85C49.98 -42.92 49.94 -41.99 49.94 -41.06C49.94 -40.53 49.96 -40.02 50.01 -39.51C50.05 -39 50.14 -38.48 50.27 -37.95C49.96 -37.64 49.79 -37.27 49.74 -36.83C49.7 -36.38 49.67 -35.96 49.67 -35.57C49.67 -35.21 49.69 -34.84 49.71 -34.44C49.73 -34.04 49.73 -33.64 49.71 -33.22C49.69 -32.8 49.63 -32.4 49.54 -32.02C49.45 -31.65 49.3 -31.33 49.08 -31.06C49.3 -30.98 49.44 -30.83 49.51 -30.63C49.58 -30.43 49.61 -30.22 49.61 -30L49.61 -29.61C49.34 -29.43 49.21 -29.19 49.21 -28.88C49.21 -28.66 49.28 -28.44 49.41 -28.22C49.54 -28 49.61 -27.77 49.61 -27.55C49.61 -27.51 49.5 -27.39 49.28 -27.19C49.06 -26.99 48.9 -26.85 48.81 -26.76C48.68 -26.41 48.59 -26.02 48.55 -25.6C48.5 -25.18 48.48 -24.77 48.48 -24.37C48.48 -23.71 48.5 -23.06 48.55 -22.42C48.59 -21.78 48.62 -21.15 48.62 -20.53C48.62 -19.78 48.55 -19.03 48.42 -18.28C48.28 -17.53 48.04 -16.82 47.69 -16.16L47.69 -14.44C47.47 -14.09 47.28 -13.77 47.12 -13.48C46.97 -13.19 46.89 -12.81 46.89 -12.32C46.89 -12.23 46.9 -12.15 46.93 -12.09C46.95 -12.02 46.96 -11.94 46.96 -11.86C46.65 -11.59 46.4 -11.29 46.2 -10.96C46 -10.63 45.81 -10.29 45.63 -9.93C45.46 -9.58 45.27 -9.24 45.07 -8.91C44.87 -8.58 44.62 -8.3 44.31 -8.08C43.87 -8.17 43.48 -8.29 43.15 -8.44C42.82 -8.6 42.41 -8.7 41.93 -8.74C41.22 -9.58 40.45 -10.38 39.61 -11.13C38.77 -11.88 37.92 -12.62 37.06 -13.35C36.2 -14.07 35.36 -14.84 34.54 -15.63C33.72 -16.43 33.01 -17.29 32.39 -18.21C32.3 -18.83 32.1 -19.41 31.79 -19.94C31.48 -20.47 31.14 -21.01 30.77 -21.56C30.39 -22.11 30.06 -22.71 29.77 -23.35C29.48 -23.99 29.34 -24.75 29.34 -25.63C28.5 -26.38 27.88 -27.29 27.49 -28.35C27.09 -29.41 26.76 -30.47 26.49 -31.53C26.01 -31.7 25.64 -32 25.4 -32.42C25.16 -32.84 24.94 -33.29 24.74 -33.78C24.54 -34.26 24.35 -34.76 24.18 -35.27C24 -35.78 23.73 -36.21 23.38 -36.56C23.07 -38.24 22.57 -39.85 21.89 -41.4C21.21 -42.94 20.75 -44.58 20.53 -46.3C20.22 -46.39 20 -46.6 19.87 -46.93C19.74 -47.26 19.58 -47.53 19.41 -47.75C19.36 -48.28 19.28 -48.84 19.17 -49.41C19.06 -49.98 19.01 -50.56 19.01 -51.13C19.01 -51.4 19.05 -51.75 19.14 -52.19C18.66 -52.63 18.28 -53.16 18.02 -53.78C17.75 -54.4 17.5 -55.04 17.25 -55.7C17.01 -56.36 16.78 -57 16.56 -57.62C16.34 -58.24 16.03 -58.82 15.63 -59.35L15.63 -60.54C15.06 -60.98 14.57 -61.46 14.17 -61.99C13.78 -62.52 13.31 -62.99 12.78 -63.39L11.92 -63.39C11.39 -63.39 10.86 -63.34 10.33 -63.25C9.8 -63.16 9.27 -63.12 8.74 -63.12L8.48 -63.12C8.43 -62.9 8.36 -62.68 8.25 -62.46C8.14 -62.24 7.97 -62.08 7.75 -61.99L7.75 -61.4C7.75 -60.74 7.79 -60.07 7.88 -59.41C7.97 -58.75 8.01 -58.06 8.01 -57.36L8.01 -56.76C8.41 -56.19 8.67 -55.45 8.78 -54.54C8.89 -53.64 8.96 -52.72 9.01 -51.79C9.05 -50.87 9.14 -50.01 9.27 -49.21C9.41 -48.42 9.69 -47.84 10.13 -47.49L9.41 -46.03C9.67 -44.49 9.8 -42.9 9.8 -41.26C9.8 -39.59 9.71 -37.94 9.54 -36.33C9.36 -34.72 9.27 -33.09 9.27 -31.46C9.27 -31.02 9.28 -30.6 9.31 -30.2C9.33 -29.8 9.36 -29.39 9.41 -28.94C9.14 -28.81 8.97 -28.65 8.91 -28.45C8.84 -28.25 8.8 -28.04 8.78 -27.82C8.75 -27.6 8.71 -27.38 8.64 -27.16C8.58 -26.93 8.43 -26.74 8.21 -26.56C8.52 -26.38 8.68 -26.07 8.68 -25.63C8.68 -25.15 8.56 -24.67 8.31 -24.21C8.07 -23.74 7.88 -23.27 7.75 -22.78C7.88 -22.25 7.95 -21.68 7.95 -21.06C7.95 -20.31 7.87 -19.58 7.72 -18.88C7.56 -18.17 7.48 -17.44 7.48 -16.69C7.48 -16.34 7.51 -16.07 7.55 -15.9C6.67 -14.35 6.13 -12.67 5.93 -10.86C5.73 -9.05 5.45 -7.29 5.1 -5.56C5.06 -5.43 5 -5.24 4.93 -5C4.87 -4.76 4.8 -4.5 4.74 -4.24C4.67 -3.97 4.6 -3.73 4.54 -3.51C4.47 -3.29 4.44 -3.14 4.44 -3.05C4.44 -2.61 4.56 -2.32 4.8 -2.19C5.04 -2.05 5.17 -1.81 5.17 -1.46C4.46 -0.66 3.97 0.28 3.71 1.36C3.44 2.44 3.25 3.58 3.11 4.77C2.98 5.96 2.86 7.14 2.75 8.31C2.64 9.48 2.41 10.53 2.05 11.46C2.27 11.94 2.45 12.47 2.58 13.05L2.98 14.77C3.07 14.77 3.15 14.78 3.21 14.8C3.28 14.83 3.36 14.84 3.44 14.84C3.75 14.84 4.01 14.74 4.21 14.54C4.4 14.34 4.66 14.24 4.97 14.24L5.17 14.31C5.56 14.66 5.98 14.98 6.42 15.27C6.87 15.55 7.31 15.87 7.75 16.23C7.93 15.83 8.21 15.59 8.61 15.5C9.01 15.41 9.34 15.23 9.6 14.97C9.43 14.88 9.34 14.75 9.34 14.57C9.34 14.39 9.45 14.21 9.67 14.01C9.89 13.81 10.05 13.6 10.13 13.38C10.22 13.03 10.29 12.66 10.33 12.29C10.38 11.91 10.4 11.55 10.4 11.19C10.4 9.96 10.24 8.85 9.93 7.88C9.98 7.62 10.1 7.45 10.3 7.39C10.5 7.32 10.6 7.13 10.6 6.82C10.6 6.42 10.49 6.02 10.27 5.6C10.05 5.18 9.93 4.75 9.93 4.31C9.93 3.91 9.97 3.39 10.03 2.75C10.1 2.11 10.19 1.45 10.3 0.76C10.41 0.08 10.51 -0.6 10.6 -1.26C10.69 -1.92 10.77 -2.47 10.86 -2.91C11.22 -5.43 11.59 -7.95 11.99 -10.46C12.39 -12.98 12.72 -15.5 12.98 -18.02C13.42 -18.5 13.73 -19.1 13.91 -19.8C14.09 -20.51 14.21 -21.24 14.27 -21.99C14.34 -22.74 14.36 -23.49 14.34 -24.24C14.32 -24.99 14.33 -25.68 14.37 -26.29C14.46 -27.18 14.6 -28.04 14.8 -28.88C15 -29.72 15.1 -30.58 15.1 -31.46C15.1 -31.81 15.09 -32.17 15.07 -32.52C15.05 -32.87 15.03 -33.23 15.03 -33.58C15.03 -34.07 15.09 -34.53 15.2 -34.97C15.31 -35.41 15.61 -35.79 16.09 -36.1C16.62 -35.43 17.08 -34.71 17.45 -33.91C17.83 -33.12 18.18 -32.32 18.51 -31.53C18.84 -30.73 19.2 -29.95 19.57 -29.18C19.95 -28.4 20.42 -27.71 21 -27.09C20.91 -27 20.86 -26.87 20.86 -26.69C20.86 -26.52 20.94 -26.35 21.1 -26.2C21.25 -26.04 21.33 -25.85 21.33 -25.63C21.33 -25.54 21.22 -25.39 21 -25.17C22.54 -23.27 23.6 -21.22 24.18 -19.01C24.93 -17.91 25.65 -16.88 26.36 -15.93C27.07 -14.98 27.6 -13.84 27.95 -12.52C28.79 -11.94 29.52 -11.24 30.14 -10.4C30.75 -9.56 31.33 -8.72 31.86 -7.88C32.03 -7.62 32.24 -7.32 32.49 -6.99C32.73 -6.66 32.96 -6.38 33.18 -6.16C33.36 -5.98 33.65 -5.89 34.04 -5.89L34.31 -5.89C35.19 -4.48 36.31 -3.33 37.65 -2.45C39 -1.57 40.42 -0.82 41.93 -0.2C42.19 -0.24 42.43 -0.31 42.65 -0.4L43.32 -0.66C43.63 -0.18 44.02 0.07 44.51 0.07C45.04 0.07 45.61 -0.09 46.23 -0.4C46.85 -0.71 47.49 -0.88 48.15 -0.93C49.03 -1.85 49.8 -2.88 50.44 -4.01C51.08 -5.13 51.66 -6.27 52.19 -7.42C52.28 -7.64 52.4 -7.86 52.56 -8.08C52.71 -8.3 52.83 -8.52 52.92 -8.74C53.14 -9.49 53.31 -10.28 53.42 -11.09C53.53 -11.91 53.65 -12.72 53.78 -13.51C54.13 -15.54 54.43 -17.58 54.68 -19.64C54.92 -21.69 55.04 -23.76 55.04 -25.83C55.04 -26.58 55.02 -27.3 54.97 -27.98C54.93 -28.67 54.86 -29.39 54.77 -30.14C55.22 -31.06 55.49 -32.02 55.6 -33.02C55.71 -34.01 55.77 -35.02 55.77 -36.03C55.77 -38.15 55.79 -40.26 55.83 -42.36C55.88 -44.45 55.9 -46.56 55.9 -48.68C55.9 -50.36 55.88 -52.06 55.83 -53.78C55.79 -55.5 55.68 -57.2 55.5 -58.88C55.86 -58.79 56.17 -58.69 56.43 -58.58C56.7 -58.47 57 -58.42 57.36 -58.42L57.82 -58.42C57.87 -58.9 57.94 -59.39 58.05 -59.87C58.16 -60.36 58.35 -60.82 58.62 -61.27Z M120.24 -4.84C119.89 -5.19 119.6 -5.57 119.38 -5.99C119.16 -6.41 118.87 -6.82 118.52 -7.22C118.34 -7.09 118.05 -7.02 117.66 -7.02C117.13 -7.02 116.63 -7.14 116.17 -7.39C115.7 -7.63 115.21 -7.75 114.68 -7.75C114.19 -7.75 113.73 -7.57 113.29 -7.22C112.62 -7.66 111.99 -8.14 111.4 -8.64C110.8 -9.15 110.33 -9.78 109.97 -10.53C110.95 -10.88 111.94 -11.06 112.95 -11.06C113.31 -11.06 113.57 -11.04 113.75 -10.99C113.57 -11.26 113.48 -11.5 113.48 -11.72C113.48 -12.12 113.66 -12.47 114.01 -12.78C114.37 -13.09 114.54 -13.51 114.54 -14.04C114.54 -14.31 114.46 -14.62 114.28 -14.97C114.01 -15.06 113.75 -15.1 113.48 -15.1L112.82 -15.1C112.42 -15.1 111.95 -15.09 111.4 -15.07C110.85 -15.05 110.28 -15.07 109.71 -15.13C109.13 -15.2 108.62 -15.32 108.15 -15.5C107.69 -15.68 107.35 -15.98 107.13 -16.43C106.51 -17.66 106.05 -19.04 105.77 -20.57C105.48 -22.09 105.16 -23.51 104.81 -24.84C104.68 -25.37 104.53 -25.9 104.38 -26.43C104.22 -26.96 104.03 -27.46 103.81 -27.95L103.35 -29.01C103.09 -29.58 103 -30.26 103.09 -31.03C103.17 -31.8 103.17 -32.5 103.09 -33.12C102.95 -33.91 102.71 -34.68 102.36 -35.43C102 -36.19 101.76 -36.98 101.63 -37.82C101.41 -39.23 101.09 -40.61 100.67 -41.96C100.25 -43.31 99.86 -44.69 99.51 -46.1C99.29 -46.94 99.14 -47.79 99.08 -48.65C99.01 -49.51 98.69 -50.25 98.12 -50.87C96.97 -50.95 96.04 -51.08 95.34 -51.23C94.63 -51.39 93.81 -51.84 92.89 -52.59C92.36 -52.37 91.96 -52 91.69 -51.5C91.43 -50.99 91.03 -50.62 90.5 -50.4C90.5 -50.36 90.48 -50.32 90.43 -50.27C90.43 -50.05 90.52 -49.91 90.7 -49.84C90.88 -49.77 90.96 -49.63 90.96 -49.41L90.96 -49.21C90.35 -48.51 89.87 -47.7 89.54 -46.79C89.21 -45.89 88.91 -44.98 88.65 -44.08C88.38 -43.17 88.08 -42.3 87.75 -41.46C87.42 -40.62 86.92 -39.89 86.26 -39.28C86.17 -38.83 86.1 -38.34 86.03 -37.79C85.96 -37.23 85.62 -36.94 85 -36.89C84.83 -35.7 84.55 -34.62 84.18 -33.65C83.8 -32.68 83.37 -31.74 82.88 -30.83C82.4 -29.93 81.91 -29.03 81.43 -28.15C80.94 -27.27 80.5 -26.29 80.1 -25.23C79.79 -25.32 79.61 -25.27 79.54 -25.07C79.47 -24.87 79.33 -24.77 79.11 -24.77C79.11 -24.29 79.03 -23.87 78.88 -23.51C78.72 -23.16 78.4 -22.94 77.92 -22.85C77.52 -21.08 76.66 -19.49 75.33 -18.08L75.33 -16.69C74.41 -15.85 73.57 -14.9 72.82 -13.84C72.07 -12.78 71.33 -11.73 70.6 -10.7C69.87 -9.66 69.06 -8.68 68.18 -7.75C67.3 -6.82 66.26 -6.07 65.07 -5.5C65.02 -5.1 65.13 -4.82 65.4 -4.67C65.66 -4.51 65.8 -4.24 65.8 -3.84C65.31 -3.66 64.94 -3.39 64.67 -3.01C64.41 -2.64 64.21 -2.22 64.07 -1.76C63.94 -1.29 63.84 -0.81 63.78 -0.3C63.71 0.21 63.68 0.68 63.68 1.13C64.16 2.49 65.05 3.18 66.33 3.18C66.94 3.18 67.61 3.02 68.31 2.72C69.02 2.41 69.62 2.05 70.1 1.66C70.01 1.08 70.08 0.66 70.3 0.4C70.79 0.18 71.19 -0.13 71.53 -0.53C71.86 -0.93 72.18 -1.35 72.49 -1.79C72.79 -2.23 73.1 -2.65 73.41 -3.05C73.72 -3.44 74.12 -3.78 74.61 -4.04C74.61 -4.66 74.78 -5.12 75.14 -5.43C75.49 -5.74 75.71 -6.16 75.8 -6.69C76.06 -6.65 76.27 -6.68 76.43 -6.79C76.58 -6.9 76.7 -7.03 76.79 -7.19C76.88 -7.34 76.97 -7.52 77.06 -7.72C77.14 -7.91 77.28 -8.06 77.45 -8.15C77.72 -8.15 77.96 -8.21 78.18 -8.35C79.06 -8.12 79.93 -8.01 80.76 -8.01C81.38 -8.01 81.99 -8.04 82.59 -8.08C83.18 -8.12 83.79 -8.15 84.41 -8.15L85 -8.15C85.31 -8.15 85.46 -8.26 85.43 -8.48C85.41 -8.7 85.53 -8.81 85.8 -8.81C86.15 -8.63 86.46 -8.54 86.73 -8.54C87.17 -8.54 87.56 -8.67 87.92 -8.91C88.27 -9.15 88.67 -9.36 89.11 -9.54C89.42 -9.45 89.71 -9.41 89.97 -9.41L90.9 -9.41C92 -9.41 93.11 -9.52 94.21 -9.74C95.31 -9.96 96.37 -10.22 97.39 -10.53C97.65 -10.4 97.9 -10.23 98.12 -10.03C98.34 -9.84 98.56 -9.67 98.78 -9.54C99.09 -10.2 99.64 -10.53 100.44 -10.53L100.97 -10.53C101.5 -10 101.96 -9.38 102.36 -8.68C102.75 -7.97 103.13 -7.26 103.48 -6.56C103.84 -5.85 104.2 -5.18 104.58 -4.54C104.95 -3.9 105.4 -3.36 105.93 -2.91C106.33 -2.56 106.63 -2.43 106.83 -2.52C107.03 -2.61 107.28 -2.58 107.59 -2.45C107.81 -2.36 107.98 -2.25 108.09 -2.12C108.2 -1.99 108.31 -1.87 108.42 -1.76C108.53 -1.64 108.66 -1.55 108.81 -1.46C108.97 -1.37 109.22 -1.32 109.58 -1.32C109.84 -1.32 110.12 -1.35 110.4 -1.39C110.69 -1.44 110.99 -1.46 111.3 -1.46C111.52 -1.46 111.74 -1.44 111.96 -1.39C112.18 -1.35 112.4 -1.28 112.62 -1.19C112.84 -1.28 112.95 -1.44 112.95 -1.66C112.95 -1.88 113.06 -1.99 113.29 -1.99C113.51 -1.99 113.72 -1.98 113.91 -1.95C114.11 -1.93 114.32 -1.92 114.54 -1.92C115.03 -1.92 115.57 -1.95 116.17 -2.02C116.76 -2.09 117.35 -2.23 117.92 -2.45C118.5 -2.67 118.99 -2.97 119.41 -3.34C119.83 -3.72 120.11 -4.22 120.24 -4.84ZM99.51 -15.43C99.33 -15.26 99.22 -15.07 99.18 -14.87C99.13 -14.67 99 -14.48 98.78 -14.31C98.34 -14.26 98.01 -14.34 97.79 -14.54C97.57 -14.74 97.26 -14.88 96.86 -14.97C96.37 -14.84 95.88 -14.73 95.37 -14.64C94.86 -14.55 94.34 -14.51 93.81 -14.51C92.8 -14.51 91.85 -14.66 90.96 -14.97C90.52 -14.66 89.96 -14.47 89.28 -14.41C88.59 -14.34 87.96 -14.22 87.39 -14.04C87.03 -14.39 86.64 -14.62 86.2 -14.7C85.75 -14.79 85.29 -14.84 84.81 -14.84C84.32 -14.84 83.82 -14.85 83.31 -14.87C82.81 -14.89 82.35 -15.01 81.96 -15.23C81.96 -15.85 82.06 -16.47 82.26 -17.09C82.45 -17.71 82.84 -18.21 83.41 -18.61C83.81 -19.98 84.34 -21.29 85 -22.55C85.67 -23.81 86.36 -25.06 87.09 -26.29C87.82 -27.53 88.51 -28.78 89.18 -30.04C89.84 -31.3 90.35 -32.63 90.7 -34.04C91.14 -34.31 91.46 -34.67 91.66 -35.14C91.86 -35.6 92.18 -35.94 92.62 -36.16C92.62 -36.47 92.59 -36.76 92.52 -37.02C92.46 -37.29 92.42 -37.58 92.42 -37.89C92.42 -38.24 92.49 -38.55 92.62 -38.81C93.15 -38.46 93.54 -38.01 93.78 -37.45C94.02 -36.9 94.22 -36.31 94.38 -35.67C94.53 -35.03 94.7 -34.39 94.87 -33.75C95.05 -33.11 95.34 -32.56 95.73 -32.12L95.73 -31.92C95.73 -31.7 95.65 -31.46 95.47 -31.2C96.04 -29.78 96.52 -28.33 96.89 -26.82C97.27 -25.32 97.61 -23.82 97.92 -22.32C98.05 -21.66 98.15 -20.97 98.22 -20.27C98.28 -19.56 98.41 -18.9 98.58 -18.28C98.71 -17.79 98.88 -17.39 99.08 -17.06C99.28 -16.72 99.42 -16.18 99.51 -15.43Z M171 -32.65C171 -33.23 170.87 -33.83 170.6 -34.47C170.34 -35.11 170.03 -35.77 169.68 -36.43C169.32 -37.09 168.96 -37.74 168.58 -38.38C168.21 -39.02 167.91 -39.63 167.69 -40.2C167.12 -40.69 166.6 -41.14 166.13 -41.56C165.67 -41.98 165.33 -42.54 165.11 -43.25C164.18 -43.69 163.34 -44.2 162.59 -44.77C161.84 -45.35 161.09 -45.94 160.34 -46.56L154.91 -48.02C153.1 -48.5 151.24 -48.75 149.34 -48.75L148.22 -48.75C148.22 -48.88 148.15 -48.95 148.02 -48.95C147.89 -48.95 147.65 -48.91 147.32 -48.85C146.99 -48.78 146.63 -48.7 146.23 -48.62L145.1 -48.42C144.75 -48.37 144.49 -48.35 144.31 -48.35C142.63 -48.13 141 -47.96 139.41 -47.85C137.82 -47.74 136.23 -47.49 134.64 -47.09C134.37 -47.22 134.09 -47.3 133.78 -47.32C133.47 -47.35 133.18 -47.36 132.92 -47.36L131.79 -47.36C131.57 -47.09 131.4 -46.77 131.29 -46.4C131.18 -46.02 130.97 -45.77 130.67 -45.63C130.44 -45.55 130.06 -45.44 129.51 -45.3C128.95 -45.17 128.5 -45.06 128.15 -44.97C127.09 -44.62 126.04 -44.22 125 -43.78C123.96 -43.34 122.92 -43.01 121.86 -42.79L121.19 -41.06C120.97 -40.49 120.86 -39.89 120.86 -39.28C120.86 -38.61 121.02 -37.97 121.33 -37.36C121.86 -37.18 122.4 -37.06 122.95 -36.99C123.5 -36.93 124.02 -36.74 124.51 -36.43C125.39 -36.91 126.34 -37.3 127.35 -37.59C128.37 -37.87 129.38 -38.13 130.4 -38.35C130.71 -37.33 130.92 -36.3 131.03 -35.24C131.14 -34.18 131.19 -33.12 131.19 -32.06C131.19 -29.67 131.03 -27.32 130.7 -25C130.37 -22.68 130.2 -20.33 130.2 -17.95C130.2 -16.71 130.27 -15.5 130.4 -14.31C130.31 -14.09 130.25 -13.89 130.2 -13.71C130.16 -13.53 130.14 -13.33 130.14 -13.11C130.14 -12.81 130.18 -12.52 130.27 -12.25C130.36 -11.99 130.4 -11.72 130.4 -11.46C130.4 -11.24 130.27 -11.13 130 -11.13C129.74 -11.13 129.63 -10.99 129.67 -10.73C130.07 -10.73 130.38 -10.62 130.6 -10.4C130.82 -10.18 131 -9.91 131.13 -9.6C131.26 -9.29 131.35 -8.96 131.39 -8.61C131.44 -8.26 131.5 -7.95 131.59 -7.68C132.08 -7.2 132.56 -6.74 133.05 -6.33C133.54 -5.91 133.84 -5.32 133.98 -4.57C135.04 -4.44 135.88 -4.06 136.49 -3.44C137.11 -2.83 137.69 -2.08 138.22 -1.19C138.52 -1.28 138.78 -1.31 138.98 -1.29C139.18 -1.27 139.36 -1.21 139.54 -1.13C139.72 -1.04 139.88 -0.95 140.04 -0.86C140.19 -0.77 140.38 -0.73 140.6 -0.73C141.35 -1.17 142.04 -1.52 142.65 -1.79C143.27 -2.05 144.02 -2.19 144.91 -2.19C145.39 -2.72 145.98 -3.16 146.66 -3.51C147.34 -3.86 148 -4.17 148.61 -4.44C148.7 -4.48 148.97 -4.58 149.41 -4.74C149.85 -4.89 150.09 -4.99 150.14 -5.03L151.59 -6.42C152.08 -6.91 152.6 -7.37 153.15 -7.82C153.7 -8.26 154.24 -8.7 154.77 -9.14C156.67 -10.69 158.45 -12.16 160.11 -13.58C161.76 -14.99 163.25 -16.49 164.58 -18.08C165.9 -19.67 167.06 -21.42 168.05 -23.31C169.05 -25.21 169.81 -27.44 170.34 -30L170.34 -30.27C170.34 -30.45 170.29 -30.58 170.21 -30.67C170.12 -30.75 170.07 -30.86 170.07 -31C170.07 -31.39 170.23 -31.66 170.54 -31.79C170.85 -31.92 171 -32.21 171 -32.65ZM164.84 -31.66C164.71 -31.04 164.52 -30.51 164.28 -30.07C164.04 -29.63 163.91 -29.05 163.91 -28.35L163.91 -28.08C163.34 -27.29 162.79 -26.46 162.26 -25.6C161.73 -24.74 161.17 -23.91 160.57 -23.12C159.97 -22.32 159.33 -21.57 158.65 -20.86C157.96 -20.16 157.18 -19.56 156.3 -19.08C156.21 -18.59 155.97 -18.23 155.57 -17.98C155.17 -17.74 154.93 -17.38 154.84 -16.89C154.44 -16.89 154.17 -16.76 154.01 -16.49C153.86 -16.23 153.6 -16.05 153.25 -15.96C153.12 -15.74 152.94 -15.52 152.72 -15.3L152.06 -14.7C151.84 -14.53 151.65 -14.33 151.5 -14.11C151.34 -13.89 151.26 -13.64 151.26 -13.38L151.33 -13.11C151.2 -13.16 151.05 -13.2 150.9 -13.25C150.75 -13.29 150.62 -13.31 150.54 -13.31C150.4 -13.31 150.27 -13.25 150.14 -13.11C148.72 -11.83 147.2 -10.82 145.57 -10.07C143.93 -9.32 142.19 -8.68 140.34 -8.15C140.16 -8.15 140.07 -8.24 140.07 -8.41C140.07 -8.63 140.16 -8.81 140.34 -8.94C140.51 -9.07 140.6 -9.21 140.6 -9.34L140.6 -9.54C139.98 -9.8 139.4 -10.07 138.84 -10.33C138.29 -10.6 137.77 -10.97 137.29 -11.46C137.02 -12.34 136.84 -13.22 136.73 -14.11C136.61 -14.99 136.56 -15.9 136.56 -16.82C136.56 -18.68 136.69 -20.55 136.96 -22.45C137.22 -24.35 137.4 -26.23 137.49 -28.08C137.75 -28.44 137.97 -28.86 138.15 -29.34C138.33 -29.83 138.41 -30.29 138.41 -30.73C138.41 -31.39 138.19 -31.92 137.75 -32.32C138.11 -32.63 138.33 -33.05 138.41 -33.58C138.5 -34.11 138.55 -34.57 138.55 -34.97C138.55 -35.5 138.49 -36.03 138.38 -36.56C138.27 -37.09 138.22 -37.58 138.22 -38.02C138.22 -38.33 138.28 -38.49 138.41 -38.51C138.55 -38.54 138.72 -38.55 138.94 -38.55C138.9 -38.86 138.72 -39.03 138.41 -39.08C138.11 -39.12 137.95 -39.32 137.95 -39.67L137.95 -39.94C138.83 -40.42 139.73 -40.81 140.63 -41.1C141.54 -41.38 142.45 -41.53 143.38 -41.53L144.18 -41.53C144.44 -41.53 144.68 -41.48 144.91 -41.4C145.17 -41.48 145.35 -41.58 145.44 -41.69C145.52 -41.8 145.74 -41.86 146.1 -41.86C146.49 -41.9 146.88 -41.94 147.26 -41.96C147.63 -41.98 148 -41.99 148.35 -41.99C148.7 -41.99 149.2 -41.97 149.84 -41.93C150.48 -41.88 151.13 -41.84 151.79 -41.79C152.46 -41.75 153.09 -41.68 153.68 -41.59C154.28 -41.51 154.75 -41.44 155.11 -41.4C155.5 -41.31 155.86 -41.11 156.16 -40.8C156.47 -40.49 156.83 -40.34 157.22 -40.34C157.45 -40.34 157.6 -40.36 157.69 -40.4C158 -39.56 158.56 -38.98 159.38 -38.65C160.19 -38.32 161 -38.04 161.79 -37.82C162.46 -36.94 163.01 -35.94 163.45 -34.84C163.89 -33.73 164.36 -32.68 164.84 -31.66Z M229.98 -4.84C229.62 -5.19 229.33 -5.57 229.11 -5.99C228.89 -6.41 228.61 -6.82 228.25 -7.22C228.08 -7.09 227.79 -7.02 227.39 -7.02C226.86 -7.02 226.37 -7.14 225.9 -7.39C225.44 -7.63 224.94 -7.75 224.41 -7.75C223.93 -7.75 223.46 -7.57 223.02 -7.22C222.36 -7.66 221.73 -8.14 221.13 -8.64C220.54 -9.15 220.06 -9.78 219.71 -10.53C220.68 -10.88 221.67 -11.06 222.69 -11.06C223.04 -11.06 223.31 -11.04 223.48 -10.99C223.31 -11.26 223.22 -11.5 223.22 -11.72C223.22 -12.12 223.4 -12.47 223.75 -12.78C224.1 -13.09 224.28 -13.51 224.28 -14.04C224.28 -14.31 224.19 -14.62 224.01 -14.97C223.75 -15.06 223.48 -15.1 223.22 -15.1L222.56 -15.1C222.16 -15.1 221.69 -15.09 221.13 -15.07C220.58 -15.05 220.02 -15.07 219.44 -15.13C218.87 -15.2 218.35 -15.32 217.89 -15.5C217.42 -15.68 217.08 -15.98 216.86 -16.43C216.24 -17.66 215.79 -19.04 215.5 -20.57C215.22 -22.09 214.9 -23.51 214.54 -24.84C214.41 -25.37 214.27 -25.9 214.11 -26.43C213.96 -26.96 213.77 -27.46 213.55 -27.95L213.09 -29.01C212.82 -29.58 212.73 -30.26 212.82 -31.03C212.91 -31.8 212.91 -32.5 212.82 -33.12C212.69 -33.91 212.45 -34.68 212.09 -35.43C211.74 -36.19 211.5 -36.98 211.36 -37.82C211.14 -39.23 210.82 -40.61 210.4 -41.96C209.98 -43.31 209.6 -44.69 209.24 -46.1C209.02 -46.94 208.88 -47.79 208.81 -48.65C208.75 -49.51 208.43 -50.25 207.85 -50.87C206.71 -50.95 205.78 -51.08 205.07 -51.23C204.37 -51.39 203.55 -51.84 202.62 -52.59C202.09 -52.37 201.69 -52 201.43 -51.5C201.16 -50.99 200.77 -50.62 200.24 -50.4C200.24 -50.36 200.21 -50.32 200.17 -50.27C200.17 -50.05 200.26 -49.91 200.44 -49.84C200.61 -49.77 200.7 -49.63 200.7 -49.41L200.7 -49.21C200.08 -48.51 199.61 -47.7 199.28 -46.79C198.94 -45.89 198.65 -44.98 198.38 -44.08C198.12 -43.17 197.82 -42.3 197.49 -41.46C197.16 -40.62 196.66 -39.89 196 -39.28C195.91 -38.83 195.83 -38.34 195.77 -37.79C195.7 -37.23 195.36 -36.94 194.74 -36.89C194.56 -35.7 194.29 -34.62 193.91 -33.65C193.54 -32.68 193.11 -31.74 192.62 -30.83C192.13 -29.93 191.65 -29.03 191.16 -28.15C190.68 -27.27 190.24 -26.29 189.84 -25.23C189.53 -25.32 189.34 -25.27 189.27 -25.07C189.21 -24.87 189.07 -24.77 188.84 -24.77C188.84 -24.29 188.77 -23.87 188.61 -23.51C188.46 -23.16 188.14 -22.94 187.65 -22.85C187.25 -21.08 186.39 -19.49 185.07 -18.08L185.07 -16.69C184.14 -15.85 183.3 -14.9 182.55 -13.84C181.8 -12.78 181.06 -11.73 180.33 -10.7C179.6 -9.66 178.8 -8.68 177.92 -7.75C177.03 -6.82 176 -6.07 174.8 -5.5C174.76 -5.1 174.87 -4.82 175.13 -4.67C175.4 -4.51 175.53 -4.24 175.53 -3.84C175.05 -3.66 174.67 -3.39 174.41 -3.01C174.14 -2.64 173.94 -2.22 173.81 -1.76C173.68 -1.29 173.58 -0.81 173.51 -0.3C173.45 0.21 173.41 0.68 173.41 1.13C173.9 2.49 174.78 3.18 176.06 3.18C176.68 3.18 177.34 3.02 178.05 2.72C178.75 2.41 179.35 2.05 179.84 1.66C179.75 1.08 179.81 0.66 180.04 0.4C180.52 0.18 180.93 -0.13 181.26 -0.53C181.59 -0.93 181.91 -1.35 182.22 -1.79C182.53 -2.23 182.84 -2.65 183.15 -3.05C183.46 -3.44 183.85 -3.78 184.34 -4.04C184.34 -4.66 184.52 -5.12 184.87 -5.43C185.22 -5.74 185.44 -6.16 185.53 -6.69C185.8 -6.65 186.01 -6.68 186.16 -6.79C186.32 -6.9 186.44 -7.03 186.53 -7.19C186.61 -7.34 186.7 -7.52 186.79 -7.72C186.88 -7.91 187.01 -8.06 187.19 -8.15C187.45 -8.15 187.7 -8.21 187.92 -8.35C188.8 -8.12 189.66 -8.01 190.5 -8.01C191.12 -8.01 191.73 -8.04 192.32 -8.08C192.92 -8.12 193.52 -8.15 194.14 -8.15L194.74 -8.15C195.05 -8.15 195.19 -8.26 195.17 -8.48C195.15 -8.7 195.27 -8.81 195.53 -8.81C195.89 -8.63 196.2 -8.54 196.46 -8.54C196.9 -8.54 197.3 -8.67 197.65 -8.91C198.01 -9.15 198.4 -9.36 198.85 -9.54C199.15 -9.45 199.44 -9.41 199.71 -9.41L200.63 -9.41C201.74 -9.41 202.84 -9.52 203.95 -9.74C205.05 -9.96 206.11 -10.22 207.12 -10.53C207.39 -10.4 207.63 -10.23 207.85 -10.03C208.07 -9.84 208.29 -9.67 208.52 -9.54C208.82 -10.2 209.38 -10.53 210.17 -10.53L210.7 -10.53C211.23 -10 211.69 -9.38 212.09 -8.68C212.49 -7.97 212.86 -7.26 213.22 -6.56C213.57 -5.85 213.94 -5.18 214.31 -4.54C214.69 -3.9 215.14 -3.36 215.67 -2.91C216.07 -2.56 216.36 -2.43 216.56 -2.52C216.76 -2.61 217.02 -2.58 217.32 -2.45C217.55 -2.36 217.71 -2.25 217.82 -2.12C217.93 -1.99 218.04 -1.87 218.15 -1.76C218.26 -1.64 218.4 -1.55 218.55 -1.46C218.7 -1.37 218.96 -1.32 219.31 -1.32C219.58 -1.32 219.85 -1.35 220.14 -1.39C220.43 -1.44 220.72 -1.46 221.03 -1.46C221.25 -1.46 221.47 -1.44 221.7 -1.39C221.92 -1.35 222.14 -1.28 222.36 -1.19C222.58 -1.28 222.69 -1.44 222.69 -1.66C222.69 -1.88 222.8 -1.99 223.02 -1.99C223.24 -1.99 223.45 -1.98 223.65 -1.95C223.85 -1.93 224.06 -1.92 224.28 -1.92C224.76 -1.92 225.31 -1.95 225.9 -2.02C226.5 -2.09 227.08 -2.23 227.66 -2.45C228.23 -2.67 228.73 -2.97 229.15 -3.34C229.57 -3.72 229.84 -4.22 229.98 -4.84ZM209.24 -15.43C209.07 -15.26 208.96 -15.07 208.91 -14.87C208.87 -14.67 208.74 -14.48 208.52 -14.31C208.07 -14.26 207.74 -14.34 207.52 -14.54C207.3 -14.74 206.99 -14.88 206.59 -14.97C206.11 -14.84 205.61 -14.73 205.1 -14.64C204.6 -14.55 204.08 -14.51 203.55 -14.51C202.53 -14.51 201.58 -14.66 200.7 -14.97C200.26 -14.66 199.7 -14.47 199.01 -14.41C198.33 -14.34 197.7 -14.22 197.12 -14.04C196.77 -14.39 196.37 -14.62 195.93 -14.7C195.49 -14.79 195.03 -14.84 194.54 -14.84C194.05 -14.84 193.56 -14.85 193.05 -14.87C192.54 -14.89 192.09 -15.01 191.69 -15.23C191.69 -15.85 191.79 -16.47 191.99 -17.09C192.19 -17.71 192.58 -18.21 193.15 -18.61C193.55 -19.98 194.08 -21.29 194.74 -22.55C195.4 -23.81 196.1 -25.06 196.83 -26.29C197.55 -27.53 198.25 -28.78 198.91 -30.04C199.57 -31.3 200.08 -32.63 200.44 -34.04C200.88 -34.31 201.2 -34.67 201.4 -35.14C201.59 -35.6 201.91 -35.94 202.36 -36.16C202.36 -36.47 202.32 -36.76 202.26 -37.02C202.19 -37.29 202.16 -37.58 202.16 -37.89C202.16 -38.24 202.22 -38.55 202.36 -38.81C202.89 -38.46 203.27 -38.01 203.52 -37.45C203.76 -36.9 203.96 -36.31 204.11 -35.67C204.27 -35.03 204.43 -34.39 204.61 -33.75C204.78 -33.11 205.07 -32.56 205.47 -32.12L205.47 -31.92C205.47 -31.7 205.38 -31.46 205.2 -31.2C205.78 -29.78 206.25 -28.33 206.63 -26.82C207 -25.32 207.35 -23.82 207.65 -22.32C207.79 -21.66 207.89 -20.97 207.95 -20.27C208.02 -19.56 208.14 -18.9 208.32 -18.28C208.45 -17.79 208.62 -17.39 208.81 -17.06C209.01 -16.72 209.16 -16.18 209.24 -15.43Z"/></g></g></svg>