<svg xmlns="http://www.w3.org/2000/svg" version="1.1" xlink="http://www.w3.org/1999/xlink" xmlns:svgjs="http://svgjs.com/svgjs" width="300" height="71.59264196786214"><defs id="SvgjsDefs5197"><linearGradient id="SvgjsLinearGradientABnIzv-ub" gradientUnits="userSpaceOnUse" x1="-91.265" y1="66.52500000000002" x2="102.56500000000001" y2="-127.30500000000004"><stop id="SvgjsStop5200" stop-color="#b88746" offset="0"/><stop id="SvgjsStop5201" stop-color="#fdf5a6" offset="1"/></linearGradient><linearGradient id="SvgjsLinearGradientofpa0fmmTe" gradientUnits="userSpaceOnUse" x1="1.1779999999999973" y1="44.8865" x2="88.82800000000002" y2="44.8865"><stop id="SvgjsStop5204" stop-color="#b88746" offset="0"/><stop id="SvgjsStop5205" stop-color="#fdf5a6" offset="1"/></linearGradient></defs><g id="SvgjsG5198" transform="scale(0.6635979439782727)" opacity="1"><g id="SvgjsG5202" class="text" transform="translate(284.6409703412685, 84.39335843035242) scale(1)" light-content="false" fill="url(#SvgjsLinearGradientABnIzv-ub)"><path d="M-111.26 -12.34C-110.86 -13.78 -110.28 -15.46 -109.53 -17.38C-108.78 -19.3 -107.97 -21.3 -107.09 -23.4C-106.21 -25.49 -105.31 -27.58 -104.4 -29.67C-103.49 -31.76 -102.67 -33.7 -101.93 -35.49C-101.2 -37.28 -100.59 -38.84 -100.12 -40.17C-99.64 -41.5 -99.4 -42.43 -99.4 -42.98C-99.43 -43.56 -99.56 -44.06 -99.79 -44.47C-100.02 -44.89 -100.32 -45.24 -100.68 -45.51C-101.04 -45.79 -101.44 -45.99 -101.87 -46.12C-102.3 -46.25 -102.74 -46.31 -103.17 -46.31C-104 -46.31 -104.79 -46.08 -105.53 -45.62C-106.26 -45.16 -106.82 -44.38 -107.19 -43.28C-107.74 -42.07 -108.33 -40.75 -108.97 -39.32C-109.6 -37.9 -110.24 -36.45 -110.89 -35C-111.54 -33.54 -112.19 -32.09 -112.82 -30.65C-113.46 -29.2 -114.04 -27.86 -114.57 -26.62C-115.11 -25.38 -115.59 -24.26 -116.02 -23.27C-116.46 -22.27 -116.8 -21.48 -117.06 -20.91L-130.44 -19.91L-138.36 -19.91C-137.67 -20.95 -136.86 -22.23 -135.96 -23.76C-135.05 -25.29 -134.04 -26.97 -132.95 -28.78C-131.85 -30.6 -130.68 -32.51 -129.44 -34.5C-128.2 -36.49 -126.92 -38.44 -125.59 -40.34C-124.26 -42.25 -122.89 -44.06 -121.48 -45.77C-120.06 -47.49 -118.64 -49 -117.21 -50.32C-115.79 -51.63 -114.36 -52.67 -112.95 -53.43C-111.54 -54.2 -110.15 -54.58 -108.79 -54.58C-107.84 -54.58 -106.88 -54.34 -105.92 -53.87C-104.95 -53.39 -104.02 -52.63 -103.12 -51.59C-102.52 -50.84 -101.88 -50.35 -101.2 -50.12C-100.52 -49.89 -99.92 -49.78 -99.4 -49.78C-98.97 -49.78 -98.55 -49.86 -98.15 -50.04C-97.74 -50.21 -97.38 -50.44 -97.04 -50.73C-96.71 -51.02 -96.44 -51.35 -96.24 -51.72C-96.04 -52.1 -95.94 -52.47 -95.94 -52.85C-95.94 -53.14 -96.04 -53.48 -96.24 -53.89C-98.12 -56.92 -100.09 -59.1 -102.15 -60.42C-104.21 -61.75 -106.31 -62.42 -108.45 -62.42C-110.73 -62.42 -113.02 -61.8 -115.33 -60.58C-117.64 -59.35 -119.93 -57.72 -122.19 -55.69C-124.46 -53.65 -126.66 -51.32 -128.81 -48.69C-130.96 -46.07 -133 -43.36 -134.92 -40.58C-136.84 -37.79 -138.62 -35.05 -140.26 -32.33C-141.91 -29.62 -143.36 -27.15 -144.61 -24.91C-145.87 -22.67 -146.89 -20.79 -147.69 -19.26C-148.48 -17.73 -149.01 -16.77 -149.27 -16.36L-154.98 -6.75C-155.35 -6.09 -155.64 -5.39 -155.84 -4.65C-156.05 -3.92 -156.15 -3.17 -156.15 -2.42C-156.15 -1.99 -156.08 -1.53 -155.95 -1.04C-155.82 -0.55 -155.6 -0.11 -155.28 0.28C-154.96 0.67 -154.53 1 -153.98 1.26C-153.44 1.51 -152.73 1.64 -151.86 1.64C-151.31 1.64 -150.75 1.45 -150.17 1.06C-149.6 0.67 -149.02 0.15 -148.44 -0.5C-147.87 -1.15 -147.29 -1.89 -146.71 -2.73C-146.13 -3.56 -145.59 -4.41 -145.07 -5.28C-143.88 -7.3 -142.69 -9.62 -141.47 -12.25L-134.33 -12.34L-118.97 -13.29C-118.97 -13.12 -118.99 -12.73 -119.03 -12.12C-119.07 -11.51 -119.12 -10.84 -119.16 -10.11C-119.2 -9.37 -119.24 -8.66 -119.27 -7.96C-119.3 -7.27 -119.31 -6.74 -119.31 -6.36C-119.31 -5.38 -119.19 -4.45 -118.95 -3.57C-118.7 -2.69 -118.32 -1.91 -117.8 -1.23C-117.28 -0.56 -116.59 -0.02 -115.74 0.37C-114.89 0.76 -113.86 0.95 -112.65 0.95C-110.57 0.95 -108.48 0.42 -106.37 -0.65C-104.26 -1.72 -102.17 -3.15 -100.07 -4.93C-97.98 -6.72 -95.93 -8.79 -93.91 -11.12C-91.89 -13.46 -89.92 -15.9 -88.02 -18.44L-89.62 -24.2C-90.54 -23.04 -91.6 -21.8 -92.78 -20.47C-93.96 -19.15 -95.2 -17.83 -96.5 -16.51C-97.8 -15.2 -99.11 -13.93 -100.44 -12.7C-101.77 -11.48 -103.05 -10.4 -104.29 -9.46C-105.53 -8.52 -106.7 -7.77 -107.78 -7.21C-108.86 -6.64 -109.79 -6.36 -110.57 -6.36C-111.15 -6.36 -111.52 -6.56 -111.69 -6.97C-111.87 -7.37 -111.95 -7.86 -111.95 -8.44C-111.95 -9.08 -111.88 -9.75 -111.72 -10.45C-111.56 -11.16 -111.41 -11.79 -111.26 -12.34Z M-49.93 -10.34L-50.36 -16.23C-51.49 -14.76 -52.78 -13.39 -54.24 -12.12C-55.69 -10.85 -57.15 -9.75 -58.61 -8.81C-60.06 -7.87 -61.46 -7.14 -62.78 -6.62C-64.11 -6.1 -65.22 -5.84 -66.12 -5.84C-67.39 -5.84 -68.02 -6.36 -68.02 -7.4C-68.02 -8.53 -67.83 -9.75 -67.44 -11.06C-67.05 -12.37 -66.56 -13.71 -65.97 -15.08C-65.37 -16.46 -64.73 -17.8 -64.04 -19.13C-63.35 -20.46 -62.7 -21.71 -62.11 -22.88C-61.52 -24.04 -61.03 -25.08 -60.64 -25.99C-60.25 -26.9 -60.06 -27.62 -60.06 -28.13C-60.06 -29.06 -60.36 -29.85 -60.97 -30.52C-61.57 -31.18 -62.39 -31.51 -63.43 -31.51C-64.39 -31.51 -65.18 -31.19 -65.81 -30.56C-66.45 -29.92 -67.01 -29.13 -67.5 -28.18C-67.99 -27.23 -68.45 -26.19 -68.87 -25.06C-69.28 -23.94 -69.77 -22.88 -70.32 -21.9C-71.09 -20.43 -72.07 -18.81 -73.24 -17.03C-74.41 -15.26 -75.71 -13.6 -77.15 -12.05C-78.6 -10.51 -80.17 -9.22 -81.87 -8.18C-83.57 -7.14 -85.36 -6.62 -87.24 -6.62C-87.9 -6.62 -88.38 -6.84 -88.67 -7.27C-88.96 -7.7 -89.1 -8.18 -89.1 -8.7C-89.04 -9.94 -88.8 -11.22 -88.36 -12.53C-87.93 -13.84 -87.41 -15.14 -86.81 -16.4C-86.2 -17.67 -85.54 -18.9 -84.84 -20.08C-84.13 -21.27 -83.46 -22.37 -82.82 -23.4C-82.19 -24.42 -81.63 -25.33 -81.16 -26.12C-80.68 -26.92 -80.37 -27.56 -80.23 -28.05C-80.14 -28.31 -80.1 -28.58 -80.1 -28.87C-80.1 -29.3 -80.21 -29.69 -80.44 -30.02C-80.67 -30.35 -80.98 -30.62 -81.35 -30.84C-81.73 -31.06 -82.13 -31.22 -82.56 -31.32C-83 -31.42 -83.42 -31.47 -83.82 -31.47C-84.74 -31.47 -85.6 -31.23 -86.4 -30.75C-87.19 -30.28 -87.89 -29.49 -88.49 -28.39C-90.86 -24.24 -92.69 -20.7 -93.99 -17.79C-95.29 -14.88 -96.25 -12.5 -96.87 -10.67C-97.49 -8.84 -97.86 -7.5 -97.97 -6.64C-98.09 -5.79 -98.15 -5.35 -98.15 -5.32C-98.15 -4.08 -97.94 -3.05 -97.54 -2.23C-97.14 -1.41 -96.6 -0.75 -95.94 -0.26C-95.28 0.23 -94.5 0.58 -93.62 0.78C-92.74 0.98 -91.83 1.08 -90.88 1.08C-88.77 1.08 -86.82 0.79 -85.03 0.19C-83.24 -0.4 -81.63 -1.17 -80.18 -2.12C-78.74 -3.07 -77.46 -4.13 -76.33 -5.28C-75.21 -6.43 -74.27 -7.57 -73.52 -8.7C-73.98 -6.94 -74.21 -5.4 -74.21 -4.07C-74.21 -2.19 -73.78 -0.87 -72.91 -0.09C-72.05 0.69 -70.92 1.08 -69.54 1.08C-68.15 1.08 -66.59 0.76 -64.86 0.11C-63.13 -0.54 -61.37 -1.4 -59.58 -2.47C-57.79 -3.53 -56.05 -4.75 -54.36 -6.12C-52.68 -7.5 -51.2 -8.9 -49.93 -10.34Z M-40.75 -25.23L-40.84 -25.19L-40.88 -25.19C-40.91 -25.19 -40.93 -25.22 -40.93 -25.28C-40.93 -25.36 -40.9 -25.48 -40.84 -25.62C-40.78 -25.77 -40.72 -25.93 -40.64 -26.1C-40.57 -26.27 -40.51 -26.43 -40.45 -26.58C-40.39 -26.72 -40.36 -26.84 -40.36 -26.92C-40.36 -27.41 -40.55 -27.85 -40.93 -28.22C-41.3 -28.6 -41.78 -28.91 -42.38 -29.17C-42.97 -29.43 -43.64 -29.63 -44.39 -29.76C-45.14 -29.89 -45.89 -29.95 -46.64 -29.95C-47.36 -29.95 -48.05 -29.87 -48.69 -29.71C-49.34 -29.56 -49.91 -29.32 -50.4 -29C-50.9 -28.68 -51.28 -28.27 -51.57 -27.77C-51.86 -27.26 -52.01 -26.66 -52.01 -25.97C-52.01 -25.22 -51.87 -24.59 -51.59 -24.09C-51.32 -23.58 -50.98 -23.16 -50.58 -22.81C-51.82 -20.3 -52.89 -18.09 -53.8 -16.17C-54.71 -14.25 -55.51 -12.55 -56.2 -11.06C-56.9 -9.57 -57.51 -8.25 -58.04 -7.1C-58.58 -5.94 -59.1 -4.88 -59.62 -3.9C-59.94 -3.32 -60.15 -2.79 -60.25 -2.32C-60.35 -1.84 -60.4 -1.44 -60.4 -1.13C-60.4 -0.35 -60.21 0.22 -59.82 0.56C-59.43 0.91 -58.9 1.08 -58.24 1.08C-57.66 1.08 -57.03 0.95 -56.33 0.69C-55.64 0.43 -54.96 0.07 -54.3 -0.39C-53.64 -0.85 -53.02 -1.41 -52.46 -2.08C-51.9 -2.74 -51.44 -3.49 -51.1 -4.33C-50.66 -5.28 -50.14 -6.42 -49.54 -7.75C-48.93 -9.08 -48.31 -10.42 -47.66 -11.77C-47.01 -13.13 -46.38 -14.43 -45.77 -15.67C-45.17 -16.91 -44.63 -17.93 -44.17 -18.74C-43.83 -19.38 -43.25 -19.98 -42.44 -20.54C-41.63 -21.1 -40.78 -21.6 -39.89 -22.03C-38.99 -22.46 -38.15 -22.81 -37.35 -23.07C-36.56 -23.33 -35.99 -23.46 -35.64 -23.46C-35.44 -23.46 -35.31 -23.39 -35.25 -23.24C-35.2 -23.1 -35.17 -22.96 -35.17 -22.81C-35.17 -22.2 -35.37 -21.54 -35.77 -20.82C-36.18 -20.1 -36.69 -19.31 -37.31 -18.46C-37.93 -17.61 -38.62 -16.7 -39.37 -15.73C-40.12 -14.77 -40.84 -13.75 -41.53 -12.68C-42.22 -11.61 -42.84 -10.49 -43.39 -9.31C-43.94 -8.12 -44.32 -6.9 -44.52 -5.63C-44.55 -5.51 -44.56 -5.34 -44.56 -5.11C-44.56 -3.61 -44.06 -2.38 -43.07 -1.43C-42.07 -0.48 -40.58 0 -38.59 0C-37.75 0 -36.76 -0.19 -35.62 -0.58C-34.48 -0.97 -33.26 -1.49 -31.97 -2.12C-30.67 -2.76 -29.32 -3.48 -27.92 -4.29C-26.52 -5.09 -25.13 -5.92 -23.76 -6.77C-22.39 -7.63 -21.08 -8.45 -19.82 -9.24C-18.57 -10.03 -17.44 -10.75 -16.43 -11.38C-15.1 -12.31 -14.15 -13.19 -13.59 -14.05C-13.03 -14.9 -12.75 -15.65 -12.75 -16.32C-12.75 -16.9 -12.92 -17.36 -13.27 -17.7C-13.61 -18.05 -14.05 -18.22 -14.57 -18.22C-14.79 -18.22 -15.05 -18.17 -15.32 -18.07C-15.6 -17.97 -15.86 -17.85 -16.12 -17.7C-17.31 -17.01 -18.75 -16.2 -20.45 -15.26C-22.15 -14.32 -23.96 -13.36 -25.86 -12.38C-27.77 -11.4 -29.68 -10.44 -31.6 -9.5C-33.52 -8.56 -35.25 -7.76 -36.81 -7.1C-37.04 -7.1 -37.17 -7.14 -37.2 -7.23C-37.23 -7.32 -37.25 -7.47 -37.25 -7.7C-37.25 -7.96 -36.94 -8.44 -36.32 -9.13C-35.7 -9.83 -34.92 -10.64 -33.98 -11.58L-30.9 -14.65C-29.79 -15.76 -28.76 -16.87 -27.79 -17.96C-26.82 -19.06 -25.98 -20.11 -25.26 -21.12C-24.53 -22.13 -24.1 -23.01 -23.96 -23.76C-23.87 -24.17 -23.81 -24.55 -23.78 -24.91C-23.76 -25.27 -23.74 -25.61 -23.74 -25.93C-23.74 -27.4 -24.09 -28.44 -24.8 -29.07C-25.51 -29.69 -26.51 -30 -27.81 -30C-28.62 -30 -29.53 -29.87 -30.56 -29.63C-31.58 -29.38 -32.66 -29.05 -33.78 -28.63C-34.91 -28.21 -36.07 -27.72 -37.27 -27.14C-38.47 -26.56 -39.63 -25.93 -40.75 -25.23Z M-2.27 -23.63C-1.81 -23.63 -1.27 -23.55 -0.65 -23.4C-0.03 -23.24 0.56 -23 1.1 -22.68C1.65 -22.36 2.11 -21.98 2.49 -21.53C2.86 -21.09 3.05 -20.59 3.05 -20.04C3.05 -19.67 2.84 -19.07 2.4 -18.27C1.97 -17.46 1.41 -16.55 0.71 -15.54C0.02 -14.53 -0.76 -13.5 -1.62 -12.44C-2.49 -11.39 -3.38 -10.42 -4.29 -9.54C-5.19 -8.66 -6.07 -7.94 -6.93 -7.38C-7.78 -6.82 -8.52 -6.54 -9.15 -6.54C-9.96 -6.54 -10.6 -6.71 -11.08 -7.06C-11.56 -7.4 -11.92 -7.83 -12.18 -8.35C-12.44 -8.87 -12.61 -9.44 -12.68 -10.06C-12.75 -10.68 -12.79 -11.28 -12.79 -11.86C-12.79 -13.27 -12.5 -14.68 -11.92 -16.08C-11.35 -17.48 -10.57 -18.74 -9.59 -19.87C-8.61 -20.99 -7.48 -21.9 -6.21 -22.59C-4.94 -23.29 -3.63 -23.63 -2.27 -23.63ZM27.72 -12.47C28.27 -13.01 28.55 -13.69 28.55 -14.5C28.55 -15.19 28.35 -15.82 27.96 -16.38C27.57 -16.95 27.09 -17.23 26.51 -17.23C26.08 -17.23 25.63 -17.04 25.17 -16.66C23.35 -14.82 21.63 -13.17 20.02 -11.73C19.33 -11.12 18.61 -10.53 17.88 -9.93C17.14 -9.34 16.43 -8.82 15.73 -8.35C15.04 -7.89 14.4 -7.52 13.81 -7.25C13.22 -6.98 12.7 -6.84 12.27 -6.84C11.58 -6.84 11.09 -7.12 10.8 -7.68C10.51 -8.25 10.37 -8.96 10.37 -9.83C10.37 -10.49 10.47 -11.29 10.67 -12.23C10.87 -13.17 11.13 -14.17 11.45 -15.24C11.77 -16.3 12.12 -17.39 12.51 -18.5C12.9 -19.61 13.28 -20.68 13.66 -21.71C14.03 -22.73 14.37 -23.66 14.67 -24.5C14.98 -25.34 15.2 -26.03 15.34 -26.58C15.37 -26.69 15.39 -26.85 15.39 -27.05C15.39 -27.77 15.04 -28.44 14.35 -29.04C13.66 -29.65 12.76 -29.95 11.67 -29.95C11.32 -29.95 10.91 -29.87 10.43 -29.71C9.96 -29.56 9.5 -29.38 9.07 -29.17C8.55 -28.94 8.04 -28.7 7.55 -28.44C6.98 -28.99 6.31 -29.49 5.56 -29.95C4.9 -30.33 4.09 -30.67 3.14 -30.99C2.19 -31.31 1.07 -31.47 -0.19 -31.47C-2.65 -31.47 -4.87 -31.04 -6.86 -30.19C-8.85 -29.34 -10.63 -28.23 -12.18 -26.86C-13.74 -25.49 -15.09 -23.94 -16.23 -22.2C-17.37 -20.47 -18.31 -18.72 -19.05 -16.95C-19.78 -15.17 -20.33 -13.46 -20.69 -11.82C-21.05 -10.17 -21.23 -8.76 -21.23 -7.57C-21.23 -5.99 -20.93 -4.65 -20.32 -3.55C-19.72 -2.45 -18.97 -1.56 -18.07 -0.87C-17.18 -0.17 -16.23 0.32 -15.24 0.63C-14.24 0.93 -13.37 1.08 -12.62 1.08C-11.15 1.08 -9.7 0.74 -8.27 0.06C-6.84 -0.61 -5.47 -1.48 -4.16 -2.53C-2.84 -3.59 -1.62 -4.75 -0.48 -6.04C0.66 -7.32 1.68 -8.57 2.58 -9.78C2.37 -9.26 2.23 -8.71 2.14 -8.12C2.06 -7.52 2.01 -6.93 2.01 -6.32C2.01 -5.4 2.13 -4.49 2.36 -3.61C2.59 -2.73 2.94 -1.95 3.42 -1.26C3.9 -0.56 4.49 0 5.22 0.43C5.94 0.87 6.8 1.08 7.81 1.08C8.94 1.08 10.14 0.82 11.41 0.28C12.67 -0.25 13.97 -0.94 15.28 -1.77C16.59 -2.61 17.88 -3.54 19.13 -4.57C20.39 -5.59 21.57 -6.61 22.68 -7.62C23.79 -8.63 24.78 -9.57 25.65 -10.43C26.51 -11.3 27.2 -11.98 27.72 -12.47Z M60.66 -9.7C61.73 -10.45 62.5 -11.28 62.96 -12.18C63.42 -13.09 63.65 -13.94 63.65 -14.72C63.65 -15.44 63.48 -16.03 63.15 -16.49C62.82 -16.95 62.39 -17.18 61.87 -17.18C61.5 -17.18 61.1 -17.05 60.66 -16.79C59.65 -15.99 58.61 -15.24 57.52 -14.57C56.44 -13.89 55.35 -13.31 54.26 -12.83C53.16 -12.36 52.06 -11.99 50.95 -11.73C49.83 -11.47 48.76 -11.34 47.72 -11.34C46.74 -11.34 46.02 -11.64 45.56 -12.25C46.62 -14.07 47.61 -15.63 48.52 -16.95C49.43 -18.26 50.22 -19.46 50.88 -20.54C51.54 -21.62 52.07 -22.67 52.46 -23.68C52.85 -24.69 53.04 -25.8 53.04 -27.01C53.04 -28.08 52.8 -28.99 52.31 -29.76C51.82 -30.52 50.98 -30.9 49.8 -30.9C49.11 -30.9 48.43 -30.57 47.76 -29.89C47.1 -29.21 46.43 -28.32 45.75 -27.2C45.07 -26.09 44.38 -24.84 43.67 -23.44C42.97 -22.04 42.23 -20.62 41.47 -19.17C40.7 -17.73 39.89 -16.33 39.04 -14.95C38.19 -13.58 37.29 -12.39 36.34 -11.38C35.24 -9.91 34.23 -8.76 33.31 -7.92C32.38 -7.08 31.55 -6.67 30.8 -6.67C30.62 -6.67 30.46 -6.77 30.32 -6.99C30.18 -7.21 30.06 -7.47 29.97 -7.77C29.89 -8.07 29.82 -8.39 29.76 -8.72C29.7 -9.05 29.67 -9.32 29.67 -9.52C29.67 -10.82 29.85 -12.26 30.21 -13.83C30.57 -15.4 31.01 -17.01 31.53 -18.66C32.05 -20.3 32.61 -21.94 33.2 -23.57C33.79 -25.2 34.3 -26.71 34.74 -28.09C34.85 -28.32 34.91 -28.6 34.91 -28.91C34.91 -29.29 34.81 -29.64 34.61 -29.95C34.4 -30.27 34.14 -30.54 33.83 -30.78C33.51 -31.01 33.16 -31.19 32.77 -31.32C32.38 -31.45 31.99 -31.51 31.62 -31.51C30.78 -31.51 29.92 -31.24 29.04 -30.71C28.16 -30.18 27.43 -29.3 26.86 -28.09C26.54 -27.14 26.11 -25.86 25.58 -24.24C25.05 -22.62 24.51 -20.86 23.96 -18.96C23.41 -17.05 22.94 -15.1 22.55 -13.09C22.16 -11.09 21.97 -9.22 21.97 -7.49C21.97 -6.07 22.18 -4.83 22.59 -3.77C23.01 -2.7 23.57 -1.8 24.26 -1.08C24.95 -0.36 25.76 0.18 26.68 0.54C27.61 0.9 28.57 1.08 29.58 1.08C31.66 1.08 33.66 0.43 35.58 -0.87C37.5 -2.16 39.41 -4.07 41.31 -6.58C42.61 -5.77 43.67 -5.21 44.47 -4.89C45.28 -4.57 46.12 -4.41 46.99 -4.41C49.61 -4.41 52.01 -4.88 54.17 -5.82C56.33 -6.76 58.5 -8.05 60.66 -9.7Z M74.95 -23.63C75.41 -23.63 75.95 -23.55 76.57 -23.4C77.19 -23.24 77.77 -23 78.32 -22.68C78.87 -22.36 79.33 -21.98 79.71 -21.53C80.08 -21.09 80.27 -20.59 80.27 -20.04C80.27 -19.67 80.05 -19.07 79.62 -18.27C79.19 -17.46 78.63 -16.55 77.93 -15.54C77.24 -14.53 76.46 -13.5 75.6 -12.44C74.73 -11.39 73.84 -10.42 72.93 -9.54C72.02 -8.66 71.14 -7.94 70.29 -7.38C69.44 -6.82 68.7 -6.54 68.06 -6.54C67.26 -6.54 66.61 -6.71 66.14 -7.06C65.66 -7.4 65.29 -7.83 65.03 -8.35C64.77 -8.87 64.61 -9.44 64.54 -10.06C64.46 -10.68 64.43 -11.28 64.43 -11.86C64.43 -13.27 64.72 -14.68 65.29 -16.08C65.87 -17.48 66.65 -18.74 67.63 -19.87C68.61 -20.99 69.74 -21.9 71.01 -22.59C72.28 -23.29 73.59 -23.63 74.95 -23.63ZM104.94 -12.47C105.49 -13.01 105.76 -13.69 105.76 -14.5C105.76 -15.19 105.57 -15.82 105.18 -16.38C104.79 -16.95 104.31 -17.23 103.73 -17.23C103.3 -17.23 102.85 -17.04 102.39 -16.66C100.57 -14.82 98.85 -13.17 97.24 -11.73C96.55 -11.12 95.83 -10.53 95.1 -9.93C94.36 -9.34 93.65 -8.82 92.95 -8.35C92.26 -7.89 91.62 -7.52 91.03 -7.25C90.44 -6.98 89.92 -6.84 89.49 -6.84C88.8 -6.84 88.31 -7.12 88.02 -7.68C87.73 -8.25 87.59 -8.96 87.59 -9.83C87.59 -10.49 87.69 -11.29 87.89 -12.23C88.09 -13.17 88.35 -14.17 88.67 -15.24C88.99 -16.3 89.34 -17.39 89.73 -18.5C90.12 -19.61 90.5 -20.68 90.88 -21.71C91.25 -22.73 91.59 -23.66 91.89 -24.5C92.2 -25.34 92.42 -26.03 92.56 -26.58C92.59 -26.69 92.61 -26.85 92.61 -27.05C92.61 -27.77 92.26 -28.44 91.57 -29.04C90.88 -29.65 89.98 -29.95 88.88 -29.95C88.54 -29.95 88.13 -29.87 87.65 -29.71C87.17 -29.56 86.72 -29.38 86.29 -29.17C85.77 -28.94 85.26 -28.7 84.77 -28.44C84.2 -28.99 83.53 -29.49 82.78 -29.95C82.12 -30.33 81.31 -30.67 80.36 -30.99C79.4 -31.31 78.29 -31.47 77.02 -31.47C74.57 -31.47 72.35 -31.04 70.36 -30.19C68.37 -29.34 66.59 -28.23 65.03 -26.86C63.48 -25.49 62.13 -23.94 60.99 -22.2C59.85 -20.47 58.91 -18.72 58.17 -16.95C57.44 -15.17 56.89 -13.46 56.53 -11.82C56.17 -10.17 55.99 -8.76 55.99 -7.57C55.99 -5.99 56.29 -4.65 56.9 -3.55C57.5 -2.45 58.25 -1.56 59.15 -0.87C60.04 -0.17 60.99 0.32 61.98 0.63C62.98 0.93 63.85 1.08 64.6 1.08C66.07 1.08 67.52 0.74 68.95 0.06C70.38 -0.61 71.75 -1.48 73.06 -2.53C74.38 -3.59 75.6 -4.75 76.74 -6.04C77.88 -7.32 78.9 -8.57 79.79 -9.78C79.59 -9.26 79.45 -8.71 79.36 -8.12C79.28 -7.52 79.23 -6.93 79.23 -6.32C79.23 -5.4 79.35 -4.49 79.58 -3.61C79.81 -2.73 80.16 -1.95 80.64 -1.26C81.11 -0.56 81.71 0 82.43 0.43C83.16 0.87 84.02 1.08 85.03 1.08C86.16 1.08 87.35 0.82 88.62 0.28C89.89 -0.25 91.19 -0.94 92.5 -1.77C93.81 -2.61 95.1 -3.54 96.35 -4.57C97.61 -5.59 98.79 -6.61 99.9 -7.62C101.01 -8.63 102 -9.57 102.86 -10.43C103.73 -11.3 104.42 -11.98 104.94 -12.47Z M107.37 -26.27C106.9 -25.26 106.31 -24.04 105.59 -22.59C104.87 -21.15 104.11 -19.61 103.32 -17.98C102.53 -16.35 101.73 -14.71 100.94 -13.05C100.15 -11.39 99.43 -9.84 98.8 -8.4C98.16 -6.95 97.64 -5.68 97.24 -4.59C96.83 -3.49 96.63 -2.7 96.63 -2.21C96.63 -1.28 96.92 -0.5 97.5 0.13C98.07 0.76 98.87 1.08 99.88 1.08C100.86 1.08 101.67 0.77 102.32 0.15C102.97 -0.47 103.56 -1.25 104.08 -2.19C104.6 -3.12 105.09 -4.13 105.57 -5.22C106.05 -6.3 106.57 -7.32 107.15 -8.27C108.07 -9.68 109.14 -11.28 110.35 -13.07C111.57 -14.86 112.89 -16.56 114.34 -18.16C115.78 -19.76 117.33 -21.11 118.99 -22.2C120.65 -23.3 122.4 -23.85 124.25 -23.85C124.74 -23.85 125.11 -23.7 125.35 -23.4C125.6 -23.09 125.72 -22.72 125.72 -22.29C125.72 -21.8 125.53 -21.17 125.16 -20.39C124.78 -19.61 124.31 -18.72 123.75 -17.72C123.19 -16.73 122.57 -15.68 121.91 -14.57C121.25 -13.45 120.62 -12.34 120.03 -11.21C119.44 -10.09 118.93 -8.99 118.51 -7.92C118.09 -6.85 117.86 -5.87 117.8 -4.98C117.77 -4.75 117.75 -4.54 117.73 -4.35C117.72 -4.16 117.71 -3.97 117.71 -3.77C117.71 -2.24 118.06 -1.05 118.77 -0.19C119.48 0.66 120.6 1.08 122.13 1.08C122.65 1.08 123.22 1.02 123.84 0.91C124.46 0.79 125.14 0.62 125.89 0.39C128.09 -0.25 130 -0.93 131.63 -1.67C133.26 -2.4 134.79 -3.2 136.22 -4.05C137.64 -4.9 139.04 -5.81 140.41 -6.8C141.78 -7.78 143.29 -8.86 144.94 -10.04C146.15 -10.99 147.04 -12.02 147.6 -13.12C148.16 -14.21 148.44 -15.21 148.44 -16.1C148.44 -16.68 148.31 -17.15 148.03 -17.53C147.76 -17.91 147.38 -18.09 146.89 -18.09C146.68 -18.09 146.47 -18.05 146.24 -17.96C146.01 -17.88 145.78 -17.73 145.54 -17.53C144.71 -16.75 143.66 -15.88 142.41 -14.91C141.15 -13.94 139.77 -12.98 138.27 -12.01C136.77 -11.04 135.21 -10.13 133.58 -9.26C131.94 -8.4 130.35 -7.68 128.79 -7.1C128.42 -6.84 128.1 -6.69 127.84 -6.64C127.58 -6.6 127.35 -6.58 127.15 -6.58C126.83 -6.58 126.6 -6.67 126.45 -6.84C126.31 -7.01 126.24 -7.21 126.24 -7.44C126.24 -8.05 126.43 -8.58 126.8 -9.05C127.09 -9.57 127.49 -10.22 127.99 -11.02L129.66 -13.63C130.26 -14.59 130.88 -15.6 131.5 -16.69C132.12 -17.77 132.68 -18.87 133.19 -20C133.69 -21.12 134.1 -22.25 134.42 -23.37C134.74 -24.5 134.9 -25.58 134.9 -26.62C134.9 -28.38 134.38 -29.63 133.36 -30.36C132.33 -31.1 131.06 -31.47 129.53 -31.47C128.17 -31.47 126.74 -31.25 125.22 -30.82C123.71 -30.39 122.23 -29.83 120.81 -29.15C119.38 -28.47 118.07 -27.71 116.89 -26.86C115.71 -26.01 114.8 -25.18 114.16 -24.37C114.39 -24.86 114.55 -25.32 114.64 -25.75C114.72 -26.19 114.77 -26.59 114.77 -26.97C114.77 -27.95 114.49 -28.69 113.95 -29.2C113.4 -29.7 112.78 -29.95 112.08 -29.95C111.25 -29.95 110.4 -29.65 109.53 -29.04C108.67 -28.44 107.94 -27.51 107.37 -26.27Z M152.04 -37.44C152.12 -36.52 152.53 -35.77 153.25 -35.21C153.97 -34.65 155.22 -34.37 157.01 -34.37C157.97 -34.37 158.79 -34.56 159.48 -34.93C160.17 -35.31 160.74 -35.77 161.17 -36.34C161.6 -36.9 161.93 -37.51 162.14 -38.18C162.36 -38.84 162.47 -39.45 162.47 -39.99C162.47 -40.98 162.14 -41.79 161.47 -42.44C160.81 -43.09 159.64 -43.41 157.97 -43.41C156.96 -43.41 156.08 -43.23 155.35 -42.85C154.61 -42.48 154 -42 153.51 -41.42C153.02 -40.85 152.65 -40.2 152.4 -39.5C152.16 -38.79 152.04 -38.1 152.04 -37.44ZM147.27 -27.7C146.76 -26.63 146.26 -25.62 145.8 -24.67C145.4 -23.86 145.02 -23.07 144.66 -22.29C144.3 -21.51 144.04 -20.94 143.9 -20.56C143.49 -19.55 143 -18.49 142.43 -17.38C141.85 -16.27 141.3 -15.11 140.78 -13.92C140.26 -12.72 139.82 -11.48 139.44 -10.22C139.06 -8.95 138.88 -7.65 138.88 -6.32C138.88 -3.78 139.55 -1.91 140.89 -0.71C142.23 0.48 144.07 1.08 146.41 1.08C148.05 1.08 149.68 0.76 151.3 0.13C152.92 -0.5 154.52 -1.35 156.13 -2.4C157.73 -3.46 159.29 -4.67 160.82 -6.04C162.35 -7.41 163.85 -8.84 165.32 -10.34C166.07 -11.01 166.62 -11.72 166.95 -12.47C167.28 -13.22 167.45 -13.92 167.45 -14.59C167.45 -15.31 167.28 -15.9 166.95 -16.36C166.62 -16.82 166.19 -17.05 165.67 -17.05C165.09 -17.05 164.52 -16.78 163.94 -16.23C163.51 -15.71 162.97 -15.12 162.32 -14.46C161.67 -13.79 160.96 -13.1 160.19 -12.38C159.43 -11.66 158.62 -10.94 157.75 -10.24C156.88 -9.53 156 -8.9 155.11 -8.35C154.21 -7.81 153.33 -7.36 152.45 -7.01C151.57 -6.67 150.72 -6.49 149.91 -6.49C149.19 -6.49 148.64 -6.62 148.25 -6.86C147.86 -7.11 147.66 -7.62 147.66 -8.4C147.66 -9.12 147.8 -9.91 148.08 -10.78C148.35 -11.64 148.68 -12.52 149.07 -13.42C149.46 -14.31 149.87 -15.19 150.3 -16.04C150.74 -16.89 151.13 -17.67 151.47 -18.4C151.76 -19 152.01 -19.52 152.21 -19.95C152.41 -20.39 152.62 -20.83 152.84 -21.27C153.05 -21.72 153.29 -22.2 153.55 -22.72C153.81 -23.24 154.14 -23.88 154.55 -24.63C154.69 -24.89 154.78 -25.15 154.83 -25.41C154.87 -25.67 154.91 -25.93 154.94 -26.19C154.94 -27.28 154.54 -28.19 153.75 -28.89C152.95 -29.6 152.01 -29.95 150.91 -29.95C150.25 -29.95 149.6 -29.78 148.96 -29.43C148.33 -29.09 147.77 -28.51 147.27 -27.7Z"/></g><g id="SvgjsG5206" class="aX6KN_NDm" transform="translate(-1.4499454768386646, -1.3059359165330215) scale(1.2308538327361185)" light-content="false" fill="url(#SvgjsLinearGradientofpa0fmmTe)"><path d="M45.5 45.5h-.496C27.918 45.5 13.5 32.309 13.5 15.219V13.5h1.839C32.425 13.5 45.5 27.802 45.5 44.892v.608zM16.692 16.572C17.38 31.13 29.097 42.851 43.65 43.539 42.963 28.98 31.247 17.26 16.692 16.572z"/><path d="M24.027 54.907c-8.274 0-16.056-3.226-21.914-9.081l-.935-.934.935-.935c5.858-5.858 13.64-9.085 21.914-9.085s16.055 3.227 21.91 9.085l.936.935-.936.934c-5.854 5.856-13.637 9.081-21.91 9.081zM4.961 44.892c5.232 4.763 11.951 7.373 19.066 7.373s13.833-2.609 19.063-7.373c-5.23-4.767-11.949-7.376-19.063-7.376-7.115 0-13.834 2.609-19.066 7.376z"/><path d="M15.339 75.5H13.5v-.943C13.5 57.471 27.914 43.5 44.994 43.5h1.321l.01 1.167c0 17.085-13.9 30.833-30.986 30.833zM43.65 46.245c-14.558.688-26.27 12.404-26.958 26.958 14.554-.688 26.27-12.404 26.958-26.958z"/><path d="M45.003 88.712l-.934-.935c-12.08-12.083-12.08-31.741 0-43.82l.934-.935.934.935c5.859 5.856 9.086 13.636 9.086 21.91s-3.227 16.055-9.086 21.91l-.934.935zm.001-41.906c-9.805 10.775-9.805 27.345 0 38.123C49.77 79.7 52.38 72.983 52.38 65.867c.001-7.114-2.609-13.832-7.376-19.061z"/><path d="M75.5 75.5h-.828C57.585 75.5 43.5 61.978 43.5 44.892V43.5h1.503C62.096 43.5 75.5 57.471 75.5 74.557v.943zM46.356 46.245c.688 14.554 12.407 26.27 26.963 26.958-.688-14.557-12.406-26.275-26.963-26.958z"/><path d="M65.98 54.5h-.002c-8.27 0-16.051-3.021-21.909-8.877l-.935-.833.935-.883c5.858-5.859 13.642-9.06 21.917-9.06 8.271 0 16.053 3.237 21.908 9.093l.934.941-.934.734C82.036 51.473 74.252 54.5 65.98 54.5zm-19.062-9.608c5.23 4.763 11.949 7.372 19.061 7.372 7.116 0 13.835-2.61 19.067-7.377-5.229-4.764-11.945-7.372-19.06-7.372-7.116 0-13.837 2.61-19.068 7.377z"/><path d="M45.004 45.5H43.5v-.608c0-17.09 14.083-31.392 31.168-31.392h.832v1.719c0 17.09-13.41 30.281-30.496 30.281zm28.311-28.928c-14.555.688-26.27 12.408-26.959 26.967 14.555-.688 26.271-12.409 26.959-26.967z"/><path d="M45.004 46.761l-.934-.935c-12.082-12.086-12.082-31.748 0-43.83l.934-.935.934.935c12.083 12.086 12.083 31.748 0 43.83l-.934.935zm0-41.915c-9.805 10.777-9.805 27.35 0 38.131 9.805-10.777 9.805-27.35 0-38.131z"/><path d="M35.263 47.5h-.003c-13.177 0-24.936-8.193-29.262-20.657l-.434-1.157 1.249-.388a30.93 30.93 0 0 1 10.177-1.703c13.175 0 24.934 8.387 29.262 20.852l.435 1.255-1.25.255C42.14 47.101 38.716 47.5 35.263 47.5zM8.968 27.066C13.262 37.763 23.661 44.5 35.26 44.5h.003c2.711 0 5.401-.03 8.019-.803-4.295-10.699-14.695-17.796-26.292-17.796-2.713 0-5.405.391-8.022 1.165z"/><path d="M18.297 62.5h-.002c-4.696 0-9.237-.819-13.497-2.885l-1.189-.463.576-1.131c5.225-10.789 15.911-17.462 27.89-17.462 4.698 0 9.242 1.062 13.506 3.13l1.188.583-.576.964C40.966 56.024 30.277 62.5 18.297 62.5zM7.181 58.027a28.03 28.03 0 0 0 11.114 2.284c10.507.001 19.928-5.633 24.902-14.793a28.046 28.046 0 0 0-11.123-2.288c-10.504.001-19.921 5.635-24.893 14.797z"/><path d="M25.898 84.326l-.434-1.248c-2.718-7.824-2.229-16.233 1.378-23.678 3.606-7.446 9.902-13.042 17.728-15.757l1.249-.434.433 1.249c2.718 7.822 2.229 16.229-1.377 23.674s-9.903 13.043-17.728 15.76l-1.249.434zM44.17 46.614c-6.57 2.627-11.847 7.535-14.949 13.938-3.101 6.402-3.682 13.586-1.673 20.371 6.57-2.631 11.846-7.539 14.948-13.942 3.101-6.403 3.681-13.585 1.674-20.367z"/><path d="M59.384 86.287l-1.189-.577c-7.456-3.61-13.058-9.903-15.773-17.719-2.715-7.814-2.22-16.225 1.393-23.676l.577-1.188 1.19.576c7.453 3.611 13.054 9.904 15.77 17.719 2.714 7.814 2.22 16.223-1.39 23.676l-.578 1.189zM45.631 46.7c-2.787 6.501-3.048 13.702-.713 20.424 2.334 6.722 7.004 12.212 13.226 15.59 2.784-6.503 3.045-13.704.71-20.425S51.85 50.077 45.631 46.7z"/><path d="M73.019 65.5h-.002c-13.174 0-24.933-8.043-29.261-20.502l-.435-1.084 1.249-.352c3.298-1.148 6.727-1.688 10.185-1.688 13.171 0 24.928 8.394 29.255 20.854l.435 1.26-1.249.111c-3.299 1.144-6.722 1.401-10.177 1.401zM46.727 45.721C51.021 56.414 61.42 63.5 73.017 63.5h.002c2.712 0 5.403-.385 8.021-1.158-4.293-10.695-14.69-17.79-26.284-17.79-2.716 0-5.41.392-8.029 1.169z"/><path d="M57.925 49.192s.001 0 0 0c-4.695-.001-9.235-1.047-13.497-3.11l-1.189-.577.576-1.189C49.04 33.524 59.732 26.82 71.716 26.82c4.696 0 9.237 1.047 13.499 3.111l1.188.576-.576 1.189c-5.228 10.791-15.922 17.496-27.902 17.496zm-11.114-4.928a28.034 28.034 0 0 0 11.114 2.285c10.506 0 19.93-5.637 24.905-14.801a28.016 28.016 0 0 0-11.114-2.284c-10.509-.001-19.932 5.637-24.905 14.8z"/><path d="M44.189 46.573l-.433-1.248C38.15 29.181 46.721 11.487 62.861 5.881l1.248-.434.434 1.249c5.604 16.139-2.966 33.833-19.105 39.443l-1.249.434zm18.272-37.72c-13.522 5.425-20.747 20.34-16.622 34.316 13.52-5.429 20.745-20.345 16.622-34.316z"/><path d="M45.616 46.658l-1.188-.576c-15.38-7.457-21.831-26.031-14.38-41.406l.576-1.189 1.189.576c15.377 7.453 21.827 26.026 14.38 41.405l-.577 1.19zM31.865 7.061c-5.727 13.396-.29 29.053 12.511 36.022 5.725-13.399.287-29.055-12.511-36.022z"/></g></g></svg>